<svg xmlns="http://www.w3.org/2000/svg" width="206" height="24"><g fill="none" fill-rule="evenodd"><path fill="#FFF" fill-rule="nonzero" d="M0 3.4h4.47v15.677h9.683v3.643H0V3.4zm34.146 15.18H25.18l-1.71 4.14h-4.58L27.496 3.4h4.415l8.635 19.32h-4.69l-1.71-4.14zm-1.407-3.395l-3.062-7.397-3.063 7.397h6.125zm26.725 7.535l-3.724-5.382h-4.111v5.382h-4.47V3.4h8.36c1.71 0 3.196.285 4.456.855 1.26.57 2.23 1.38 2.91 2.43.68 1.048 1.021 2.29 1.021 3.725 0 1.436-.345 2.673-1.035 3.713s-1.669 1.835-2.938 2.387l4.332 6.21h-4.8zm-.083-12.31c0-1.085-.35-1.918-1.048-2.498-.699-.58-1.72-.869-3.062-.869h-3.642v6.735h3.642c1.342 0 2.363-.295 3.062-.884.699-.588 1.048-1.416 1.048-2.484zm25.373 8.17h-8.966l-1.71 4.14h-4.58L78.104 3.4h4.415l8.635 19.32h-4.69l-1.71-4.14zm-1.407-3.395l-3.062-7.397-3.063 7.397h6.125zm23.387 7.867c-1.968 0-3.748-.428-5.339-1.284-1.59-.855-2.841-2.042-3.752-3.56-.91-1.518-1.366-3.234-1.366-5.148 0-1.914.456-3.63 1.366-5.148.91-1.518 2.161-2.704 3.752-3.56 1.591-.856 3.38-1.284 5.366-1.284 1.674 0 3.187.295 4.539.884a9.09 9.09 0 013.407 2.539l-2.87 2.65c-1.305-1.51-2.924-2.264-4.855-2.264-1.195 0-2.262.263-3.2.787a5.59 5.59 0 00-2.194 2.194c-.524.939-.786 2.006-.786 3.202 0 1.196.262 2.263.786 3.202a5.59 5.59 0 002.194 2.194c.938.524 2.005.787 3.2.787 1.931 0 3.55-.764 4.856-2.291l2.87 2.65a8.944 8.944 0 01-3.422 2.566c-1.361.59-2.878.884-4.552.884zm47.27 0c-1.527 0-3.003-.207-4.429-.621-1.425-.414-2.57-.953-3.435-1.615l1.518-3.367c.828.607 1.812 1.094 2.952 1.462 1.14.368 2.28.552 3.421.552 1.27 0 2.207-.188 2.814-.565.607-.378.91-.879.91-1.505 0-.46-.179-.841-.537-1.145-.36-.304-.819-.547-1.38-.731a27.449 27.449 0 00-2.276-.608c-1.471-.35-2.676-.699-3.614-1.049a5.872 5.872 0 01-2.414-1.683c-.672-.773-1.007-1.803-1.007-3.091 0-1.123.303-2.14.91-3.05.607-.911 1.522-1.633 2.745-2.167 1.223-.534 2.718-.8 4.484-.8 1.232 0 2.437.147 3.614.441 1.177.295 2.207.718 3.09 1.27l-1.38 3.395c-1.784-1.012-3.568-1.518-5.352-1.518-1.25 0-2.175.202-2.773.607-.598.405-.896.938-.896 1.6 0 .663.344 1.155 1.034 1.477.69.322 1.743.64 3.16.953 1.47.35 2.675.699 3.613 1.048a5.99 5.99 0 012.414 1.656c.672.755 1.007 1.776 1.007 3.064a5.277 5.277 0 01-.924 3.022c-.616.911-1.54 1.634-2.773 2.167-1.232.534-2.73.8-4.497.8zm19.579-16.009h-6.18V3.4h16.83v3.643h-6.18V22.72h-4.47V7.043zm23.855 16.009a15.8 15.8 0 01-4.428-.621c-1.425-.414-2.57-.953-3.435-1.615l1.518-3.367c.827.607 1.811 1.094 2.952 1.462 1.14.368 2.28.552 3.42.552 1.27 0 2.208-.188 2.815-.565.607-.378.91-.879.91-1.505 0-.46-.18-.841-.538-1.145-.358-.304-.818-.547-1.38-.731a27.449 27.449 0 00-2.275-.608c-1.472-.35-2.676-.699-3.614-1.049a5.872 5.872 0 01-2.415-1.683c-.67-.773-1.007-1.803-1.007-3.091 0-1.123.304-2.14.91-3.05.608-.911 1.523-1.633 2.746-2.167 1.223-.534 2.718-.8 4.483-.8 1.233 0 2.437.147 3.614.441 1.178.295 2.208.718 3.09 1.27l-1.379 3.395c-1.784-1.012-3.568-1.518-5.352-1.518-1.251 0-2.175.202-2.773.607-.598.405-.897.938-.897 1.6 0 .663.345 1.155 1.035 1.477.69.322 1.743.64 3.159.953 1.471.35 2.676.699 3.614 1.048a5.99 5.99 0 012.414 1.656c.671.755 1.007 1.776 1.007 3.064a5.277 5.277 0 01-.924 3.022c-.616.911-1.54 1.634-2.773 2.167-1.232.534-2.731.8-4.497.8z"/><g fill="#FFF"><path d="M123.42 6.017l3.147 3.146a1.661 1.661 0 11-2.35 2.35l-3.146-3.146a1.661 1.661 0 112.35-2.35zm6.73 6.729l6.742 6.742a1.661 1.661 0 11-2.35 2.35l-6.742-6.742a1.661 1.661 0 112.35-2.35z"/><path d="M121.823 5.59L139.95.876a1.707 1.707 0 012.076 1.198 1.658 1.658 0 01-1.182 2.046l-18.125 4.715a1.707 1.707 0 01-2.076-1.199 1.658 1.658 0 011.181-2.046z"/><path d="M134.083 20.2l4.715-18.125a1.658 1.658 0 012.046-1.182 1.707 1.707 0 011.198 2.076l-4.714 18.126a1.658 1.658 0 01-2.046 1.18 1.707 1.707 0 01-1.199-2.075z"/></g><path fill="#53B5FF" d="M133.465 11.86l-6.55 6.55a1.69 1.69 0 11-2.39-2.39l6.55-6.549a1.69 1.69 0 012.39 2.39zm-9.75 9.75l-.986.987a1.69 1.69 0 11-2.39-2.39l.986-.986a1.69 1.69 0 012.39 2.39z"/></g></svg>