<svg xmlns="http://www.w3.org/2000/svg" viewBox="0 0 27.9 56.03"><path d="M19.75 49.25a6.55 6.55 0 01-.88 0c-.3 0-.72.07-1 .08-.55 0-1.09.07-1.64.06a26.42 26.42 0 01-4.55-.52 11.69 11.69 0 01-1.44-.37h-.11c-.33-.09-.63-.22-.95-.33s-.63-.24-.93-.37A8.06 8.06 0 017 47.1c-.13-.07-.82-.48-.94-.57s-.92-.69-1.14-.86-.39-.49-.57-.74c-.31-.49-.86-1.44-1.14-2-.11-.21-.18-.43-.27-.64v-.1a3.46 3.46 0 00-.18-.47A24.74 24.74 0 012 35.58a21.8 21.8 0 010-2.29c.09-1.36.09-2.74.12-4.11a14.18 14.18 0 010-1.95c0-.38.1-1.09.1-1.46 0-.68 0-1-.07-1.72v-4.59a12.09 12.09 0 01.07-1.21 7.66 7.66 0 000-1.85 6.94 6.94 0 01-.09-1.72c.09-1 0-2 0-3.09 0-1.65 0-3.11.13-4.76a9.78 9.78 0 00.1-1.42A29.07 29.07 0 012.51 2c0-.51-.24-1.74-.58-1.89s-.44 0-.65 0C.82-.15 0 .6 0 1.29l.07 2.17v2.27c0 .6.2 1.21.17 1.79s.06 1.23 0 1.9a24.73 24.73 0 000 3c0 2.2 0 4.45-.12 6.66-.06 1.4 0 2.83.05 4.21v11.46c0 1 0 1.93.06 2.9C.19 39 .36 40 .5 41.32v.2a7.46 7.46 0 00.6 2 9.68 9.68 0 00.93 1.81c.18.28.36.58.56.85l.65.79A11.4 11.4 0 007 49.55a22.85 22.85 0 008 1.84 37.1 37.1 0 004.38.48 2.47 2.47 0 001.07-.21c.32-.15.42-.11.54-.22a.71.71 0 00.14-.6c-.13-.71-.69-1.66-1.38-1.59z" fill="currentColor"/><path d="M27.9 50.07c-.08-1.47-9.13-5.62-9.72-5s-.29 10.14.55 10.9c.52.49 9.27-4.59 9.17-5.9z" fill="currentColor"/></svg>