<?xml version="1.0" standalone="no"?>
<!DOCTYPE svg PUBLIC "-//W3C//DTD SVG 20010904//EN"
 "http://www.w3.org/TR/2001/REC-SVG-20010904/DTD/svg10.dtd">
<svg version="1.0" xmlns="http://www.w3.org/2000/svg"
 width="300.000000pt" height="325.000000pt" viewBox="0 0 300.000000 325.000000"
 preserveAspectRatio="xMidYMid meet">
<metadata>
Created by potrace 1.10, written by Peter Selinger 2001-2011
</metadata>
<g transform="translate(0.000000,325.000000) scale(0.050000,-0.050000)"
fill="#111827" stroke="none">
<path d="M3122 6177 c-143 -23 -257 -90 -296 -173 -32 -66 -52 -470 -23 -452
39 24 64 -956 38 -1542 l-11 -260 -33 70 c-65 136 -201 221 -417 260 -60 12
-195 49 -300 84 -205 69 -668 95 -782 44 -481 -215 -788 -609 -928 -1189 -128
-532 -59 -956 102 -626 109 222 290 452 598 757 516 510 926 722 1141 589 137
-84 301 -435 225 -481 -12 -8 -17 -33 -10 -57 7 -27 0 -47 -18 -54 -42 -16
-34 -41 17 -54 35 -9 39 -17 20 -36 -14 -14 -25 -51 -25 -84 0 -120 -384 -638
-445 -600 -12 7 -16 4 -9 -7 7 -11 -30 -56 -81 -99 -148 -123 -225 -175 -385
-259 -28 -14 -70 -45 -94 -67 -25 -23 -50 -41 -56 -41 -23 0 -284 -217 -336
-279 -53 -63 -94 -174 -94 -257 0 -26 -8 -41 -18 -36 -31 20 -211 -51 -257
-101 -153 -167 32 -329 247 -217 71 37 101 38 122 5 60 -96 113 -105 576 -100
506 6 501 5 880 212 99 55 218 119 264 144 46 24 161 102 257 172 95 70 193
141 218 157 171 113 381 304 461 420 30 44 61 75 69 71 20 -13 -26 -383 -59
-471 -11 -27 -38 -135 -61 -240 -24 -104 -51 -226 -61 -270 -74 -316 -95 -639
-48 -729 83 -162 394 -166 572 -9 17 15 39 21 48 13 9 -8 11 -5 4 7 -7 12 10
52 37 89 63 85 151 273 304 649 74 181 112 322 167 620 10 55 21 271 23 480 7
575 -19 641 -488 1217 -80 98 -63 113 141 121 247 10 377 -74 712 -458 74 -86
185 -325 198 -428 28 -216 12 -645 -32 -892 -11 -66 -27 -169 -34 -230 -18
-157 -34 -73 -39 200 -5 253 -41 720 -58 748 -6 10 -13 37 -16 61 -22 199
-153 511 -260 618 -72 72 -315 183 -362 165 -38 -15 -34 -51 8 -66 177 -62
345 -167 345 -215 0 -15 7 -31 16 -34 109 -47 243 -714 245 -1223 2 -475 80
-537 304 -240 239 318 345 850 286 1446 -38 382 -148 529 -580 777 -198 113
-241 122 -634 129 l-254 4 6 150 c9 219 -42 801 -89 1020 -23 105 -46 211 -52
238 -5 26 -23 73 -39 104 -16 31 -29 66 -29 78 0 44 -146 335 -244 485 -130
199 -240 231 -594 172z m429 -81 c4 -5 -46 -19 -112 -33 -65 -13 -119 -33
-119 -43 0 -36 101 -44 187 -16 87 29 133 27 133 -5 0 -10 27 -60 59 -111 67
-105 64 -128 -18 -128 -34 0 -62 -13 -70 -33 -21 -56 17 -71 104 -41 l81 28
44 -102 c125 -287 124 -278 28 -260 -67 12 -71 10 -65 -34 6 -42 16 -47 81
-42 70 7 75 3 94 -70 110 -423 151 -1340 71 -1600 -5 -19 -21 -17 -63 5 -62
32 -158 39 -174 12 -10 -15 -132 -13 -142 2 -2 3 4 86 14 185 24 247 30 560
13 680 -8 55 -24 190 -37 300 -29 253 -97 514 -234 910 -42 120 -183 357 -226
380 -74 40 -67 -16 18 -150 28 -44 63 -102 77 -128 40 -74 225 -637 225 -683
0 -23 9 -58 19 -78 11 -20 30 -103 41 -184 12 -81 27 -174 33 -207 29 -162 11
-993 -22 -1026 -4 -4 -73 -16 -154 -27 -180 -25 -338 -97 -414 -189 l-57 -70
-33 106 c-31 100 -33 578 -3 806 12 91 15 916 3 950 -6 17 -15 98 -22 180 -6
83 -18 201 -27 263 -38 256 -5 360 132 421 135 60 486 81 535 32z m-1478
-2012 c109 -33 258 -75 333 -94 162 -42 244 -93 317 -200 77 -112 89 -162 30
-125 -71 47 -317 133 -413 146 -49 6 -124 26 -165 43 -149 63 -615 -138 -876
-377 -28 -26 -108 -96 -179 -157 -120 -102 -193 -176 -298 -300 -27 -32 -38
-37 -30 -15 43 124 -280 -174 -358 -330 l-53 -105 0 70 c-1 274 180 775 371
1025 48 63 88 122 88 131 0 42 190 188 360 276 206 108 546 112 873 12z m2810
-287 c59 -25 110 -52 114 -61 3 -9 14 -16 24 -16 71 0 352 -222 420 -332 232
-375 141 -1356 -166 -1794 -56 -79 -67 -52 -29 71 77 251 103 897 45 1120 -44
169 -190 380 -412 598 -245 240 -302 265 -565 254 l-187 -9 16 91 c10 50 21
103 27 117 17 47 582 17 713 -39z m-2449 -69 c26 -7 39 -23 32 -40 -15 -40
-54 -35 -96 12 -39 43 -22 51 64 28z m245 -107 c25 -16 23 -21 -10 -33 -21 -8
-64 -36 -96 -61 -65 -54 -93 -59 -93 -17 0 17 14 30 30 30 17 0 30 9 30 20 0
11 13 20 28 20 15 0 33 14 39 30 13 34 31 37 72 11z m125 -96 c57 -65 107
-260 99 -386 -3 -45 -11 -51 -78 -50 -41 1 -128 -6 -192 -14 -147 -20 -148 19
-2 56 143 37 209 65 209 89 0 29 -92 25 -156 -7 -93 -47 -164 -58 -164 -25 0
16 20 35 45 43 115 34 259 113 240 132 -14 14 -62 3 -147 -31 -69 -28 -130
-46 -136 -41 -13 13 26 50 60 57 16 3 46 13 68 22 22 9 70 28 106 43 37 14 61
35 54 47 -18 30 -54 25 -158 -21 -140 -62 -157 -35 -32 47 127 83 143 86 184
39z m987 8 c1 -2 43 -57 93 -123 217 -288 279 -421 318 -685 21 -138 31 -165
61 -165 126 0 -48 548 -260 820 -90 115 -97 131 -61 137 59 9 126 -43 222
-172 47 -63 122 -157 168 -209 240 -273 314 -672 238 -1280 -34 -280 -119
-621 -174 -707 -7 -11 -35 -79 -63 -150 -187 -488 -330 -659 -553 -659 -220 0
-254 97 -190 548 6 43 15 84 20 91 4 8 22 81 40 162 18 82 35 163 39 179 159
664 200 1362 101 1695 -18 58 -26 115 -20 125 7 11 4 20 -6 20 -10 0 -29 38
-43 85 -13 47 -50 132 -80 189 -31 57 -51 110 -44 117 10 10 189 -6 194 -18z
m-296 -53 c164 -100 374 -1102 257 -1226 -12 -13 -47 -61 -78 -106 -80 -119
-363 -388 -508 -483 -69 -45 -136 -92 -150 -104 -136 -117 -342 -241 -766
-460 -197 -102 -253 -111 -680 -111 -389 0 -402 1 -463 47 -214 161 -123 549
167 711 20 10 47 30 60 43 13 13 108 77 210 141 364 227 529 363 679 558 25
33 53 63 62 67 8 3 15 18 15 33 0 63 130 42 277 -43 20 -12 -169 -195 -272
-264 -41 -27 -168 -127 -281 -222 -114 -94 -255 -202 -314 -241 -625 -407
-771 -520 -673 -520 38 0 382 218 473 299 22 20 94 66 160 102 66 36 183 116
260 177 76 62 156 126 177 142 21 17 48 39 60 51 89 82 299 227 315 218 10 -7
17 -4 13 6 -6 19 104 158 248 314 132 145 214 317 230 490 7 79 25 151 40 163
15 13 27 31 27 42 0 44 154 152 267 187 111 35 113 35 188 -11z m-664 -599
c-68 -134 -231 -338 -231 -288 0 13 -45 44 -100 69 -55 25 -100 52 -100 60 0
34 42 37 123 9 48 -16 94 -22 102 -14 31 31 -9 83 -62 83 -74 1 -107 26 -91
69 12 31 31 34 128 26 125 -12 193 10 140 45 -16 11 -78 20 -137 20 -154 0
-122 43 41 54 72 4 158 15 189 24 79 22 79 5 -2 -157z m-2187 -86 c-54 -69
-132 -181 -174 -250 -88 -146 -90 -147 -90 -55 0 47 9 70 28 70 16 0 53 43 83
95 47 80 215 265 241 265 5 0 -35 -56 -88 -125z"/>
<path d="M3495 5946 c-70 -18 -39 -66 43 -66 73 0 137 39 108 67 -14 14 -95
14 -151 -1z"/>
<path d="M3690 5580 c-38 -61 47 -78 100 -20 35 39 35 40 -26 40 -34 0 -67 -9
-74 -20z"/>
<path d="M3410 5200 c-7 -11 -3 -68 8 -125 91 -454 96 -495 110 -881 8 -237
14 -268 47 -247 36 22 13 630 -33 863 -82 418 -94 452 -132 390z"/>
<path d="M3863 4879 c5 -36 22 -48 70 -54 120 -13 111 63 -10 87 -61 13 -66
10 -60 -33z"/>
<path d="M3930 4500 c-16 -25 40 -48 80 -33 17 7 30 21 30 32 0 27 -94 27
-110 1z"/>
<path d="M3909 4299 c-18 -29 42 -79 94 -79 41 0 69 37 44 60 -32 32 -122 44
-138 19z"/>
<path d="M3982 4142 c-42 -27 -13 -81 37 -68 55 14 73 46 39 68 -35 22 -41 22
-76 0z"/>
<path d="M3920 3984 c0 -31 48 -64 93 -64 66 0 77 37 17 60 -63 24 -110 26
-110 4z"/>
<path d="M4870 3680 c-16 -26 38 -80 80 -80 48 0 165 -86 222 -163 54 -72 94
-86 104 -35 18 97 -359 355 -406 278z"/>
<path d="M5260 3257 c0 -12 17 -50 38 -85 21 -34 49 -100 61 -147 26 -99 81
-118 81 -27 0 91 -96 282 -141 282 -22 0 -39 -10 -39 -23z"/>
<path d="M4083 815 c-23 -36 -73 -91 -111 -123 -73 -59 -77 -92 -13 -92 47 0
201 167 201 218 0 67 -35 65 -77 -3z"/>
<path d="M3647 589 c-38 -99 151 -185 281 -128 116 52 124 100 14 94 -43 -3
-77 -13 -75 -24 8 -47 -72 -29 -122 27 -61 70 -81 76 -98 31z"/>
<path d="M3354 3230 c-20 -28 -27 -50 -17 -50 10 0 23 -18 29 -40 24 -92 142
-26 130 74 -8 77 -91 87 -142 16z"/>
<path d="M3074 2924 c-50 -55 -23 -124 48 -124 44 0 60 11 70 50 23 92 -57
142 -118 74z"/>
<path d="M3430 2900 c-71 -79 20 -199 108 -142 15 9 28 52 30 95 3 94 -72 120
-138 47z"/>
<path d="M3289 2598 c-24 -76 -305 -392 -439 -495 -33 -25 -123 -106 -201
-179 -172 -164 -225 -208 -330 -275 -102 -64 -83 -133 22 -79 66 35 291 216
349 282 22 25 103 98 181 162 229 189 507 518 509 601 0 42 -76 28 -91 -17z"/>
<path d="M1708 1511 c-18 -45 -1 -95 38 -119 70 -43 114 86 45 133 -34 23 -71
17 -83 -14z"/>
<path d="M1471 1421 c-30 -33 -32 -46 -11 -71 56 -67 153 -7 107 67 -30 47
-56 48 -96 4z"/>
<path d="M1258 1335 c-11 -116 57 -179 102 -95 15 28 15 52 0 80 -23 44 -99
55 -102 15z"/>
<path d="M1911 1281 c-39 -75 -39 -75 10 -102 31 -16 49 -16 70 2 39 32 37
132 -3 147 -45 17 -44 18 -77 -47z"/>
<path d="M1500 1161 c0 -52 7 -61 51 -61 71 0 65 106 -6 116 -38 6 -45 -2 -45
-55z"/>
<path d="M4987 4974 c7 -28 5 -54 -5 -57 -10 -4 -5 -19 10 -33 24 -21 28 -16
28 35 0 34 1 68 2 76 0 7 -10 18 -23 22 -17 6 -21 -7 -12 -43z"/>
</g>
</svg>
