<?xml version="1.0" standalone="no"?>
<!DOCTYPE svg PUBLIC "-//W3C//DTD SVG 20010904//EN"
 "http://www.w3.org/TR/2001/REC-SVG-20010904/DTD/svg10.dtd">
<svg version="1.0" xmlns="http://www.w3.org/2000/svg"
 width="180.000000pt" height="197.000000pt" viewBox="0 0 180.000000 197.000000"
 preserveAspectRatio="xMidYMid meet">
<metadata>
Created by potrace 1.10, written by Peter Selinger 2001-2011
</metadata>
<g transform="translate(0.000000,197.000000) scale(0.050000,-0.050000)"
fill="#111827" stroke="none">
<path d="M1967 3373 c-12 -14 -37 -147 -56 -295 -48 -394 -128 -840 -156 -876
-221 -282 -634 -426 -1119 -390 -122 9 -136 6 -157 -34 -49 -91 88 -133 485
-148 610 -24 689 -47 806 -231 94 -148 216 -650 217 -895 0 -41 6 -56 16 -40
10 16 17 -2 17 -47 0 -83 29 -102 122 -84 79 16 74 -12 85 485 6 235 17 433
26 440 10 7 18 67 19 135 2 140 83 296 180 348 28 15 64 53 80 83 16 31 42 56
59 56 16 0 29 7 29 16 0 9 52 33 115 53 263 83 353 145 332 227 -18 67 -83 65
-295 -8 -362 -125 -587 -59 -651 192 -39 149 -42 192 -47 640 -4 373 -6 390
-44 395 -22 2 -50 -7 -63 -22z m93 -1334 c0 -8 37 -43 82 -76 92 -67 168 -159
116 -139 -27 10 -131 -108 -127 -143 1 -6 -11 -24 -27 -40 -25 -25 -24 -30 7
-41 27 -10 30 -17 11 -29 -13 -8 -30 -9 -37 -3 -7 7 -24 -15 -38 -48 l-26 -62
-160 166 c-188 194 -181 171 -86 270 41 43 100 111 131 152 53 71 154 67 154
-7z"/>
</g>
</svg>
