<?xml version="1.0" standalone="no"?>
<!DOCTYPE svg PUBLIC "-//W3C//DTD SVG 20010904//EN"
 "http://www.w3.org/TR/2001/REC-SVG-20010904/DTD/svg10.dtd">
<svg version="1.0" xmlns="http://www.w3.org/2000/svg"
 width="86.000000pt" height="91.000000pt" viewBox="0 0 86.000000 91.000000"
 preserveAspectRatio="xMidYMid meet">
<metadata>
Created by potrace 1.10, written by Peter Selinger 2001-2011
</metadata>
<g transform="translate(0.000000,91.000000) scale(0.050000,-0.050000)"
fill="#111827" stroke="none">
<path d="M448 1505 c-23 -15 -42 -153 -59 -425 -5 -82 -18 -199 -28 -260 -10
-60 -25 -170 -32 -244 -11 -111 -22 -140 -63 -170 -86 -62 -103 -84 -93 -123
12 -45 95 -52 129 -10 13 15 38 27 56 27 18 0 55 16 83 35 69 49 248 112 619
219 61 17 119 38 130 46 11 8 44 20 73 27 120 29 201 146 165 240 -13 35 -215
193 -246 193 -11 0 -41 20 -67 45 -26 25 -74 60 -106 79 -118 70 -124 74 -319
246 -92 81 -188 111 -242 75z m338 -320 c35 -24 75 -53 88 -65 13 -11 29 -20
35 -20 5 0 58 -36 116 -80 58 -44 116 -80 130 -80 14 0 25 -7 25 -15 0 -8 27
-33 60 -55 34 -22 58 -53 55 -68 -6 -35 -304 -146 -565 -211 -11 -3 -33 -10
-50 -16 -228 -84 -249 -82 -223 18 17 65 56 415 74 667 3 39 6 76 7 84 1 8 43
-14 93 -50 50 -35 119 -84 155 -109z"/>
</g>
</svg>
