<?xml version="1.0" standalone="no"?>
<!DOCTYPE svg PUBLIC "-//W3C//DTD SVG 20010904//EN"
 "http://www.w3.org/TR/2001/REC-SVG-20010904/DTD/svg10.dtd">
<svg version="1.0" xmlns="http://www.w3.org/2000/svg"
 width="90.000000pt" height="94.000000pt" viewBox="0 0 90.000000 94.000000"
 preserveAspectRatio="xMidYMid meet">
<metadata>
Created by potrace 1.10, written by Peter Selinger 2001-2011
</metadata>
<g transform="translate(0.000000,94.000000) scale(0.050000,-0.050000)"
fill="#111827" stroke="none">
<path d="M704 1709 c-21 -23 -18 -43 14 -109 37 -77 37 -80 1 -80 -20 0 -42
-9 -49 -20 -21 -33 -47 -4 -92 101 -34 79 -53 99 -90 99 -58 0 -64 -62 -19
-172 29 -67 -17 -128 -72 -96 -25 15 -60 -51 -47 -91 7 -23 15 -138 17 -256 3
-127 18 -260 38 -325 57 -194 100 -309 128 -342 15 -17 27 -41 27 -54 0 -30
66 -64 125 -64 49 0 194 139 196 187 0 12 12 8 26 -11 15 -19 50 -44 80 -55
63 -24 77 68 25 169 -26 49 -25 61 10 117 21 35 44 79 51 98 17 51 42 43 56
-20 17 -72 90 -160 141 -168 51 -9 67 90 23 140 -16 18 -36 58 -44 88 -7 30
-20 55 -29 55 -23 0 -42 123 -22 148 9 12 24 51 31 86 8 35 30 98 50 140 20
42 43 108 51 146 7 39 27 91 43 116 50 79 4 111 -132 93 -61 -8 -133 -17 -161
-20 -27 -3 -81 -15 -120 -27 -38 -12 -72 -22 -74 -22 -2 0 -28 41 -57 90 -55
95 -82 107 -125 59z m493 -293 c-11 -47 -27 -94 -36 -105 -9 -12 -23 -50 -30
-86 -21 -99 -62 -69 -102 73 -8 27 -31 67 -51 89 -47 50 -48 64 -3 67 19 2 67
12 105 23 132 36 138 33 117 -61z m-305 -150 c33 -68 70 -135 82 -150 43 -56
45 -126 4 -211 -57 -116 -62 -112 -149 110 -42 107 -82 200 -89 205 -44 37
-54 158 -13 166 83 17 104 2 165 -120z m-312 24 c0 -17 9 -46 19 -65 27 -49
71 -156 117 -285 22 -60 56 -152 76 -204 38 -99 39 -90 -42 -239 -28 -53 -74
-64 -99 -23 -40 69 -105 256 -96 281 4 14 0 25 -9 25 -37 0 -71 236 -57 390
12 130 20 150 53 150 21 0 38 -14 38 -30z"/>
</g>
</svg>
