<?xml version="1.0" standalone="no"?>
<!DOCTYPE svg PUBLIC "-//W3C//DTD SVG 20010904//EN"
 "http://www.w3.org/TR/2001/REC-SVG-20010904/DTD/svg10.dtd">
<svg version="1.0" xmlns="http://www.w3.org/2000/svg"
 width="104.000000pt" height="144.000000pt" viewBox="0 0 104.000000 144.000000"
 preserveAspectRatio="xMidYMid meet">
<metadata>
Created by potrace 1.10, written by Peter Selinger 2001-2011
</metadata>
<g transform="translate(0.000000,144.000000) scale(0.050000,-0.050000)"
fill="#111827" stroke="none">
<path d="M803 2279 c-272 -146 -372 -315 -373 -630 0 -161 7 -212 36 -256 36
-54 35 -57 -15 -158 -28 -57 -51 -119 -51 -139 0 -20 -7 -36 -15 -36 -26 0
-15 -327 12 -336 12 -4 23 -20 23 -36 0 -27 118 -157 213 -236 114 -93 585
-74 677 28 20 22 44 40 54 40 27 0 144 129 176 194 68 139 79 201 75 430 -2
129 3 241 11 248 8 8 14 30 14 50 0 19 9 38 21 42 26 8 58 140 59 239 0 41 11
78 25 84 18 7 19 10 1 11 -13 1 -30 36 -38 77 -43 240 -261 420 -524 433 -85
4 -172 12 -194 18 -25 7 -94 -17 -187 -67z m604 -160 c62 -45 113 -91 113
-104 0 -12 16 -39 35 -61 62 -68 47 -316 -27 -450 -2 -3 -47 21 -100 55 -53
34 -106 61 -119 61 -13 0 -35 14 -49 30 -32 38 -216 39 -266 1 -20 -15 -53
-22 -75 -17 -21 6 -39 1 -39 -12 0 -12 -15 -22 -33 -22 -37 0 -156 -68 -220
-125 l-44 -39 -19 68 c-71 257 120 658 300 632 38 -6 105 5 156 25 159 62 257
51 387 -42z m-127 -625 c139 -69 162 -104 106 -165 -72 -78 -370 -164 -489
-142 -143 27 -303 193 -186 193 15 0 34 12 43 26 20 33 165 102 181 86 6 -6
23 -2 37 10 25 20 119 54 158 56 11 0 78 -29 150 -64z m214 -447 c-6 -106 -19
-198 -29 -205 -11 -6 -35 -46 -54 -87 -20 -41 -49 -75 -64 -75 -16 0 -24 -9
-17 -20 7 -11 2 -20 -11 -20 -13 0 -58 -27 -100 -61 -134 -106 -445 -84 -590
42 -135 116 -167 322 -82 525 l31 74 116 -81 c175 -121 348 -121 612 -1 50 23
105 42 121 42 16 0 34 14 40 30 28 73 37 16 27 -163z"/>
</g>
</svg>
