<?xml version="1.0" standalone="no"?>
<!DOCTYPE svg PUBLIC "-//W3C//DTD SVG 20010904//EN"
 "http://www.w3.org/TR/2001/REC-SVG-20010904/DTD/svg10.dtd">
<svg version="1.0" xmlns="http://www.w3.org/2000/svg"
 width="136.000000pt" height="135.000000pt" viewBox="0 0 136.000000 135.000000"
 preserveAspectRatio="xMidYMid meet">
<metadata>
Created by potrace 1.10, written by Peter Selinger 2001-2011
</metadata>
<g transform="translate(0.000000,135.000000) scale(0.050000,-0.050000)"
fill="#111827" stroke="none">
<path d="M1725 2336 c-25 -12 -45 -34 -45 -49 0 -15 -9 -27 -20 -27 -11 0 -20
-10 -20 -22 0 -22 -20 -50 -161 -228 -43 -54 -79 -111 -79 -125 0 -14 -9 -25
-21 -25 -11 0 -26 -16 -33 -35 -7 -19 -36 -63 -64 -97 -29 -34 -69 -86 -90
-115 -41 -57 -109 -68 -201 -33 -106 40 -313 44 -354 8 -71 -65 2 -280 130
-385 46 -39 41 -76 -17 -127 -27 -24 -50 -55 -50 -70 0 -14 -9 -26 -20 -26
-50 0 -201 -249 -189 -310 29 -141 135 -139 437 11 285 142 411 110 380 -95
-8 -57 -4 -97 12 -116 26 -31 99 -42 101 -15 15 143 79 408 106 435 31 31 142
57 381 88 154 20 233 130 132 184 -58 30 -251 113 -295 127 -77 23 -86 70 -41
222 22 76 52 202 68 279 15 77 37 176 50 220 73 256 34 389 -97 326z m-68
-491 c-21 -107 -46 -209 -56 -227 -10 -18 -24 -74 -32 -126 -11 -77 -20 -92
-46 -81 -18 7 -63 22 -101 33 -134 39 -140 96 -22 222 33 35 60 74 60 86 0 12
17 38 39 57 21 19 68 82 105 141 89 143 98 126 53 -105z m-770 -386 c10 -9 30
-11 44 -6 14 6 50 -3 80 -19 l55 -28 -81 -84 -81 -83 -57 69 c-31 38 -74 97
-94 132 l-37 63 77 -14 c42 -8 85 -21 94 -30z m464 -121 c45 -21 92 -38 104
-38 31 0 52 -77 29 -106 -10 -13 -24 -49 -31 -78 -22 -93 -253 -230 -253 -151
0 12 -5 17 -10 11 -15 -14 -170 143 -170 172 0 22 62 105 143 193 19 19 29 40
23 46 -19 19 84 -11 165 -49z m355 -163 c29 -14 54 -32 54 -40 0 -8 19 -15 41
-15 23 0 36 -9 29 -20 -7 -11 -32 -18 -56 -17 -24 2 -78 -4 -119 -12 -81 -17
-88 -7 -55 78 22 58 31 61 106 26z m-672 -247 l44 -44 -52 -13 c-29 -8 -74
-30 -100 -51 -26 -20 -77 -43 -112 -51 -35 -7 -77 -25 -94 -38 -37 -31 -100
-54 -100 -37 0 15 97 148 128 176 13 11 39 45 58 76 20 30 43 51 53 45 9 -6
22 4 29 22 14 35 40 20 146 -85z"/>
</g>
</svg>
