<?xml version="1.0" standalone="no"?>
<!DOCTYPE svg PUBLIC "-//W3C//DTD SVG 20010904//EN"
 "http://www.w3.org/TR/2001/REC-SVG-20010904/DTD/svg10.dtd">
<svg version="1.0" xmlns="http://www.w3.org/2000/svg"
 width="211.000000pt" height="215.000000pt" viewBox="0 0 211.000000 215.000000"
 preserveAspectRatio="xMidYMid meet">
<metadata>
Created by potrace 1.10, written by Peter Selinger 2001-2011
</metadata>
<g transform="translate(0.000000,215.000000) scale(0.050000,-0.050000)"
fill="#111827" stroke="none">
<path d="M2493 3586 c-4 -4 -110 -16 -235 -28 -193 -18 -349 -42 -568 -89 -22
-5 -69 -14 -105 -21 -36 -7 -70 -21 -76 -30 -6 -10 -31 -18 -55 -18 -25 0 -76
-17 -114 -37 -39 -21 -101 -44 -140 -52 -38 -8 -92 -30 -120 -47 -27 -18 -54
-34 -60 -35 -46 -11 -101 -36 -233 -111 -38 -21 -80 -38 -95 -38 -15 0 -33
-13 -39 -30 -7 -16 -25 -30 -41 -30 -219 0 -394 -553 -233 -738 102 -119 541
-216 541 -120 0 10 18 18 40 18 22 0 40 9 40 20 0 11 13 20 29 20 15 0 79 49
140 110 62 61 123 110 136 111 14 0 79 27 144 60 76 37 151 59 204 59 47 0 90
8 96 18 20 34 260 61 531 61 149 0 292 1 318 1 26 0 60 -10 75 -22 17 -15 27
-15 27 -2 0 11 18 16 40 10 22 -6 40 -19 40 -29 0 -10 25 -29 55 -42 60 -27
143 -112 144 -148 1 -12 13 -32 28 -45 65 -53 41 -292 -47 -474 -109 -225
-211 -325 -489 -478 -261 -144 -310 -177 -322 -212 -6 -19 -33 -49 -60 -67
-27 -17 -49 -41 -49 -53 0 -11 -18 -60 -40 -109 -99 -216 -21 -476 167 -558
88 -38 433 -61 433 -28 0 9 13 17 28 17 62 0 187 75 275 165 51 52 103 95 116
95 13 0 18 8 12 19 -6 10 4 23 24 30 19 6 70 43 112 81 43 39 84 70 93 70 21
0 344 319 374 370 184 308 256 630 218 985 -9 79 -16 149 -15 154 0 6 -21 66
-48 134 -27 69 -49 145 -49 169 0 25 -14 59 -31 76 -16 17 -43 67 -59 113 -16
45 -57 123 -90 172 -33 49 -60 93 -60 98 0 5 -16 25 -35 46 -19 20 -53 59 -75
88 -39 50 -290 215 -328 215 -10 0 -22 7 -25 16 -17 40 -512 122 -544 90z
m342 -159 c69 -15 159 -47 200 -71 41 -23 100 -55 130 -71 64 -33 269 -270
319 -368 88 -176 192 -442 200 -508 3 -33 15 -65 25 -73 84 -60 4 -676 -117
-906 -18 -33 -32 -69 -32 -80 -1 -41 -464 -490 -506 -490 -2 0 -5 56 -6 125
-2 154 -68 315 -128 315 -22 0 -40 7 -40 15 0 21 -100 65 -149 66 -36 0 -33 6
19 44 107 79 274 273 283 329 2 16 18 40 34 53 72 55 123 420 75 539 -12 31
-22 69 -22 84 0 48 -180 226 -282 279 -114 60 -954 72 -1023 15 -17 -14 -63
-29 -102 -34 -131 -17 -256 -51 -339 -91 -45 -21 -82 -39 -83 -39 0 0 -1 56
-1 125 -1 234 -156 371 -371 328 -32 -7 -59 -5 -59 3 0 18 124 95 144 89 8 -2
60 19 115 47 56 28 118 54 137 57 20 4 72 23 115 41 114 49 155 60 569 147 50
10 184 24 298 31 115 7 214 17 220 23 19 19 249 5 377 -24z m-2035 -495 c0
-39 51 -54 139 -40 105 17 179 -26 213 -124 27 -78 19 -199 -15 -220 -10 -6
-12 -19 -6 -30 6 -10 -18 -51 -55 -90 -255 -275 -713 -166 -649 154 20 99 98
240 151 274 29 18 57 38 62 44 10 11 118 54 145 58 8 1 15 -11 15 -26z m2025
-1725 c41 -26 75 -61 75 -78 0 -17 9 -26 20 -19 26 16 25 -65 -2 -222 -23
-135 -69 -202 -169 -250 -35 -17 -62 -47 -65 -73 -4 -28 -21 -45 -44 -45 -21
0 -43 -9 -50 -20 -7 -11 -89 -20 -182 -20 l-169 0 -85 87 c-69 72 -85 102 -89
175 -6 87 44 238 78 238 21 0 157 137 157 157 0 13 65 49 180 99 117 52 235
42 345 -29z"/>
</g>
</svg>
