<?xml version="1.0" standalone="no"?>
<!DOCTYPE svg PUBLIC "-//W3C//DTD SVG 20010904//EN"
 "http://www.w3.org/TR/2001/REC-SVG-20010904/DTD/svg10.dtd">
<svg version="1.0" xmlns="http://www.w3.org/2000/svg"
 width="118.000000pt" height="131.000000pt" viewBox="0 0 118.000000 131.000000"
 preserveAspectRatio="xMidYMid meet">
<metadata>
Created by potrace 1.10, written by Peter Selinger 2001-2011
</metadata>
<g transform="translate(0.000000,131.000000) scale(0.050000,-0.050000)"
fill="#111827" stroke="none">
<path d="M985 2375 c-36 -11 -65 -28 -65 -38 0 -9 -10 -17 -23 -17 -34 0 -167
-146 -225 -245 -67 -116 -99 -300 -87 -502 l10 -169 -63 -10 c-270 -44 -443
-217 -287 -288 72 -33 367 -304 508 -466 222 -256 447 -418 517 -372 61 40 57
16 59 382 1 299 18 361 76 281 10 -14 20 -14 30 -1 8 12 60 32 115 46 165 42
470 273 470 356 0 15 8 28 18 28 90 0 105 536 17 630 -30 33 -55 67 -55 77 0
23 -85 92 -115 92 -14 1 -25 8 -25 17 0 30 -231 128 -311 133 -44 2 -99 6
-124 8 -25 2 -45 15 -45 31 0 53 -259 71 -395 27z m-16 -180 c-5 -14 13 -35
40 -48 32 -15 52 -15 56 -2 4 11 44 23 90 26 46 3 91 11 101 16 34 21 430 -30
459 -59 16 -16 55 -42 86 -58 190 -99 263 -506 120 -675 -170 -199 -379 -321
-533 -311 l-98 6 -17 160 c-24 223 -75 327 -123 250 -16 -26 -50 -26 -50 0 0
10 25 25 55 33 67 16 126 80 112 119 -17 44 -93 33 -210 -28 -59 -32 -125 -66
-147 -78 -90 -47 -190 -84 -191 -71 0 8 -8 54 -17 101 -19 97 20 348 56 360
12 4 22 24 22 44 0 19 41 82 92 138 94 105 114 120 97 77z m-178 -1002 c72
-59 188 -133 259 -164 161 -70 155 -49 148 -574 -1 -65 -37 -36 -363 290 -179
179 -360 354 -403 389 l-78 64 48 18 c70 27 225 79 244 82 8 1 74 -46 145
-105z"/>
</g>
</svg>
