<?xml version="1.0" standalone="no"?>
<!DOCTYPE svg PUBLIC "-//W3C//DTD SVG 20010904//EN"
 "http://www.w3.org/TR/2001/REC-SVG-20010904/DTD/svg10.dtd">
<svg version="1.0" xmlns="http://www.w3.org/2000/svg"
 width="154.000000pt" height="140.000000pt" viewBox="0 0 154.000000 140.000000"
 preserveAspectRatio="xMidYMid meet">
<metadata>
Created by potrace 1.10, written by Peter Selinger 2001-2011
</metadata>
<g transform="translate(0.000000,140.000000) scale(0.050000,-0.050000)"
fill="#ffffff" stroke="none">
<path d="M683 2322 c-33 -21 9 -144 141 -420 46 -95 81 -179 79 -187 -1 -8 6
-15 17 -15 11 0 20 -17 20 -37 0 -21 17 -59 37 -85 21 -27 44 -70 53 -98 8
-27 25 -63 37 -80 110 -145 104 -160 -147 -425 -167 -177 -184 -226 -78 -232
63 -4 82 5 111 49 184 281 620 393 834 215 31 -26 64 -47 73 -47 26 0 304
-282 360 -365 58 -87 89 -103 141 -74 50 26 50 83 -1 129 -22 20 -40 48 -40
61 0 14 -7 29 -16 32 -19 8 -144 188 -144 208 0 7 -12 41 -28 76 -129 295
-138 373 -69 589 23 74 73 187 111 252 145 251 -8 238 -264 -23 -25 -25 -51
-45 -59 -45 -7 0 -46 -25 -86 -55 -151 -115 -406 -74 -586 94 -48 45 -94 81
-103 81 -9 0 -16 10 -16 22 0 11 -36 59 -81 105 -44 45 -98 101 -120 124 -21
22 -39 51 -39 65 0 60 -90 116 -137 86z m1094 -903 c-5 -125 5 -120 -187 -95
-242 30 -250 33 -271 89 -26 69 -23 70 91 36 118 -35 281 -19 328 32 45 50 44
50 39 -62z"/>
</g>
</svg>
