<?xml version="1.0" standalone="no"?>
<!DOCTYPE svg PUBLIC "-//W3C//DTD SVG 20010904//EN"
 "http://www.w3.org/TR/2001/REC-SVG-20010904/DTD/svg10.dtd">
<svg version="1.0" xmlns="http://www.w3.org/2000/svg"
 width="156.000000pt" height="128.000000pt" viewBox="0 0 156.000000 128.000000"
 preserveAspectRatio="xMidYMid meet">
<metadata>
Created by potrace 1.10, written by Peter Selinger 2001-2011
</metadata>
<g transform="translate(0.000000,128.000000) scale(0.050000,-0.050000)"
fill="#111827" stroke="none">
<path d="M1710 2120 c-7 -11 -5 -20 4 -20 9 0 7 -7 -4 -15 -24 -18 -99 -190
-156 -360 l-42 -125 -266 9 c-147 5 -273 13 -282 18 -8 5 -73 15 -144 22 -72
7 -176 22 -233 34 -123 27 -198 12 -213 -42 -16 -64 100 -116 406 -180 144
-29 495 -147 539 -180 l45 -34 -77 -274 c-52 -184 -87 -276 -109 -283 -81 -27
-89 -157 -12 -177 43 -12 214 139 214 188 0 10 9 19 21 19 11 0 45 23 75 50
29 28 65 50 79 50 14 0 25 8 25 18 0 43 181 126 216 99 65 -50 404 -397 404
-413 0 -79 211 -173 259 -115 26 31 -41 269 -93 333 -14 17 -26 43 -26 57 0
14 -15 58 -33 98 -18 40 -50 114 -71 163 -21 50 -48 106 -58 126 -22 41 21 86
142 148 262 134 247 246 -32 246 -77 0 -106 7 -96 23 9 15 4 16 -20 3 -43 -24
-152 -9 -153 21 -4 61 -22 122 -42 146 -16 20 -15 27 6 27 18 1 20 5 5 15 -12
8 -42 74 -66 145 -54 160 -162 241 -212 160z m134 -302 c10 -7 19 -41 20 -76
1 -35 10 -68 19 -74 59 -36 10 -68 -103 -68 -138 0 -150 21 -81 154 21 42 49
103 62 136 l24 60 20 -60 c12 -33 29 -65 39 -72z m-404 -380 c0 -55 -33 -63
-104 -26 -36 19 -88 41 -116 50 -34 11 -8 15 85 14 115 -2 135 -7 135 -38z
m500 15 c0 -16 8 -33 17 -36 49 -20 42 -115 -12 -155 -175 -132 -176 -132
-251 -62 -35 33 -84 66 -109 73 -52 13 -53 21 -21 124 l23 76 177 5 c145 4
176 -1 176 -25z m278 -29 c-38 -18 -74 -41 -82 -53 -17 -25 -27 -14 -42 49
-12 49 -10 50 90 43 l101 -7 -67 -32z m-643 -294 c76 -47 82 -80 20 -112 -25
-13 -52 -35 -60 -49 -8 -14 -45 -43 -82 -65 l-68 -40 52 158 c28 87 56 156 62
153 6 -3 40 -24 76 -45z m523 -75 c27 -69 54 -129 60 -135 7 -5 26 -50 44
-100 18 -49 40 -108 48 -130 9 -22 -23 5 -72 60 -48 54 -135 145 -193 201
l-104 102 74 63 c97 80 88 84 143 -61z"/>
</g>
</svg>
