<?xml version="1.0" standalone="no"?>
<!DOCTYPE svg PUBLIC "-//W3C//DTD SVG 20010904//EN"
 "http://www.w3.org/TR/2001/REC-SVG-20010904/DTD/svg10.dtd">
<svg version="1.0" xmlns="http://www.w3.org/2000/svg"
 width="100.000000pt" height="90.000000pt" viewBox="0 0 100.000000 90.000000"
 preserveAspectRatio="xMidYMid meet">
<metadata>
Created by potrace 1.10, written by Peter Selinger 2001-2011
</metadata>
<g transform="translate(0.000000,90.000000) scale(0.050000,-0.050000)"
fill="#111827" stroke="none">
<path d="M581 1525 c-49 -17 -112 -52 -140 -78 -28 -26 -56 -47 -62 -47 -26 0
-101 -183 -96 -235 3 -30 -2 -124 -11 -208 -24 -227 101 -531 250 -608 33 -17
54 -39 48 -50 -7 -10 2 -13 20 -6 17 6 50 -5 73 -26 121 -109 736 3 791 145 5
15 21 28 35 28 32 0 158 136 196 212 81 160 29 459 -105 606 -44 48 -80 93
-81 100 -1 26 -214 139 -322 170 -148 42 -474 41 -596 -3z m525 -105 c334 -85
545 -375 475 -652 -23 -95 -234 -327 -296 -328 -44 0 -54 -4 -105 -40 -61 -43
-300 -76 -300 -41 0 13 -9 18 -21 11 -54 -34 -178 16 -282 111 -59 54 -100 99
-91 99 8 0 -2 19 -23 41 -111 120 -71 613 59 723 102 86 394 124 584 76z"/>
</g>
</svg>
