<?xml version="1.0" standalone="no"?>
<!DOCTYPE svg PUBLIC "-//W3C//DTD SVG 20010904//EN"
 "http://www.w3.org/TR/2001/REC-SVG-20010904/DTD/svg10.dtd">
<svg version="1.0" xmlns="http://www.w3.org/2000/svg"
 width="93.000000pt" height="168.000000pt" viewBox="0 0 93.000000 168.000000"
 preserveAspectRatio="xMidYMid meet">
<metadata>
Created by potrace 1.10, written by Peter Selinger 2001-2011
</metadata>
<g transform="translate(0.000000,168.000000) scale(0.050000,-0.050000)"
fill="#111827" stroke="none">
<path d="M801 2975 c-23 -58 -83 -387 -91 -505 -4 -49 -17 -119 -28 -155 -11
-36 -39 -186 -62 -335 -55 -356 -48 -344 -246 -388 -229 -49 -229 -49 -239
-88 -13 -50 29 -81 129 -95 224 -32 450 -181 461 -304 2 -30 4 -211 5 -403 0
-379 7 -402 114 -375 66 16 91 83 107 283 7 88 24 196 38 240 14 44 27 134 29
199 10 290 162 521 395 601 123 42 154 86 100 140 -34 34 -105 40 -123 10 -23
-37 -201 -23 -255 20 -53 42 -123 218 -118 298 2 26 -7 60 -19 74 -12 14 -17
33 -12 42 6 9 3 55 -5 101 -9 47 -9 85 0 85 8 0 3 47 -11 105 -15 58 -30 184
-35 282 -5 124 -16 181 -36 194 -47 30 -79 22 -98 -26z m134 -1250 c56 -79 57
-68 -18 -219 -63 -125 -83 -145 -107 -106 -7 11 -28 20 -47 20 -46 0 -54 107
-13 166 16 23 30 62 30 85 0 24 14 71 31 106 35 69 40 67 124 -52z"/>
</g>
</svg>
