<?xml version="1.0" standalone="no"?>
<!DOCTYPE svg PUBLIC "-//W3C//DTD SVG 20010904//EN"
 "http://www.w3.org/TR/2001/REC-SVG-20010904/DTD/svg10.dtd">
<svg version="1.0" xmlns="http://www.w3.org/2000/svg"
 width="175.000000pt" height="300.000000pt" viewBox="0 0 175.000000 300.000000"
 preserveAspectRatio="xMidYMid meet">
<metadata>
Created by potrace 1.10, written by Peter Selinger 2001-2011
</metadata>
<g transform="translate(0.000000,300.000000) scale(0.050000,-0.050000)"
fill="#111827" stroke="none">
<path d="M2201 5611 c-37 -38 -75 -65 -85 -59 -9 6 -15 4 -12 -6 3 -9 -17 -39
-44 -68 -28 -28 -120 -124 -205 -213 -85 -88 -155 -170 -155 -183 0 -12 -11
-22 -24 -22 -28 0 -522 -497 -652 -656 -51 -63 -120 -141 -153 -175 -34 -34
-83 -91 -111 -127 -27 -36 -70 -89 -95 -119 -85 -100 -204 -273 -257 -373 -30
-55 -75 -128 -101 -162 -89 -117 -22 -163 189 -130 74 12 233 26 354 31 369
18 566 45 710 99 56 21 89 -18 51 -61 -104 -116 -170 -199 -171 -213 0 -21
-216 -354 -307 -474 -37 -49 -82 -118 -99 -151 -17 -34 -45 -73 -61 -87 -17
-14 -36 -52 -44 -85 -7 -33 -25 -65 -41 -70 -15 -6 -28 -25 -28 -41 0 -17 -33
-90 -73 -163 -40 -73 -80 -146 -89 -163 -9 -16 -35 -102 -59 -190 l-42 -160
46 -37 c56 -45 370 -29 545 28 32 11 88 19 124 19 36 0 71 9 78 20 7 11 26 20
42 20 22 0 17 -20 -21 -85 -96 -161 -201 -401 -301 -685 -19 -55 -57 -158 -85
-230 -176 -459 -21 -568 243 -170 88 132 141 202 254 331 60 67 116 137 127
155 10 19 36 52 57 74 21 22 80 99 131 170 51 72 99 133 108 137 8 3 15 14 15
23 0 9 20 41 45 70 107 129 239 283 273 320 33 36 73 93 186 268 18 28 42 62
53 74 10 12 32 48 49 80 17 32 49 77 71 101 22 23 37 46 33 51 -5 4 18 39 51
77 32 38 79 110 104 159 25 50 53 96 63 103 30 22 24 177 -8 198 -48 30 -334
22 -453 -13 -142 -41 -143 -38 -48 114 81 132 181 329 181 360 0 10 9 18 20
18 11 0 20 14 20 31 0 17 30 78 68 137 37 58 74 126 82 151 8 25 36 77 62 116
26 39 59 105 71 148 13 42 31 77 40 77 9 0 17 12 17 27 0 15 31 90 69 165 167
335 190 449 106 533 -72 72 -266 62 -433 -21 -71 -35 -133 -59 -139 -54 -16
16 172 240 197 235 13 -4 18 3 11 13 -6 11 16 60 50 111 229 339 224 430 -31
531 -66 26 -160 68 -208 94 -140 73 -276 65 -361 -23z m368 -109 c68 -32 161
-69 207 -81 103 -28 106 -58 24 -188 -33 -52 -60 -100 -60 -107 0 -7 -22 -42
-50 -78 -27 -36 -50 -75 -50 -87 0 -11 -9 -21 -19 -21 -11 0 -53 -52 -93 -115
-41 -63 -103 -151 -138 -195 -126 -158 -101 -266 44 -185 24 14 78 44 120 67
42 24 111 62 153 86 210 118 408 63 327 -92 -16 -31 -56 -114 -90 -186 -33
-71 -82 -174 -107 -227 -26 -54 -56 -117 -67 -140 -11 -23 -55 -109 -98 -192
-43 -83 -150 -290 -237 -461 -87 -170 -171 -324 -187 -342 -15 -17 -28 -40
-28 -50 0 -10 -22 -42 -49 -71 -110 -119 -59 -266 63 -183 133 92 482 161 558
111 25 -17 -99 -237 -183 -326 -27 -28 -49 -61 -49 -74 0 -12 -12 -34 -26 -49
-44 -45 -154 -212 -154 -235 0 -11 -9 -21 -20 -21 -11 0 -20 -13 -20 -30 0
-16 -7 -30 -16 -30 -8 0 -32 -29 -53 -64 -21 -36 -58 -87 -83 -115 -24 -28
-95 -114 -157 -191 -62 -77 -143 -176 -181 -220 -37 -44 -103 -134 -146 -200
-42 -67 -120 -166 -172 -220 -53 -55 -120 -131 -149 -170 -29 -38 -58 -74 -65
-80 -7 -5 -24 -32 -38 -60 -38 -73 -205 -282 -216 -271 -9 9 34 127 116 321
53 125 76 195 90 265 7 36 20 65 29 65 9 0 21 26 27 57 11 54 64 172 160 356
24 46 73 118 108 160 142 170 162 200 169 246 11 74 -66 83 -232 27 -77 -26
-185 -50 -240 -54 -56 -4 -144 -19 -196 -32 -91 -24 -282 -20 -308 6 -6 6 17
69 51 139 34 71 62 138 62 150 0 12 7 25 16 28 22 10 124 196 124 228 0 14 8
29 18 32 20 8 322 447 322 469 0 9 41 67 90 130 50 63 90 133 90 155 0 22 16
45 36 52 19 6 52 40 73 75 41 69 86 125 187 230 86 89 85 179 -1 171 -30 -3
-80 -7 -110 -10 -30 -3 -59 -10 -65 -17 -5 -7 -82 -18 -170 -25 -177 -14 -427
-49 -449 -62 -8 -5 -117 -15 -243 -21 -125 -7 -248 -16 -273 -21 -94 -20 16
157 319 514 41 48 123 146 184 219 60 72 306 330 546 573 240 243 498 505 574
583 162 168 205 177 401 84z"/>
</g>
</svg>
