<?xml version="1.0" standalone="no"?>
<!DOCTYPE svg PUBLIC "-//W3C//DTD SVG 20010904//EN"
 "http://www.w3.org/TR/2001/REC-SVG-20010904/DTD/svg10.dtd">
<svg version="1.0" xmlns="http://www.w3.org/2000/svg"
 width="300.000000pt" height="345.000000pt" viewBox="0 0 300.000000 345.000000"
 preserveAspectRatio="xMidYMid meet">
<metadata>
Created by potrace 1.10, written by Peter Selinger 2001-2011
</metadata>
<g transform="translate(0.000000,345.000000) scale(0.050000,-0.050000)"
fill="#111827" stroke="none">
<path d="M2816 6539 c-4 -12 -1 -104 7 -206 7 -101 7 -283 0 -403 -30 -506 -4
-606 89 -341 27 77 66 177 88 222 22 45 40 87 40 94 0 7 36 90 80 184 119 251
125 350 23 351 -18 1 -87 27 -153 60 -130 64 -163 71 -174 39z"/>
<path d="M4438 6274 c-58 -68 -126 -145 -150 -170 -25 -25 -81 -106 -124 -180
-44 -74 -130 -188 -192 -254 -61 -66 -112 -132 -112 -146 0 -57 63 -46 135 24
40 40 85 72 99 72 14 0 26 7 26 16 0 28 108 79 215 102 58 12 157 48 220 79
63 32 151 64 195 72 167 30 184 88 64 224 -47 53 -111 129 -142 167 -109 133
-115 133 -234 -6z"/>
<path d="M1170 6109 c-160 -175 -163 -182 -108 -241 25 -26 39 -48 31 -48 -8
0 25 -38 73 -85 439 -426 642 -634 667 -681 18 -35 42 -54 63 -50 50 10 53 74
6 138 -23 31 -42 69 -42 84 0 16 -22 60 -48 99 -26 39 -53 88 -60 108 -6 20
-38 68 -70 105 -79 92 -149 234 -231 471 -97 279 -111 284 -281 100z"/>
<path d="M2857 5208 c-452 -143 -665 -379 -845 -938 -249 -776 -120 -1601 380
-2433 38 -62 68 -125 68 -140 0 -16 15 -50 34 -76 23 -33 26 -51 11 -56 -24
-8 24 -154 86 -264 16 -28 38 -76 48 -106 18 -50 77 -89 186 -123 19 -6 35
-27 35 -48 0 -188 129 -361 310 -413 102 -30 110 -37 110 -92 0 -116 57 -148
264 -146 203 2 246 26 231 132 -8 53 -4 55 77 55 195 0 248 80 250 372 0 190
4 208 38 208 93 0 141 80 144 240 2 83 11 161 22 175 10 14 14 43 8 65 -6 24
0 40 15 40 242 0 487 891 407 1480 -8 61 -20 160 -26 220 -6 61 -15 146 -20
190 -5 44 -14 157 -21 250 -7 94 -16 185 -21 203 -5 18 -13 67 -18 110 -65
543 -421 960 -949 1115 -179 53 -630 42 -824 -20z m803 -52 c39 -17 119 -51
179 -76 429 -176 678 -555 729 -1110 6 -66 15 -147 21 -180 125 -754 99 -1406
-72 -1770 -126 -271 -214 -327 -409 -260 -32 11 -110 23 -174 26 l-117 7 -13
158 c-32 369 0 586 104 729 98 133 99 148 23 307 -84 174 -88 217 -22 252 72
39 138 218 109 296 -45 121 -204 21 -232 -145 -19 -110 -12 -107 -203 -84
-119 15 -136 36 -96 121 47 98 43 186 -10 214 -117 63 -212 -120 -148 -283 28
-71 -178 -218 -305 -218 -53 0 -60 8 -85 113 -57 240 -238 322 -328 149 -80
-155 11 -328 177 -335 34 -1 77 -3 95 -5 27 -2 36 -33 46 -167 7 -91 16 -201
20 -245 4 -44 8 -240 9 -435 2 -293 7 -355 31 -355 15 0 31 16 36 35 4 21 12
8 18 -30 l10 -65 -171 5 c-95 3 -217 -2 -272 -12 l-100 -16 -68 126 c-202 373
-251 476 -317 663 -182 520 -202 1188 -49 1639 17 52 39 95 47 95 9 0 11 14 4
30 -49 128 297 597 523 709 106 53 168 73 420 141 102 27 512 10 590 -24z
m-218 -1661 c-11 -28 -29 -57 -41 -64 -30 -19 -27 95 3 125 36 36 60 -2 38
-61z m497 -68 c-9 -40 -36 -92 -60 -115 l-44 -42 14 80 c16 90 64 177 90 161
9 -6 9 -44 0 -84z m-1131 -57 c12 -22 27 -44 34 -50 6 -5 18 -34 25 -63 7 -29
18 -68 25 -85 18 -48 -101 -42 -182 8 -61 38 -64 46 -50 111 29 128 100 166
148 79z m682 -122 c22 -4 94 -18 160 -30 124 -22 149 -40 150 -108 0 -22 27
-93 60 -158 l60 -118 -59 -93 c-152 -237 -179 -448 -111 -871 l10 -60 -336 0
-336 0 23 102 c30 128 70 252 89 278 8 11 30 65 48 120 70 208 85 214 98 38 6
-87 15 -171 19 -188 62 -231 102 -320 146 -320 37 0 37 38 -2 115 -124 250
-134 611 -23 865 65 149 63 155 -58 130 -133 -26 -122 -10 -137 -210 -9 -117
-28 -201 -61 -271 -61 -129 -104 -245 -150 -409 l-38 -130 -1 300 c-1 242 -24
627 -47 788 -3 18 29 37 86 52 129 34 213 82 264 151 29 39 55 56 75 48 17 -7
49 -16 71 -21z m322 -1522 l158 -15 -100 -13 c-55 -7 -293 -4 -529 7 -376 17
-451 15 -606 -15 -162 -31 -222 -30 -189 2 43 44 902 67 1266 34z m410 -128
c-49 -40 -317 -60 -862 -65 -214 -2 -464 -16 -555 -30 -183 -31 -225 -24 -225
37 0 81 109 91 976 90 651 0 703 -3 666 -32z m-6 -153 c4 -26 -4 -46 -20 -48
-14 -2 -48 -6 -76 -10 -27 -4 -180 -12 -340 -18 -401 -16 -914 -47 -1012 -61
-102 -15 -192 77 -98 100 106 27 624 72 709 62 193 -23 349 -22 448 2 174 42
382 28 389 -27z m-16 -163 c0 -60 -242 -95 -580 -86 -321 8 -602 2 -660 -15
-126 -37 -289 -3 -236 50 13 13 641 48 916 50 127 2 275 9 330 17 193 27 230
24 230 -16z m-171 -220 c-8 -453 17 -426 -403 -423 -433 3 -589 60 -650 239
-44 127 -62 222 -43 223 39 2 178 24 183 29 4 3 211 3 460 0 l454 -6 -1 -62z"/>
<path d="M5214 5043 c-255 -135 -658 -543 -536 -543 10 0 65 32 122 70 57 39
113 70 123 70 11 0 57 17 103 37 176 79 318 123 396 123 169 0 184 41 93 245
-53 119 -72 119 -301 -2z"/>
<path d="M429 4665 c-44 -31 -144 -440 -114 -466 8 -7 92 -24 185 -37 420 -61
804 -162 939 -246 102 -64 96 22 -9 116 -129 116 -122 110 -250 178 -60 32
-143 84 -183 114 -40 31 -79 56 -86 56 -14 0 -193 118 -211 139 -91 107 -224
179 -271 146z"/>
</g>
</svg>
