<?xml version="1.0" standalone="no"?>
<!DOCTYPE svg PUBLIC "-//W3C//DTD SVG 20010904//EN"
 "http://www.w3.org/TR/2001/REC-SVG-20010904/DTD/svg10.dtd">
<svg version="1.0" xmlns="http://www.w3.org/2000/svg"
 width="300.000000pt" height="169.000000pt" viewBox="0 0 300.000000 169.000000"
 preserveAspectRatio="xMidYMid meet">
<metadata>
Created by potrace 1.10, written by Peter Selinger 2001-2011
</metadata>
<g transform="translate(0.000000,169.000000) scale(0.050000,-0.050000)"
fill="#ffffff" stroke="none">
<path d="M3773 3131 c-96 -89 -59 -211 65 -211 38 0 41 -9 32 -115 -6 -63 -14
-389 -18 -725 l-7 -610 -63 -130 c-34 -71 -62 -145 -62 -163 0 -43 -101 -284
-211 -503 -108 -215 -118 -301 -28 -253 31 16 37 10 43 -36 4 -39 17 -55 46
-56 22 0 51 -7 65 -16 77 -48 109 5 94 158 l-14 148 109 110 c66 66 120 142
137 193 15 46 30 74 34 63 8 -24 -68 -403 -95 -476 -45 -117 -3 -255 51 -168
9 14 21 14 39 -1 19 -16 30 -16 40 0 10 16 22 15 43 -3 46 -38 60 2 74 216 7
105 28 241 47 302 l35 110 150 -15 c83 -8 213 -20 289 -27 l138 -13 27 -93
c15 -52 56 -146 92 -210 36 -65 97 -185 135 -267 107 -229 125 -239 232 -132
86 86 87 78 -32 274 -55 91 -100 180 -100 198 0 18 -23 89 -51 158 -27 68 -45
133 -38 143 21 35 87 20 111 -26 13 -25 67 -100 121 -168 121 -153 176 -272
177 -383 0 -104 29 -167 70 -151 17 6 30 19 30 29 0 28 77 98 108 98 80 0 87
113 14 219 -36 51 -196 394 -281 603 l-46 113 44 59 c24 33 49 96 55 140 10
78 14 81 138 125 71 25 134 54 140 65 27 43 -22 43 -145 -1 -137 -47 -170 -44
-135 12 21 34 186 154 231 169 14 5 19 23 11 43 -15 38 -128 -20 -238 -122
l-54 -50 -66 39 -66 39 9 138 c15 232 12 315 -12 323 -32 11 -176 -196 -219
-314 -33 -93 -40 -99 -120 -111 -118 -18 -118 -18 -271 369 -39 98 -72 4 -95
-267 -27 -306 7 -270 -222 -243 l-190 22 -4 80 c-3 44 -15 166 -26 270 -12
105 -25 258 -29 340 -33 655 -30 643 -161 703 -104 47 -114 46 -177 -12z m84
-91 c-23 -66 -52 -77 -70 -29 -13 33 48 114 74 98 9 -5 7 -37 -4 -69z m123 22
c0 -24 -56 -93 -67 -82 -22 23 12 117 39 106 15 -5 28 -17 28 -24z m60 -85 c0
-28 -59 -97 -83 -97 -29 0 -19 45 18 82 41 42 65 47 65 15z m0 -156 c0 -30
-37 -45 -80 -31 -60 19 -48 50 20 50 33 0 60 -8 60 -19z m0 -100 c0 -30 -37
-45 -80 -31 -60 19 -48 50 20 50 33 0 60 -8 60 -19z m0 -113 c0 -29 -54 -37
-107 -16 -17 6 -26 22 -21 36 13 34 128 15 128 -20z m-28 -88 c47 0 48 -3 48
-185 1 -102 10 -225 21 -274 19 -80 28 -439 14 -560 -11 -101 56 -69 111 53
29 64 54 112 55 106 1 -5 6 -32 11 -60 21 -124 49 -131 101 -25 35 70 43 75
134 79 135 5 125 -19 130 291 4 186 18 193 80 35 75 -193 90 -205 237 -177
l123 24 41 111 c22 62 63 143 91 181 58 79 61 67 32 -133 -23 -160 -13 -193
73 -234 51 -24 64 -40 50 -58 -35 -43 -18 -125 24 -117 49 8 31 -100 -30 -184
-26 -35 -37 -73 -30 -101 6 -26 -5 -78 -28 -122 -47 -93 -37 -115 49 -99 81
15 118 -56 85 -164 -26 -86 -9 -124 51 -113 40 8 53 -4 85 -77 21 -48 53 -110
72 -137 54 -80 56 -131 5 -124 -24 3 -49 -4 -56 -15 -26 -41 -48 -20 -61 60
-8 46 -54 141 -104 215 -83 124 -88 139 -69 202 27 88 16 104 -57 79 -52 -18
-64 -14 -105 34 l-47 54 -84 -43 -83 -43 31 -78 c23 -59 26 -88 10 -118 -39
-72 -27 -120 30 -127 42 -5 59 -25 87 -98 19 -50 63 -133 98 -184 61 -88 57
-147 -6 -95 -35 29 -60 -6 -42 -55 33 -85 -31 18 -85 139 -53 118 -56 136 -29
163 37 38 14 80 -36 64 -63 -20 -103 67 -87 189 11 83 8 103 -14 100 -58 -8
-78 2 -78 39 0 33 -22 39 -195 49 -107 7 -247 19 -311 29 -181 26 -234 -56
-265 -416 l-14 -150 -68 0 c-52 0 -65 7 -55 30 7 17 39 154 70 305 31 151 66
293 77 314 31 57 26 81 -19 81 -22 0 -40 -7 -40 -15 0 -57 -95 -129 -138 -106
-69 37 -94 0 -54 -80 45 -91 44 -92 -77 -220 l-109 -114 8 -148 c4 -81 3 -124
-3 -97 -15 70 -44 97 -68 60 -15 -24 -18 -21 -19 15 0 41 -20 55 -66 47 -9 -1
12 49 45 113 34 63 74 149 90 190 25 64 38 75 90 75 69 0 79 38 38 150 -20 56
-14 82 55 241 l78 179 0 535 c0 438 5 534 27 525 14 -5 48 -10 75 -10z"/>
<path d="M5209 1710 c-5 -16 -13 -43 -18 -60 -14 -43 -63 -37 -110 14 -53 56
-65 40 -49 -61 12 -74 68 -124 68 -61 0 12 13 17 29 11 61 -23 125 31 128 111
3 74 -29 105 -48 46z"/>
<path d="M4920 1650 c-24 -63 -109 -69 -140 -9 -29 52 -59 32 -56 -37 2 -30
-4 -70 -13 -89 -11 -25 -6 -35 15 -35 16 0 35 14 41 30 17 44 53 37 53 -10 0
-42 29 -54 49 -21 7 11 27 14 45 7 25 -10 30 -4 22 27 -6 22 2 57 17 77 32 44
36 110 7 110 -12 0 -30 -22 -40 -50z"/>
<path d="M4454 1506 c-50 -8 -93 -54 -71 -76 5 -4 43 0 86 10 57 13 93 10 133
-11 39 -20 60 -22 69 -7 33 52 -97 102 -217 84z"/>
<path d="M4993 1467 c-7 -8 -13 -28 -13 -46 0 -18 -18 -67 -39 -110 -22 -42
-35 -85 -29 -94 23 -37 52 -13 90 74 l40 90 60 -42 c67 -48 140 -40 98 11 -14
17 -36 30 -49 30 -13 0 -45 23 -71 50 -49 52 -65 59 -87 37z"/>
<path d="M4610 1381 c-89 -21 -150 -59 -150 -92 0 -37 20 -37 72 -1 22 16 74
35 115 43 41 7 72 23 68 35 -10 29 -34 32 -105 15z"/>
<path d="M600 2650 c-14 -16 -42 -30 -63 -30 -21 0 -72 -15 -113 -34 -41 -19
-105 -34 -144 -35 l-70 -1 -3 -190 c-8 -484 186 -830 573 -1022 94 -46 206
-88 250 -92 186 -20 279 -82 383 -260 31 -53 73 -123 92 -156 20 -33 57 -105
83 -160 105 -223 288 -248 602 -85 420 219 779 217 1091 -6 65 -46 62 -50 99
101 22 88 67 235 141 461 20 60 46 186 58 280 12 93 35 228 50 299 16 72 35
243 43 380 8 157 24 265 41 289 41 61 33 88 -28 87 -30 0 -126 18 -214 42
-345 92 -710 54 -1115 -115 -535 -224 -481 -223 -698 -13 -69 66 -128 117
-132 112 -4 -4 -61 4 -126 18 -139 29 -257 15 -361 -43 -93 -52 -138 -32 -195
90 -52 110 -184 155 -244 83z m148 -42 c18 -7 32 -29 32 -49 0 -134 159 -199
313 -127 177 84 383 44 540 -104 175 -164 268 -201 358 -142 21 15 80 39 129
54 50 15 99 33 110 41 44 29 388 159 501 189 116 31 446 42 579 19 271 -46
334 -73 322 -135 -7 -32 -12 -77 -12 -99 0 -35 -9 -38 -75 -27 -418 72 -611
84 -735 46 -166 -51 -413 -145 -540 -205 -92 -44 -157 -59 -282 -65 l-163 -8
-141 133 c-192 181 -291 206 -518 131 -274 -89 -354 -58 -453 176 -74 176 -67
211 35 172z m-4 -363 c78 -118 171 -124 487 -34 173 50 254 30 368 -91 202
-214 404 -243 718 -102 517 231 580 242 1009 179 l297 -44 -11 -81 c-5 -45
-10 -109 -11 -142 l-1 -60 -398 6 c-439 6 -344 21 -992 -158 -265 -74 -431
-18 -582 196 -48 70 -111 131 -156 153 -81 41 -67 42 -406 -39 -288 -68 -379
-5 -525 362 -9 22 -26 65 -39 96 -29 74 -31 71 43 78 62 6 65 2 105 -116 23
-68 65 -159 94 -203z m-237 74 c148 -385 313 -454 744 -307 154 53 219 22 347
-166 149 -219 406 -272 752 -157 341 114 453 131 858 131 l377 0 -15 -65 c-9
-36 -21 -110 -28 -165 -12 -96 -14 -100 -72 -96 -33 2 -172 13 -308 24 -294
23 -449 -4 -725 -130 -236 -107 -354 -113 -514 -28 -66 35 -125 75 -130 89 -5
14 -84 78 -174 143 -90 65 -183 132 -206 148 -31 23 -103 30 -308 31 -256 1
-269 3 -312 50 -25 27 -101 89 -168 139 -139 101 -216 230 -244 406 -36 230
30 205 126 -47z m-101 -203 c37 -76 82 -129 149 -176 52 -37 132 -100 176
-141 96 -86 209 -109 447 -88 l152 13 137 -97 c76 -53 186 -140 245 -191 256
-226 427 -248 762 -99 164 72 474 153 508 132 7 -5 75 -9 151 -10 75 -1 193
-11 263 -23 l125 -20 -12 -73 c-15 -89 -69 -263 -81 -263 -5 0 -67 18 -137 41
-218 71 -600 44 -951 -66 -205 -64 -502 -72 -570 -15 -16 14 -30 18 -30 9 0
-39 -109 92 -160 192 -113 222 -275 319 -532 319 -375 0 -754 424 -745 834 l2
116 24 -142 c13 -78 48 -192 77 -252z m-20 -213 c43 -75 203 -225 312 -293 17
-11 58 -37 89 -58 41 -27 116 -43 256 -55 285 -24 377 -79 484 -287 115 -222
178 -258 455 -264 195 -5 272 6 388 54 65 27 212 58 330 71 61 6 161 19 223
29 119 18 303 -9 430 -64 l63 -27 -48 -147 c-26 -81 -48 -164 -48 -185 0 -47
-11 -46 -78 1 -269 192 -677 175 -1111 -47 -280 -143 -388 -127 -488 72 -230
457 -351 582 -584 604 -291 27 -641 325 -737 627 -56 174 -76 320 -24 166 21
-60 60 -149 88 -197z"/>
</g>
</svg>
