<?xml version="1.0" standalone="no"?>
<!DOCTYPE svg PUBLIC "-//W3C//DTD SVG 20010904//EN"
 "http://www.w3.org/TR/2001/REC-SVG-20010904/DTD/svg10.dtd">
<svg version="1.0" xmlns="http://www.w3.org/2000/svg"
 width="300.000000pt" height="165.000000pt" viewBox="0 0 300.000000 165.000000"
 preserveAspectRatio="xMidYMid meet">
<metadata>
Created by potrace 1.10, written by Peter Selinger 2001-2011
</metadata>
<g transform="translate(0.000000,165.000000) scale(0.050000,-0.050000)"
fill="#111827" stroke="none">
<path d="M1968 3281 c-139 -33 -160 -82 -176 -431 -15 -303 -14 -288 -64 -763
l-35 -322 -101 -12 c-56 -7 -148 -13 -205 -13 l-102 0 -14 135 c-24 246 -55
445 -72 456 -17 10 -62 -82 -154 -316 l-54 -139 -70 12 c-39 6 -85 12 -103 12
-19 0 -63 63 -114 165 -46 91 -115 201 -155 245 l-72 80 12 -256 c17 -362 -33
-415 -249 -265 -98 69 -200 118 -214 103 -8 -8 102 -100 245 -203 105 -76 55
-116 -85 -68 -243 84 -205 17 46 -81 28 -11 59 -65 98 -172 71 -195 68 -210
-161 -685 -197 -408 -197 -404 -29 -533 133 -102 131 -103 147 73 13 153 63
257 225 474 137 183 149 192 211 167 39 -17 -103 -392 -230 -604 -90 -151 -91
-134 18 -241 89 -87 92 -88 121 -49 46 62 298 568 339 680 52 144 49 143 284
161 453 34 429 54 470 -396 l23 -255 137 0 137 0 -13 75 c-7 41 -39 196 -71
344 -62 291 -62 327 0 205 23 -45 86 -132 142 -195 l100 -115 0 -169 0 -170
95 15 c116 17 125 22 125 71 0 30 14 39 60 39 l60 0 -48 125 c-27 69 -88 211
-137 315 -49 105 -105 240 -125 300 -20 61 -62 178 -95 260 -66 166 -65 160
-83 1203 l-7 473 77 35 c172 77 56 275 -134 230z m121 -72 c40 -41 40 -109 1
-109 -28 0 -70 73 -70 121 0 29 34 23 69 -12z m-109 -60 c29 -77 25 -81 -30
-29 -57 54 -64 80 -20 80 17 0 40 -23 50 -51z m-54 -146 c-36 -8 -65 30 -66
87 0 34 7 32 49 -20 39 -49 42 -61 17 -67z m-2 -65 c33 -18 36 -26 14 -40 -46
-29 -78 -20 -78 22 0 46 7 48 64 18z m45 -217 c7 -11 -15 -33 -47 -50 -78 -41
-82 -40 -82 19 0 52 101 76 129 31z m15 -686 l6 -565 67 -160 c58 -140 66
-178 60 -300 l-7 -140 56 -6 c48 -6 68 -31 149 -196 l94 -188 -92 -92 -92 -92
10 139 10 140 -114 124 c-95 104 -112 133 -102 175 40 159 40 160 -29 150 -56
-8 -75 2 -143 78 l-78 88 14 -100 c7 -55 42 -235 78 -400 71 -330 71 -330 -9
-330 -55 0 -56 2 -69 146 -30 361 -85 474 -228 473 -497 -3 -705 -77 -705
-251 0 -112 -14 -144 -80 -178 -46 -24 -55 -40 -53 -107 1 -44 -18 -122 -46
-180 -44 -95 -81 -132 -81 -83 0 11 -28 20 -62 20 l-62 0 42 65 c24 36 75 124
113 197 39 73 91 143 115 156 40 21 45 41 48 194 l4 170 -69 32 c-66 32 -70
32 -115 -10 -32 -30 -72 -44 -125 -44 l-79 0 7 -88 c6 -75 -6 -109 -76 -225
-46 -75 -94 -176 -106 -223 -24 -85 -96 -105 -161 -45 -40 37 152 361 213 361
l58 0 -14 106 c-17 141 -2 171 99 196 l85 22 -70 222 c-84 270 -72 392 52 509
l68 65 -14 185 c-16 213 -5 210 112 -34 70 -147 110 -176 270 -196 l84 -11 76
171 c84 188 101 184 105 -27 1 -56 8 -145 15 -197 l13 -95 102 13 102 12 57
-91 c66 -104 63 -104 100 2 l28 78 51 -115 c52 -116 64 -127 108 -99 19 12 20
47 3 152 -16 106 -14 202 10 429 18 161 38 354 45 428 l13 135 66 0 67 0 6
-565z"/>
<path d="M521 1720 c-1 -102 21 -139 96 -160 121 -33 140 -27 154 51 18 93 8
99 -78 48 -40 -24 -73 -35 -73 -26 0 9 -22 44 -49 77 l-50 60 0 -50z"/>
<path d="M820 1699 c1 -55 77 -196 117 -217 54 -29 57 -29 70 22 l11 44 49
-45 c62 -59 75 -36 48 82 -24 106 -33 112 -85 55 -49 -54 -67 -51 -144 24 -41
40 -66 53 -66 35z"/>
<path d="M1226 1498 c-69 -20 -98 -48 -68 -67 25 -15 322 12 322 30 0 45 -151
67 -254 37z"/>
<path d="M710 1423 c-33 -21 -78 -58 -100 -83 l-40 -46 50 13 c141 39 147 37
206 -49 76 -111 87 -88 34 71 -47 142 -59 150 -150 94z"/>
<path d="M1111 1362 c-11 -18 208 -102 265 -102 25 0 25 5 1 33 -55 67 -238
114 -266 69z"/>
<path d="M5346 2715 c-22 -25 -57 -74 -77 -110 -44 -76 -95 -83 -231 -33 -232
85 -464 29 -676 -161 -165 -148 -216 -147 -595 14 -567 241 -845 279 -1286
178 -104 -24 -209 -43 -234 -43 -63 0 -66 -14 -35 -160 15 -71 27 -185 28
-252 0 -66 19 -224 41 -350 23 -125 50 -297 61 -381 10 -84 68 -316 128 -516
61 -200 110 -377 110 -393 0 -39 7 -37 149 42 357 200 636 191 1120 -36 415
-194 502 -166 712 228 201 377 261 434 523 489 568 119 879 523 884 1149 l2
249 -100 15 c-55 8 -167 37 -249 65 -182 63 -223 63 -275 6z m134 -31 c0 -75
-62 -240 -119 -319 -78 -109 -129 -116 -371 -55 -325 81 -399 65 -601 -129
-187 -180 -354 -190 -702 -41 -531 229 -708 253 -1180 165 l-204 -37 -11 58
c-32 157 -27 164 147 201 512 110 728 83 1319 -167 426 -180 453 -179 675 23
189 171 366 207 593 121 177 -67 196 -62 313 86 104 133 141 158 141 94z m187
-59 c19 -31 -165 -455 -216 -499 -93 -81 -200 -96 -381 -57 -450 99 -451 99
-633 -137 -188 -244 -386 -284 -777 -156 -368 119 -401 124 -888 124 -427 0
-452 2 -452 37 0 20 -6 91 -12 156 l-13 119 278 38 c480 67 531 60 1016 -145
436 -185 630 -175 868 44 188 172 236 180 550 87 275 -82 377 -29 486 256 55
143 131 202 174 133z m129 -112 c16 -181 -80 -368 -266 -519 -255 -208 -244
-204 -540 -204 -305 0 -289 7 -632 -273 -357 -291 -432 -299 -908 -89 -252
111 -547 129 -965 61 -47 -8 -85 -9 -85 -3 0 6 -13 81 -30 167 -16 86 -30 162
-30 169 0 6 160 17 355 23 407 14 529 -2 885 -114 491 -155 696 -119 910 159
148 192 200 206 490 130 253 -66 401 -44 521 77 67 67 88 112 221 460 26 67
67 42 74 -44z m64 -223 c-54 -276 -192 -459 -480 -633 -122 -74 -161 -84 -421
-108 -173 -15 -314 -94 -392 -218 -31 -50 -84 -133 -117 -185 -126 -198 -354
-237 -752 -128 -454 124 -785 148 -1041 74 -92 -27 -168 -47 -169 -45 -13 20
-83 344 -77 354 52 86 755 71 979 -20 337 -137 413 -161 516 -161 127 0 263
60 415 183 406 328 443 346 679 329 274 -20 340 8 613 257 155 142 190 205
231 424 22 116 27 126 33 67 3 -38 -4 -124 -17 -190z m27 -215 c-94 -406 -377
-672 -835 -785 -284 -70 -339 -124 -569 -552 -170 -316 -249 -333 -653 -144
-441 207 -668 218 -1061 53 l-141 -60 -54 191 c-62 223 -69 210 147 265 205
52 605 17 903 -77 141 -45 203 -53 417 -55 315 -1 370 26 501 254 150 260 215
301 530 336 393 43 681 278 815 664 27 79 27 27 0 -90z"/>
</g>
</svg>
