<?xml version="1.0" standalone="no"?>
<!DOCTYPE svg PUBLIC "-//W3C//DTD SVG 20010904//EN"
 "http://www.w3.org/TR/2001/REC-SVG-20010904/DTD/svg10.dtd">
<svg version="1.0" xmlns="http://www.w3.org/2000/svg"
 width="300.000000pt" height="94.000000pt" viewBox="0 0 300.000000 94.000000"
 preserveAspectRatio="xMidYMid meet">
<metadata>
Created by potrace 1.10, written by Peter Selinger 2001-2011
</metadata>
<g transform="translate(0.000000,94.000000) scale(0.100000,-0.100000)"
   fill="#111827" stroke="none">
<path d="M1307 858 c-8 -13 -24 -41 -34 -62 l-20 -39 -32 46 c-18 26 -35 47
-39 47 -4 0 -23 -23 -41 -51 l-35 -50 -18 23 c-10 13 -28 40 -39 61 -21 39
-29 43 -59 27 -15 -8 -89 -95 -121 -143 -6 -8 -60 23 -151 85 -15 10 -31 18
-36 18 -9 0 -84 -143 -95 -181 -3 -9 -39 -30 -80 -48 -174 -72 -407 -199 -407
-222 0 -12 6 -11 70 5 96 24 353 66 405 66 34 0 35 -1 35 -42 0 -24 5 -63 11
-87 9 -43 9 -44 -36 -92 -59 -64 -60 -98 -2 -68 12 6 32 21 44 32 l22 20 17
-42 c20 -50 38 -49 42 3 3 29 7 36 19 32 33 -13 63 -18 63 -10 0 4 -13 22 -29
39 -21 22 -30 44 -35 82 l-7 52 48 7 c27 4 65 13 85 20 l37 13 5 -32 c3 -18 8
-52 11 -77 3 -25 7 -54 9 -65 2 -11 -8 -34 -20 -51 -23 -29 -32 -64 -17 -64 4
0 17 9 29 20 l21 21 7 -41 c8 -51 31 -53 45 -2 6 20 11 43 11 50 0 15 2 15 36
-3 33 -17 64 -20 64 -6 0 6 -16 25 -35 43 -29 28 -37 45 -48 104 l-14 72 49 6
c94 13 310 25 441 26 73 0 141 1 152 3 24 3 39 -38 54 -143 l10 -73 -35 -40
c-19 -23 -34 -47 -34 -54 0 -18 45 -16 61 3 12 14 14 13 24 -15 5 -17 15 -31
20 -32 9 -2 26 24 39 56 2 6 9 5 17 -2 7 -7 21 -13 32 -13 14 0 17 5 11 23 -4
12 -16 30 -26 39 -16 13 -21 36 -27 113 l-7 97 34 14 c59 24 58 27 83 -111 17
-98 17 -108 2 -155 -12 -36 -13 -56 -6 -73 l10 -22 30 32 30 32 11 -24 c14
-30 28 -32 37 -4 5 14 12 18 23 14 40 -17 52 -17 58 0 5 12 -3 26 -30 49 -34
29 -36 35 -41 101 -6 81 -14 140 -22 173 -5 21 -3 22 71 22 70 0 78 -2 110
-31 37 -32 56 -31 56 2 0 23 11 24 50 4 27 -14 30 -14 40 5 l11 20 21 -20 c29
-26 53 -25 75 4 l18 23 34 -25 33 -26 24 29 c23 29 23 29 58 12 35 -16 35 -16
55 12 18 25 30 30 101 39 79 10 174 47 172 67 -2 27 -321 74 -569 83 -41 2
-51 5 -47 16 15 39 -45 106 -96 106 -28 0 -77 -46 -83 -77 l-6 -28 -167 1
c-193 1 -172 -12 -199 130 -9 49 -21 95 -27 102 -15 17 -28 4 -91 -86 l-51
-74 -31 81 c-48 124 -54 125 -113 21 l-31 -54 -14 34 c-7 19 -18 49 -23 65
-12 39 -47 45 -67 13z m43 -60 c0 -35 3 -87 6 -115 4 -32 3 -53 -3 -53 -5 0
-11 24 -11 53 -1 28 -5 80 -8 115 -4 42 -2 62 5 62 7 0 11 -24 11 -62z m171
-71 c1 -54 -1 -101 -5 -104 -3 -3 -6 14 -6 38 0 24 -3 78 -6 119 -3 52 -2 70
5 60 5 -9 11 -60 12 -113z m-522 59 c0 -30 3 -75 6 -100 5 -30 3 -46 -4 -46
-6 0 -11 19 -12 43 0 23 -2 51 -4 62 -8 44 -9 71 -2 83 13 20 15 15 16 -42z
m35 22 c10 -60 12 -168 4 -168 -4 0 -8 3 -9 8 0 4 -2 16 -4 27 -9 52 -12 165
-4 165 4 0 10 -15 13 -32z m684 -81 c2 -72 0 -108 -7 -102 -19 20 -17 216 2
215 1 0 3 -51 5 -113z m-394 -2 c4 -54 4 -97 2 -94 -8 8 -26 181 -20 191 10
15 11 8 18 -97z m169 -5 c6 -115 -6 -117 -17 -2 -6 61 -1 122 9 110 1 -2 5
-50 8 -108z m-305 58 c-1 -24 2 -67 7 -95 5 -36 3 -53 -4 -53 -6 0 -11 3 -11
8 0 4 -5 40 -10 81 -7 53 -7 78 1 88 16 19 17 17 17 -29z m-209 -125 c1 -7 -3
-13 -7 -13 -11 0 -31 130 -23 150 4 12 28 -95 30 -137z m-276 90 c3 -27 9 -63
13 -82 5 -22 4 -32 -3 -28 -6 4 -13 34 -17 67 -4 34 -10 68 -13 76 -3 8 -1 14
5 14 5 0 12 -21 15 -47z m529 -55 c6 -72 -7 -77 -16 -7 -4 29 -9 66 -12 83
l-5 31 14 -25 c8 -14 17 -51 19 -82z m450 5 c2 -40 1 -73 -3 -73 -9 0 -19 152
-11 164 8 14 10 2 14 -91z m-598 5 c4 -38 3 -58 -4 -58 -14 0 -18 14 -23 83
-5 78 18 56 27 -25z m215 -33 c-1 -37 -2 -35 -13 19 -7 33 -11 69 -7 80 7 26
20 -40 20 -99z m100 18 c6 -41 5 -53 -6 -53 -7 0 -13 10 -13 23 0 12 -2 47 -5
77 -5 46 -4 51 6 30 6 -14 14 -49 18 -77z m63 25 c2 -27 0 -48 -4 -48 -5 0 -7
28 -7 63 1 67 6 60 11 -15z m-707 -12 c11 -46 11 -56 0 -56 -12 0 -35 76 -35
117 0 34 22 -5 35 -61z m-72 -26 c4 -27 3 -37 -2 -25 -5 11 -11 43 -14 70 -8
61 7 21 16 -45z m476 -18 c2 -42 -16 -13 -23 38 -9 64 6 92 16 30 3 -25 7 -55
7 -68z m396 28 c4 -41 2 -61 -4 -55 -5 6 -11 38 -13 72 -4 81 10 66 17 -17z
m-617 13 c9 -50 2 -72 -12 -37 -7 17 -8 100 -2 93 2 -2 9 -28 14 -56z m-149
25 c16 -45 21 -78 12 -78 -10 0 -31 61 -31 88 0 19 10 14 19 -10z m647 13 c-3
-5 -2 -30 3 -55 6 -35 5 -46 -4 -46 -15 0 -25 73 -12 95 4 8 10 15 13 15 3 0
3 -4 0 -9z m216 -51 c1 -33 0 -60 -4 -60 -5 0 -8 10 -8 23 0 12 -3 39 -6 60
-4 23 -3 37 4 37 6 0 12 -27 14 -60z m-386 5 c3 -25 4 -49 0 -52 -10 -10 -13
-1 -18 50 -7 60 9 62 18 2z m-603 -64 c-7 -9 -11 6 -17 54 l-5 50 13 -50 c7
-27 11 -52 9 -54z m172 59 c7 -34 25 -41 25 -10 0 11 5 20 10 20 6 0 10 -11
10 -25 0 -34 -45 -36 -55 -2 -4 12 -9 30 -12 41 -3 11 -1 16 5 12 6 -3 13 -20
17 -36z m73 -25 c1 -20 1 -20 -8 0 -5 11 -8 31 -8 45 l0 25 8 -25 c4 -14 8
-34 8 -45z m211 10 c-1 -29 -1 -29 -9 -5 -4 14 -8 34 -9 45 -1 16 1 17 9 5 5
-8 9 -28 9 -45z m640 -27 c0 -10 -3 -18 -9 -18 -5 0 -9 21 -9 48 1 42 2 44 9
17 4 -16 8 -38 9 -47z m507 44 c13 -17 28 -62 22 -67 -2 -1 -35 0 -74 3 -67 4
-71 5 -67 26 3 11 17 31 32 44 29 25 66 23 87 -6z m-646 -22 c0 -52 -14 -52
-17 0 -2 22 2 40 7 40 6 0 10 -18 10 -40z m-30 -12 c0 -36 -4 -35 -14 5 -4 16
-2 27 4 27 5 0 10 -14 10 -32z m-123 -20 c-3 -8 -6 -5 -6 6 -1 11 2 17 5 13 3
-3 4 -12 1 -19z m-847 -8 c0 -5 -4 -10 -10 -10 -5 0 -10 5 -10 10 0 6 5 10 10
10 6 0 10 -4 10 -10z m945 -16 c206 -6 210 -6 330 0 61 3 103 3 95 0 -50 -21
-63 -63 -32 -100 42 -50 96 -53 132 -7 27 34 25 59 -5 89 l-25 25 57 -5 c32
-3 108 -10 168 -15 61 -5 153 -13 205 -16 52 -4 106 -8 120 -10 14 -3 54 -7
90 -9 58 -5 78 -8 130 -21 8 -2 25 -4 38 -4 44 -2 21 -19 -45 -35 -200 -46
-368 -61 -695 -61 -96 0 -159 -4 -161 -10 -2 -5 0 -23 4 -38 4 -16 11 -68 14
-115 8 -118 22 -160 58 -178 16 -9 26 -18 23 -22 -4 -3 -12 0 -18 6 -16 16
-58 15 -58 0 0 -7 -5 -5 -11 5 -14 24 -36 21 -55 -8 -24 -37 -28 -24 -10 29
15 42 14 56 -1 157 -10 67 -23 120 -33 132 -16 19 -20 20 -64 7 -45 -12 -64
-31 -60 -57 1 -7 2 -49 3 -93 1 -73 3 -81 29 -105 l27 -25 -32 6 c-31 6 -33 5
-33 -20 0 -14 -4 -26 -10 -26 -5 0 -10 11 -10 23 0 37 -10 39 -47 11 -43 -33
-42 -22 2 24 39 40 40 53 14 192 -19 100 -17 99 -178 93 l-139 -6 -25 28 c-28
33 -67 30 -84 -8 -10 -22 -19 -24 -115 -31 -56 -4 -114 -9 -128 -11 -14 -2
-33 -4 -43 -4 -16 -1 -18 -6 -11 -43 4 -24 8 -50 9 -58 6 -51 20 -83 48 -106
l32 -25 -32 15 c-47 23 -63 21 -64 -11 0 -16 -4 -37 -9 -48 -7 -16 -9 -12 -9
19 -1 33 -4 38 -21 33 -19 -5 -19 -4 -4 22 14 23 15 36 5 80 -6 29 -11 67 -11
85 0 18 -6 40 -12 49 -12 15 -19 15 -103 -4 -121 -28 -118 -27 -111 -46 4 -9
10 -38 13 -63 3 -25 13 -54 22 -64 15 -18 15 -18 -6 -7 -31 16 -33 15 -33 -26
l-1 -38 -14 33 c-8 17 -17 32 -20 32 -4 0 -27 -14 -53 -31 l-47 -32 49 51 50
52 -13 64 c-7 35 -12 81 -11 102 3 55 1 61 -13 44 -8 -10 -32 -15 -77 -16 -72
0 -258 -28 -326 -49 -75 -22 -37 4 110 76 159 79 244 114 266 111 9 -1 43 4
75 13 50 12 117 14 410 9 193 -3 413 -7 490 -10z m503 -26 c32 -32 -5 -105
-47 -91 -24 9 -61 45 -61 59 0 34 82 58 108 32z m-728 -143 c11 -13 8 -15 -19
-15 -31 0 -42 14 -18 23 20 9 24 8 37 -8z"/>
<path d="M2211 656 c-12 -14 -5 -26 16 -26 15 0 18 26 4 34 -5 3 -14 0 -20 -8z"/>
<path d="M1207 593 c-14 -13 -7 -33 11 -33 24 0 32 8 25 26 -5 15 -25 19 -36
7z"/>
<path d="M1854 575 c-10 -24 12 -42 34 -29 24 16 21 38 -6 42 -13 2 -25 -3
-28 -13z"/>
<path d="M727 563 c-14 -13 -6 -33 13 -33 22 0 23 1 14 24 -7 17 -16 20 -27 9z"/>
<path d="M980 545 c0 -8 7 -15 15 -15 8 0 15 7 15 15 0 8 -7 15 -15 15 -8 0
-15 -7 -15 -15z"/>
<path d="M494 525 c-4 -9 -2 -21 4 -27 15 -15 44 -1 40 19 -4 23 -36 29 -44 8z"/>
<path d="M1674 525 c-7 -18 3 -35 21 -35 21 0 28 19 15 35 -16 19 -29 19 -36
0z"/>
<path d="M1186 517 c-19 -14 -13 -47 9 -47 19 0 38 28 31 45 -7 18 -17 19 -40
2z m24 -17 c0 -5 -5 -10 -11 -10 -5 0 -7 5 -4 10 3 6 8 10 11 10 2 0 4 -4 4
-10z"/>
<path d="M836 504 c-20 -19 -20 -28 -1 -44 30 -25 79 16 54 46 -15 18 -34 18
-53 -2z m30 -31 c-10 -10 -19 5 -10 18 6 11 8 11 12 0 2 -7 1 -15 -2 -18z"/>
<path d="M1463 484 c-7 -18 14 -35 34 -27 7 3 13 14 13 24 0 24 -38 26 -47 3z"/>
<path d="M681 471 c-21 -14 -5 -43 21 -39 15 2 23 10 23 23 0 22 -22 30 -44
16z"/>
<path d="M2007 553 c-14 -13 -6 -33 13 -33 13 0 20 7 20 20 0 19 -20 27 -33
13z"/>
</g>
</svg>
