<?xml version="1.0" standalone="no"?>
<!DOCTYPE svg PUBLIC "-//W3C//DTD SVG 20010904//EN"
 "http://www.w3.org/TR/2001/REC-SVG-20010904/DTD/svg10.dtd">
<svg version="1.0" xmlns="http://www.w3.org/2000/svg"
 width="300.000000pt" height="253.000000pt" viewBox="0 0 300.000000 253.000000"
 preserveAspectRatio="xMidYMid meet">
<metadata>
Created by potrace 1.10, written by Peter Selinger 2001-2011
</metadata>
<g transform="translate(0.000000,253.000000) scale(0.050000,-0.050000)"
fill="#ffffff" stroke="none">
<path d="M1434 5012 c-149 -44 -504 -373 -1150 -1068 l-266 -286 94 -174 c229
-424 640 -957 1368 -1775 137 -155 367 -420 510 -590 366 -436 639 -742 835
-935 l168 -166 272 296 c149 163 471 529 715 813 245 284 577 658 737 830 161
173 392 426 512 563 121 138 319 354 441 481 378 392 377 384 36 744 -127 135
-366 403 -531 595 -469 547 -534 618 -602 655 -77 42 -2998 58 -3139 17z m106
-101 c0 -16 -242 -175 -252 -166 -8 8 227 175 245 175 4 0 7 -4 7 -9z m465
-119 c58 -71 134 -168 169 -217 l64 -88 -163 -119 c-164 -120 -559 -494 -671
-636 l-61 -78 -13 78 c-26 156 -132 719 -141 751 -14 45 599 436 686 437 13 0
72 -58 130 -128z m814 113 c0 -13 -382 -281 -470 -331 -29 -16 -228 264 -229
321 0 19 83 25 350 25 193 0 350 -7 349 -15z m1092 -204 l-218 -219 -82 60
c-44 33 -153 124 -240 204 l-159 144 89 12 c49 7 255 13 459 15 l369 3 -218
-219z m522 92 c163 -121 435 -390 477 -471 44 -87 26 -154 -101 -367 -111
-186 -83 -185 -289 -14 -144 119 -524 394 -653 472 -33 20 -16 43 185 245 256
256 230 247 381 135z m-1183 -94 c88 -89 207 -197 264 -242 l104 -81 -167
-188 c-154 -173 -324 -386 -371 -466 -13 -21 -24 -25 -35 -11 -8 12 -75 98
-147 190 -73 93 -201 265 -284 382 l-150 212 150 105 c195 137 407 260 446
260 17 0 103 -72 190 -161z m-2459 -584 c-247 -458 -263 -475 -452 -475 l-146
0 39 45 c22 25 102 117 177 205 158 183 534 570 554 570 7 0 -70 -155 -172
-345z m399 -222 c29 -164 50 -299 46 -301 -3 -2 -142 5 -308 15 l-302 19 208
352 c115 193 219 364 232 379 29 35 53 -56 124 -464z m1317 332 c60 -74 186
-247 281 -385 l172 -250 -433 -5 c-238 -3 -437 -2 -441 3 -20 19 269 772 296
772 9 0 65 -61 125 -135z m-307 49 c0 -39 -153 -463 -195 -539 -72 -134 -102
-149 -330 -165 -227 -16 -226 -16 -107 143 158 211 632 632 632 561z m1681
-294 c77 -156 139 -290 139 -298 0 -26 -871 -137 -894 -115 -5 6 61 103 146
217 156 205 441 509 461 490 5 -5 72 -138 148 -294z m205 154 c313 -214 545
-423 481 -431 -286 -34 -434 43 -563 292 -145 282 -139 292 82 139z m1146 -59
c145 -150 348 -384 348 -402 0 -7 -176 -13 -390 -13 l-391 0 73 145 c111 221
210 395 225 395 8 0 69 -56 135 -125z m-516 -540 c-78 -123 -193 -324 -416
-725 -134 -242 -280 -489 -326 -550 -128 -172 -358 -442 -368 -432 -19 18 104
418 246 802 82 220 177 477 211 570 80 218 150 338 204 349 24 5 61 13 83 18
22 5 120 9 217 11 l178 2 -29 -45z m764 29 c0 -80 -313 -534 -630 -914 -82
-99 -220 -277 -305 -395 -85 -119 -158 -207 -161 -197 -32 95 407 1370 502
1458 55 51 594 95 594 48z m-5159 -37 c95 -64 184 -159 295 -317 62 -88 193
-263 291 -390 275 -355 673 -966 647 -993 -39 -39 -1102 1291 -1222 1529 -104
207 -106 234 -11 171z m3734 -12 c-190 -500 -442 -1192 -512 -1409 -51 -157
-97 -285 -103 -285 -24 -2 -228 1134 -269 1500 l-13 110 316 37 c174 20 352
43 396 52 129 25 195 23 185 -5z m1812 -54 c24 -24 -61 -130 -387 -481 -138
-148 -313 -342 -389 -430 -245 -286 -696 -771 -707 -761 -27 28 323 507 696
952 115 138 282 366 370 507 l160 256 119 -12 c66 -7 128 -21 138 -31z m-4580
-76 c19 -138 116 -513 265 -1022 72 -245 128 -449 125 -453 -4 -4 -92 130
-196 297 -105 166 -341 504 -525 750 -185 245 -346 463 -357 485 -20 37 -10
38 328 38 l348 0 12 -95z m565 55 l102 0 54 -205 c30 -113 117 -448 194 -745
76 -297 144 -557 151 -578 46 -151 -239 299 -583 918 -140 253 -278 500 -306
548 l-52 89 169 -14 c93 -7 215 -13 271 -13z m1139 -35 c-8 -19 -67 -282 -133
-585 -111 -515 -269 -1157 -288 -1177 -13 -12 -13 -12 -181 627 -167 639 -285
1081 -301 1135 -10 33 21 35 453 35 433 0 462 -2 450 -35z m188 -905 c182
-921 192 -1042 103 -1290 -32 -88 -100 -277 -152 -420 -52 -143 -99 -273 -103
-289 -10 -34 -253 459 -308 625 -60 184 -51 339 42 727 84 348 244 1056 270
1197 l15 80 16 -60 c9 -33 61 -289 117 -570z m-1633 495 c27 -47 123 -223 212
-391 90 -169 248 -441 352 -604 256 -402 569 -1033 864 -1740 42 -99 -184 125
-580 576 -422 480 -390 408 -796 1794 -142 486 -149 530 -52 365z m2927 -227
c15 -37 -40 -98 -71 -79 -24 15 -30 77 -9 98 24 24 68 14 80 -19z m-143 -400
c-193 -897 -192 -894 -760 -1529 -143 -160 -294 -330 -335 -378 -90 -106 -92
-88 -16 181 154 547 293 848 521 1128 233 286 436 559 540 726 111 178 114
169 50 -128z"/>
</g>
</svg>
