<?xml version="1.0" standalone="no"?>
<!DOCTYPE svg PUBLIC "-//W3C//DTD SVG 20010904//EN"
 "http://www.w3.org/TR/2001/REC-SVG-20010904/DTD/svg10.dtd">
<svg version="1.0" xmlns="http://www.w3.org/2000/svg"
 width="300.000000pt" height="196.000000pt" viewBox="0 0 300.000000 196.000000"
 preserveAspectRatio="xMidYMid meet">
<metadata>
Created by potrace 1.10, written by Peter Selinger 2001-2011
</metadata>
<g transform="translate(0.000000,196.000000) scale(0.100000,-0.100000)"
   fill="#111827" stroke="none">
<path d="M1143 1840 c5 -19 0 -20 -81 -21 -48 0 -94 -2 -102 -4 -28 -6 -135
-48 -166 -66 -30 -16 -32 -16 -48 2 -21 26 -36 16 -36 -24 -1 -28 -9 -38 -68
-79 -70 -50 -120 -99 -187 -183 -79 -100 -85 -105 -106 -92 -29 18 -47 -5 -27
-35 14 -21 12 -26 -39 -93 -97 -128 -135 -244 -136 -420 -1 -99 2 -117 27
-175 31 -73 38 -95 40 -127 0 -11 4 -19 8 -16 5 2 8 -2 8 -9 1 -18 26 -46 83
-92 27 -21 54 -50 60 -65 14 -33 53 -71 73 -71 8 0 30 -15 48 -32 71 -70 126
-97 147 -72 6 8 8 14 3 14 -4 0 -4 4 2 10 13 13 90 22 219 25 98 2 151 6 250
21 75 11 262 126 395 243 40 35 48 37 110 15 102 -36 201 -62 265 -69 58 -6
190 -7 225 -1 19 3 59 8 88 11 55 5 96 13 122 22 8 3 22 7 30 8 37 4 125 29
149 41 14 8 31 14 37 14 49 0 234 154 234 194 0 9 5 16 11 16 5 0 8 4 4 9 -3
5 -2 12 3 15 5 3 14 31 21 63 7 32 15 72 19 88 4 17 4 68 0 115 -4 49 -2 101
3 123 23 88 -22 194 -128 307 -105 112 -184 146 -428 185 -61 10 -318 3 -385
-10 -14 -2 -45 -7 -70 -10 -24 -4 -52 -11 -62 -16 -22 -12 -46 -11 -61 2 -7 6
-29 20 -49 32 -20 12 -74 47 -120 79 -66 44 -105 62 -179 82 -52 14 -108 26
-126 26 -22 0 -36 6 -43 20 -6 11 -18 20 -27 20 -10 0 -14 -6 -10 -20z m39
-85 c30 -46 52 -46 46 0 -2 19 -1 35 3 35 4 0 40 -7 80 -17 93 -20 143 -42
207 -87 38 -28 49 -41 45 -56 -4 -15 0 -20 14 -20 11 0 29 -13 41 -29 18 -24
20 -35 12 -62 -6 -19 -10 -58 -10 -88 0 -45 5 -59 30 -88 30 -33 36 -64 24
-110 -6 -21 -32 -36 -86 -47 -41 -9 -60 -54 -60 -144 1 -60 -5 -90 -28 -148
-29 -71 -29 -75 -18 -152 6 -43 9 -86 5 -95 -9 -25 -54 -39 -114 -38 -71 2
-156 -31 -189 -74 -43 -57 -22 -127 47 -155 29 -12 29 -13 12 -31 -10 -10 -24
-25 -31 -34 -18 -22 -29 -19 -49 13 -22 34 -33 42 -57 42 -11 0 -30 9 -42 21
-12 11 -39 23 -61 25 -127 14 -136 17 -160 59 -33 60 -86 72 -129 30 -21 -21
-24 -32 -21 -69 6 -55 12 -65 53 -82 40 -17 43 -31 10 -40 -18 -4 -34 1 -58
19 -64 49 -173 107 -200 107 -16 0 -37 -9 -49 -21 -19 -19 -19 -22 -5 -38 9
-10 13 -21 9 -26 -5 -4 -2 -5 5 -1 18 11 52 -22 52 -49 0 -32 35 -72 75 -85
19 -6 35 -18 35 -25 0 -19 -58 15 -104 61 -19 19 -47 39 -63 45 -17 6 -39 28
-56 57 -16 26 -53 67 -83 91 -46 37 -57 52 -73 105 -10 33 -30 88 -44 122 -21
52 -24 74 -21 151 1 50 8 109 14 132 6 23 13 55 15 70 5 45 30 95 90 180 39
56 63 81 74 78 9 -2 15 -8 14 -14 -1 -6 10 -8 30 -4 26 6 32 12 33 33 1 19 -3
24 -16 21 -9 -2 -21 2 -28 9 -8 10 -2 24 29 58 22 25 70 80 107 122 37 42 74
79 82 82 8 3 31 19 50 36 40 34 48 36 56 15 4 -8 17 -15 31 -15 24 0 25 2 19
39 l-6 38 63 28 c92 42 142 53 239 54 l88 1 22 -35z m-437 -83 c-3 -3 -11 0
-18 7 -9 10 -8 11 6 5 10 -3 15 -9 12 -12z m935 -92 c4 0 10 -9 13 -21 3 -12
10 -19 15 -16 23 15 70 -79 89 -178 12 -62 5 -273 -12 -324 -43 -137 -110
-309 -125 -321 -4 -3 -15 -21 -26 -40 -10 -19 -21 -37 -25 -40 -3 -3 -18 -23
-35 -44 -40 -55 -104 -113 -207 -189 -60 -46 -86 -60 -84 -48 1 11 -16 32 -43
52 -29 22 -46 44 -47 59 -6 54 72 102 161 101 69 0 118 14 145 43 22 23 23 30
17 98 -10 101 -8 124 13 172 30 67 34 87 32 160 -2 85 12 111 67 119 55 9 75
36 80 106 4 55 2 61 -27 91 -25 27 -31 41 -31 78 0 24 5 62 12 83 9 33 9 42
-5 57 -22 24 -22 39 -1 18 8 -9 19 -16 24 -16z m357 18 c-8 -4 -20 -27 -26
-51 -11 -36 -10 -53 3 -96 l15 -52 -27 -10 c-15 -6 -35 -18 -44 -26 -17 -15
-18 -14 -18 8 -1 70 -14 167 -26 193 -8 16 -14 30 -14 32 0 4 63 9 113 9 22 1
32 -2 24 -7z m260 -1 c4 -5 2 -11 -4 -15 -24 -15 -53 -97 -53 -149 0 -29 -2
-53 -5 -53 -2 0 -26 5 -54 11 l-49 10 -7 51 c-4 28 -9 67 -11 87 -2 23 -11 43
-26 55 -23 18 -22 18 89 15 61 -3 115 -8 120 -12z m-486 -47 c2 -19 6 -39 10
-45 4 -5 14 -49 23 -96 9 -47 30 -126 47 -175 17 -50 33 -120 36 -159 5 -63 2
-77 -22 -129 -30 -64 -40 -71 -77 -57 -18 7 -29 6 -37 -2 -16 -16 -14 -27 4
-27 21 0 73 -27 99 -52 50 -47 86 -61 139 -55 51 5 137 42 137 59 0 4 22 8 48
8 46 0 51 -3 104 -60 54 -59 56 -60 109 -60 71 1 86 13 86 74 1 46 4 51 64
112 35 36 86 76 114 90 27 14 62 39 78 57 l27 31 0 -76 c0 -198 -77 -342 -222
-415 -87 -43 -141 -63 -223 -79 -38 -8 -95 -19 -125 -26 -30 -7 -131 -12 -225
-12 -180 -1 -163 -4 -348 60 -38 13 -73 22 -78 18 -5 -3 -9 0 -9 5 0 6 4 11 8
11 13 0 87 110 126 186 19 38 55 130 80 205 42 126 46 144 49 259 5 162 -20
282 -71 343 -8 9 -13 18 -11 20 7 5 54 25 56 23 0 0 2 -17 4 -36z m74 11 c8
-16 17 -65 20 -108 11 -141 14 -157 31 -170 18 -13 95 -25 169 -26 l45 0 0
-157 c0 -163 8 -207 39 -227 15 -9 23 -8 40 3 18 13 21 25 21 83 0 37 -5 93
-11 124 -6 31 -9 64 -5 73 13 34 28 -3 41 -102 8 -55 17 -110 20 -124 3 -14 7
-29 8 -35 14 -61 106 -147 136 -128 29 18 21 104 -17 196 -18 45 -44 109 -56
142 -34 90 -48 115 -63 115 -17 0 -17 -1 6 -52 10 -24 38 -90 61 -148 23 -58
46 -113 51 -122 11 -22 12 -108 1 -108 -18 0 -72 68 -86 108 -9 24 -22 93 -30
153 -19 143 -50 185 -89 119 -16 -26 -16 -35 -4 -87 18 -81 17 -188 -3 -188
-28 0 -41 71 -38 219 l3 141 69 7 c50 5 75 12 89 27 28 27 13 60 -33 75 -34
11 -35 12 -34 61 2 66 37 148 61 143 10 -2 17 -9 16 -15 -14 -72 -22 -145 -16
-160 16 -43 53 -32 53 17 0 39 20 92 34 87 11 -4 11 -9 2 -263 -4 -107 -2
-140 13 -189 25 -81 64 -119 98 -97 26 16 41 148 28 252 -8 67 -14 232 -8 246
3 8 13 14 23 14 20 0 23 -19 35 -215 8 -126 47 -197 93 -169 30 19 37 75 21
169 -9 48 -12 88 -9 90 14 9 33 -52 37 -120 5 -90 11 -117 23 -110 6 3 10 0
10 -8 0 -21 -59 -76 -105 -96 -24 -10 -75 -51 -114 -91 -69 -69 -71 -73 -71
-121 0 -44 -3 -51 -26 -59 -35 -14 -67 -4 -99 30 -14 16 -39 43 -55 59 -27 29
-49 36 -105 32 -20 -2 -66 -21 -75 -32 -7 -8 -47 -29 -56 -29 -4 0 -1 8 8 18
8 9 20 30 26 45 17 39 15 197 -2 238 -8 19 -16 48 -19 64 -3 17 -11 45 -18 64
-10 27 -13 31 -21 17 -5 -9 -5 -23 1 -33 5 -10 12 -35 15 -56 3 -21 11 -47 16
-58 6 -10 8 -19 5 -19 -4 0 -3 -5 1 -12 4 -6 9 -41 11 -77 4 -78 -22 -164 -51
-169 -28 -6 -33 12 -27 86 9 115 3 274 -10 266 -4 -2 -10 16 -13 41 -4 24 -12
48 -18 51 -12 8 -7 -49 12 -156 6 -30 7 -105 4 -167 -6 -104 -5 -112 15 -132
12 -12 21 -23 21 -25 0 -12 -66 16 -98 41 -20 15 -41 31 -46 36 -7 5 -5 11 6
17 28 17 59 100 65 175 5 59 1 83 -21 150 -15 44 -31 87 -36 96 -5 9 -16 52
-25 95 -8 44 -22 103 -31 132 -8 29 -12 57 -9 62 12 19 35 10 50 -19z m582 3
c98 -32 139 -57 210 -133 40 -42 84 -99 98 -128 25 -51 40 -149 24 -158 -14
-9 -22 17 -24 75 -4 93 -27 140 -70 140 -33 0 -37 -22 -19 -107 16 -79 11
-157 -9 -150 -20 6 -35 69 -41 173 -12 197 -18 214 -75 214 -39 0 -47 -30 -42
-152 8 -175 7 -365 -3 -375 -12 -11 -38 30 -57 91 -18 54 -19 148 -4 342 8 98
7 101 -15 117 -40 28 -65 -1 -84 -93 -3 -14 -2 2 1 35 4 33 7 77 7 97 0 35 1
36 31 31 16 -3 49 -11 72 -19z m-381 -9 c3 -13 7 -41 9 -62 3 -44 8 -63 18
-80 6 -10 -2 -13 -30 -13 -32 0 -38 3 -40 23 -1 12 -5 43 -8 68 -8 50 6 89 30
89 8 0 17 -11 21 -25z m109 -205 c6 -5 20 -9 30 -8 24 1 87 -11 94 -18 8 -8
-14 -24 -40 -30 -57 -12 -313 -3 -328 11 -7 7 35 44 61 54 27 11 168 3 183 -9z
m-1401 -860 c7 0 18 -18 25 -40 14 -47 37 -56 159 -59 32 -1 47 -7 64 -26 13
-15 32 -25 49 -25 19 0 32 -7 40 -22 7 -13 16 -26 22 -29 11 -8 -40 -25 -98
-34 -22 -3 -103 -8 -181 -10 -77 -2 -159 -8 -181 -13 -32 -7 -49 -6 -79 9 -22
10 -45 18 -51 19 -7 0 -15 11 -18 25 -3 14 -7 36 -10 49 -3 14 -19 33 -35 43
-28 16 -29 18 -10 25 19 7 32 3 80 -23 8 -5 29 -16 45 -25 17 -9 46 -30 66
-45 49 -39 103 -38 127 2 17 27 0 55 -42 69 -36 11 -46 26 -46 65 0 29 27 58
47 51 8 -3 20 -6 27 -6z"/>
<path d="M1295 1718 c-3 -7 -6 -42 -8 -78 -2 -69 10 -85 45 -58 23 19 11 141
-15 146 -9 2 -19 -2 -22 -10z"/>
<path d="M1000 1708 c1 -31 47 -103 68 -106 31 -5 39 24 15 51 -11 12 -26 32
-32 45 -12 23 -51 31 -51 10z"/>
<path d="M834 1649 c8 -52 12 -59 36 -59 22 0 28 15 20 60 -4 30 -9 36 -34 38
-29 4 -29 3 -22 -39z"/>
<path d="M604 1534 c-11 -41 7 -79 36 -79 25 0 28 9 18 60 -10 50 -43 62 -54
19z"/>
<path d="M1438 1553 c-29 -7 -27 -30 5 -77 32 -46 58 -63 77 -51 20 12 9 42
-30 80 -28 28 -36 41 -27 47 13 8 3 9 -25 1z"/>
<path d="M947 1494 c-11 -11 -8 -129 3 -158 10 -27 35 -35 43 -13 2 6 -1 48
-7 91 -10 73 -22 97 -39 80z"/>
<path d="M1108 1479 c-30 -12 -42 -33 -25 -47 19 -15 87 16 87 39 0 21 -19 23
-62 8z"/>
<path d="M1219 1453 c-14 -37 -17 -115 -4 -119 25 -9 37 15 38 76 2 70 -15 92
-34 43z"/>
<path d="M820 1456 c-46 -17 -46 -40 1 -44 38 -3 74 19 66 42 -5 16 -27 17
-67 2z"/>
<path d="M516 1374 c-12 -31 -7 -74 9 -74 16 0 35 38 35 71 0 23 -35 26 -44 3z"/>
<path d="M1477 1353 c-14 -13 -6 -22 49 -58 40 -26 59 -34 66 -27 15 15 -2 34
-57 67 -48 28 -49 28 -58 18z"/>
<path d="M594 1329 c-10 -17 7 -27 70 -38 64 -12 78 -7 70 24 -4 17 -15 20
-69 22 -38 2 -67 -2 -71 -8z"/>
<path d="M1021 1278 c-56 -16 -187 -105 -243 -166 -28 -31 -49 -49 -45 -39 4
11 3 16 -4 12 -5 -4 -7 -15 -4 -24 3 -10 -6 -34 -20 -56 -31 -45 -29 -65 9
-84 26 -12 39 -12 102 3 58 14 83 26 120 59 89 78 174 242 148 284 -13 22 -22
23 -63 11z m34 -38 c4 -6 2 -17 -4 -24 -6 -7 -8 -16 -5 -19 10 -10 -102 -173
-138 -200 -34 -27 -159 -62 -184 -53 -10 4 -7 17 14 53 46 82 117 159 173 186
19 9 48 28 64 41 31 26 69 34 80 16z"/>
<path d="M1344 1259 c-7 -12 15 -39 37 -43 8 -2 22 -6 32 -11 20 -9 51 1 43
14 -7 11 -82 51 -96 51 -5 0 -12 -5 -16 -11z"/>
<path d="M1190 1215 c-6 -8 -14 -32 -17 -55 -5 -32 -2 -40 10 -40 15 0 37 47
37 81 0 24 -15 32 -30 14z"/>
<path d="M367 1166 c-6 -15 39 -117 57 -128 12 -8 36 9 36 25 0 14 -71 117
-81 117 -4 0 -9 -6 -12 -14z"/>
<path d="M596 1121 c-6 -10 22 -73 38 -83 31 -20 35 28 5 66 -21 27 -34 32
-43 17z"/>
<path d="M1300 1118 c0 -7 10 -41 22 -75 16 -47 27 -63 40 -63 27 0 31 21 12
66 -24 59 -74 107 -74 72z"/>
<path d="M1060 1102 l-23 -19 23 -56 c22 -54 47 -76 70 -62 15 9 12 31 -12 88
-28 69 -31 71 -58 49z"/>
<path d="M244 1095 c-6 -16 43 -91 65 -100 19 -7 51 4 51 18 0 16 -81 97 -97
97 -8 0 -16 -7 -19 -15z"/>
<path d="M1430 1026 c0 -22 33 -76 47 -76 22 0 24 19 7 55 -16 35 -54 50 -54
21z"/>
<path d="M306 897 c-22 -33 -36 -107 -25 -129 12 -23 45 -23 54 -1 3 10 9 45
12 79 5 50 3 62 -11 67 -10 4 -21 -2 -30 -16z"/>
<path d="M452 887 c-13 -16 1 -35 53 -70 52 -35 77 -36 73 -1 -2 19 -16 33
-56 55 -61 34 -57 33 -70 16z"/>
<path d="M941 867 c-22 -15 -41 -30 -41 -32 0 -2 9 -9 20 -15 15 -8 26 -7 47
7 44 28 66 51 59 62 -10 16 -41 9 -85 -22z"/>
<path d="M685 851 c-6 -11 52 -111 65 -111 20 0 40 13 40 26 0 19 -69 94 -86
94 -7 0 -15 -4 -19 -9z"/>
<path d="M1195 850 c-7 -12 81 -70 106 -70 17 0 36 36 25 47 -3 3 -16 7 -29 8
-14 2 -34 8 -45 14 -26 14 -49 14 -57 1z"/>
<path d="M1030 765 c-7 -8 -15 -46 -18 -84 -4 -65 -3 -69 18 -76 15 -5 25 -2
31 6 6 11 7 87 0 157 -1 16 -16 15 -31 -3z"/>
<path d="M467 723 c-12 -12 -7 -37 15 -80 23 -43 42 -58 59 -47 13 8 3 50 -20
82 -26 37 -46 54 -54 45z"/>
<path d="M1280 708 c0 -16 50 -68 66 -68 15 0 25 25 18 44 -3 8 -19 19 -36 25
-40 14 -48 14 -48 -1z"/>
<path d="M266 675 c-19 -28 -21 -51 -5 -61 16 -9 38 16 45 54 8 40 -15 45 -40
7z"/>
<path d="M725 640 c-12 -20 152 -103 183 -93 6 3 12 13 12 22 0 37 -176 102
-195 71z"/>
<path d="M608 577 c-39 -44 -37 -68 3 -46 13 7 28 12 32 11 5 -1 6 1 3 6 -3 5
4 18 14 30 25 26 25 42 3 42 -10 0 -35 -19 -55 -43z"/>
<path d="M331 586 c-15 -18 -5 -116 13 -135 8 -7 21 -11 30 -8 12 5 14 17 10
59 -8 80 -13 98 -28 98 -7 0 -19 -6 -25 -14z"/>
<path d="M1024 526 c-8 -20 8 -88 21 -93 6 -1 16 1 24 6 20 13 3 94 -22 99 -9
2 -20 -4 -23 -12z"/>
<path d="M1742 1223 c-6 -21 -13 -60 -16 -86 -7 -55 -44 -149 -57 -141 -5 3
-6 -1 -4 -9 5 -11 -98 -209 -126 -244 -11 -12 -5 -33 9 -33 11 0 55 75 117
195 57 113 81 179 89 250 2 22 8 55 12 73 9 45 -10 41 -24 -5z"/>
<path d="M1384 509 c-10 -12 -38 -32 -62 -46 -48 -29 -45 -52 5 -31 35 15 103
73 103 88 0 17 -26 11 -46 -11z"/>
<path d="M2660 739 c-19 -10 -42 -19 -52 -19 -19 0 -32 -16 -24 -29 8 -12 88
13 115 35 42 37 18 45 -39 13z"/>
<path d="M2060 680 c-50 -12 -20 -25 61 -27 67 -2 90 1 99 12 7 8 9 15 4 16
-40 4 -147 3 -164 -1z"/>
<path d="M1700 605 c0 -21 76 -73 114 -79 83 -14 130 -17 231 -16 105 0 127 4
268 47 9 3 17 10 17 15 0 13 -64 4 -130 -18 -43 -14 -77 -16 -203 -11 -169 7
-208 15 -251 52 -33 29 -46 31 -46 10z"/>
<path d="M879 311 c-27 -14 -49 -31 -49 -38 0 -17 -2 -17 64 12 31 14 63 25
70 25 8 0 16 7 20 15 9 23 -47 16 -105 -14z"/>
<path d="M2620 1566 c0 -9 5 -16 10 -16 6 0 10 4 10 9 0 6 -4 13 -10 16 -5 3
-10 -1 -10 -9z"/>
<path d="M2710 1480 c0 -5 5 -10 11 -10 5 0 7 5 4 10 -3 6 -8 10 -11 10 -2 0
-4 -4 -4 -10z"/>
<path d="M2740 1440 c0 -5 5 -10 11 -10 5 0 7 5 4 10 -3 6 -8 10 -11 10 -2 0
-4 -4 -4 -10z"/>
<path d="M400 250 c-12 -7 -10 -9 7 -7 12 0 19 5 17 9 -6 10 -6 10 -24 -2z"/>
</g>
</svg>
