<?xml version="1.0" standalone="no"?>
<!DOCTYPE svg PUBLIC "-//W3C//DTD SVG 20010904//EN"
 "http://www.w3.org/TR/2001/REC-SVG-20010904/DTD/svg10.dtd">
<svg version="1.0" xmlns="http://www.w3.org/2000/svg"
 width="300.000000pt" height="439.000000pt" viewBox="0 0 300.000000 439.000000"
 preserveAspectRatio="xMidYMid meet">
<metadata>
Created by potrace 1.10, written by Peter Selinger 2001-2011
</metadata>
<g transform="translate(0.000000,439.000000) scale(0.050000,-0.050000)"
fill="#ffffff" stroke="none">
<path d="M5626 8634 c-44 -48 -137 -171 -206 -275 -145 -215 -360 -435 -477
-488 -126 -56 -275 -24 -269 59 40 544 24 750 -48 652 -222 -298 -381 -719
-426 -1124 -37 -339 -23 -323 -162 -186 -136 134 -238 319 -389 703 -53 135
-102 245 -110 245 -64 0 -158 -357 -158 -600 0 -443 87 -623 409 -840 286
-193 310 -272 217 -726 l-12 -55 277 135 276 136 467 -6 c695 -9 832 52 917
411 30 129 29 129 -106 5 -234 -214 -757 -35 -854 291 -12 39 0 42 239 62 308
26 325 39 175 132 -163 100 -266 237 -266 353 0 6 126 9 280 5 295 -7 319 1
219 74 -183 136 -211 254 -106 443 213 382 210 375 221 530 14 177 2 183 -108
64z m17 -201 c-22 -50 -95 -180 -161 -289 -138 -224 -152 -305 -81 -462 50
-110 59 -107 -139 -49 -193 56 -183 60 -204 -77 -23 -144 4 -226 113 -351 l92
-105 -56 1 c-32 1 -118 8 -194 16 l-136 15 14 -121 c36 -309 218 -439 727
-520 l152 -24 -110 -58 -110 -59 -520 0 -520 0 -179 -90 c-98 -49 -184 -92
-190 -95 -7 -3 -8 64 -4 148 13 263 -51 380 -299 538 -318 204 -404 428 -355
929 27 278 33 278 144 12 157 -378 305 -584 512 -716 118 -75 121 -74 121 59
1 408 135 928 312 1208 68 108 73 94 38 -104 -54 -308 -36 -404 90 -469 176
-91 479 91 715 429 247 354 309 417 228 234z"/>
<path d="M909 6538 c-9 -14 -45 -117 -80 -227 -73 -232 -65 -229 -186 -79 -89
111 -267 231 -297 200 -8 -7 -3 -87 10 -176 29 -198 43 -186 -155 -135 -204
53 -201 58 -105 -154 138 -306 137 -304 68 -599 -34 -142 -67 -312 -75 -378
l-14 -120 44 40 c25 22 102 125 171 230 152 231 203 280 305 294 166 22 207
-136 156 -602 -38 -342 -14 -1216 41 -1484 28 -139 219 -659 355 -964 92 -206
120 -300 194 -653 161 -768 284 -939 809 -1131 412 -151 540 -227 598 -356 32
-70 52 -86 157 -124 l121 -44 35 46 35 46 95 -74 c105 -82 137 -92 122 -39 -6
19 -30 111 -55 204 -74 281 -182 362 -758 570 -283 103 -331 141 -398 320 -75
201 -93 196 329 98 533 -124 516 -114 649 -378 128 -254 183 -302 472 -411
131 -49 184 -81 225 -133 29 -38 68 -88 85 -111 31 -40 35 -41 85 -8 68 45 99
43 144 -8 l38 -41 41 51 41 52 75 -40 c98 -53 100 -52 84 40 -16 93 -6 97 138
48 124 -43 125 -39 37 134 -91 179 -128 203 -396 258 -233 48 -557 151 -587
188 -12 14 -27 168 -34 344 l-13 318 93 170 c354 645 408 931 294 1553 -53
286 -50 297 122 460 115 108 178 147 306 187 44 13 133 48 197 76 l117 51 -13
192 -13 191 -107 105 c-166 162 -269 112 -445 -213 -98 -182 -278 -422 -316
-422 -35 0 -91 272 -90 442 0 221 19 257 211 410 258 204 339 401 326 791 l-7
199 -200 189 c-313 295 -481 347 -910 283 l-110 -17 -64 83 c-153 201 -299
236 -425 104 -137 -144 -155 -309 -51 -464 87 -129 87 -126 -9 -169 -90 -41
-191 -33 -372 29 -101 35 -109 35 -109 4 0 -51 107 -267 199 -403 l81 -119
-70 -11 c-38 -6 -99 -16 -135 -21 -80 -13 -275 -102 -275 -125 0 -10 68 -65
150 -122 175 -123 174 -119 68 -183 -123 -75 -126 -94 -36 -235 73 -116 78
-133 78 -275 l0 -151 -60 31 c-76 39 -109 93 -140 226 -39 169 -160 285 -187
179 -6 -25 -42 -96 -80 -159 -66 -109 -69 -123 -76 -345 l-7 -231 191 0 c180
0 400 -42 398 -76 -5 -96 -156 -168 -386 -182 -241 -15 -245 -23 -82 -160 138
-117 145 -142 38 -142 -88 0 -87 -10 22 -198 91 -156 121 -335 59 -346 -34 -7
-163 238 -227 430 -182 551 -208 751 -143 1124 48 280 66 899 34 1140 l-17
121 127 190 c155 231 266 539 195 539 -27 0 -214 -95 -428 -219 -97 -55 -181
-101 -186 -101 -6 0 -4 70 3 155 21 245 -73 530 -139 423z m1872 -251 c121
-113 127 -95 -87 -255 l-176 -131 -39 84 c-63 139 -37 267 71 352 80 63 120
54 231 -50z m760 -156 c60 -15 134 -38 165 -49 l57 -22 -55 -100 c-30 -55
-129 -199 -221 -319 -181 -239 -315 -439 -302 -453 37 -36 277 53 581 216 185
99 342 175 348 169 6 -6 1 -103 -10 -215 -29 -275 -81 -379 -264 -526 -148
-120 -218 -203 -259 -307 -30 -76 -27 -76 -220 -25 -211 57 -325 52 -473 -18
-283 -133 -367 -305 -438 -892 -17 -143 -69 -444 -114 -670 -196 -978 -71
-1162 912 -1349 198 -37 180 -6 193 -338 16 -423 45 -453 574 -592 167 -44
338 -97 379 -118 l75 -39 -205 -65 -204 -64 -115 40 c-626 221 -684 260 -806
550 -106 253 -87 244 -773 405 -492 115 -452 121 -403 -55 106 -379 136 -411
517 -548 449 -161 699 -324 700 -454 0 -37 -233 12 -340 71 -60 33 -174 95
-252 138 -79 43 -261 123 -406 178 -486 183 -628 386 -764 1090 -69 355 -90
424 -229 740 -140 319 -287 726 -319 889 -47 236 -66 1161 -29 1421 100 708
-217 969 -565 465 -82 -120 -85 -102 -16 117 170 544 720 587 981 77 77 -151
64 -864 -23 -1279 -53 -252 -45 -323 94 -827 117 -423 289 -773 379 -773 79 0
333 761 395 1184 14 94 -38 114 -342 130 -113 6 -202 17 -199 24 68 122 74
158 43 263 -32 108 -22 138 47 139 15 0 25 27 25 69 0 92 32 107 48 22 40
-212 71 -273 158 -310 188 -81 180 -86 222 145 54 304 409 1386 503 1535 162
258 619 417 950 330z m438 -404 c5 -5 -45 -62 -110 -128 -132 -134 -127 -136
-157 64 l-14 93 136 -11 c75 -6 140 -14 145 -18z m-339 -263 c0 -21 -298 -193
-311 -180 -34 34 159 196 233 196 43 0 78 -7 78 -16z m716 -1006 c-22 -123
-20 -127 77 -100 140 39 160 28 75 -40 -43 -34 -82 -66 -88 -72 -5 -5 26 -40
70 -77 97 -82 86 -98 -41 -60 -99 30 -128 20 -129 -42 0 -13 -48 -50 -106 -83
-59 -33 -217 -165 -352 -292 -344 -325 -488 -396 -801 -398 -286 -2 -429 83
-491 291 -53 180 -43 192 71 86 427 -400 1087 -152 1470 552 83 152 218 337
247 337 9 0 8 -46 -2 -102z m-942 -61 c153 -47 166 -65 82 -117 -211 -130
-476 -153 -621 -55 -111 76 -112 79 -42 125 172 113 326 125 581 47z m-664
-197 c88 -143 447 -148 774 -11 33 14 76 -82 76 -171 0 -108 -537 -166 -710
-77 -108 56 -235 202 -217 249 13 34 59 40 77 10z m-77 -231 c239 -182 489
-211 844 -99 197 62 192 64 135 -50 -180 -359 -890 -319 -1033 57 -61 161 -53
174 54 92z m1127 -629 c0 -177 -255 -388 -532 -438 -278 -51 -602 132 -745
422 -56 112 -47 114 97 16 300 -204 644 -191 1022 38 140 85 157 81 158 -38z
m-956 -457 c284 -137 565 -92 866 138 159 122 150 127 156 -91 l4 -174 -87
-77 c-423 -376 -1323 -106 -1323 397 l0 129 146 -139 c81 -76 188 -159 238
-183z m-292 -183 c360 -350 720 -379 1323 -107 33 15 -44 -207 -90 -260 -74
-84 -480 -233 -634 -233 -275 0 -734 383 -764 638 -16 131 -8 129 165 -38z
m228 -566 c283 -182 403 -175 957 60 48 21 -196 -429 -263 -486 -79 -67 -284
-58 -563 22 -463 134 -621 325 -579 696 l13 117 163 -169 c89 -93 212 -200
272 -240z"/>
<path d="M2560 6241 c0 -47 41 -141 61 -141 8 0 43 12 79 27 l64 27 -102 63
c-93 57 -102 59 -102 24z"/>
<path d="M2844 5859 c-160 -149 -138 -380 44 -467 234 -111 468 139 327 350
-100 147 -278 204 -371 117z m236 -117 c160 -128 58 -344 -134 -281 -128 42
-145 112 -71 285 38 90 88 89 205 -4z"/>
<path d="M2973 5678 c-47 -67 -42 -78 37 -78 80 0 84 11 33 78 l-37 47 -33
-47z"/>
<path d="M1028 5325 c5 -19 16 -69 23 -110 15 -83 24 -88 79 -47 37 27 37 30
-18 110 -59 84 -103 109 -84 47z"/>
<path d="M2695 5046 c-86 -59 -91 -76 -33 -107 50 -27 65 -14 107 86 37 88 27
90 -74 21z"/>
<path d="M2900 4886 c-62 -97 -72 -126 -43 -126 28 0 80 67 113 146 44 105 1
93 -70 -20z"/>
<path d="M1012 4905 c-67 -27 -73 -34 -40 -47 87 -34 148 -21 148 32 0 58 -4
59 -108 15z"/>
<path d="M3369 4852 c-9 -46 -1 -89 22 -135 44 -83 58 -50 40 94 -16 123 -43
142 -62 41z"/>
<path d="M3112 4818 c-67 -79 -66 -101 6 -76 50 18 81 64 82 123 0 33 -39 12
-88 -47z"/>
<path d="M2506 4790 c-53 -37 -134 -148 -120 -163 13 -13 194 151 194 176 0
25 -26 21 -74 -13z"/>
<path d="M1060 4623 c0 -118 2 -123 50 -123 60 0 60 4 14 124 -52 137 -64 137
-64 -1z"/>
<path d="M2669 4659 c-57 -60 -58 -63 -20 -90 54 -40 65 -37 80 26 7 30 18 71
23 90 16 53 -18 42 -83 -26z"/>
<path d="M2258 4306 c-62 -67 -118 -149 -118 -172 0 -33 121 70 152 129 44 86
26 108 -34 43z"/>
<path d="M2423 4293 c-31 -37 -83 -165 -83 -205 0 -78 100 60 128 177 14 58
-9 73 -45 28z"/>
<path d="M965 4166 c-42 -8 -43 -11 -12 -57 41 -63 75 -62 104 2 34 76 30 78
-92 55z"/>
<path d="M2126 3954 c-45 -25 -45 -25 -7 -82 l38 -58 31 75 c44 104 31 117
-62 65z"/>
<path d="M2355 3915 c-18 -14 -43 -50 -54 -81 -46 -125 -13 -118 80 17 60 88
47 120 -26 64z"/>
<path d="M1040 3741 c-59 -9 -71 -20 -77 -68 l-6 -57 63 37 c122 71 129 105
20 88z"/>
<path d="M1098 3490 c-55 -30 -129 -126 -111 -144 18 -17 146 71 181 124 38
58 13 65 -70 20z"/>
<path d="M2248 3445 c5 -19 21 -80 34 -135 34 -144 58 -156 58 -28 0 66 -12
126 -31 154 -37 52 -76 58 -61 9z"/>
<path d="M2150 3375 c-84 -231 -84 -235 -20 -235 48 0 50 5 50 130 0 124 -10
160 -30 105z"/>
<path d="M1195 3060 c-85 -85 -90 -120 -12 -79 57 29 157 120 157 143 0 41
-72 9 -145 -64z"/>
<path d="M2164 2874 c-103 -105 -104 -114 -6 -114 77 0 78 1 91 92 18 121 13
122 -85 22z"/>
<path d="M1205 2826 c-34 -13 -32 -59 4 -73 40 -15 79 36 46 62 -14 11 -36 16
-50 11z"/>
<path d="M1364 2752 c-51 -112 -48 -128 15 -77 34 28 42 52 37 105 l-8 70 -44
-98z"/>
<path d="M1899 2775 c-45 -74 -67 -142 -55 -177 7 -20 136 198 136 230 0 34
-45 4 -81 -53z"/>
<path d="M1404 2481 c-59 -80 -55 -101 16 -101 57 0 60 4 60 80 0 95 -18 100
-76 21z"/>
<path d="M1684 2445 c-80 -113 -127 -225 -95 -225 43 0 131 126 145 208 14 86
2 90 -50 17z"/>
<path d="M1830 2380 c-16 -92 6 -285 30 -270 46 28 87 296 49 323 -55 40 -64
34 -79 -53z"/>
<path d="M1988 2325 c6 -30 16 -91 23 -135 31 -200 54 -184 79 56 l15 134 -64
0 c-59 0 -63 -4 -53 -55z"/>
<path d="M1641 2035 c1 -14 23 -70 49 -125 l47 -100 1 93 c2 77 -6 98 -48 125
-36 24 -50 26 -49 7z"/>
<path d="M1501 1965 c3 -143 30 -167 64 -55 34 112 30 130 -26 130 -32 0 -39
-14 -38 -75z"/>
<path d="M2080 1841 c21 -73 35 -99 86 -156 60 -67 76 -55 41 30 -64 152 -163
250 -127 126z"/>
<path d="M1820 1768 c0 -21 -6 -85 -13 -143 -11 -95 -9 -105 27 -105 59 0 61
9 38 138 -22 119 -52 182 -52 110z"/>
<path d="M2376 1657 c-10 -125 -4 -137 67 -123 l54 10 -40 93 c-58 136 -72
139 -81 20z"/>
<path d="M1661 1575 c0 -136 2 -142 29 -95 44 77 36 240 -12 240 -10 0 -18
-65 -17 -145z"/>
<path d="M2692 1585 c-29 -28 -10 -85 28 -85 26 0 40 13 40 38 0 38 -46 70
-68 47z"/>
<path d="M2952 1460 c56 -103 102 -135 77 -55 -19 60 -87 155 -112 155 -11 0
5 -45 35 -100z"/>
</g>
</svg>
