<?xml version="1.0" standalone="no"?>
<!DOCTYPE svg PUBLIC "-//W3C//DTD SVG 20010904//EN"
 "http://www.w3.org/TR/2001/REC-SVG-20010904/DTD/svg10.dtd">
<svg version="1.0" xmlns="http://www.w3.org/2000/svg"
 width="300.000000pt" height="301.000000pt" viewBox="0 0 300.000000 301.000000"
 preserveAspectRatio="xMidYMid meet">
<metadata>
Created by potrace 1.10, written by Peter Selinger 2001-2011
</metadata>
<g transform="translate(0.000000,301.000000) scale(0.050000,-0.050000)"
fill="#111827" stroke="none">
<path d="M5670 5982 c-267 -95 -985 -528 -1643 -991 l-183 -129 -103 138
c-376 506 -1201 822 -1804 692 -789 -170 -1322 -480 -1525 -887 l-53 -106 55
11 c570 116 1003 64 1522 -181 374 -176 624 -471 624 -736 0 -243 -451 -888
-1126 -1611 -189 -202 -355 -383 -369 -403 -13 -19 -179 -177 -367 -350 -409
-377 -723 -751 -672 -802 28 -28 482 116 719 227 181 84 189 82 137 -40 -72
-168 -234 -768 -214 -789 3 -3 49 10 102 28 124 42 306 228 634 647 134 171
329 418 435 549 202 253 802 871 1070 1103 154 133 242 211 427 379 364 329
785 367 1084 96 248 -223 526 -801 741 -1540 59 -203 163 -455 197 -476 36
-22 506 1143 584 1446 77 301 41 695 -100 1105 -190 550 -326 755 -667 1003
-167 122 -178 62 106 605 548 1052 556 1071 389 1012z m-90 -172 c0 -16 -290
-591 -508 -1008 -105 -202 -192 -373 -191 -380 0 -7 82 -61 182 -122 599 -363
980 -1497 729 -2167 -155 -413 -344 -899 -387 -993 -59 -132 -50 -146 -165
270 -361 1296 -861 1850 -1519 1682 -166 -43 -230 -84 -471 -301 -110 -100
-294 -262 -410 -360 -479 -408 -962 -933 -1437 -1561 -280 -370 -548 -671
-575 -645 -28 29 72 335 209 639 77 168 136 309 133 312 -3 4 -135 -56 -293
-132 -355 -170 -612 -276 -629 -258 -23 22 119 178 442 488 545 521 1320 1354
1514 1627 122 172 370 583 431 715 289 626 -961 1424 -1940 1239 -179 -34
-177 -36 -83 79 153 186 422 352 786 485 172 62 225 65 145 9 -84 -59 -323
-272 -323 -287 0 -59 61 -60 233 -3 245 82 357 91 607 52 493 -78 734 -159
1021 -346 115 -75 222 -143 237 -153 36 -22 14 167 -30 261 -82 172 -947 479
-1413 502 -296 14 -309 24 -103 84 730 212 1640 -125 1929 -714 84 -173 61
-172 284 -7 270 200 745 514 1055 698 555 329 540 321 540 295z"/>
<path d="M1689 5042 c-195 -112 -189 -117 175 -127 453 -12 597 -69 903 -355
l131 -122 31 104 c52 175 48 186 -107 278 -391 233 -930 338 -1133 222z"/>
<path d="M4450 4720 c-258 -170 -273 -604 -23 -651 174 -32 277 93 289 353 14
287 -96 410 -266 298z m139 -287 c-1 -242 -7 -255 -124 -239 -72 9 -87 20 -97
64 -7 28 -16 68 -21 87 -8 30 5 35 92 35 122 0 127 22 21 92 l-79 53 84 67
c118 94 125 85 124 -159z"/>
<path d="M3834 4581 c-259 -83 -340 -396 -131 -503 224 -114 457 31 457 284 0
191 -133 280 -326 219z m205 -225 c2 -215 -236 -294 -338 -112 -38 69 29 149
199 236 129 66 136 59 139 -124z"/>
<path d="M3867 4367 c-100 -128 -100 -127 14 -127 l103 0 -14 75 c-24 130 -38
137 -103 52z"/>
<path d="M4892 4018 l-52 -41 199 -190 c138 -132 235 -245 313 -369 62 -98
117 -178 122 -178 75 0 85 42 38 166 -175 467 -454 742 -620 612z"/>
<path d="M4643 3763 c-67 -84 -79 -123 -38 -123 49 0 325 -176 413 -263 122
-121 239 -308 362 -577 225 -495 252 -528 243 -284 -16 460 -287 915 -718
1207 -195 132 -190 131 -262 40z"/>
<path d="M3148 3431 c-460 -301 -1930 -1855 -1884 -1992 8 -24 305 278 645
656 131 146 423 434 648 640 599 549 891 893 591 696z"/>
<path d="M4321 3366 c-24 -67 -23 -77 8 -95 422 -251 679 -631 863 -1275 64
-225 164 -459 208 -486 30 -19 25 197 -11 400 -122 700 -528 1397 -873 1499
-148 44 -164 41 -195 -43z"/>
<path d="M3297 3205 c-416 -358 -1566 -1498 -1674 -1659 -193 -288 -79 -207
417 293 226 228 568 560 760 739 355 329 568 554 639 675 59 100 11 84 -142
-48z"/>
</g>
</svg>
