<?xml version="1.0" standalone="no"?>
<!DOCTYPE svg PUBLIC "-//W3C//DTD SVG 20010904//EN"
 "http://www.w3.org/TR/2001/REC-SVG-20010904/DTD/svg10.dtd">
<svg version="1.0" xmlns="http://www.w3.org/2000/svg"
 width="300.000000pt" height="147.000000pt" viewBox="0 0 300.000000 147.000000"
 preserveAspectRatio="xMidYMid meet">
<metadata>
Created by potrace 1.10, written by Peter Selinger 2001-2011
</metadata>
<g transform="translate(0.000000,147.000000) scale(0.050000,-0.050000)"
   fill="#111827" stroke="none">
<path d="M1770 2741 c-66 -8 -219 -47 -340 -86 -121 -40 -278 -83 -350 -97
-71 -13 -185 -45 -251 -70 -67 -25 -180 -55 -250 -68 -142 -26 -312 -108 -328
-158 -23 -73 -16 -222 13 -266 16 -25 36 -112 43 -194 38 -415 290 -805 679
-1052 155 -98 542 -1 655 164 29 43 83 166 119 272 83 245 88 244 239 -51 318
-621 685 -877 1261 -883 426 -4 658 200 719 633 31 220 90 317 233 383 54 25
148 77 208 116 61 39 174 103 253 142 148 75 569 327 587 352 15 21 107 82
123 82 16 0 48 -99 66 -203 19 -115 79 -177 172 -177 234 0 231 410 -5 580
-148 108 -347 71 -816 -150 -170 -81 -384 -175 -473 -209 -90 -35 -197 -85
-237 -112 -70 -48 -76 -49 -186 -21 -63 15 -208 38 -324 50 -115 12 -337 35
-491 52 -155 16 -326 39 -380 51 -55 11 -279 25 -499 31 -436 11 -517 26 -764
140 -79 36 -204 84 -277 107 -73 22 -141 46 -152 53 -36 22 639 236 911 289
223 43 375 -2 502 -149 199 -229 670 -293 670 -91 0 50 -350 339 -412 339 -6
0 -39 21 -74 48 -117 87 -191 112 -388 132 -108 11 -227 23 -266 27 -38 5
-124 2 -190 -6z m889 -246 c372 -237 428 -298 314 -345 -81 -34 -141 -21 -233
51 -146 113 -466 320 -516 332 -58 15 -365 -37 -574 -96 -77 -22 -167 -48
-200 -57 -33 -9 -163 -54 -289 -101 l-229 -84 -101 36 c-229 80 -240 66 139
191 57 19 408 110 620 160 155 37 378 54 630 50 l230 -5 209 -132z m-2163
-305 c154 -33 307 -86 546 -191 82 -36 229 -94 328 -130 99 -36 220 -83 269
-106 l88 -40 -5 -113 c-3 -77 5 -128 27 -162 18 -27 26 -60 17 -74 -8 -13 -38
-96 -67 -184 -59 -181 -145 -330 -190 -330 -17 0 -68 -20 -115 -43 -182 -94
-331 -71 -514 78 -323 265 -475 534 -517 918 -10 91 -33 184 -51 210 -48 68
-38 197 15 197 13 0 89 -14 169 -30z m5084 -75 c121 -82 185 -267 140 -405
-46 -141 -131 -82 -162 113 -32 204 -29 201 -130 190 -66 -7 -137 -41 -283
-138 -198 -132 -414 -258 -550 -322 -41 -19 -146 -79 -234 -134 -192 -119
-193 -119 -207 -24 -7 41 -17 93 -24 115 -9 31 3 47 54 73 199 101 336 165
416 197 91 36 469 210 690 319 146 71 204 75 290 16z m-3080 -424 c550 -8 650
-16 920 -73 327 -69 367 -76 486 -90 131 -15 141 -27 159 -192 8 -77 3 -101
-29 -130 -59 -53 -93 -150 -115 -328 -59 -471 -392 -657 -958 -538 -381 80
-674 346 -924 836 -58 114 -124 222 -147 240 -29 24 -44 61 -47 124 -3 50 -10
110 -15 134 -10 42 -5 44 85 34 52 -6 316 -13 585 -17z"/>
<path d="M320 2122 c0 -45 50 -91 79 -73 45 28 24 111 -29 111 -36 0 -50 -11
-50 -38z"/>
<path d="M481 2041 c-48 -88 13 -487 111 -731 93 -231 405 -490 592 -490 113
0 344 102 382 169 141 249 50 670 -171 789 -189 102 -762 302 -864 302 -16 0
-39 -17 -50 -39z m123 -20 c25 -11 139 -47 253 -82 114 -34 203 -66 198 -71
-6 -5 -49 4 -97 20 -108 36 -274 49 -281 22 -3 -11 48 -27 113 -35 136 -17
364 -99 440 -159 29 -22 58 -35 65 -28 17 18 -18 50 -129 115 -137 80 -90 70
107 -24 168 -79 171 -82 226 -205 158 -350 104 -547 -188 -675 -231 -103 -629
208 -714 557 -82 342 -101 584 -45 584 4 0 27 -9 52 -19z"/>
<path d="M569 1805 c14 -159 39 -276 67 -320 23 -36 330 -55 427 -27 42 12
115 33 162 47 104 30 191 107 157 141 -17 17 -30 12 -52 -19 -64 -93 -559
-165 -667 -99 -11 7 -31 107 -45 222 -30 244 -70 289 -49 55z"/>
<path d="M735 1598 c29 -30 312 -38 320 -10 3 10 -73 22 -170 27 -142 7 -170
4 -150 -17z"/>
<path d="M2190 1613 c-127 -194 14 -665 293 -982 313 -356 1082 -352 1299 6
235 387 -47 893 -521 934 -61 6 -205 23 -321 38 -428 57 -714 59 -750 4z m680
-43 c44 -7 123 -20 176 -31 53 -10 141 -19 195 -19 582 0 784 -872 243 -1041
-375 -116 -757 -38 -968 200 -251 281 -377 672 -286 889 16 38 384 39 640 2z"/>
<path d="M2281 1465 c-37 -134 -6 -357 53 -379 45 -17 48 3 13 74 -36 73 -45
213 -19 315 24 94 -21 84 -47 -10z"/>
<path d="M3287 1222 c-184 -173 -565 -221 -860 -108 -22 8 -30 4 -23 -16 24
-76 460 -124 639 -69 173 52 394 207 365 254 -18 29 -35 20 -121 -61z"/>
<path d="M3050 1239 c-145 -43 -390 -48 -499 -9 -85 30 -113 24 -74 -15 67
-67 279 -91 465 -53 60 12 143 29 185 38 97 19 170 81 92 78 -27 -2 -103 -19
-169 -39z"/>
<path d="M3872 1410 c-41 -42 -40 -56 6 -98 53 -48 126 -5 118 68 -7 61 -76
77 -124 30z"/>
</g>
</svg>
