<?xml version="1.0" standalone="no"?>
<!DOCTYPE svg PUBLIC "-//W3C//DTD SVG 20010904//EN"
 "http://www.w3.org/TR/2001/REC-SVG-20010904/DTD/svg10.dtd">
<svg version="1.0" xmlns="http://www.w3.org/2000/svg"
 width="300.000000pt" height="176.000000pt" viewBox="0 0 300.000000 176.000000"
 preserveAspectRatio="xMidYMid meet">
<metadata>
Created by potrace 1.10, written by Peter Selinger 2001-2011
</metadata>
<g transform="translate(0.000000,176.000000) scale(0.050000,-0.050000)"
   fill="#111827" stroke="none">
<path d="M3548 3351 c-22 -15 -58 -67 -78 -115 -21 -47 -40 -89 -43 -93 -2 -4
-25 7 -50 25 -140 98 -297 -18 -297 -219 0 -73 -6 -89 -25 -74 -43 36 -169 63
-191 41 -12 -12 -27 5 -42 47 -47 134 -179 195 -276 127 -40 -28 -44 -27 -56
28 -42 195 -366 194 -431 -2 -24 -73 -37 -89 -60 -75 -165 104 -292 -39 -309
-349 -22 -373 -30 -485 -44 -602 -7 -66 -14 -158 -15 -205 -1 -106 1 -107 -70
30 -81 156 -105 183 -176 197 -136 27 -325 -100 -325 -218 0 -54 -4 -57 -55
-43 -82 22 -132 21 -395 -9 -325 -38 -337 -43 -322 -137 7 -41 18 -120 24
-175 8 -60 33 -127 63 -167 54 -73 56 -87 34 -296 -17 -172 10 -256 138 -426
46 -61 105 -145 130 -186 45 -73 49 -75 160 -73 62 2 149 -7 193 -19 44 -11
107 -26 140 -33 71 -14 840 -13 899 1 23 5 168 22 323 37 383 38 616 144 711
323 53 101 71 109 95 44 40 -104 228 -245 367 -274 148 -30 340 -76 487 -116
125 -34 197 -38 640 -32 700 9 696 8 767 252 23 80 51 172 61 205 32 101 80
376 80 456 0 41 19 152 43 246 53 213 64 205 -274 219 -153 6 -390 18 -526 25
l-247 14 3 370 c3 666 -89 899 -327 826 -67 -21 -69 -20 -104 58 -65 145 -206
221 -269 145 -22 -27 -32 -18 -75 72 -71 150 -187 213 -276 150z m196 -141
l55 -80 0 -535 c1 -486 10 -581 49 -518 6 10 12 220 13 467 2 449 2 449 51
503 62 66 58 67 139 -16 84 -88 88 -113 94 -611 4 -349 9 -410 35 -410 26 0
30 60 30 420 l0 420 85 6 c192 14 245 -156 245 -781 0 -360 19 -329 -217 -347
-280 -21 -227 -57 89 -61 142 -2 396 -13 565 -25 168 -12 377 -22 465 -22 173
0 171 2 135 -130 -11 -44 -29 -147 -39 -230 -9 -82 -23 -199 -30 -260 -7 -60
-30 -143 -50 -184 -21 -41 -38 -106 -38 -144 0 -38 -8 -75 -18 -81 -10 -6 -25
-47 -32 -91 -7 -43 -19 -78 -27 -76 -7 2 -49 -7 -93 -20 -156 -44 -1057 -36
-1220 12 -77 22 -212 56 -300 75 -318 68 -339 84 -646 507 -107 147 -253 336
-325 420 -281 326 -355 508 -250 613 95 95 190 35 489 -307 160 -184 153 -214
146 588 -7 773 -5 792 104 819 157 40 220 -159 220 -686 -1 -290 5 -385 24
-385 59 0 64 661 6 905 -60 254 118 431 246 245z m-1352 -60 c55 -55 64 -211
25 -428 -20 -115 -32 -271 -35 -456 -2 -135 -5 -145 -55 -170 -324 -159 -237
-457 304 -1046 81 -88 197 -214 257 -279 119 -129 119 -147 6 -192 -35 -14
-88 -42 -117 -62 -80 -55 -261 -40 -430 35 -35 15 -73 28 -86 28 -133 0 -531
337 -739 626 -437 608 -471 698 -306 806 119 78 198 42 288 -130 114 -220 281
-383 423 -413 148 -31 332 -149 352 -226 27 -99 38 -163 40 -227 2 -81 61 -50
61 31 -1 242 -124 388 -396 473 -73 23 -162 70 -213 113 l-88 73 9 132 c5 73
19 209 31 302 12 94 25 294 30 446 10 306 24 364 95 397 161 73 201 -37 203
-562 2 -365 15 -452 58 -383 20 33 14 621 -9 784 -43 307 125 495 292 328z
m290 -111 c124 -67 141 -242 57 -614 -10 -47 -19 -140 -19 -207 0 -109 -4
-121 -35 -106 -36 16 -123 19 -195 5 -46 -8 -49 159 -9 563 34 344 79 424 201
359z m-1695 -1252 c80 -11 94 -20 113 -75 11 -34 80 -143 152 -242 72 -99 162
-227 199 -283 38 -57 118 -158 179 -224 110 -118 111 -120 69 -149 -43 -31
-118 -269 -119 -379 0 -69 -182 -78 -436 -20 -85 19 -205 35 -268 35 -105 0
-116 5 -148 60 -19 33 -73 107 -120 165 -136 168 -160 252 -128 457 26 166 26
170 -20 232 -25 34 -57 117 -70 184 -14 67 -31 137 -39 156 -18 42 16 51 247
65 92 6 173 15 178 21 14 14 99 13 211 -3z"/>
</g>
</svg>
