<?xml version="1.0" standalone="no"?>
<!DOCTYPE svg PUBLIC "-//W3C//DTD SVG 20010904//EN"
 "http://www.w3.org/TR/2001/REC-SVG-20010904/DTD/svg10.dtd">
<svg version="1.0" xmlns="http://www.w3.org/2000/svg"
 width="283.000000pt" height="264.000000pt" viewBox="0 0 283.000000 264.000000"
 preserveAspectRatio="xMidYMid meet">
<metadata>
Created by potrace 1.10, written by Peter Selinger 2001-2011
</metadata>
<g transform="translate(0.000000,264.000000) scale(0.050000,-0.050000)"
   fill="#111827" stroke="none">
<path d="M1930 4789 c-11 -5 -91 -20 -178 -35 l-159 -26 -28 -129 c-15 -71
-32 -163 -36 -204 -4 -42 -17 -93 -28 -114 -12 -21 -21 -55 -21 -75 0 -101
-177 -115 -432 -35 -145 46 -138 57 -228 -356 -22 -97 -48 -193 -60 -214 -70
-132 -44 -345 59 -481 62 -82 141 -209 141 -227 0 -7 -64 -13 -142 -13 -186 0
-249 -35 -264 -148 -32 -238 -63 -375 -131 -572 -24 -73 -11 -138 53 -250 66
-115 203 -329 224 -350 6 -5 35 -44 66 -85 31 -41 67 -75 80 -76 13 0 42 -24
64 -52 22 -28 60 -70 85 -93 25 -23 45 -53 45 -68 0 -14 9 -26 20 -26 11 0 20
-13 20 -29 0 -15 18 -34 40 -41 22 -7 40 -22 40 -33 0 -23 95 -162 169 -245
28 -32 51 -66 51 -76 0 -101 339 -319 443 -284 57 18 89 23 257 36 72 5 198
32 280 59 83 27 179 55 214 62 l64 14 -7 127 -6 128 80 -83 c44 -46 100 -115
125 -154 44 -70 130 -159 130 -135 0 7 36 0 80 -16 219 -77 780 -48 780 41 0
47 100 377 121 398 10 10 19 35 19 55 0 60 110 110 330 150 33 6 69 19 81 28
12 9 67 21 124 26 126 11 182 40 194 98 97 478 128 773 86 833 -28 41 -192
160 -220 161 -20 0 -219 122 -251 154 -28 27 -20 28 246 36 44 1 166 -3 270
-10 331 -22 335 -17 339 310 1 110 5 283 9 385 5 138 0 190 -21 207 -15 13
-27 34 -27 47 0 14 -49 65 -110 113 -60 48 -110 94 -110 103 0 8 -10 15 -23
15 -82 0 -196 142 -184 230 20 146 -28 220 -253 390 -37 28 -81 64 -98 81 -18
17 -66 48 -107 69 -41 22 -75 46 -75 55 0 9 -20 25 -45 36 -25 11 -81 42 -125
70 -44 28 -114 65 -155 83 -41 18 -75 38 -75 46 0 7 -83 15 -185 16 -102 1
-268 8 -368 15 l-184 14 -39 -78 c-22 -43 -46 -131 -53 -197 -8 -66 -18 -144
-24 -174 l-10 -54 -58 59 c-33 33 -59 66 -59 72 0 7 -20 33 -45 58 -110 111
-169 183 -191 234 -13 30 -32 55 -44 55 -11 0 -20 13 -20 28 0 46 -453 80
-550 41z m394 -175 c3 -35 0 -158 -7 -274 -28 -427 -3 -463 289 -424 90 12
190 17 221 10 65 -13 144 60 166 153 7 28 24 100 39 160 16 60 28 137 28 170
0 34 10 96 22 139 l21 77 104 -12 c56 -6 173 -17 259 -25 206 -18 215 -39 153
-357 -28 -146 -6 -222 75 -253 30 -11 60 -29 67 -40 6 -10 65 -25 130 -33
l119 -15 6 -115 c3 -64 -2 -115 -13 -115 -11 0 -15 -18 -9 -40 16 -60 -12
-180 -42 -180 -14 0 -52 -13 -84 -28 -74 -36 -416 -60 -467 -33 -82 44 -154
-10 -168 -125 -54 -474 -40 -561 90 -569 67 -4 260 -56 317 -85 17 -9 28 -32
25 -53 -3 -20 -10 -95 -15 -167 -19 -246 17 -222 -410 -270 -367 -42 -362 -39
-392 -231 -8 -44 -21 -85 -31 -91 -9 -6 -17 -57 -18 -114 -1 -164 -20 -177
-250 -170 -177 5 -196 10 -201 45 -6 41 19 255 42 363 13 58 -64 188 -93 158
-5 -5 -129 -18 -276 -29 -146 -11 -277 -29 -290 -40 -13 -11 -41 -15 -63 -9
-68 18 -84 -25 -142 -372 -22 -137 -98 -177 -327 -172 -253 5 -239 -27 -211
462 11 196 -6 210 -248 197 -110 -6 -200 -6 -200 0 0 7 12 46 28 88 30 81 82
303 104 440 15 100 29 111 137 117 421 23 521 57 542 186 6 39 28 138 49 218
63 245 10 308 -196 235 -110 -38 -253 -58 -314 -43 -51 13 -70 77 -30 102 12
7 16 20 10 30 -6 9 2 56 18 104 16 47 44 158 63 246 44 208 44 207 184 186
259 -39 395 -10 440 92 45 101 86 257 98 370 15 147 26 157 173 168 63 4 120
13 127 20 6 7 87 12 178 12 l167 0 6 -64z m257 -209 c48 -63 107 -135 133
-159 25 -24 46 -52 46 -63 0 -10 14 -29 30 -43 50 -42 34 -71 -40 -73 -45 -2
-70 7 -70 24 0 56 -86 224 -160 312 -70 83 -82 117 -39 117 8 0 53 -52 100
-115z m1449 -9 c27 -24 50 -54 50 -68 0 -26 114 -251 137 -268 7 -5 38 -43 68
-83 30 -41 66 -86 81 -100 44 -46 154 -213 154 -236 0 -11 8 -21 18 -21 23 0
151 -173 281 -382 59 -95 133 -189 164 -210 52 -34 57 -49 57 -155 l0 -116
-60 56 c-33 31 -60 66 -60 78 0 12 -18 41 -41 65 -22 24 -33 44 -25 45 9 0 0
9 -19 21 -19 11 -35 32 -35 47 0 14 -13 37 -29 50 -23 20 -124 179 -171 271
-6 11 -46 73 -90 138 -44 64 -89 132 -100 150 -11 17 -56 85 -100 150 -44 65
-115 177 -158 250 -42 73 -85 135 -95 139 -9 3 -17 17 -17 30 -1 13 -18 46
-40 73 -73 93 -52 147 30 76z m-128 -313 c24 -9 23 -63 -1 -63 -10 0 -30 11
-45 25 -14 14 -51 36 -81 50 -30 13 -51 35 -46 49 4 14 13 52 20 83 l13 58 61
-98 c34 -53 70 -100 79 -104z m-1382 76 c14 -32 33 -59 42 -59 32 0 19 -30
-23 -56 -57 -36 -115 -14 -109 41 3 25 6 75 7 112 3 80 42 62 83 -38z m1866
-17 c97 -67 194 -174 194 -212 0 -81 -49 -117 -69 -52 -7 21 -32 59 -57 86
-63 70 -179 236 -164 236 7 0 50 -26 96 -58z m-106 -494 c0 -5 34 -57 75 -114
41 -57 92 -136 113 -174 21 -39 53 -88 72 -110 18 -22 45 -69 59 -105 14 -36
34 -65 43 -65 10 0 18 -13 18 -29 0 -16 12 -36 27 -45 15 -9 52 -56 83 -106
30 -49 103 -138 162 -197 60 -59 108 -110 108 -112 0 -3 -182 -4 -404 -2
l-404 3 -66 99 c-37 55 -91 134 -121 177 -30 43 -66 97 -79 120 -13 23 -36 50
-51 62 -15 11 -48 52 -75 90 -26 39 -57 76 -68 84 -33 22 -5 36 80 41 65 4 77
-1 75 -31 -2 -20 2 -32 7 -26 10 9 132 -149 160 -206 7 -16 27 -44 44 -63 79
-87 119 -136 181 -224 61 -85 114 -116 145 -84 11 11 -24 129 -44 149 -25 25
-140 198 -140 210 0 8 -22 32 -50 54 -27 21 -50 47 -50 57 0 11 -16 36 -35 58
-87 96 -88 97 -63 181 31 101 40 100 85 -5 43 -99 157 -276 202 -314 17 -14
31 -38 31 -52 0 -15 17 -38 37 -53 20 -14 48 -47 61 -73 42 -79 107 -143 146
-143 50 0 47 83 -4 115 -22 14 -40 37 -40 51 0 25 -65 128 -202 324 -160 228
-252 467 -240 629 2 25 122 -143 122 -171z m715 -284 c36 -37 45 -67 42 -144
-4 -113 -18 -105 -105 60 -33 61 -80 138 -105 172 -26 34 -47 68 -47 76 0 17
151 -99 215 -164z m-3728 -207 c-8 -59 -18 -91 -22 -72 -5 19 -15 35 -24 35
-9 0 -21 16 -26 35 -6 19 -17 50 -24 69 -11 26 -2 35 42 40 75 9 71 16 54
-107z m2386 48 c16 -19 50 -75 76 -125 47 -88 109 -169 190 -251 23 -22 41
-50 41 -62 0 -11 17 -36 37 -54 21 -19 54 -70 73 -114 20 -43 42 -79 50 -79 8
0 10 -21 5 -47 -8 -44 76 -153 118 -153 7 0 18 -20 24 -45 7 -25 39 -74 73
-109 33 -35 60 -69 60 -75 0 -59 171 -253 213 -242 52 13 51 18 7 -149 l-13
-50 -14 55 c-8 30 -22 55 -32 55 -11 0 -35 33 -54 73 -19 40 -55 95 -81 123
-25 27 -46 62 -46 77 0 15 -8 27 -17 27 -15 0 -125 148 -193 258 -11 18 -40
61 -65 96 -25 34 -45 69 -45 78 0 25 -104 172 -165 232 -30 30 -55 63 -55 72
0 10 -20 41 -45 70 -25 28 -76 93 -115 144 -38 51 -90 117 -115 146 -25 30
-45 61 -45 69 0 30 106 14 133 -20z m-2581 -77 c30 -78 64 -112 118 -116 11
-1 20 -20 20 -42 0 -63 -121 -69 -137 -6 -11 44 -31 74 -129 197 l-47 58 71
-3 c64 -2 74 -11 104 -88z m2388 -21 c88 -121 262 -344 306 -391 28 -30 57
-73 64 -95 7 -23 21 -41 31 -41 10 0 47 -49 81 -110 34 -60 68 -110 76 -110 8
0 27 -31 42 -70 15 -38 33 -70 40 -70 7 0 33 -36 58 -80 24 -44 52 -80 60 -80
9 0 27 -24 40 -54 14 -30 42 -66 63 -81 22 -15 39 -36 39 -47 0 -19 16 -42 75
-107 14 -16 25 -36 25 -45 0 -31 113 -186 127 -173 7 8 13 -15 13 -50 0 -37
-10 -63 -25 -63 -18 -1 -18 -5 -3 -15 54 -36 -7 -105 -93 -105 -49 0 -76 8
-69 20 7 11 5 20 -4 20 -10 0 -28 25 -42 55 -14 30 -47 91 -73 135 -27 44 -69
118 -93 165 -25 47 -60 101 -79 121 -18 20 -45 58 -59 85 -14 27 -38 63 -54
79 -16 17 -78 96 -137 178 -112 153 -114 159 -71 302 45 149 -119 300 -328
300 -33 0 -34 3 -5 35 33 36 19 78 -94 282 -69 122 2 131 89 10z m-63 -269
c23 -37 21 -40 -21 -35 -30 5 -48 23 -52 52 -8 54 34 45 73 -17z m1218 -752
c43 -31 65 -65 65 -97 0 -68 -33 -61 -71 16 -18 36 -56 86 -86 111 -71 61 0
38 92 -30z m-790 -62 c90 -112 275 -386 328 -484 20 -39 53 -88 72 -110 19
-22 52 -59 73 -83 42 -47 36 -67 -20 -67 -19 0 -38 -9 -41 -19 -15 -44 -107
-32 -113 14 -4 25 -15 45 -25 45 -11 0 -19 11 -19 25 -1 14 -19 48 -41 75 -22
28 -70 95 -106 150 -37 55 -95 129 -130 164 -34 34 -63 73 -63 84 0 12 -8 22
-18 22 -22 0 -142 159 -142 187 0 11 6 14 13 7 16 -16 127 41 127 67 0 38 31
15 105 -77z m-373 -79 c135 -158 231 -275 358 -433 77 -97 163 -204 192 -237
l52 -62 -89 -47 c-94 -50 -125 -46 -125 15 0 22 -7 39 -16 39 -8 0 -32 29 -53
65 -21 36 -59 92 -85 125 -26 33 -67 86 -91 118 -25 32 -74 86 -110 121 -36
35 -65 70 -65 76 0 7 -31 44 -70 81 -38 37 -70 79 -70 92 0 13 -13 28 -30 35
-53 20 -32 44 45 52 41 5 83 10 92 12 10 1 39 -22 65 -52z m-2598 -57 c1 -50
-5 -84 -16 -77 -10 6 -18 21 -18 32 0 12 -23 39 -50 61 -60 47 -52 69 24 71
53 2 56 -3 60 -87z m2303 -33 c33 -58 101 -148 151 -200 50 -52 137 -153 193
-225 57 -71 109 -130 116 -130 7 0 22 -17 33 -37 11 -20 54 -87 96 -150 111
-166 65 -363 -49 -211 -26 33 -66 81 -88 105 -23 23 -57 77 -76 119 -20 41
-53 86 -74 99 -22 14 -39 36 -39 50 0 14 -31 70 -70 125 -38 55 -70 108 -70
118 0 10 -8 22 -17 25 -9 4 -74 75 -144 157 -70 83 -134 153 -142 156 -25 11
26 102 61 110 46 10 53 4 119 -111z m-905 2 c-13 -103 -72 -141 -72 -46 0 16
-9 29 -20 29 -11 0 -20 14 -20 30 0 17 -11 30 -25 30 -52 1 36 39 91 40 53 0
55 -3 46 -83z m-280 48 c13 -8 29 -35 37 -60 16 -52 158 -205 189 -205 22 0
30 -48 23 -134 -5 -56 64 -124 141 -139 34 -7 67 -27 74 -45 6 -18 41 -78 77
-134 l65 -103 -48 -45 c-47 -44 -50 -44 -63 -8 -8 20 -33 58 -56 83 -23 26
-57 64 -76 86 -19 21 -35 48 -35 59 0 11 -9 20 -19 20 -11 0 -35 29 -53 65
-19 36 -51 77 -71 91 -20 15 -37 37 -37 50 0 13 -27 53 -60 88 -33 35 -60 73
-60 85 0 12 -7 21 -16 21 -9 0 -42 41 -73 90 -31 50 -66 90 -78 90 -52 0 24
41 107 57 6 1 20 -4 32 -12z m-199 -151 c15 -9 27 -25 27 -36 0 -18 254 -372
309 -431 45 -48 91 -108 91 -119 0 -6 11 -23 25 -37 43 -46 91 -106 127 -161
19 -28 59 -65 90 -81 30 -16 55 -45 55 -64 0 -19 6 -54 13 -77 11 -36 5 -43
-38 -43 -31 0 -52 11 -52 28 0 15 -7 27 -15 27 -9 0 -33 32 -54 70 -20 39 -44
70 -52 70 -8 0 -34 29 -57 65 -61 95 -236 313 -469 583 -82 96 -99 142 -84
225 13 68 17 72 36 36 12 -21 34 -46 48 -55z m-920 -130 c19 -73 2 -66 -71 31
l-67 90 63 -37 c35 -21 69 -58 75 -84z m2127 76 c0 -8 87 -126 193 -262 106
-137 238 -315 293 -398 55 -82 113 -157 127 -166 15 -9 27 -28 27 -42 0 -15
23 -43 50 -64 53 -40 63 -87 29 -149 -22 -42 -59 -53 -59 -18 0 12 -25 59 -56
105 -31 46 -69 113 -83 149 -14 36 -34 65 -43 65 -10 0 -18 12 -18 27 0 14
-25 50 -55 78 -30 29 -77 81 -105 117 -27 35 -79 95 -115 133 -36 38 -65 73
-65 79 0 5 -31 46 -69 91 -39 44 -65 88 -60 97 5 8 -1 22 -14 30 -15 9 -18 5
-7 -12 11 -17 8 -21 -7 -12 -37 23 -30 194 7 179 17 -6 30 -18 30 -27z m-1300
-250 c10 6 46 -30 80 -80 34 -49 69 -90 77 -90 8 0 31 -28 51 -63 21 -34 52
-78 70 -96 17 -18 63 -74 101 -122 38 -49 77 -92 85 -96 9 -3 16 -18 16 -32 0
-14 36 -64 80 -111 93 -99 91 -93 42 -105 -35 -10 -147 97 -262 249 -16 22
-48 60 -70 86 -58 66 -253 285 -305 342 -53 59 -51 46 -20 130 21 60 25 62 31
23 4 -25 15 -41 24 -35z m1240 -61 c0 -16 8 -29 19 -29 10 0 23 -16 30 -35 10
-31 72 -105 291 -345 117 -128 179 -210 180 -236 0 -29 59 -127 90 -149 11 -8
-50 -15 -135 -15 -151 0 -155 1 -155 49 0 27 -27 80 -60 118 -33 38 -60 78
-60 90 0 12 -18 31 -40 43 -22 12 -40 31 -40 44 0 12 -23 52 -51 89 -28 37
-46 67 -40 67 6 0 -5 16 -24 37 -78 81 -185 226 -185 251 0 5 27 15 60 22 33
7 65 22 71 32 16 25 49 3 49 -33z m-284 -76 c22 -59 134 -247 164 -273 6 -5
53 -68 105 -140 51 -71 125 -165 164 -207 80 -88 85 -100 36 -86 -19 5 -58 14
-86 21 -33 7 -67 40 -97 92 -25 45 -67 105 -94 134 -26 28 -48 72 -48 96 0 25
-11 54 -25 66 -14 11 -43 62 -65 112 -22 50 -51 92 -65 92 -14 0 -23 7 -21 15
2 8 -11 44 -30 80 -34 62 -33 65 1 65 24 0 46 -24 61 -67z m-1416 -50 c33 -32
60 -62 60 -69 0 -6 25 -38 55 -70 135 -146 205 -225 205 -234 0 -5 31 -43 70
-85 163 -177 211 -260 133 -229 -57 22 -186 142 -174 162 6 10 -4 16 -21 15
-18 -2 -48 26 -67 61 -43 78 -202 293 -224 303 -17 6 -137 178 -137 194 0 25
47 3 100 -48z m295 42 c-4 -14 55 -88 155 -193 22 -23 89 -101 149 -172 60
-72 143 -165 184 -208 83 -86 83 -101 4 -121 -56 -14 -187 86 -187 142 0 14
-18 35 -40 47 -22 12 -40 34 -40 50 0 15 -12 35 -27 44 -42 24 -253 280 -253
306 0 12 -8 18 -17 12 -9 -6 -36 16 -60 49 l-44 59 90 0 c50 0 89 -7 86 -15z"/>
<path d="M2200 3440 c-27 -9 -36 -18 -20 -20 17 -2 -1 -12 -38 -23 -51 -15
-72 -13 -85 7 -25 38 -51 -10 -78 -144 -12 -60 -43 -173 -69 -250 -115 -338
-101 -354 302 -364 169 -4 268 1 268 14 0 11 13 20 28 20 38 0 116 169 134
290 8 55 24 162 37 239 29 183 16 196 -191 196 -106 0 -164 8 -183 27 -31 31
-33 31 -105 8z m105 -253 c25 -35 80 -104 122 -155 82 -97 83 -164 5 -243 -34
-34 -92 -39 -92 -8 0 12 8 16 18 10 90 -55 42 123 -59 222 -32 32 -58 68 -58
82 -1 14 -17 42 -36 64 -79 87 -85 98 -59 106 48 17 114 -16 159 -78z m254 38
c-4 -140 -40 -143 -114 -10 -35 63 -33 65 45 65 63 0 70 -5 69 -55z m-439
-175 c0 -16 9 -30 20 -30 11 0 20 -18 20 -40 0 -22 7 -40 17 -40 9 0 45 -36
81 -80 l64 -80 -49 0 c-36 0 -62 21 -95 75 -24 41 -62 95 -84 119 -21 24 -34
58 -27 75 15 40 53 40 53 1z m-77 -267 c-59 -8 -70 4 -54 54 13 39 13 39 57
-4 l44 -43 -47 -7z"/>
</g>
</svg>
