<svg xmlns="http://www.w3.org/2000/svg" viewBox="0 0 55.19 42.73"><path d="M31.34,9.1C12.74-16.08-29.6,21.81,33,42.6a1.77,1.77,0,0,0,2.29-.93A2.29,2.29,0,0,0,35,40.22c4.72-.09,17.11-19.13,19.16-23.8C59.88-3.24,39.68-4.69,31.34,9.1Zm20.08,3.63c-3,9.78-11.05,17.12-16.91,25.29a1.53,1.53,0,0,0-.28,1.29c-1.62-1.21-4.69-1.57-6.14-2.67-9-3.58-18.06-8.45-23.14-17C-2.38,4.12,25.25-.61,29.45,12.55c-3.06,5.94,2.52,7.94,2.28,4.21a4.3,4.3,0,0,0,1.45-4.28C37.75,3.67,52.82-2.28,51.42,12.73Z" fill="white"/></svg>
