<?xml version="1.0" standalone="no"?>
<!DOCTYPE svg PUBLIC "-//W3C//DTD SVG 20010904//EN"
 "http://www.w3.org/TR/2001/REC-SVG-20010904/DTD/svg10.dtd">
<svg version="1.0" xmlns="http://www.w3.org/2000/svg"
 width="300.000000pt" height="209.000000pt" viewBox="0 0 300.000000 209.000000"
 preserveAspectRatio="xMidYMid meet">
<metadata>
Created by potrace 1.10, written by Peter Selinger 2001-2011
</metadata>
<g transform="translate(0.000000,209.000000) scale(0.050000,-0.050000)"
   fill="#111827" stroke="none">
<path d="M3774 3657 c-63 -9 -144 -29 -180 -44 -35 -16 -86 -34 -114 -40 -46
-11 -95 -43 -205 -138 -63 -54 -129 -44 -411 62 -151 57 -468 126 -590 129
-152 3 -295 -11 -306 -30 -6 -9 -24 -16 -41 -16 -126 0 -371 -124 -518 -263
-34 -32 -69 -51 -79 -42 -9 8 -10 4 -3 -9 8 -13 -3 -35 -22 -50 -20 -14 -59
-57 -85 -96 -27 -38 -64 -83 -83 -100 -18 -16 -63 -75 -100 -130 -102 -152
-234 -326 -257 -340 -11 -7 -76 -86 -144 -175 -68 -89 -138 -177 -155 -195
-136 -143 -141 -166 -52 -247 97 -89 172 -206 158 -248 -8 -26 -6 -28 8 -8 19
26 145 -99 145 -144 0 -10 23 -40 51 -66 29 -26 45 -57 37 -70 -8 -13 -6 -18
4 -12 10 6 50 -25 88 -68 99 -113 189 -204 225 -227 17 -11 109 -82 205 -157
95 -76 199 -151 232 -167 32 -16 58 -37 58 -47 0 -11 14 -19 31 -19 17 0 52
-14 78 -31 49 -32 255 -112 411 -159 467 -142 969 -121 1365 58 36 15 115 44
175 63 61 19 119 42 129 51 10 10 34 18 53 18 18 0 44 13 56 28 13 15 46 34
72 40 27 7 83 35 124 63 62 43 91 50 166 41 49 -6 137 -16 195 -23 57 -6 129
-19 160 -27 95 -27 328 -2 412 44 81 43 303 184 339 214 45 38 106 172 145
323 49 190 -43 405 -236 552 -58 44 -150 121 -205 171 -55 51 -164 130 -241
177 -125 76 -142 93 -142 146 0 83 -19 221 -32 243 -6 10 -17 59 -25 108 -8
50 -22 99 -30 110 -9 11 -35 81 -58 156 -95 309 -344 532 -672 602 -11 2 -72
-3 -136 -11z m222 -108 c57 -17 104 -39 104 -50 0 -10 12 -19 27 -19 15 0 48
-18 73 -40 25 -22 54 -40 63 -40 9 0 17 -8 17 -19 0 -10 30 -49 66 -88 79 -84
92 -109 183 -361 89 -248 82 -287 -40 -205 -53 36 -272 107 -344 111 -15 1 -1
35 35 85 66 91 76 147 31 164 -28 11 -111 -80 -111 -121 0 -22 -136 -146 -160
-146 -9 0 -69 -29 -133 -65 -223 -124 -420 -183 -607 -182 -158 2 -539 43
-730 80 -70 13 -369 11 -470 -5 -277 -41 -341 -54 -351 -70 -6 -9 -60 -32
-120 -49 -60 -18 -122 -45 -138 -60 -15 -16 -46 -29 -67 -29 -22 0 -50 -13
-64 -30 -14 -16 -34 -30 -45 -30 -25 0 -321 -138 -335 -156 -5 -8 -41 -29 -80
-47 -38 -19 -113 -54 -165 -79 -130 -62 -138 -37 -28 81 51 55 93 107 93 116
0 9 50 70 110 134 61 65 110 123 110 130 0 6 40 58 90 115 49 56 90 109 90
116 0 31 247 338 328 407 21 18 53 47 71 63 75 70 180 140 208 140 17 0 36 9
43 19 48 79 611 138 764 80 31 -12 92 -29 136 -39 44 -9 130 -35 190 -59 150
-58 556 -193 630 -209 40 -9 74 -3 100 16 56 41 23 67 -121 94 -65 12 -126 26
-135 32 -24 15 170 146 217 146 23 0 50 8 60 18 69 67 269 92 405 51z m94
-835 c8 -24 17 -158 21 -298 l7 -253 -76 -69 c-93 -84 -423 -194 -581 -194
-85 0 -167 91 -152 167 6 32 11 141 11 241 l0 184 65 1 c60 0 303 83 375 128
17 10 72 37 124 61 52 23 105 54 117 69 29 35 72 17 89 -37z m312 -55 c152
-77 150 -119 -13 -274 -161 -153 -189 -145 -189 53 0 86 -6 185 -12 220 -17
84 49 84 214 1z m-2215 -334 c-14 -279 -22 -290 -186 -275 -353 33 -441 70
-441 188 0 42 -5 103 -11 135 -16 83 256 168 595 184 l55 3 -12 -235z m513
195 c118 -29 217 -40 375 -43 l150 -3 -10 -232 c-17 -404 -44 -421 -585 -374
-215 19 -231 23 -295 79 l-55 48 0 284 0 285 175 -14 c96 -7 207 -21 245 -30z
m-1260 -250 c0 -132 -29 -147 -213 -111 -189 37 -189 39 3 131 225 108 210
110 210 -20z m3210 40 c44 -26 118 -68 165 -93 47 -24 132 -86 190 -137 58
-51 126 -106 151 -123 45 -32 196 -173 235 -221 61 -77 85 -203 62 -336 -14
-87 -119 -264 -169 -285 -30 -13 -83 -48 -119 -79 -114 -96 -316 -144 -489
-115 -80 13 -177 26 -216 29 -111 7 -200 31 -200 55 0 12 -5 16 -12 9 -23 -22
-377 196 -360 222 5 9 -15 17 -44 20 -29 2 -59 16 -68 31 -8 15 -65 62 -125
103 -61 42 -111 86 -111 97 0 11 -6 14 -12 7 -7 -7 -41 8 -75 34 -142 104
-414 199 -455 158 -33 -33 -10 -56 86 -85 149 -45 149 -45 76 -66 -67 -18
-577 -10 -680 11 -27 6 -122 16 -210 23 -166 14 -488 77 -541 106 -51 29 100
172 231 220 238 87 240 87 263 36 38 -83 117 -124 270 -138 79 -7 188 -23 242
-36 208 -48 505 20 505 114 0 42 24 35 77 -21 63 -67 176 -66 423 3 332 93
585 43 731 -145 120 -154 146 -170 187 -120 60 72 -236 333 -444 391 -96 27
-117 48 -65 68 15 6 31 36 35 66 5 46 20 60 90 80 48 13 112 54 150 93 79 84
120 88 226 24z m-3700 -421 c55 -18 128 -45 163 -61 35 -15 68 -28 74 -28 7 0
64 -23 127 -52 343 -154 522 -216 696 -238 55 -7 127 -21 160 -30 62 -17 253
-33 640 -53 157 -8 262 -2 367 20 169 35 178 33 313 -67 55 -40 172 -124 260
-187 88 -62 169 -120 180 -129 11 -9 59 -39 106 -67 l87 -52 -99 -61 c-55 -33
-139 -74 -187 -91 -85 -29 -207 -77 -287 -112 -653 -289 -1644 -147 -2090 299
-19 19 -76 63 -127 98 -51 35 -93 72 -93 83 0 10 -14 19 -31 19 -16 0 -35 14
-42 30 -6 17 -23 30 -37 30 -14 0 -39 20 -57 45 -17 25 -56 74 -87 109 -92
106 -159 189 -260 324 -53 71 -114 151 -135 178 l-39 50 149 -12 c82 -6 194
-26 249 -45z"/>
<path d="M3904 3336 c-13 -13 -24 -42 -24 -65 -1 -146 -181 -415 -290 -434
-23 -4 -43 -26 -46 -50 -9 -59 59 -79 131 -39 30 17 71 37 90 44 19 7 35 21
35 30 0 10 9 18 19 18 23 0 151 82 222 143 32 27 49 62 48 95 -2 29 -4 76 -6
106 -2 29 -15 65 -29 80 -14 14 -32 42 -39 61 -16 40 -76 46 -111 11z"/>
<path d="M3319 2869 c-107 -79 -297 -106 -366 -52 -87 68 -170 31 -132 -59 92
-221 619 -176 619 53 0 99 -40 118 -121 58z"/>
<path d="M5204 1816 c-13 -13 -24 -63 -24 -110 0 -156 -106 -355 -177 -333
-29 9 -29 8 -3 -12 26 -20 23 -28 -20 -57 -181 -125 -207 -184 -96 -222 120
-42 357 124 435 305 71 166 -23 521 -115 429z"/>
</g>
</svg>
