<svg width="76" height="72" viewBox="0 0 76 72" fill="none" xmlns="http://www.w3.org/2000/svg">
<rect width="76" height="45" y="14" fill="white"/>
<path d="M0 12.7789L13 12.7789C13.0426 12.7826 12.9574 12.7789 13 12.7789C13.1803 12.5873 13.5024 12.1476 13.7167 11.9104C14.1478 11.4331 14.6609 10.8651 15.306 10.216C22.128 3.597 30.974 0 40.294 0C60.032 0 76 16.261 76 36C76 55.75 60.031 72 40.292 72C30.96 72 22.116 68.025 15.386 61.484L13 58.83C12.8735 58.8103 13.1419 58.8163 13 58.83H0V58.7789C0 57.3839 0.900986 55.279 1.60399 54.095C5.13799 47.999 14.138 45.712 20.234 49.692L21.388 50.687L23.556 53.1C28.078 57.492 34.026 59.916 40.292 59.916C53.581 59.916 64.388 49.103 64.388 35.82C64.388 22.531 53.576 11.713 40.292 11.713C34.03 11.713 28.078 14.137 23.544 18.54C23.0431 19.0457 22.6485 19.5301 22.259 20.0083L22.212 20.066C21.468 20.999 20.474 21.947 19.65 22.502C12.412 26.533 5.00101 23.577 1.593 17.717C0.889999 16.493 0 15.1519 0 13.7789V12.7789Z" fill="#e5e7eb"/>
</svg>
