<svg xmlns="http://www.w3.org/2000/svg" viewBox="0 0 178.91 51.46"><path d="M178.43,11.79c-3-12.17-45.59-15.6-32.51-7.07,67.71,7,4.11,38.07-40.7,20.52-1.5,5.58-3.51,4-2.76-.9-1.7-.57-3.39-1.16-5.09-1.76-.88,1.43-2,2.72-2.88,4.15,19.56,7.42,41.07,11.45,61.79,6.9C166.47,31.68,181.85,24.4,178.43,11.79Z" fill="#010101"/><path d="M93.92,21.38c-25-10.25-57-19.14-79.72.74C7,29.07-2.85,40.42.78,51c1.46,1.33,4-.28,1.88-1.74.86-16.84,17.19-29.56,32.72-33,19.14-4.42,38.17,2.5,55.86,9.31A34.62,34.62,0,0,1,93.92,21.38Z" fill="#010101"/><path d="M97.37,22.58c.83-1.15.81-2.85,1.77-3.86h0c-3.38-3.2-10.09,9.09-8.93,12.32C93.81,29.81,95,25.26,97.37,22.58Z" fill="#010101"/><path d="M102.57,28c1.78,3.73,3.84-7.78,4.69-9.29C103.26,17.91,101.72,25,102.57,28Z" fill="#010101"/></svg>