<?xml version="1.0" standalone="no"?>
<!DOCTYPE svg PUBLIC "-//W3C//DTD SVG 20010904//EN"
 "http://www.w3.org/TR/2001/REC-SVG-20010904/DTD/svg10.dtd">
<svg version="1.0" xmlns="http://www.w3.org/2000/svg"
 width="300.000000pt" height="254.000000pt" viewBox="0 0 300.000000 254.000000"
 preserveAspectRatio="xMidYMid meet">
<metadata>
Created by potrace 1.10, written by Peter Selinger 2001-2011
</metadata>
<g transform="translate(0.000000,254.000000) scale(0.050000,-0.050000)"
   fill="#111827" stroke="none">
<path d="M3237 4945 c-350 -355 -452 -445 -587 -516 -77 -40 -198 -112 -270
-158 -71 -47 -179 -117 -240 -155 -225 -142 -400 -376 -400 -536 0 -101 66
-222 261 -480 137 -182 175 -252 188 -353 26 -186 27 -207 11 -217 -18 -11
-125 118 -146 174 -7 19 -44 48 -82 64 -67 28 -70 34 -76 145 -6 116 -76 198
-76 89 0 -87 -145 -103 -167 -19 -8 33 -21 39 -57 29 -157 -45 -160 -44 -145
35 16 86 -20 98 -108 35 -105 -75 -219 -64 -248 23 -11 33 -81 -3 -177 -94
l-71 -67 -116 109 c-120 112 -182 130 -179 51 2 -58 -11 -56 -65 11 -71 89
-103 36 -59 -99 24 -75 27 -108 11 -113 -108 -36 -192 -183 -126 -219 31 -18
31 -22 0 -66 -46 -66 -41 -95 22 -122 30 -13 58 -26 61 -28 3 -1 -23 -56 -58
-120 -62 -116 -63 -119 -32 -193 89 -209 287 -156 424 112 13 24 39 41 60 40
42 -4 150 45 150 69 2 60 39 69 98 22 34 -26 89 -69 122 -95 93 -71 132 -157
92 -201 -17 -19 -37 -64 -45 -100 -7 -36 -23 -68 -35 -72 -12 -4 -88 -26 -168
-50 -150 -45 -253 -113 -274 -181 -22 -68 217 -467 288 -482 34 -7 141 -19
212 -25 44 -3 107 -19 140 -37 81 -42 317 -45 350 -5 53 64 -111 240 -194 208
-39 -14 -60 -4 -136 69 -148 142 -119 190 92 151 213 -39 297 -43 355 -19 47
19 68 15 145 -28 94 -52 331 -99 623 -122 85 -7 156 -18 157 -26 11 -102 78
-205 176 -269 68 -45 121 -66 340 -130 33 -10 70 -57 120 -154 83 -162 205
-316 293 -370 33 -21 82 -57 108 -79 71 -62 108 -47 130 52 12 56 4 73 -65
140 -43 42 -95 109 -116 147 -21 39 -44 75 -50 80 -32 26 -40 100 -11 100 31
0 113 -91 113 -125 0 -67 280 -455 329 -455 12 0 58 -19 103 -43 110 -58 157
-41 142 53 -18 112 -59 179 -114 187 -60 8 -127 67 -185 163 -24 38 -48 75
-54 80 -24 21 -61 124 -51 141 23 37 -17 120 -77 159 -151 97 -143 75 -143
371 0 412 108 362 427 -195 124 -218 338 -307 245 -102 l-24 52 70 -58 c165
-136 252 -188 313 -188 37 0 18 83 -30 131 -65 65 -58 63 96 -31 147 -89 353
-132 353 -73 0 17 -9 36 -20 43 -52 32 -10 44 75 21 143 -38 268 -107 337
-186 134 -156 171 -9 44 178 -89 130 -231 194 -496 224 -175 19 -268 79 -115
73 131 -6 138 -3 131 41 -4 32 -59 65 -229 139 -123 53 -261 125 -307 158
-192 139 -485 226 -731 219 l-222 -7 -51 83 c-105 168 -274 217 -628 179 -159
-17 -270 5 -348 70 l-50 41 50 -13 c200 -54 368 -21 289 58 -29 29 -27 32 26
32 195 0 354 119 200 150 -173 35 -178 55 -20 88 197 42 282 107 176 133 -44
12 -77 53 -36 47 92 -15 270 89 261 151 -5 31 24 56 134 112 164 85 193 138
76 141 l-76 2 72 17 c124 30 278 98 326 144 78 77 135 171 111 185 -12 8 37
52 111 101 238 156 364 371 153 261 -76 -39 -304 -110 -292 -91 5 9 80 59 164
111 407 248 525 346 555 464 22 90 -19 93 -143 9 -153 -104 -389 -225 -483
-248 -257 -63 -507 -103 -734 -117 -143 -9 -289 -23 -325 -31 l-64 -14 31 62
c38 77 21 110 -49 94 l-53 -12 50 46 c88 79 280 314 280 343 0 53 -56 48 -111
-10 -91 -94 -96 -67 -11 59 97 143 151 298 151 441 1 145 -17 144 -172 -13z
m104 -88 c-38 -150 -143 -331 -277 -478 -136 -149 -154 -238 -29 -146 170 125
181 82 17 -69 -155 -143 -161 -219 -12 -167 l60 21 -44 -59 c-24 -33 -61 -59
-82 -59 -289 0 -602 -420 -604 -810 -1 -197 -62 -569 -100 -606 -5 -6 -10 61
-11 148 -1 224 -20 269 -229 548 -271 361 -280 477 -55 712 66 69 312 248 340
248 6 0 41 23 77 50 36 28 71 50 77 50 6 0 48 26 92 59 45 32 108 64 141 71
54 12 287 219 566 503 97 99 101 98 73 -16z m1319 -678 c-60 -54 -137 -113
-170 -130 -33 -18 -78 -43 -100 -56 -22 -13 -152 -90 -290 -172 -137 -81 -253
-150 -257 -153 -34 -27 22 -64 71 -48 240 76 473 140 481 132 44 -45 -338
-220 -585 -269 -153 -30 -180 -41 -180 -74 0 -29 12 -37 44 -33 422 59 504 13
189 -103 -198 -73 -226 -76 -349 -33 -139 49 -214 52 -214 8 0 -17 16 -36 35
-41 89 -24 308 -121 308 -137 0 -48 -193 -94 -347 -83 -224 17 -221 -64 4
-107 195 -37 129 -88 -117 -89 -215 -1 -234 -37 -53 -98 137 -46 133 -49 -130
-100 -173 -34 -178 -69 -19 -132 174 -69 -35 -114 -236 -51 -82 26 -57 -63 30
-109 90 -47 51 -51 -108 -12 -269 65 -308 56 -198 -48 45 -42 47 -50 20 -88
-66 -95 -20 -152 47 -59 l40 55 97 -44 c102 -47 165 -52 457 -37 356 19 574
-204 568 -582 -4 -267 -30 -273 -86 -21 -23 101 -79 70 -63 -36 25 -169 155
-350 306 -427 34 -18 45 -41 45 -94 0 -90 55 -196 167 -321 83 -92 117 -187
66 -187 -42 0 -179 202 -303 447 -29 58 -64 89 -142 125 -126 57 -215 155
-262 288 -36 100 -86 135 -86 59 0 -22 19 -77 41 -122 l42 -81 -47 15 c-40 12
-98 53 -165 119 -59 58 -191 230 -191 249 0 26 4 27 -131 -8 -216 -57 -789 27
-939 137 -36 26 -35 29 21 78 49 42 54 56 33 78 -22 21 -44 7 -127 -81 -83
-89 -109 -105 -154 -97 -371 67 -444 66 -483 -5 -29 -56 40 -180 151 -271 78
-64 120 -150 72 -150 -41 0 -203 127 -248 195 -184 278 -190 263 122 325 220
45 250 64 235 149 -43 235 -36 270 84 396 103 107 59 156 -48 54 -123 -119
-164 -281 -109 -427 25 -65 -3 -82 -191 -113 -76 -12 -156 -26 -178 -30 -22
-4 -61 -23 -87 -43 -150 -113 -157 -159 -43 -264 80 -73 105 -142 52 -142 -55
0 -263 354 -244 414 14 41 101 84 302 149 154 49 169 62 170 142 0 81 24 66
80 -50 50 -104 100 -146 100 -86 0 18 -13 52 -29 77 -15 24 -48 105 -72 180
-52 162 -98 221 -259 329 -67 45 -122 90 -121 99 3 43 -48 9 -65 -44 -31 -97
-53 -114 -132 -100 -67 11 -74 7 -100 -54 -89 -207 -196 -282 -282 -196 -50
50 -51 108 -4 177 20 29 50 89 68 133 17 44 41 103 52 130 l20 50 33 -76 c33
-78 71 -83 71 -10 0 33 5 37 29 17 35 -29 73 -11 59 28 -8 20 8 30 55 35 82 7
88 44 10 52 -37 5 -53 16 -46 34 22 57 -44 46 -68 -11 -32 -78 -152 -91 -127
-14 7 25 28 56 46 68 116 85 114 82 83 131 -108 175 -98 220 24 103 76 -73
124 -104 185 -118 51 -12 334 -49 460 -60 207 -19 274 -41 404 -134 65 -47
140 -97 167 -112 96 -54 218 -153 218 -178 1 -14 11 -25 22 -25 12 0 19 -20
15 -45 -13 -92 55 -44 119 85 86 170 129 378 136 654 15 568 284 783 1069 855
182 17 353 35 380 41 28 5 82 15 120 22 245 44 446 122 687 270 98 59 92 44
-27 -63z m-302 -2465 c114 -51 227 -110 250 -131 23 -22 123 -73 222 -114 224
-92 227 -95 80 -86 -237 14 -54 -164 200 -195 265 -32 442 -114 503 -235 l32
-63 -58 52 c-72 65 -213 131 -317 149 -44 7 -123 25 -175 40 -112 32 -140 8
-74 -62 71 -76 7 -63 -164 33 -178 100 -261 174 -247 219 8 23 -18 48 -95 89
-58 31 -143 86 -188 123 -46 37 -98 67 -115 67 -17 0 -68 40 -112 88 -88 95
-175 132 -209 88 -23 -29 -191 -26 -191 3 0 85 411 44 658 -65z m-325 -59 c98
-103 258 -319 252 -340 -3 -9 8 -48 25 -88 61 -146 -7 -79 -110 108 -26 47
-55 85 -64 85 -9 0 -16 10 -16 21 0 20 -111 194 -139 219 -33 30 -63 80 -48
80 10 0 55 -38 100 -85z m-2972 -146 c24 -39 40 -75 35 -80 -17 -17 -120 108
-107 129 19 32 23 29 72 -49z m3433 -158 c26 -8 40 -24 33 -40 -14 -38 22
-100 120 -207 l83 -90 -125 84 c-128 88 -217 187 -196 221 7 11 -15 33 -48 50
-52 27 -101 85 -101 120 0 6 43 -19 95 -57 52 -37 115 -73 139 -81z m-1360
-113 c94 -104 177 -157 286 -185 71 -19 156 -100 172 -166 8 -31 45 -106 81
-166 63 -105 87 -201 50 -201 -18 0 -172 176 -184 210 -4 11 -15 29 -24 40
-10 11 -47 74 -83 140 -54 98 -78 123 -134 137 -287 71 -458 196 -458 333 0
26 17 40 55 45 55 8 73 -6 239 -187z"/>
<path d="M2636 4182 c-49 -69 -264 -202 -326 -202 -33 0 -141 -95 -126 -111
66 -66 612 296 564 374 -21 35 -59 14 -112 -61z"/>
<path d="M1967 3851 c-93 -65 -113 -287 -37 -404 27 -42 104 -70 87 -32 -96
218 -95 315 4 389 95 70 43 115 -54 47z"/>
<path d="M3320 3598 c-151 -41 -213 -39 -445 14 -73 17 -77 -45 -5 -72 103
-39 355 -46 450 -12 50 17 119 32 155 32 52 0 65 8 65 40 0 50 -27 49 -220 -2z"/>
<path d="M2704 3488 c-73 -51 -132 -227 -174 -518 -7 -54 -31 -123 -52 -153
-40 -55 -51 -117 -21 -117 54 0 124 163 171 400 53 266 68 320 90 320 8 0 30
12 50 26 58 42 -5 84 -64 42z"/>
<path d="M993 2727 c-71 -72 379 -307 587 -307 149 0 66 72 -90 78 -69 3 -306
118 -393 192 -63 52 -81 59 -104 37z"/>
<path d="M1745 2088 c-86 -72 -110 -128 -55 -128 17 0 30 7 30 15 0 9 36 38
80 65 75 46 98 98 50 113 -11 3 -58 -26 -105 -65z"/>
<path d="M4300 1640 c0 -12 25 -32 55 -45 146 -64 250 -145 315 -246 73 -114
138 -165 161 -127 8 12 -10 44 -39 71 -28 27 -70 84 -92 127 -61 120 -400 306
-400 220z"/>
</g>
</svg>
