<?xml version="1.0" standalone="no"?>
<!DOCTYPE svg PUBLIC "-//W3C//DTD SVG 20010904//EN"
 "http://www.w3.org/TR/2001/REC-SVG-20010904/DTD/svg10.dtd">
<svg version="1.0" xmlns="http://www.w3.org/2000/svg"
 width="300.000000pt" height="238.000000pt" viewBox="0 0 300.000000 238.000000"
 preserveAspectRatio="xMidYMid meet">
<metadata>
Created by potrace 1.10, written by Peter Selinger 2001-2011
</metadata>
<g transform="translate(0.000000,238.000000) scale(0.050000,-0.050000)"
fill="#111827" stroke="none">
<path d="M3383 4698 c-429 -170 -603 -758 -426 -1438 33 -126 93 -356 133
-510 223 -851 -84 -1278 -755 -1052 -250 84 -405 226 -737 675 -375 507 -501
598 -828 596 -505 -3 -719 -240 -745 -823 -29 -657 142 -1237 527 -1787 266
-381 384 -407 914 -200 256 101 255 45 11 517 -263 506 -295 625 -225 830 61
181 181 115 373 -206 333 -557 788 -775 1462 -700 839 94 1139 595 987 1650
-30 207 -39 363 -36 603 3 182 153 294 295 221 140 -74 237 -229 389 -627 220
-577 298 -663 578 -643 262 19 632 286 686 495 22 85 -44 176 -311 427 -295
278 -439 450 -699 834 -466 688 -691 936 -982 1080 -216 108 -434 128 -611 58z
m572 -148 c3 -2 -25 -70 -63 -152 -145 -314 -142 -486 16 -969 100 -307 98
-311 -63 -152 -467 459 -586 1210 -204 1280 73 14 295 9 314 -7z m-677 -370
c54 -332 117 -509 284 -801 162 -282 162 -280 -5 -203 -365 168 -554 436 -532
754 10 136 27 185 142 407 69 132 62 142 111 -157z m926 140 c50 -33 141 -124
203 -202 l113 -141 -136 -134 c-144 -141 -184 -225 -215 -453 -24 -170 -38
-165 -116 40 -146 382 -172 678 -76 865 54 104 99 109 227 25z m468 -597 c43
-32 103 -84 133 -117 l56 -59 -183 -164 c-238 -212 -330 -202 -353 37 -27 275
161 439 347 303z m349 -464 l64 -81 -43 -31 c-24 -17 -113 -85 -198 -152 -85
-66 -166 -130 -180 -141 -21 -16 -23 6 -13 118 24 254 36 280 154 326 141 54
142 54 216 -39z m-1462 -201 l409 -167 -89 -26 c-230 -66 -443 -52 -581 40
-97 65 -252 360 -173 330 14 -6 209 -85 434 -177z m1727 -147 l76 -32 -158
-156 c-87 -86 -198 -209 -246 -273 l-88 -117 -15 138 c-45 425 105 579 431
440z m-4502 -306 c-11 -351 13 -450 197 -799 76 -146 139 -270 139 -276 0 -38
-269 135 -370 238 -229 233 -374 671 -282 848 42 81 251 251 323 264 1 0 -2
-124 -7 -275z m481 -20 c70 -92 69 -139 -8 -335 -56 -139 -64 -185 -65 -355
-2 -232 -3 -231 -162 95 -171 350 -185 527 -57 746 l49 85 94 -81 c52 -45 119
-115 149 -155z m2590 82 c52 -13 71 -227 20 -227 -130 2 -436 118 -555 210
l-70 54 280 -13 c154 -7 300 -18 325 -24z m-3546 -142 c42 -412 130 -609 410
-919 l202 -224 -105 30 c-549 157 -793 594 -609 1093 70 190 84 193 102 20z
m5287 75 c122 -53 121 -54 -66 -132 -184 -76 -284 -177 -361 -363 -72 -178
-79 -178 -108 -13 -73 422 180 662 535 508z m-1796 -285 c110 -28 158 -105
160 -260 0 -60 -331 8 -442 90 -49 36 -218 254 -218 281 0 9 232 -43 500 -111z
m2083 29 c-116 -163 -318 -308 -493 -353 -142 -37 -144 -36 -89 72 115 230
280 327 565 335 l57 2 -40 -56z m-4336 -122 c51 -65 93 -126 93 -135 0 -22
-285 -307 -307 -307 -45 0 -2 348 56 455 69 126 47 128 158 -13z m2113 -262
c348 -102 325 -83 308 -248 -16 -157 -17 -157 -243 -52 -213 99 -552 442 -390
395 19 -6 166 -49 325 -95z m-1896 -74 c-115 -143 -251 -263 -234 -206 37 125
105 207 220 266 82 42 85 29 14 -60z m1787 -271 c76 -38 202 -90 279 -115 77
-25 143 -48 147 -51 14 -12 -139 -231 -169 -242 -144 -56 -452 248 -538 529
l-14 47 78 -49 c43 -27 141 -81 217 -119z m-1589 110 c-11 -19 -71 -97 -135
-173 l-115 -139 -25 59 c-51 119 -39 141 118 216 170 80 183 83 157 37z m195
-240 c-55 -220 -157 -525 -176 -525 -29 0 -121 242 -121 320 0 89 53 162 206
283 132 104 136 100 91 -78z m-1695 -72 c86 -50 244 -97 528 -156 l120 -25
-90 -14 c-412 -68 -621 -1 -783 250 -102 156 -97 168 28 76 58 -42 146 -101
197 -131z m2804 34 c109 -144 230 -254 395 -361 144 -93 144 -91 12 -132 -293
-93 -440 5 -491 328 -34 220 -43 327 -25 307 9 -10 58 -74 109 -142z m-256
-62 c66 -214 137 -356 257 -519 l91 -124 -104 10 c-348 35 -456 243 -345 663
47 176 36 179 101 -30z m-585 20 c-18 -88 -25 -227 -21 -400 3 -146 4 -265 1
-265 -3 0 -39 37 -80 83 -200 220 -199 354 3 602 120 147 131 145 97 -20z
m326 -186 c17 -170 39 -358 50 -417 24 -140 19 -143 -95 -50 -294 240 -308
383 -68 691 89 114 76 140 113 -224z m-2127 -138 c157 -12 340 -24 406 -26
l120 -5 -154 -65 c-205 -87 -360 -103 -478 -50 -88 40 -278 197 -214 178 18
-6 162 -20 320 -32z m518 -289 c-203 -207 -386 -241 -609 -114 -64 37 -113 69
-109 73 3 3 177 34 386 69 209 35 384 68 388 72 59 56 6 -36 -56 -100z m198
-191 c-116 -228 -211 -272 -565 -264 -160 4 -147 20 120 149 448 215 504 230
445 115z m150 -236 c-7 -41 -15 -76 -17 -76 -26 -13 -317 -89 -336 -89 -15 0
54 54 153 120 212 141 219 143 200 45z"/>
</g>
</svg>
