<svg xmlns="http://www.w3.org/2000/svg" version="1.1" xmlns:xlink="http://www.w3.org/1999/xlink" xmlns:svgjs="http://svgjs.com/svgjs" width="3440" height="840" preserveAspectRatio="none" viewBox="0 0 3440 840"><g mask="url(&quot;#SvgjsMask1069&quot;)" fill="none"><rect width="3440" height="840" x="0" y="0" fill="rgba(17, 24, 39, 1)"></rect><path d="M2592 138L2591 704" stroke-width="10" stroke="url(#SvgjsLinearGradient1070)" stroke-linecap="round" class="Up"></path><path d="M2707 673L2706 119" stroke-width="10" stroke="url(#SvgjsLinearGradient1070)" stroke-linecap="round" class="Up"></path><path d="M1031 4L1030 -215" stroke-width="8" stroke="url(#SvgjsLinearGradient1070)" stroke-linecap="round" class="Up"></path><path d="M1446 618L1445 186" stroke-width="10" stroke="url(#SvgjsLinearGradient1071)" stroke-linecap="round" class="Down"></path><path d="M862 424L861 170" stroke-width="6" stroke="url(#SvgjsLinearGradient1070)" stroke-linecap="round" class="Up"></path><path d="M1215 30L1214 -294" stroke-width="8" stroke="url(#SvgjsLinearGradient1070)" stroke-linecap="round" class="Up"></path><path d="M552 246L551 -59" stroke-width="10" stroke="url(#SvgjsLinearGradient1071)" stroke-linecap="round" class="Down"></path><path d="M2343 472L2342 172" stroke-width="6" stroke="url(#SvgjsLinearGradient1071)" stroke-linecap="round" class="Down"></path><path d="M3212 509L3211 294" stroke-width="10" stroke="url(#SvgjsLinearGradient1070)" stroke-linecap="round" class="Up"></path><path d="M791 46L790 -417" stroke-width="8" stroke="url(#SvgjsLinearGradient1070)" stroke-linecap="round" class="Up"></path><path d="M3423 690L3422 63" stroke-width="6" stroke="url(#SvgjsLinearGradient1071)" stroke-linecap="round" class="Down"></path><path d="M996 792L995 1185" stroke-width="10" stroke="url(#SvgjsLinearGradient1070)" stroke-linecap="round" class="Up"></path><path d="M2142 625L2141 1136" stroke-width="6" stroke="url(#SvgjsLinearGradient1070)" stroke-linecap="round" class="Up"></path><path d="M957 174L956 484" stroke-width="6" stroke="url(#SvgjsLinearGradient1071)" stroke-linecap="round" class="Down"></path><path d="M1655 589L1654 1176" stroke-width="10" stroke="url(#SvgjsLinearGradient1071)" stroke-linecap="round" class="Down"></path><path d="M479 838L478 227" stroke-width="10" stroke="url(#SvgjsLinearGradient1071)" stroke-linecap="round" class="Down"></path><path d="M2085 431L2084 985" stroke-width="6" stroke="url(#SvgjsLinearGradient1070)" stroke-linecap="round" class="Up"></path><path d="M1722 438L1721 701" stroke-width="8" stroke="url(#SvgjsLinearGradient1071)" stroke-linecap="round" class="Down"></path><path d="M3419 317L3418 -149" stroke-width="10" stroke="url(#SvgjsLinearGradient1070)" stroke-linecap="round" class="Up"></path><path d="M1849 555L1848 815" stroke-width="6" stroke="url(#SvgjsLinearGradient1071)" stroke-linecap="round" class="Down"></path><path d="M3241 596L3240 137" stroke-width="8" stroke="url(#SvgjsLinearGradient1070)" stroke-linecap="round" class="Up"></path><path d="M2995 158L2994 -307" stroke-width="6" stroke="url(#SvgjsLinearGradient1071)" stroke-linecap="round" class="Down"></path><path d="M2738 601L2737 976" stroke-width="10" stroke="url(#SvgjsLinearGradient1070)" stroke-linecap="round" class="Up"></path><path d="M504 456L503 78" stroke-width="6" stroke="url(#SvgjsLinearGradient1070)" stroke-linecap="round" class="Up"></path><path d="M2069 68L2068 -286" stroke-width="6" stroke="url(#SvgjsLinearGradient1071)" stroke-linecap="round" class="Down"></path><path d="M2711 584L2710 1078" stroke-width="6" stroke="url(#SvgjsLinearGradient1070)" stroke-linecap="round" class="Up"></path><path d="M2507 152L2506 716" stroke-width="8" stroke="url(#SvgjsLinearGradient1071)" stroke-linecap="round" class="Down"></path><path d="M180 653L179 273" stroke-width="6" stroke="url(#SvgjsLinearGradient1071)" stroke-linecap="round" class="Down"></path><path d="M1280 645L1279 149" stroke-width="6" stroke="url(#SvgjsLinearGradient1071)" stroke-linecap="round" class="Down"></path><path d="M646 425L645 138" stroke-width="10" stroke="url(#SvgjsLinearGradient1070)" stroke-linecap="round" class="Up"></path><path d="M1075 680L1074 190" stroke-width="8" stroke="url(#SvgjsLinearGradient1071)" stroke-linecap="round" class="Down"></path><path d="M830 127L829 -126" stroke-width="6" stroke="url(#SvgjsLinearGradient1070)" stroke-linecap="round" class="Up"></path><path d="M2677 739L2676 973" stroke-width="10" stroke="url(#SvgjsLinearGradient1070)" stroke-linecap="round" class="Up"></path><path d="M3322 651L3321 41" stroke-width="10" stroke="url(#SvgjsLinearGradient1071)" stroke-linecap="round" class="Down"></path><path d="M1007 203L1006 -140" stroke-width="8" stroke="url(#SvgjsLinearGradient1070)" stroke-linecap="round" class="Up"></path><path d="M2089 17L2088 628" stroke-width="8" stroke="url(#SvgjsLinearGradient1070)" stroke-linecap="round" class="Up"></path><path d="M1411 416L1410 -209" stroke-width="8" stroke="url(#SvgjsLinearGradient1070)" stroke-linecap="round" class="Up"></path><path d="M2434 200L2433 808" stroke-width="6" stroke="url(#SvgjsLinearGradient1070)" stroke-linecap="round" class="Up"></path><path d="M616 776L615 1316" stroke-width="6" stroke="url(#SvgjsLinearGradient1071)" stroke-linecap="round" class="Down"></path><path d="M1558 176L1557 -391" stroke-width="8" stroke="url(#SvgjsLinearGradient1070)" stroke-linecap="round" class="Up"></path><path d="M1231 289L1230 -120" stroke-width="8" stroke="url(#SvgjsLinearGradient1070)" stroke-linecap="round" class="Up"></path><path d="M2997 389L2996 -6" stroke-width="6" stroke="url(#SvgjsLinearGradient1071)" stroke-linecap="round" class="Down"></path><path d="M1218 234L1217 543" stroke-width="8" stroke="url(#SvgjsLinearGradient1071)" stroke-linecap="round" class="Down"></path><path d="M220 167L219 -186" stroke-width="6" stroke="url(#SvgjsLinearGradient1070)" stroke-linecap="round" class="Up"></path><path d="M2178 800L2177 359" stroke-width="6" stroke="url(#SvgjsLinearGradient1071)" stroke-linecap="round" class="Down"></path><path d="M2417 92L2416 430" stroke-width="8" stroke="url(#SvgjsLinearGradient1070)" stroke-linecap="round" class="Up"></path><path d="M1560 119L1559 -212" stroke-width="6" stroke="url(#SvgjsLinearGradient1071)" stroke-linecap="round" class="Down"></path><path d="M1880 316L1879 -153" stroke-width="10" stroke="url(#SvgjsLinearGradient1071)" stroke-linecap="round" class="Down"></path><path d="M1058 605L1057 1068" stroke-width="10" stroke="url(#SvgjsLinearGradient1071)" stroke-linecap="round" class="Down"></path><path d="M417 188L416 -256" stroke-width="8" stroke="url(#SvgjsLinearGradient1071)" stroke-linecap="round" class="Down"></path><path d="M788 476L787 922" stroke-width="8" stroke="url(#SvgjsLinearGradient1070)" stroke-linecap="round" class="Up"></path><path d="M2429 468L2428 827" stroke-width="6" stroke="url(#SvgjsLinearGradient1071)" stroke-linecap="round" class="Down"></path><path d="M929 100L928 -293" stroke-width="6" stroke="url(#SvgjsLinearGradient1070)" stroke-linecap="round" class="Up"></path><path d="M823 601L822 860" stroke-width="8" stroke="url(#SvgjsLinearGradient1070)" stroke-linecap="round" class="Up"></path><path d="M225 494L224 124" stroke-width="6" stroke="url(#SvgjsLinearGradient1071)" stroke-linecap="round" class="Down"></path><path d="M2167 194L2166 -97" stroke-width="10" stroke="url(#SvgjsLinearGradient1071)" stroke-linecap="round" class="Down"></path><path d="M3328 12L3327 506" stroke-width="8" stroke="url(#SvgjsLinearGradient1070)" stroke-linecap="round" class="Up"></path><path d="M2345 606L2344 381" stroke-width="6" stroke="url(#SvgjsLinearGradient1070)" stroke-linecap="round" class="Up"></path><path d="M812 528L811 157" stroke-width="6" stroke="url(#SvgjsLinearGradient1071)" stroke-linecap="round" class="Down"></path><path d="M384 644L383 346" stroke-width="6" stroke="url(#SvgjsLinearGradient1070)" stroke-linecap="round" class="Up"></path><path d="M3069 456L3068 702" stroke-width="6" stroke="url(#SvgjsLinearGradient1071)" stroke-linecap="round" class="Down"></path><path d="M276 775L275 1249" stroke-width="10" stroke="url(#SvgjsLinearGradient1070)" stroke-linecap="round" class="Up"></path><path d="M1197 452L1196 805" stroke-width="8" stroke="url(#SvgjsLinearGradient1071)" stroke-linecap="round" class="Down"></path><path d="M3252 778L3251 476" stroke-width="8" stroke="url(#SvgjsLinearGradient1071)" stroke-linecap="round" class="Down"></path><path d="M317 422L316 829" stroke-width="6" stroke="url(#SvgjsLinearGradient1071)" stroke-linecap="round" class="Down"></path><path d="M2971 0L2970 -524" stroke-width="6" stroke="url(#SvgjsLinearGradient1071)" stroke-linecap="round" class="Down"></path><path d="M1645 669L1644 994" stroke-width="6" stroke="url(#SvgjsLinearGradient1071)" stroke-linecap="round" class="Down"></path><path d="M352 327L351 49" stroke-width="6" stroke="url(#SvgjsLinearGradient1071)" stroke-linecap="round" class="Down"></path><path d="M1093 762L1092 277" stroke-width="6" stroke="url(#SvgjsLinearGradient1071)" stroke-linecap="round" class="Down"></path><path d="M966 19L965 -491" stroke-width="10" stroke="url(#SvgjsLinearGradient1071)" stroke-linecap="round" class="Down"></path><path d="M627 217L626 564" stroke-width="10" stroke="url(#SvgjsLinearGradient1070)" stroke-linecap="round" class="Up"></path><path d="M2267 258L2266 38" stroke-width="10" stroke="url(#SvgjsLinearGradient1071)" stroke-linecap="round" class="Down"></path><path d="M1393 739L1392 1285" stroke-width="8" stroke="url(#SvgjsLinearGradient1071)" stroke-linecap="round" class="Down"></path><path d="M636 23L635 623" stroke-width="8" stroke="url(#SvgjsLinearGradient1071)" stroke-linecap="round" class="Down"></path><path d="M2294 31L2293 476" stroke-width="6" stroke="url(#SvgjsLinearGradient1070)" stroke-linecap="round" class="Up"></path><path d="M2501 620L2500 170" stroke-width="8" stroke="url(#SvgjsLinearGradient1071)" stroke-linecap="round" class="Down"></path><path d="M2055 599L2054 236" stroke-width="10" stroke="url(#SvgjsLinearGradient1070)" stroke-linecap="round" class="Up"></path><path d="M383 268L382 -276" stroke-width="6" stroke="url(#SvgjsLinearGradient1070)" stroke-linecap="round" class="Up"></path><path d="M1692 380L1691 -15" stroke-width="6" stroke="url(#SvgjsLinearGradient1070)" stroke-linecap="round" class="Up"></path><path d="M1163 69L1162 572" stroke-width="10" stroke="url(#SvgjsLinearGradient1071)" stroke-linecap="round" class="Down"></path><path d="M107 803L106 271" stroke-width="8" stroke="url(#SvgjsLinearGradient1071)" stroke-linecap="round" class="Down"></path><path d="M2269 265L2268 664" stroke-width="10" stroke="url(#SvgjsLinearGradient1071)" stroke-linecap="round" class="Down"></path><path d="M1937 595L1936 1119" stroke-width="10" stroke="url(#SvgjsLinearGradient1071)" stroke-linecap="round" class="Down"></path><path d="M2390 13L2389 632" stroke-width="8" stroke="url(#SvgjsLinearGradient1071)" stroke-linecap="round" class="Down"></path><path d="M301 702L300 1040" stroke-width="8" stroke="url(#SvgjsLinearGradient1070)" stroke-linecap="round" class="Up"></path><path d="M11 478L10 902" stroke-width="6" stroke="url(#SvgjsLinearGradient1070)" stroke-linecap="round" class="Up"></path></g><defs><mask id="SvgjsMask1069"><rect width="3440" height="840" fill="#ffffff"></rect></mask><linearGradient x1="0%" y1="100%" x2="0%" y2="0%" id="SvgjsLinearGradient1070"><stop stop-color="rgba(31, 41, 55, 0)" offset="0"></stop><stop stop-color="rgba(31, 41, 55, 1)" offset="1"></stop></linearGradient><linearGradient x1="0%" y1="0%" x2="0%" y2="100%" id="SvgjsLinearGradient1071"><stop stop-color="rgba(31, 41, 55, 0)" offset="0"></stop><stop stop-color="rgba(31, 41, 55, 1)" offset="1"></stop></linearGradient></defs></svg>
