<?xml version="1.0" standalone="no"?>
<!DOCTYPE svg PUBLIC "-//W3C//DTD SVG 1.1//EN" "http://www.w3.org/Graphics/SVG/1.1/DTD/svg11.dtd">
<svg xmlns="http://www.w3.org/2000/svg">
<defs >
<font id="BeVietnamPro" horiz-adv-x="580" ><font-face
    font-family="Be Vietnam Pro Light"
    units-per-em="1000"
    panose-1="0 0 0 0 0 0 0 0 0 0"
    ascent="1000"
    descent="-265"
    alphabetic="0" />
<glyph unicode=" " glyph-name="space" horiz-adv-x="230" />
<glyph unicode="!" glyph-name="exclam" horiz-adv-x="264" d="M98 174L94 740H169L165 174H98ZM132 -10Q109 -10 94 6T79 44Q79 65 94 81T132 97Q154 97 169 81T185 44Q185 22 170 6T132 -10Z" />
<glyph unicode="&quot;" glyph-name="quotedbl" horiz-adv-x="296" d="M192 554L199 740H270L242 554H192ZM67 554L73 740H144L116 554H67Z" />
<glyph unicode="#" glyph-name="numbersign" horiz-adv-x="784" d="M159 0L201 211H48L63 281H215L251 460H101L116 530H265L308 740H378L335 530H514L556 740H626L584 530H736L721 460H570L534 281H683L668 211H520L477 0H407L450 211H271L229 0H159ZM285 281H464L500
460H321L285 281Z" />
<glyph unicode="$" glyph-name="dollar" horiz-adv-x="635" d="M292 -100V-9Q219 -3 174 22T104 82T69 149T56 204T54 226H131Q131 226 132 211T141 173T165 126T212 84T292 60V346L282 348Q183 369 128 414T73 546Q73 607 104 651T185 720T292 749V838H356V748Q418
741 458 718T522 664T555 604T569 555T572 536H495Q495 536 492 555T475 600T434 649T356 680V408L366 406Q407 397 446 384T515 348T564 291T582 203Q582 144 553 98T472 24T356 -10V-100H292ZM149 547Q149 495 185 467T292 423V682Q227 676 188 638T149 547ZM506
203Q506 263 465 290T356 333V59Q397 64 431 83T485 132T506 203Z" />
<glyph unicode="%" glyph-name="percent" horiz-adv-x="822" d="M208 457Q166 457 133 476T81 528T62 604Q62 668 103 709T208 750Q272 750 313 709T354 604Q354 562 335 529T283 476T208 457ZM178 0L571 740H644L251 0H178ZM208 514Q246 514 269 539T293 604Q293
643 270 668T208 694Q171 694 147 669T123 604Q123 565 147 540T208 514ZM614 -10Q550 -10 509 31T467 136Q467 201 508 242T614 283Q677 283 718 242T760 136Q760 73 719 32T614 -10ZM614 46Q651 46 675 71T699 137Q699 176 675 201T614 226Q576 226 552 201T528
137Q528 97 552 72T614 46Z" />
<glyph unicode="&amp;" glyph-name="ampersand" horiz-adv-x="724" d="M308 -10Q240 -10 184 15T94 88T60 201Q60 276 105 327T217 416L214 419Q199 437 181 460T150 515T137 584Q137 639 161 675T225 731T310 750Q352 750 389 733T451 681T475 597Q475 536 436
488T320 403L519 179Q544 224 558 285T572 427H637Q637 329 618 255T564 128L676 1H581L518 72Q474 30 420 10T308 -10ZM275 454L281 447L292 453Q348 479 378 513T408 593Q408 640 378 664T310 689Q268 689 236 662T204 586Q204 546 227 514T275 454ZM131 206Q131
158 156 125T222 73T312 55Q358 55 400 71T475 121L256 372Q206 345 169 306T131 206Z" />
<glyph unicode="&apos;" glyph-name="quotesingle" horiz-adv-x="171" d="M67 554L73 740H144L116 554H67Z" />
<glyph unicode="(" glyph-name="parenleft" horiz-adv-x="422" d="M375 -195Q299 -183 240 -136T140 -18T78 139T57 317Q57 409 78 495T140 653T240 771T375 830V761Q318 748 273 707T197 605T149 470T132 317Q132 239 148 165T196 30T273 -72T375 -127V-195Z" />
<glyph unicode=")" glyph-name="parenright" horiz-adv-x="422" d="M47 830Q123 818 182 771T282 653T344 496T366 317Q366 225 345 139T283 -18T183 -136T47 -195V-127Q104 -114 149 -73T225 30T273 165T290 317Q290 396 274 470T226 605T149 707T47 761V830Z" />
<glyph unicode="*" glyph-name="asterisk" horiz-adv-x="496" d="M153 351L102 387L200 519L43 569L62 628L218 576L217 740H279L278 576L434 628L453 569L297 519L394 387L344 351L248 484L153 351Z" />
<glyph unicode="+" glyph-name="plus" horiz-adv-x="608" d="M272 127V281H118V345H272V499H336V345H490V281H336V127H272Z" />
<glyph unicode="," glyph-name="comma" horiz-adv-x="283" d="M79 -106L141 -6Q118 -5 104 11T90 49Q90 73 106 88T146 103Q170 103 187 89T204 48Q204 24 187 -5T130 -92L120 -106H79Z" />
<glyph unicode="-" glyph-name="hyphen" horiz-adv-x="608" d="M118 281V345H490V281H118Z" />
<glyph unicode="." glyph-name="period" horiz-adv-x="269" d="M134 -8Q110 -8 95 8T79 48Q79 71 94 87T134 103Q158 103 174 87T190 48Q190 24 174 8T134 -8Z" />
<glyph unicode="/" glyph-name="slash" horiz-adv-x="500" d="M53 -140L400 822H472L125 -140H53Z" />
<glyph unicode="0" glyph-name="zero" horiz-adv-x="656" d="M328 -9Q261 -9 211 21T126 104T74 225T57 371Q57 447 74 515T125 637T210 720T328 751Q395 751 445 721T530 637T582 516T599 371Q599 294 582 226T531 104T446 21T328 -9ZM328 62Q411 62 465 140T520
371Q520 521 466 599T328 678Q245 678 191 600T136 371Q136 220 190 141T328 62Z" />
<glyph unicode="1" glyph-name="one" horiz-adv-x="364" d="M251 740V0H175V597L45 596V641L70 647Q119 660 148 679T201 730L208 740H251Z" />
<glyph unicode="2" glyph-name="two" horiz-adv-x="629" d="M75 0V55L246 218Q310 278 361 326T441 422T471 525Q471 575 448 609T389 661T313 679Q262 679 230 659T180 610T155 553T148 508H73Q73 524 78 553T99 615T140 680T209 730T313 750Q375 750 428 724T515
649T548 527Q548 460 515 405T428 297T310 185L189 71H565V0H75Z" />
<glyph unicode="3" glyph-name="three" horiz-adv-x="647" d="M321 -10Q257 -10 200 15T108 91T73 219H147Q147 164 172 128T237 75T321 57Q367 57 406 75T469 127T493 212Q493 277 451 314T338 352H239V414H338Q397 414 438 448T480 543Q480 587 458 618T399
667T321 684Q281 684 244 667T183 613T159 521H87Q87 598 121 649T210 725T323 750Q382 750 435 726T521 657T555 549Q555 491 526 449T447 387V383Q502 364 536 319T570 209Q570 141 536 92T444 16T321 -10Z" />
<glyph unicode="4" glyph-name="four" horiz-adv-x="676" d="M413 0V179H49V250L398 740H490V246H619V178L490 179V0H413ZM130 246H413V645L130 246Z" />
<glyph unicode="5" glyph-name="five" horiz-adv-x="657" d="M327 -10Q265 -10 222 6T150 48T107 103T84 158T75 200T73 216H146Q146 216 148 200T159 161T187 113T240 73T327 57Q388 57 428 84T489 155T510 245Q510 293 490 336T429 406T329 434Q282 434 251
419T201 385T176 350T168 334H92L152 740H536V671H210L174 431H177Q185 439 203 456T255 487T339 501Q420 501 474 464T557 369T585 246Q585 198 569 153T521 71T441 12T327 -10Z" />
<glyph unicode="6" glyph-name="six" horiz-adv-x="669" d="M345 -10Q276 -10 226 16T142 89T93 195T76 323Q76 377 87 436T124 552T191 652T291 723T430 750Q477 750 512 743T547 735V663Q547 663 530 667T485 675T429 679Q366 679 320 659T243 604T193 530T166
448T156 372Q161 383 174 402T210 440T268 473T351 486Q431 486 485 450T565 358T592 240Q592 177 565 120T483 27T345 -10ZM344 57Q393 57 432 79T494 143T517 238Q517 292 494 333T432 396T344 419Q295 419 256 397T193 333T170 238Q170 183 193 143T255 80T344
57Z" />
<glyph unicode="7" glyph-name="seven" horiz-adv-x="586" d="M184 0Q188 96 210 184T266 350T336 490T405 599T458 670H52V740H548V681Q548 681 528 658T477 590T409 485T341 347T286 184T260 0H184Z" />
<glyph unicode="8" glyph-name="eight" horiz-adv-x="631" d="M315 -10Q237 -10 181 19T95 97T65 205Q65 251 81 285T119 341T163 377T197 394V398Q187 402 169 413T132 444T100 491T87 556Q87 609 114 653T192 723T315 750Q387 750 438 724T516 653T544 556Q544
519 531 491T499 444T462 414T434 398V394Q445 390 466 377T511 342T550 285T566 205Q566 146 536 98T449 20T315 -10ZM315 425Q366 425 400 444T452 494T470 555Q470 589 453 619T401 668T315 687Q264 687 230 668T179 619T161 555Q161 524 178 494T230 445T315
425ZM315 54Q374 54 413 77T472 136T492 211Q492 249 473 283T414 340T315 363Q256 363 217 341T159 284T139 211Q139 172 159 136T218 77T315 54Z" />
<glyph unicode="9" glyph-name="nine" horiz-adv-x="669" d="M323 750Q392 750 443 724T527 651T576 545T592 417Q592 363 581 304T544 188T478 88T378 17T239 -10Q191 -10 157 -3T122 5V77Q122 77 139 73T184 65T240 61Q303 61 348 81T425 136T475 210T503 292T513
368Q507 357 494 338T458 300T401 267T317 254Q237 254 184 290T103 382T76 500Q76 563 103 620T186 713T323 750ZM325 683Q276 683 237 661T174 598T151 502Q151 448 174 407T236 344T325 321Q374 321 413 343T475 407T498 502Q498 557 475 597T413 660T325 683Z"
/>
<glyph unicode=":" glyph-name="colon" horiz-adv-x="269" d="M134 428Q110 428 95 445T79 484Q79 507 94 523T134 540Q158 540 174 524T190 484Q190 461 174 445T134 428ZM134 -10Q110 -10 95 6T79 46Q79 69 94 85T134 102Q158 102 174 86T190 46Q190 23 174 7T134 -10Z" />
<glyph unicode=";" glyph-name="semicolon" horiz-adv-x="283" d="M141 428Q117 428 101 445T85 484Q85 507 101 523T141 540Q165 540 181 524T197 484Q197 461 181 445T141 428ZM79 -104L141 -4Q118 -3 104 13T90 51Q90 75 106 90T146 105Q170 105 187 91T204
50Q204 26 187 -3T130 -90L120 -104H79Z" />
<glyph unicode="&lt;" glyph-name="less" horiz-adv-x="552" d="M468 122L83 310V357L468 545V474L173 333L468 193V122Z" />
<glyph unicode="=" glyph-name="equal" horiz-adv-x="719" d="M118 393V459H601V393H118ZM118 172V238H601V172H118Z" />
<glyph unicode="&gt;" glyph-name="greater" horiz-adv-x="552" d="M83 122V193L378 333L83 474V545L468 357V310L83 122Z" />
<glyph unicode="?" glyph-name="question" horiz-adv-x="575" d="M240 173V202Q240 254 260 291T310 356T369 410T419 468T439 543Q439 587 418 618T361 665T288 681Q249 681 214 664T157 611T134 520H60Q60 598 93 649T179 725T290 750Q349 750 400 726T483 656T515
544Q515 491 495 453T445 386T385 330T335 273T314 202V173H240ZM278 -10Q255 -10 240 6T225 43Q225 65 240 81T278 97Q301 97 316 81T331 43Q331 21 316 6T278 -10Z" />
<glyph unicode="@" glyph-name="at" horiz-adv-x="981" d="M504 -118Q391 -118 307 -82T168 15T85 153T57 312Q57 394 84 472T166 612T302 710T492 747Q578 747 655 719T793 638T889 507T924 329Q924 261 905 207T849 122T759 91Q702 91 667 121T620 191H615Q608
174 590 151T539 109T456 91Q393 91 351 123T288 205T267 311Q267 366 288 416T350 499T455 531Q513 531 548 505T598 453H602V523H673V324Q673 308 675 280T684 223T710 173T761 152Q808 152 831 198T855 329Q855 415 826 481T746 592T630 660T492 683Q402 683
334 652T219 569T150 450T127 313Q127 243 150 178T220 60T337 -22T503 -53Q575 -53 628 -39T710 -11T740 3L766 -56Q766 -56 735 -71T646 -102T504 -118ZM469 151Q513 151 541 174T584 234T598 311Q598 350 584 386T542 446T469 470Q426 470 398 447T355 387T340
311Q340 271 354 235T397 175T469 151Z" />
<glyph unicode="A" glyph-name="A" horiz-adv-x="712" d="M45 0L308 740H403L667 0H585L518 191H194L127 0H45ZM218 261H494L356 651L218 261Z" />
<glyph unicode="B" glyph-name="B" horiz-adv-x="661" d="M83 0V740H363Q432 740 480 714T553 645T579 553Q579 504 561 470T518 414T469 386V380Q501 371 532 350T585 292T606 204Q606 153 582 107T505 30T367 0H83ZM360 672H160V409H360Q410 409 442 428T489
478T504 541Q504 574 489 604T442 653T360 672ZM365 346H160V68H365Q423 68 459 88T512 141T529 207Q529 242 512 273T459 325T365 346Z" />
<glyph unicode="C" glyph-name="C" horiz-adv-x="768" d="M402 -10Q316 -10 251 22T143 109T79 231T57 370Q57 441 78 509T143 631T251 718T402 750Q472 750 522 732T607 685T662 624T693 563T707 516T711 498H633Q633 498 629 516T612 561T574 615T507 660T402
678Q336 678 286 652T203 582T152 483T135 370Q135 313 152 258T202 159T286 88T402 62Q465 62 506 80T573 125T612 179T629 224T633 243H711Q711 243 708 225T694 178T662 117T607 55T523 8T402 -10Z" />
<glyph unicode="D" glyph-name="D" horiz-adv-x="721" d="M83 0V740H314Q402 740 468 709T577 624T643 505T665 370Q665 301 643 235T578 116T468 32T314 0H83ZM312 671H160V69H312Q381 69 432 94T518 163T570 260T587 370Q587 426 570 480T519 577T433 645T312 671Z" />
<glyph unicode="E" glyph-name="E" horiz-adv-x="609" d="M83 0V740H536V671H160V412H489V343H160V69H541V0H83Z" />
<glyph unicode="F" glyph-name="F" horiz-adv-x="619" d="M83 0V740H551V671H160V402H504V333H160V0H83Z" />
<glyph unicode="G" glyph-name="G" horiz-adv-x="779" d="M405 -10Q317 -10 252 22T143 108T79 230T57 369Q57 440 78 508T143 630T253 717T408 750Q477 750 527 733T611 688T665 629T697 571T711 526T715 508H637Q637 508 633 525T615 568T577 619T511 662T408
679Q339 679 288 653T202 583T151 483T134 371Q134 312 151 257T202 157T287 87T405 61Q482 61 536 92T620 181T649 313H416V378H723V328Q723 223 683 147T571 31T405 -10Z" />
<glyph unicode="H" glyph-name="H" horiz-adv-x="691" d="M83 0V740H160V415H531V740H608V0H531V345H160V0H83Z" />
<glyph unicode="I" glyph-name="I" horiz-adv-x="244" d="M83 0V740H160V0H83Z" />
<glyph unicode="J" glyph-name="J" horiz-adv-x="447" d="M124 -10Q91 -10 64 -7T37 -3V66Q37 66 63 63T116 60Q196 60 241 101T287 234V740H364V234Q364 119 303 55T124 -10Z" />
<glyph unicode="K" glyph-name="K" horiz-adv-x="654" d="M83 0V740H160V403L496 739H598L239 383L613 0H509L160 357V0H83Z" />
<glyph unicode="L" glyph-name="L" horiz-adv-x="615" d="M83 0V740H160V69H547V0H83Z" />
<glyph unicode="M" glyph-name="M" horiz-adv-x="852" d="M83 0V740H186L426 278L666 740H769V0H693V630L462 190H390L159 632V0H83Z" />
<glyph unicode="N" glyph-name="N" horiz-adv-x="727" d="M83 0V740H154L567 138V740H644V0H573L160 602V0H83Z" />
<glyph unicode="O" glyph-name="O" horiz-adv-x="821" d="M411 -10Q324 -10 258 22T147 109T80 232T57 371Q57 441 79 509T146 631T257 718T411 750Q498 750 564 718T674 632T742 509T765 371Q765 300 742 232T675 110T564 23T411 -10ZM411 62Q492 62 554 102T651
213T686 371Q686 458 651 527T554 637T411 678Q329 678 267 638T170 528T135 371Q135 283 170 213T267 103T411 62Z" />
<glyph unicode="P" glyph-name="P" horiz-adv-x="631" d="M83 0V740H341Q423 740 478 706T560 617T588 505Q588 445 561 391T478 303T341 268H160V0H83ZM341 671H160V337H341Q398 337 436 361T493 423T512 504Q512 546 493 584T436 647T341 671Z" />
<glyph unicode="Q" glyph-name="Q" horiz-adv-x="810" d="M411 -10Q324 -10 258 22T147 109T80 232T57 371Q57 441 79 509T146 631T257 718T411 750Q498 750 564 718T674 632T742 509T765 371Q765 297 741 227T669 102L772 0H676L619 56Q578 25 526 8T411 -10ZM411
62Q455 62 493 74T564 110L434 238L485 285L615 156Q649 197 667 252T686 371Q686 458 651 527T554 637T411 678Q329 678 267 638T170 528T135 371Q135 283 170 213T267 103T411 62Z" />
<glyph unicode="R" glyph-name="R" horiz-adv-x="658" d="M83 0V740H333Q409 740 460 710T536 632T561 531Q561 486 543 444T487 371T394 328L586 0H499L312 322H160V0H83ZM332 671H160V389H332Q383 389 416 409T466 462T483 530Q483 565 466 597T416 650T332 671Z" />
<glyph unicode="S" glyph-name="S" horiz-adv-x="625" d="M324 -10Q259 -10 214 6T139 49T92 104T66 159T56 201T54 218H132Q132 218 134 202T146 163T177 116T234 77T326 61Q402 61 449 100T496 201Q496 259 459 289T360 334L265 357Q211 371 168 394T100 455T75
548Q75 611 106 656T190 725T311 750Q379 750 423 729T493 678T531 616T547 564T551 543H475Q475 543 473 557T463 591T436 632T387 667T309 681Q231 681 191 643T151 553Q151 506 183 478T274 436L375 411Q432 397 476 371T547 304T573 205Q573 147 544 98T459
20T324 -10Z" />
<glyph unicode="T" glyph-name="T" horiz-adv-x="643" d="M283 0V671H43V740H600V671H360V0H283Z" />
<glyph unicode="U" glyph-name="U" horiz-adv-x="715" d="M357 -10Q268 -10 207 25T115 122T83 266V740H160V266Q160 176 209 120T357 63Q457 63 505 119T554 266V740H631V266Q631 184 600 122T507 25T357 -10Z" />
<glyph unicode="V" glyph-name="V" horiz-adv-x="695" d="M300 0L37 740H118L348 89L577 740H659L395 0H300Z" />
<glyph unicode="W" glyph-name="W" horiz-adv-x="1007" d="M247 0L47 740H126L292 113L466 740H542L716 115L881 740H960L760 0H672L504 608L335 0H247Z" />
<glyph unicode="X" glyph-name="X" horiz-adv-x="696" d="M53 0L296 370L53 740H145L348 428L551 740H643L399 370L643 0H551L348 312L145 0H53Z" />
<glyph unicode="Y" glyph-name="Y" horiz-adv-x="664" d="M294 0V268L28 740H113L332 346L551 740H635L370 268V0H294Z" />
<glyph unicode="Z" glyph-name="Z" horiz-adv-x="647" d="M66 0V61L486 671H66V740H581V679L160 69H581V0H66Z" />
<glyph unicode="[" glyph-name="bracketleft" horiz-adv-x="446" d="M83 -195V830H366V763H159V-129H366V-195H83Z" />
<glyph unicode="\" glyph-name="backslash" horiz-adv-x="485" d="M432 -140H360L13 822H85L432 -140Z" />
<glyph unicode="]" glyph-name="bracketright" horiz-adv-x="446" d="M363 830V-195H80V-129H288V763H80V830H363Z" />
<glyph unicode="^" glyph-name="asciicircum" horiz-adv-x="538" d="M118 578L236 740H302L420 578H350L269 691L188 578H118Z" />
<glyph unicode="_" glyph-name="underscore" horiz-adv-x="702" d="M118 -65V0H584V-65H118Z" />
<glyph unicode="`" glyph-name="grave" horiz-adv-x="202" d="M127 613L28 784H107L192 613H127Z" />
<glyph unicode="a" glyph-name="a" horiz-adv-x="636" d="M301 540Q356 540 392 522T449 478T481 435H487V530H561V0H487V95H481Q471 76 450 52T392 9T301 -10Q241 -10 196 13T121 76T77 165T62 265Q62 316 76 365T121 453T196 516T301 540ZM312 475Q253 475 214
444T156 365T137 265Q137 213 156 165T214 86T312 55Q370 55 408 86T466 165T486 265Q486 317 467 365T409 444T312 475Z" />
<glyph unicode="b" glyph-name="b" horiz-adv-x="645" d="M344 -10Q289 -10 253 8T196 52T163 95H158V0H83V760H158V435H163Q174 454 195 478T253 521T344 540Q404 540 449 517T523 454T568 365T583 265Q583 214 568 165T524 77T449 14T344 -10ZM333 55Q392 55
430 86T488 165T508 265Q508 317 489 365T431 444T333 475Q275 475 236 444T178 365T159 265Q159 213 178 165T236 86T333 55Z" />
<glyph unicode="c" glyph-name="c" horiz-adv-x="609" d="M319 -10Q255 -10 207 13T126 76T78 165T62 265Q62 316 78 365T126 453T206 516T319 540Q381 540 422 522T488 476T526 420T543 374T547 355H474Q474 355 469 373T448 414T401 456T319 474Q258 474 218
444T157 367T136 265Q136 212 156 164T217 86T319 56Q370 56 401 74T447 115T468 157T474 175H547Q547 175 543 157T526 111T488 55T422 9T319 -10Z" />
<glyph unicode="d" glyph-name="d" horiz-adv-x="645" d="M301 -10Q241 -10 196 13T121 76T77 165T62 265Q62 316 76 365T121 453T196 516T301 540Q356 540 392 522T449 478T481 435H487V760H561V0H487V95H481Q471 76 450 52T392 9T301 -10ZM312 55Q370 55 408
86T466 165T486 265Q486 317 467 365T409 444T312 475Q253 475 214 444T156 365T137 265Q137 213 156 165T214 86T312 55Z" />
<glyph unicode="e" glyph-name="e" horiz-adv-x="594" d="M309 -10Q245 -10 198 13T121 77T77 166T62 265Q62 315 76 364T121 453T196 516T305 540Q371 540 422 509T503 418T533 266V244H138Q140 193 160 150T218 81T309 55Q353 55 382 70T426 106T448 142T455
157H526Q526 157 521 141T503 99T466 49T403 7T309 -10ZM139 304H458Q455 365 434 402T378 457T305 474Q234 474 190 428T139 304Z" />
<glyph unicode="f" glyph-name="f" horiz-adv-x="383" d="M136 0V468H42V530H136V605Q136 646 150 684T197 746T286 770Q312 770 329 766T347 762V702Q347 702 331 705T295 708Q245 708 228 679T211 605V530H340V468H211V0H136Z" />
<glyph unicode="g" glyph-name="g" horiz-adv-x="635" d="M322 -210Q258 -210 215 -193T147 -150T109 -98T92 -55T88 -38H163Q163 -38 168 -54T188 -91T236 -128T322 -144Q387 -144 423 -118T473 -53T487 28V101H483Q473 84 451 60T392 17T300 -1Q240 -1 196 22T121
84T77 171T62 270Q62 320 76 368T121 455T195 517T300 540Q355 540 392 522T451 480T483 438H487V530H562V29Q562 -83 499 -146T322 -210ZM312 64Q370 64 409 94T467 171T487 270Q487 322 468 368T410 445T313 475Q254 475 215 445T157 368T138 270Q138 218 157
171T215 94T312 64Z" />
<glyph unicode="h" glyph-name="h" horiz-adv-x="579" d="M83 0V760H158V442H163Q170 457 188 480T238 522T320 540Q378 540 419 513T482 440T504 336V0H429V332Q429 393 397 433T302 474Q251 474 220 448T173 381T158 297V0H83Z" />
<glyph unicode="i" glyph-name="i" horiz-adv-x="248" d="M124 632Q101 632 86 648T71 685Q71 707 86 722T124 738Q146 738 161 723T177 685Q177 663 162 648T124 632ZM87 0V530H162V0H87Z" />
<glyph unicode="j" glyph-name="j" horiz-adv-x="259" d="M135 631Q112 631 97 646T82 683Q82 705 97 721T135 737Q158 737 173 721T188 683Q188 661 173 646T135 631ZM14 -198Q-11 -198 -29 -196T-47 -193V-127Q-47 -127 -33 -129T0 -131Q56 -131 76 -105T97
-30V530H172V-30Q172 -71 159 -109T111 -173T14 -198Z" />
<glyph unicode="k" glyph-name="k" horiz-adv-x="534" d="M83 0V760H158V312L388 530H488L233 291L494 0H398L158 267V0H83Z" />
<glyph unicode="l" glyph-name="l" horiz-adv-x="242" d="M83 0L84 760H158V0H83Z" />
<glyph unicode="m" glyph-name="m" horiz-adv-x="895" d="M75 0V530H150V444H154Q162 461 180 483T229 523T307 540Q367 540 408 510T469 426H470Q491 471 532 505T642 540Q726 540 773 482T820 329V0H746V326Q746 395 714 434T625 474Q575 474 544 447T499 377T485
291V0H410V326Q410 395 379 434T290 474Q240 474 209 447T164 377T150 291V0H75Z" />
<glyph unicode="n" glyph-name="n" horiz-adv-x="570" d="M75 0V530H150V442H155Q162 457 180 480T230 522T311 540Q370 540 411 513T473 440T495 336V0H421V332Q421 393 389 433T293 474Q243 474 212 448T165 381T150 297V0H75Z" />
<glyph unicode="o" glyph-name="o" horiz-adv-x="635" d="M317 -10Q254 -10 207 13T127 75T78 163T62 265Q62 318 78 367T126 455T206 517T317 540Q380 540 428 517T508 455T556 367T573 265Q573 213 557 164T508 75T428 13T317 -10ZM317 57Q376 57 416 87T476
164T497 265Q497 318 477 365T416 443T317 473Q258 473 218 443T158 366T138 265Q138 212 158 165T218 87T317 57Z" />
<glyph unicode="p" glyph-name="p" horiz-adv-x="645" d="M83 -196V530H158V435H163Q174 454 195 478T253 521T344 540Q404 540 449 517T523 454T568 365T583 265Q583 214 568 165T524 77T449 14T344 -10Q289 -10 253 8T196 52T163 95H158V-196H83ZM159 265Q159
213 178 165T236 86T333 55Q392 55 430 86T488 165T508 265Q508 317 489 365T431 444T333 475Q275 475 236 444T178 365T159 265Z" />
<glyph unicode="q" glyph-name="q" horiz-adv-x="645" d="M487 -195V95H481Q471 76 450 52T392 9T301 -10Q241 -10 196 13T121 76T77 165T62 265Q62 316 76 365T121 453T196 516T301 540Q356 540 392 522T449 478T481 435H487V530H561V-195H487ZM312 55Q370 55
408 86T466 165T486 265Q486 317 467 365T409 444T312 475Q253 475 214 444T156 365T137 265Q137 213 156 165T214 86T312 55Z" />
<glyph unicode="r" glyph-name="r" horiz-adv-x="384" d="M75 0V530H150V461H154Q170 493 203 516T295 540Q314 540 328 538T343 536V464Q343 464 327 466T293 468Q252 468 220 452T169 396T150 288V0H75Z" />
<glyph unicode="s" glyph-name="s" horiz-adv-x="494" d="M256 -10Q196 -10 158 7T97 49T64 99T51 141T48 158H125Q125 158 128 143T143 107T183 71T257 55Q308 55 338 81T368 145Q368 181 344 201T278 230L208 246Q168 256 135 273T82 318T62 389Q62 456 111
498T239 540Q292 540 326 525T381 486T411 441T424 403T427 387H354Q354 387 351 400T337 431T303 462T239 476Q187 476 162 451T136 394Q136 363 158 345T220 318L291 301Q358 285 400 249T442 148Q442 105 420 69T356 12T256 -10Z" />
<glyph unicode="t" glyph-name="t" horiz-adv-x="413" d="M283 -10Q209 -10 171 28T133 135V468H37V530H133V664H208V530H339V468H208V135Q208 55 294 55Q316 55 336 59T357 63V-1Q357 -1 335 -5T283 -10Z" />
<glyph unicode="u" glyph-name="u" horiz-adv-x="562" d="M248 -10Q169 -10 122 41T75 183V530H150V186Q150 124 181 90T266 56Q319 56 351 84T397 156T412 247V530H487V0H412V87H407Q400 73 382 50T332 8T248 -10Z" />
<glyph unicode="v" glyph-name="v" horiz-adv-x="560" d="M240 0L35 530H113L281 91L446 530H525L320 0H240Z" />
<glyph unicode="w" glyph-name="w" horiz-adv-x="856" d="M209 0L35 530H112L250 101L392 530H464L605 101L744 530H821L646 0H566L428 420L290 0H209Z" />
<glyph unicode="x" glyph-name="x" horiz-adv-x="550" d="M46 0L223 264L45 530H127L275 309L423 530H506L325 264L504 0H422L275 219L129 0H46Z" />
<glyph unicode="y" glyph-name="y" horiz-adv-x="568" d="M85 -195Q63 -195 49 -194T35 -192V-127Q35 -127 50 -128T83 -130Q144 -130 184 -100T250 -6L43 530H121L287 91L454 530H533L321 -13Q284 -106 227 -150T85 -195Z" />
<glyph unicode="z" glyph-name="z" horiz-adv-x="502" d="M46 0V53L373 468H64V530H465V477L138 62H465V0H46Z" />
<glyph unicode="{" glyph-name="braceleft" horiz-adv-x="414" d="M265 -195Q199 -195 163 -160T127 -58V218Q127 285 60 285H27V350H60Q127 350 127 417V693Q127 759 163 794T265 830H369V763H270Q203 763 203 696V420Q203 381 191 357T143 319V316Q179 302 191
277T203 215V-61Q203 -129 270 -129H369V-195H265Z" />
<glyph unicode="|" glyph-name="bar" horiz-adv-x="397" d="M163 -222V950H233V-222H163Z" />
<glyph unicode="}" glyph-name="braceright" horiz-adv-x="414" d="M149 830Q216 830 251 795T287 693V417Q287 350 354 350H388V285H354Q287 285 287 218V-58Q287 -124 252 -159T149 -195H45V-129H144Q212 -129 212 -61V215Q212 253 223 277T271 316V319Q235
333 224 357T212 420V696Q212 763 144 763H45V830H149Z" />
<glyph unicode="~" glyph-name="asciitilde" horiz-adv-x="455" d="M296 319Q269 319 251 329T219 354T192 379T162 390Q142 390 134 373T125 324H72Q72 354 80 381T107 425T159 443Q187 443 206 433T239 408T266 383T295 372Q313 372 321 389T330 438H383Q383
408 375 381T348 337T296 319Z" />
<glyph unicode="&#xa0;" glyph-name="uni00A0" horiz-adv-x="230" />
<glyph unicode="&#xa1;" glyph-name="exclamdown" horiz-adv-x="264" d="M132 534Q154 534 169 518T185 480Q185 459 170 444T132 428Q109 428 94 443T79 480Q79 502 94 518T132 534ZM94 -216L98 350H165L169 -216H94Z" />
<glyph unicode="&#xa2;" glyph-name="cent" horiz-adv-x="609" d="M280 -86V-7Q207 2 159 43T86 143T62 265Q62 328 86 386T158 486T280 537V617H350V539Q403 533 438 513T496 467T529 415T543 372T547 355H474Q474 355 470 370T453 407T415 447T350 472V58Q390
64 415 82T452 122T469 159T474 175H547Q547 175 544 158T529 116T496 64T439 17T350 -9V-86H280ZM136 265Q136 218 152 175T200 101T280 60V470Q232 460 200 430T152 356T136 265Z" />
<glyph unicode="&#xa3;" glyph-name="sterling" horiz-adv-x="596" d="M58 0V69Q100 76 133 99T185 156T204 233Q204 257 198 278T181 320H58V372H152Q130 407 112 446T93 537Q93 602 127 650T221 724T358 750Q399 750 435 745T493 734T515 728V658Q515 658 494
663T438 675T364 681Q276 681 222 642T168 532Q168 486 190 449T234 372H450V320H260Q266 302 270 283T274 243Q274 193 255 156T211 97T168 67H545V0H58Z" />
<glyph unicode="&#xa4;" glyph-name="currency" horiz-adv-x="581" d="M95 126L57 164L133 240Q92 293 92 363Q92 431 131 483L57 556L95 594L168 520Q194 542 226 553T294 565Q363 565 417 524L487 594L524 556L454 485Q496 433 496 363Q496 327 484 295T452
238L524 164L487 126L413 200Q360 161 294 161Q259 161 228 172T171 203L95 126ZM294 219Q333 219 366 238T418 290T438 362Q438 402 419 434T366 486T294 506Q254 506 221 487T169 435T149 362Q149 323 168 291T221 239T294 219Z" />
<glyph unicode="&#xa5;" glyph-name="yen" horiz-adv-x="664" d="M108 197V256H294V268L265 319H108V377H232L28 740H113L332 346L551 740H635L431 377H555V319H398L370 268V256H555V197H370V0H294V197H108Z" />
<glyph unicode="&#xa6;" glyph-name="brokenbar" horiz-adv-x="397" d="M163 423V951H233V423H163ZM163 -222V260H233V-222H163Z" />
<glyph unicode="&#xa7;" glyph-name="section" horiz-adv-x="679" d="M355 -234Q286 -234 238 -218T159 -175T111 -120T87 -64T77 -21T75 -4H152Q152 -4 154 -20T165 -61T196 -110T257 -151T357 -168Q407 -168 445 -150T505 -100T527 -28Q527 14 508 41T458 83T389
108L259 138Q205 151 158 173T83 231T54 321Q54 381 95 422T206 472V478Q150 506 123 544T95 639Q95 699 125 745T210 816T334 842Q405 842 451 821T524 767T563 703T578 650T582 628H506Q506 628 504 643T493 680T466 724T415 761T332 776Q278 776 242 757T188
708T170 641Q170 588 207 559T307 515L422 488Q476 475 522 453T598 396T627 306Q627 246 586 205T475 154V149Q535 129 569 84T604 -25Q604 -83 573 -130T486 -206T355 -234ZM391 182Q465 182 508 213T551 296Q551 332 531 355T478 393T407 417L288 445Q216 445
173 414T129 330Q129 294 149 271T203 233T273 210L391 182Z" />
<glyph unicode="&#xa8;" glyph-name="dieresis" horiz-adv-x="265" d="M259 617Q236 617 221 633T206 670Q206 692 221 707T259 723Q281 723 296 708T312 670Q312 648 297 633T259 617ZM86 617Q63 617 48 633T33 670Q33 692 48 707T86 723Q108 723 123 708T139
670Q139 648 124 633T86 617Z" />
<glyph unicode="&#xa9;" glyph-name="copyright" horiz-adv-x="826" d="M413 -10Q324 -10 258 20T147 102T80 218T57 350Q57 418 79 482T146 597T257 679T413 710Q502 710 568 680T680 598T747 482T769 350Q769 283 747 219T680 103T569 21T413 -10ZM413 47Q487
47 543 73T636 142T692 240T711 351Q711 407 693 461T637 558T543 627T413 653Q339 653 283 628T190 559T134 461T115 351Q115 294 134 240T190 143T283 73T413 47ZM425 130Q356 130 311 162T242 245T219 350Q219 404 241 454T310 537T425 570Q475 570 508 555T561
518T591 474T604 436T608 421H547Q547 421 543 435T527 468T490 501T425 515Q377 515 345 492T297 430T280 350Q280 308 296 270T345 209T425 185Q465 185 489 199T526 231T543 264T547 279H608Q608 279 605 264T591 227T561 182T508 145T425 130Z" />
<glyph unicode="&#xaa;" glyph-name="ordfeminine" horiz-adv-x="407" d="M266 468Q264 465 254 453T222 429T168 417Q122 417 92 441T62 508Q62 552 94 575T179 606L270 618V629Q270 644 265 660T245 687T203 698Q171 698 156 685T137 658T133 644H71Q71 644
74 660T90 697T130 734T203 750Q270 750 303 715T336 631V423H270V468H266ZM126 512Q126 488 144 477T185 465Q223 465 246 492T270 561V573L187 562Q158 558 142 546T126 512Z" />
<glyph unicode="&#xab;" glyph-name="guillemotleft" horiz-adv-x="619" d="M493 109L281 317L493 526H579L369 317L579 109H493ZM252 109L40 317L252 526H338L128 317L338 109H252Z" />
<glyph unicode="&#xac;" glyph-name="logicalnot" horiz-adv-x="655" d="M80 466V530H575V275H512V466H80Z" />
<glyph unicode="&#xad;" glyph-name="uni00AD" horiz-adv-x="600" d="M118 281V345H490V281H118Z" />
<glyph unicode="&#xae;" glyph-name="registered" horiz-adv-x="434" d="M217 391Q157 391 117 417T57 484T37 571Q37 615 57 656T117 724T217 750Q277 750 317 724T377 657T397 571Q397 526 377 485T317 418T217 391ZM217 428Q265 428 296 448T344 502T360 571Q360
607 344 639T297 693T217 714Q169 714 138 693T90 640T74 571Q74 535 90 502T137 449T217 428ZM149 474V667H225Q258 667 277 650T296 606Q296 563 256 548L301 474H259L218 543H186V474H149ZM224 634H186V575H224Q240 575 248 583T257 604Q257 617 249 625T224
634Z" />
<glyph unicode="&#xaf;" glyph-name="overscore" horiz-adv-x="340" d="M22 638V696H318V638H22Z" />
<glyph unicode="&#xb0;" glyph-name="degree" horiz-adv-x="469" d="M234 404Q187 404 148 427T85 489T62 577Q62 624 85 663T147 726T234 750Q282 750 321 727T384 664T408 577Q408 529 385 490T322 427T234 404ZM234 464Q266 464 291 479T332 519T348 577Q348
608 333 634T291 675T234 690Q203 690 178 675T137 634T121 577Q121 546 136 520T177 479T234 464Z" />
<glyph unicode="&#xb1;" glyph-name="plusminus" horiz-adv-x="647" d="M291 154V307H137V372H291V526H355V372H509V307H355V154H291ZM118 0V52H529V0H118Z" />
<glyph unicode="&#xb2;" glyph-name="uni00B2" horiz-adv-x="410" d="M73 421V468L146 532Q184 565 212 589T256 635T272 683Q272 713 252 729T207 745Q181 745 160 727T138 673H73Q73 718 92 747T143 790T208 804Q243 804 273 790T321 750T340 687Q340 652 324
624T277 570T208 511L173 480H346V421H73Z" />
<glyph unicode="&#xb3;" glyph-name="uni00B3" horiz-adv-x="425" d="M210 416Q155 416 114 446T73 536H137Q137 504 159 488T210 471Q240 471 260 488T280 532Q280 557 263 572T216 588H166V641H216Q241 641 258 656T275 693Q275 718 256 733T210 749Q185 749
164 733T143 683H80Q80 723 98 750T147 790T211 804Q245 804 275 792T323 756T342 699Q342 669 325 648T283 617V614Q312 605 330 583T348 529Q348 493 329 468T279 429T210 416Z" />
<glyph unicode="&#xb4;" glyph-name="acute" horiz-adv-x="202" d="M64 613H-1L84 784H163L64 613Z" />
<glyph unicode="&#xb5;" glyph-name="uni00B5" horiz-adv-x="612" d="M55 -199V530H130V186Q130 124 161 90T247 56Q299 56 331 84T377 156T392 247V530H467V137Q467 55 543 55Q561 55 570 57T580 60V-4Q580 -4 569 -7T533 -10Q479 -10 445 13T400 87H396Q394
82 386 67T361 34T316 3T245 -10Q200 -10 172 4T131 32T118 46L114 44Q121 17 125 -21T130 -105V-199H55Z" />
<glyph unicode="&#xb6;" glyph-name="paragraph" horiz-adv-x="504" d="M315 0H263V345H199Q137 345 96 369T34 432T13 520Q13 568 34 609T96 675T199 700H440V0H388V634H315V0Z" />
<glyph unicode="&#xb7;" glyph-name="middot" horiz-adv-x="255" d="M148 330Q124 330 109 346T93 386Q93 409 108 425T148 441Q172 441 188 425T204 386Q204 362 188 346T148 330Z" />
<glyph unicode="&#xb8;" glyph-name="cedilla" horiz-adv-x="234" d="M87 -249Q62 -249 41 -246T19 -242V-193Q19 -193 41 -196T84 -200Q126 -200 142 -182T158 -146Q158 -127 144 -113T101 -99Q76 -99 60 -108T44 -118L13 -87L71 13H126L84 -57Q99 -52 117 -52Q164
-52 188 -80T213 -144Q213 -169 201 -193T160 -233T87 -249Z" />
<glyph unicode="&#xb9;" glyph-name="uni00B9" horiz-adv-x="295" d="M185 800V421H120V700H45V740L58 743Q90 753 109 763T143 794L148 800H185Z" />
<glyph unicode="&#xba;" glyph-name="ordmasculine" horiz-adv-x="447" d="M223 413Q172 413 136 437T81 499T62 582Q62 625 80 663T135 726T223 750Q276 750 312 726T366 664T385 582Q385 538 367 500T312 437T223 413ZM223 470Q270 470 294 504T319 582Q319
625 295 659T223 694Q177 694 153 660T128 582Q128 539 152 505T223 470Z" />
<glyph unicode="&#xbb;" glyph-name="guillemotright" horiz-adv-x="619" d="M281 109L492 317L281 526H368L579 317L368 109H281ZM40 109L251 317L40 526H127L338 317L127 109H40Z" />
<glyph unicode="&#xbc;" glyph-name="onequarter" horiz-adv-x="750" d="M142 712V358H77V619H11V658L22 661Q51 669 68 679T101 707L105 712H142ZM136 0L536 700H609L208 0H136ZM672 -3V74H504V123L657 347H738V129H792V74H738V-3H672ZM573 129H672V276L573 129Z" />
<glyph unicode="&#xbd;" glyph-name="onehalf" horiz-adv-x="775" d="M142 712V358H77V619H11V658L22 661Q51 669 68 679T101 707L105 712H142ZM136 0L536 700H609L208 0H136ZM562 -3V43L627 100Q683 147 714 175T746 238Q746 266 727 280T686 294Q662 294 644
279T625 230H561Q561 271 579 298T626 338T688 352Q738 352 775 323T813 242Q813 195 778 159T689 79L660 55H817V-3H562Z" />
<glyph unicode="&#xbe;" glyph-name="threequarters" horiz-adv-x="787" d="M172 350Q116 350 80 380T43 463H105Q105 435 125 420T171 405Q199 405 217 419T235 459Q235 481 220 495T175 510H130V560H176Q200 560 215 573T231 607Q231 629 214 643T172 657Q148
657 130 642T111 598H50Q50 650 86 680T173 710Q204 710 231 699T276 666T294 613Q294 583 277 564T240 537V534Q267 524 284 504T301 454Q301 421 283 398T236 363T172 350ZM234 0L634 700H707L307 0H234ZM771 -3V74H602V123L756 347H836V129H891V74H836V-3H771ZM671
129H771V276L671 129Z" />
<glyph unicode="&#xbf;" glyph-name="questiondown" horiz-adv-x="575" d="M297 538Q320 538 335 522T350 485Q350 463 335 448T297 432Q275 432 260 447T244 485Q244 507 259 522T297 538ZM286 -222Q227 -222 176 -198T92 -128T60 -16Q60 37 80 75T131 142T190
198T240 255T261 326V355H335V326Q335 274 315 237T266 172T206 118T156 60T136 -15Q136 -59 158 -90T214 -137T288 -153Q327 -153 362 -136T419 -83T441 8H515Q515 -70 482 -121T396 -197T286 -222Z" />
<glyph unicode="&#xc0;" glyph-name="Agrave" horiz-adv-x="709" d="M324 823L224 994H303L389 823H324ZM43 0L306 740H402L665 0H584L516 191H193L125 0H43ZM216 261H492L354 651L216 261Z" />
<glyph unicode="&#xc1;" glyph-name="Aacute" horiz-adv-x="709" d="M388 823H323L409 994H488L388 823ZM43 0L306 740H402L665 0H584L516 191H193L125 0H43ZM216 261H492L354 651L216 261Z" />
<glyph unicode="&#xc2;" glyph-name="Acircumflex" horiz-adv-x="709" d="M204 817L322 961H388L506 817H436L355 916L274 817H204ZM43 0L306 740H402L665 0H584L516 191H193L125 0H43ZM216 261H492L354 651L216 261Z" />
<glyph unicode="&#xc3;" glyph-name="Atilde" horiz-adv-x="709" d="M420 828Q394 828 377 839T346 864T321 888T294 899Q276 899 269 882T261 834H208Q208 864 215 892T241 937T290 955Q317 955 334 945T365 920T390 896T416 885Q432 885 440 902T448 950H501Q501
920 494 892T469 846T420 828ZM43 0L306 740H402L665 0H584L516 191H193L125 0H43ZM216 261H492L354 651L216 261Z" />
<glyph unicode="&#xc4;" glyph-name="Adieresis" horiz-adv-x="709" d="M441 827Q418 827 403 843T388 880Q388 902 403 917T441 933Q463 933 478 918T494 880Q494 858 479 843T441 827ZM268 827Q245 827 230 843T215 880Q215 902 230 917T268 933Q290 933 305
918T321 880Q321 858 306 843T268 827ZM43 0L306 740H402L665 0H584L516 191H193L125 0H43ZM216 261H492L354 651L216 261Z" />
<glyph unicode="&#xc5;" glyph-name="Aring" horiz-adv-x="709" d="M354 816Q322 816 296 831T253 873T237 932Q237 965 253 991T295 1033T354 1049Q386 1049 412 1034T455 992T471 932Q471 900 455 874T413 832T354 816ZM354 871Q380 871 397 889T415 932Q415
958 398 976T354 994Q329 994 311 976T293 932Q293 907 311 889T354 871ZM43 0L306 740H402L665 0H584L516 191H193L125 0H43ZM216 261H492L354 651L216 261Z" />
<glyph unicode="&#xc6;" glyph-name="AE" horiz-adv-x="994" d="M45 0L428 740H921V671H545V412H874V343H545V69H926V0H468V191H226L127 0H45ZM262 261H468V659L262 261Z" />
<glyph unicode="&#xc7;" glyph-name="Ccedilla" horiz-adv-x="768" d="M398 -256Q374 -256 353 -253T331 -249V-200Q331 -200 353 -203T396 -207Q438 -207 454 -189T470 -152Q470 -134 456 -120T413 -105Q387 -105 371 -115T355 -125L324 -94L373 -9Q294 -3 235
31T136 118T77 237T57 370Q57 441 78 509T143 631T251 718T402 750Q472 750 522 732T607 685T662 624T693 563T707 516T711 498H633Q633 498 629 516T612 561T574 615T507 660T402 678Q336 678 286 652T203 582T152 483T135 370Q135 313 152 258T202 159T286 88T402
62Q465 62 506 80T573 125T612 179T629 224T633 243H711Q711 243 706 219T686 159T639 86T557 22T428 -9L390 -74Q407 -68 429 -68Q475 -68 500 -91T525 -151Q525 -176 512 -200T471 -240T398 -256Z" />
<glyph unicode="&#xc8;" glyph-name="Egrave" horiz-adv-x="616" d="M291 823L191 994H270L356 823H291ZM90 0V740H542V671H167V412H495V343H167V69H548V0H90Z" />
<glyph unicode="&#xc9;" glyph-name="Eacute" horiz-adv-x="616" d="M355 823H290L376 994H455L355 823ZM90 0V740H542V671H167V412H495V343H167V69H548V0H90Z" />
<glyph unicode="&#xca;" glyph-name="Ecircumflex" horiz-adv-x="616" d="M171 817L289 961H355L473 817H403L322 916L241 817H171ZM90 0V740H542V671H167V412H495V343H167V69H548V0H90Z" />
<glyph unicode="&#xcb;" glyph-name="Edieresis" horiz-adv-x="616" d="M408 827Q385 827 370 843T355 880Q355 902 370 917T408 933Q430 933 445 918T461 880Q461 858 446 843T408 827ZM235 827Q212 827 197 843T182 880Q182 902 197 917T235 933Q257 933 272
918T288 880Q288 858 273 843T235 827ZM90 0V740H542V671H167V412H495V343H167V69H548V0H90Z" />
<glyph unicode="&#xcc;" glyph-name="Igrave" horiz-adv-x="257" d="M98 823L-1 994H78L163 823H98ZM90 0V740H167V0H90Z" />
<glyph unicode="&#xcd;" glyph-name="Iacute" horiz-adv-x="257" d="M163 823H97L183 994H262L163 823ZM90 0V740H167V0H90Z" />
<glyph unicode="&#xce;" glyph-name="Icircumflex" horiz-adv-x="257" d="M-22 817L96 979H162L280 817H210L129 929L48 817H-22ZM90 0V740H167V0H90Z" />
<glyph unicode="&#xcf;" glyph-name="Idieresis" horiz-adv-x="257" d="M215 827Q192 827 177 843T162 880Q162 902 177 917T215 933Q238 933 253 918T268 880Q268 858 253 843T215 827ZM42 827Q19 827 4 843T-11 880Q-11 902 4 917T42 933Q65 933 80 918T95 880Q95
858 80 843T42 827ZM90 0V740H167V0H90Z" />
<glyph unicode="&#xd0;" glyph-name="Eth" horiz-adv-x="776" d="M138 0V335H37V405H138V740H369Q457 740 523 709T632 624T698 505T720 370Q720 301 698 235T633 116T523 32T369 0H138ZM377 335H215V69H367Q436 69 487 94T573 163T625 260T642 370Q642 426 625
480T574 577T488 645T367 671H215V405H377V335Z" />
<glyph unicode="&#xd1;" glyph-name="Ntilde" horiz-adv-x="740" d="M438 828Q413 828 396 839T365 864T339 888T313 899Q295 899 287 882T279 834H227Q227 864 234 892T259 937T309 955Q335 955 353 945T384 920T408 896T434 885Q451 885 458 902T466 950H519Q519
920 512 892T487 846T438 828ZM90 0V740H161L573 138V740H650V0H580L167 602V0H90Z" />
<glyph unicode="&#xd2;" glyph-name="Ograve" horiz-adv-x="821" d="M380 833L281 1004H360L445 833H380ZM411 -10Q324 -10 258 22T147 109T80 232T57 371Q57 441 79 509T146 631T257 718T411 750Q498 750 564 718T674 632T742 509T765 371Q765 300 742 232T675
110T564 23T411 -10ZM411 62Q492 62 554 102T651 213T686 371Q686 458 651 527T554 637T411 678Q329 678 267 638T170 528T135 371Q135 283 170 213T267 103T411 62Z" />
<glyph unicode="&#xd3;" glyph-name="Oacute" horiz-adv-x="821" d="M445 833H379L465 1004H544L445 833ZM411 -10Q324 -10 258 22T147 109T80 232T57 371Q57 441 79 509T146 631T257 718T411 750Q498 750 564 718T674 632T742 509T765 371Q765 300 742 232T675
110T564 23T411 -10ZM411 62Q492 62 554 102T651 213T686 371Q686 458 651 527T554 637T411 678Q329 678 267 638T170 528T135 371Q135 283 170 213T267 103T411 62Z" />
<glyph unicode="&#xd4;" glyph-name="Ocircumflex" horiz-adv-x="821" d="M260 827L378 971H444L562 827H492L411 926L330 827H260ZM411 -10Q324 -10 258 22T147 109T80 232T57 371Q57 441 79 509T146 631T257 718T411 750Q498 750 564 718T674 632T742 509T765
371Q765 300 742 232T675 110T564 23T411 -10ZM411 62Q492 62 554 102T651 213T686 371Q686 458 651 527T554 637T411 678Q329 678 267 638T170 528T135 371Q135 283 170 213T267 103T411 62Z" />
<glyph unicode="&#xd5;" glyph-name="Otilde" horiz-adv-x="821" d="M476 838Q451 838 434 849T403 874T377 898T351 909Q333 909 325 892T317 844H265Q265 874 272 902T297 947T347 965Q373 965 391 955T422 930T446 906T472 895Q489 895 496 912T504 960H557Q557
930 550 902T525 856T476 838ZM411 -10Q324 -10 258 22T147 109T80 232T57 371Q57 441 79 509T146 631T257 718T411 750Q498 750 564 718T674 632T742 509T765 371Q765 300 742 232T675 110T564 23T411 -10ZM411 62Q492 62 554 102T651 213T686 371Q686 458 651
527T554 637T411 678Q329 678 267 638T170 528T135 371Q135 283 170 213T267 103T411 62Z" />
<glyph unicode="&#xd6;" glyph-name="Odieresis" horiz-adv-x="821" d="M497 837Q474 837 459 853T444 890Q444 912 459 927T497 943Q520 943 535 928T550 890Q550 868 535 853T497 837ZM324 837Q301 837 286 853T271 890Q271 912 286 927T324 943Q347 943 362
928T377 890Q377 868 362 853T324 837ZM411 -10Q324 -10 258 22T147 109T80 232T57 371Q57 441 79 509T146 631T257 718T411 750Q498 750 564 718T674 632T742 509T765 371Q765 300 742 232T675 110T564 23T411 -10ZM411 62Q492 62 554 102T651 213T686 371Q686
458 651 527T554 637T411 678Q329 678 267 638T170 528T135 371Q135 283 170 213T267 103T411 62Z" />
<glyph unicode="&#xd7;" glyph-name="multiply" horiz-adv-x="560" d="M166 151L118 198L232 312L118 426L166 474L280 360L393 473L441 426L328 313L442 199L394 151L280 265L166 151Z" />
<glyph unicode="&#xd8;" glyph-name="Oslash" horiz-adv-x="821" d="M116 -24L179 75Q118 130 88 209T57 371Q57 441 79 509T146 631T257 718T411 750Q461 750 504 739T584 707L620 763H703L641 666Q702 611 733 533T765 371Q765 300 742 232T675 110T564 23T411
-10Q360 -10 317 1T236 34L199 -24H116ZM135 371Q135 301 157 242T221 141L543 644Q483 678 411 678Q329 678 267 638T170 528T135 371ZM411 62Q492 62 554 102T651 213T686 371Q686 441 663 500T599 601L277 97Q337 62 411 62Z" />
<glyph unicode="&#xd9;" glyph-name="Ugrave" horiz-adv-x="728" d="M330 823L231 994H310L396 823H330ZM364 -10Q275 -10 214 25T122 122T90 266V740H167V266Q167 176 216 120T364 63Q463 63 512 119T561 266V740H638V266Q638 184 607 122T514 25T364 -10Z" />
<glyph unicode="&#xda;" glyph-name="Uacute" horiz-adv-x="728" d="M395 823H330L415 994H494L395 823ZM364 -10Q275 -10 214 25T122 122T90 266V740H167V266Q167 176 216 120T364 63Q463 63 512 119T561 266V740H638V266Q638 184 607 122T514 25T364 -10Z" />
<glyph unicode="&#xdb;" glyph-name="Ucircumflex" horiz-adv-x="728" d="M211 817L328 979H395L512 817H443L361 929L280 817H211ZM364 -10Q275 -10 214 25T122 122T90 266V740H167V266Q167 176 216 120T364 63Q463 63 512 119T561 266V740H638V266Q638 184 607
122T514 25T364 -10Z" />
<glyph unicode="&#xdc;" glyph-name="Udieresis" horiz-adv-x="728" d="M447 827Q424 827 409 843T394 880Q394 902 409 917T447 933Q470 933 485 918T500 880Q500 858 485 843T447 827ZM274 827Q251 827 236 843T221 880Q221 902 236 917T274 933Q297 933 312
918T327 880Q327 858 312 843T274 827ZM364 -10Q275 -10 214 25T122 122T90 266V740H167V266Q167 176 216 120T364 63Q463 63 512 119T561 266V740H638V266Q638 184 607 122T514 25T364 -10Z" />
<glyph unicode="&#xdd;" glyph-name="Yacute" horiz-adv-x="664" d="M370 807L305 808L390 979H469L370 807ZM294 0V268L28 740H113L332 346L551 740H635L370 268V0H294Z" />
<glyph unicode="&#xde;" glyph-name="Thorn" horiz-adv-x="631" d="M83 0V740H160V606H341Q423 606 478 572T560 483T588 371Q588 311 561 257T478 169T341 134H160V0H83ZM341 537H160V203H341Q398 203 436 227T493 289T512 370Q512 412 493 450T436 513T341 537Z" />
<glyph unicode="&#xdf;" glyph-name="germandbls" horiz-adv-x="652" d="M318 750Q378 750 431 726T516 658T549 551Q549 492 518 449T436 387V383Q447 379 470 368T517 337T559 283T576 202Q576 136 542 89T449 16T313 -10Q280 -10 254 -7T228 -3V63Q228 63 254
60T308 57Q398 57 448 99T498 210Q498 277 451 314T332 351H241V415H328Q390 415 431 448T472 543Q472 588 451 619T394 666T319 683Q275 683 239 664T181 606T159 506V-3H83V506Q83 575 111 630T191 717T318 750Z" />
<glyph unicode="&#xe0;" glyph-name="agrave" horiz-adv-x="641" d="M290 613L191 784H270L356 613H290ZM306 540Q361 540 397 522T454 478T486 435H492V530H566V0H492V95H486Q476 76 455 52T397 9T306 -10Q246 -10 201 13T126 76T82 165T67 265Q67 316 81 365T126
453T201 516T306 540ZM317 475Q258 475 219 444T161 365T142 265Q142 213 161 165T219 86T317 55Q375 55 413 86T471 165T491 265Q491 317 472 365T414 444T317 475Z" />
<glyph unicode="&#xe1;" glyph-name="aacute" horiz-adv-x="641" d="M355 613H290L375 784H454L355 613ZM306 540Q361 540 397 522T454 478T486 435H492V530H566V0H492V95H486Q476 76 455 52T397 9T306 -10Q246 -10 201 13T126 76T82 165T67 265Q67 316 81 365T126
453T201 516T306 540ZM317 475Q258 475 219 444T161 365T142 265Q142 213 161 165T219 86T317 55Q375 55 413 86T471 165T491 265Q491 317 472 365T414 444T317 475Z" />
<glyph unicode="&#xe2;" glyph-name="acircumflex" horiz-adv-x="641" d="M171 607L288 769H355L472 607H403L321 719L240 607H171ZM306 540Q361 540 397 522T454 478T486 435H492V530H566V0H492V95H486Q476 76 455 52T397 9T306 -10Q246 -10 201 13T126 76T82
165T67 265Q67 316 81 365T126 453T201 516T306 540ZM317 475Q258 475 219 444T161 365T142 265Q142 213 161 165T219 86T317 55Q375 55 413 86T471 165T491 265Q491 317 472 365T414 444T317 475Z" />
<glyph unicode="&#xe3;" glyph-name="atilde" horiz-adv-x="641" d="M386 618Q361 618 344 629T313 654T288 678T261 689Q243 689 236 672T228 624H175Q175 654 182 682T208 727T257 745Q283 745 301 735T332 710T356 686T382 675Q399 675 407 692T415 740H467Q467
710 460 682T435 636T386 618ZM306 540Q361 540 397 522T454 478T486 435H492V530H566V0H492V95H486Q476 76 455 52T397 9T306 -10Q246 -10 201 13T126 76T82 165T67 265Q67 316 81 365T126 453T201 516T306 540ZM317 475Q258 475 219 444T161 365T142 265Q142
213 161 165T219 86T317 55Q375 55 413 86T471 165T491 265Q491 317 472 365T414 444T317 475Z" />
<glyph unicode="&#xe4;" glyph-name="adieresis" horiz-adv-x="641" d="M407 617Q384 617 369 633T354 670Q354 692 369 707T407 723Q430 723 445 708T461 670Q461 648 446 633T407 617ZM234 617Q211 617 196 633T181 670Q181 692 196 707T234 723Q257 723 272
708T288 670Q288 648 273 633T234 617ZM306 540Q361 540 397 522T454 478T486 435H492V530H566V0H492V95H486Q476 76 455 52T397 9T306 -10Q246 -10 201 13T126 76T82 165T67 265Q67 316 81 365T126 453T201 516T306 540ZM317 475Q258 475 219 444T161 365T142
265Q142 213 161 165T219 86T317 55Q375 55 413 86T471 165T491 265Q491 317 472 365T414 444T317 475Z" />
<glyph unicode="&#xe5;" glyph-name="aring" horiz-adv-x="641" d="M321 606Q289 606 263 621T220 663T204 722Q204 755 220 781T262 823T321 839Q353 839 379 824T421 782T437 722Q437 690 422 664T380 622T321 606ZM321 661Q346 661 364 679T382 722Q382 748
364 766T321 784Q295 784 277 766T259 722Q259 697 277 679T321 661ZM306 540Q361 540 397 522T454 478T486 435H492V530H566V0H492V95H486Q476 76 455 52T397 9T306 -10Q246 -10 201 13T126 76T82 165T67 265Q67 316 81 365T126 453T201 516T306 540ZM317 475Q258
475 219 444T161 365T142 265Q142 213 161 165T219 86T317 55Q375 55 413 86T471 165T491 265Q491 317 472 365T414 444T317 475Z" />
<glyph unicode="&#xe6;" glyph-name="ae" horiz-adv-x="963" d="M241 -10Q192 -10 151 7T85 60T60 146Q60 220 115 261T257 302H417V339Q417 359 412 383T393 428T352 464T282 478Q235 478 207 462T166 425T148 388T144 372H71Q71 372 75 389T90 431T124 481T185
523T279 540Q356 540 403 506T464 421H467Q489 468 538 504T669 540Q736 540 788 509T871 416T902 262V240H494Q496 190 517 148T578 79T672 53Q717 53 746 68T792 105T816 141T823 157H895Q895 157 890 141T871 99T832 49T767 7T670 -10Q606 -10 562 12T491 65T452
126H447Q447 126 442 113T423 79T386 38T327 4T241 -10ZM494 300H827Q824 367 802 405T744 461T668 478Q593 478 546 430T494 300ZM253 50Q305 50 341 75T397 140T417 229V242H257Q194 242 164 215T133 146Q133 97 169 74T253 50Z" />
<glyph unicode="&#xe7;" glyph-name="ccedilla" horiz-adv-x="619" d="M315 -260Q291 -260 270 -257T248 -254V-204Q248 -204 270 -207T313 -211Q355 -211 371 -193T387 -157Q387 -139 373 -125T330 -110Q304 -110 288 -119T272 -129L241 -98L293 -8Q218 -1 168
40T92 141T67 265Q67 316 83 365T131 453T211 516T324 540Q386 540 427 522T493 476T531 420T548 374T552 355H479Q479 355 474 373T453 414T406 456T324 474Q263 474 223 444T162 367T141 265Q141 212 161 164T222 86T324 56Q375 56 406 74T452 115T473 157T479
175H552Q552 175 548 158T533 114T500 62T440 15T348 -9L313 -69Q328 -64 346 -64Q392 -64 417 -91T442 -156Q442 -180 429 -204T388 -244T315 -260Z" />
<glyph unicode="&#xe8;" glyph-name="egrave" horiz-adv-x="604" d="M279 612L180 783H259L344 613L279 612ZM314 -10Q250 -10 203 13T126 77T82 166T67 265Q67 315 81 364T126 453T201 516T310 540Q376 540 427 509T508 418T538 266V244H143Q145 193 165 150T223
81T314 55Q358 55 387 70T431 106T453 142T460 157H531Q531 157 526 141T508 99T471 49T408 7T314 -10ZM144 304H463Q460 365 439 402T383 457T310 474Q239 474 195 428T144 304Z" />
<glyph unicode="&#xe9;" glyph-name="eacute" horiz-adv-x="604" d="M344 612L278 613L364 783H443L344 612ZM314 -10Q250 -10 203 13T126 77T82 166T67 265Q67 315 81 364T126 453T201 516T310 540Q376 540 427 509T508 418T538 266V244H143Q145 193 165 150T223
81T314 55Q358 55 387 70T431 106T453 142T460 157H531Q531 157 526 141T508 99T471 49T408 7T314 -10ZM144 304H463Q460 365 439 402T383 457T310 474Q239 474 195 428T144 304Z" />
<glyph unicode="&#xea;" glyph-name="ecircumflex" horiz-adv-x="604" d="M159 606L277 768H343L461 606H391L310 719L229 606H159ZM314 -10Q250 -10 203 13T126 77T82 166T67 265Q67 315 81 364T126 453T201 516T310 540Q376 540 427 509T508 418T538 266V244H143Q145
193 165 150T223 81T314 55Q358 55 387 70T431 106T453 142T460 157H531Q531 157 526 141T508 99T471 49T408 7T314 -10ZM144 304H463Q460 365 439 402T383 457T310 474Q239 474 195 428T144 304Z" />
<glyph unicode="&#xeb;" glyph-name="edieresis" horiz-adv-x="604" d="M396 616Q373 616 358 632T343 670Q343 691 358 707T396 723Q419 723 434 707T449 670Q449 648 434 632T396 616ZM223 616Q200 616 185 632T170 670Q170 691 185 707T223 723Q246 723 261
707T276 670Q276 648 261 632T223 616ZM314 -10Q250 -10 203 13T126 77T82 166T67 265Q67 315 81 364T126 453T201 516T310 540Q376 540 427 509T508 418T538 266V244H143Q145 193 165 150T223 81T314 55Q358 55 387 70T431 106T453 142T460 157H531Q531 157 526
141T508 99T471 49T408 7T314 -10ZM144 304H463Q460 365 439 402T383 457T310 474Q239 474 195 428T144 304Z" />
<glyph unicode="&#xec;" glyph-name="igrave" horiz-adv-x="256" d="M97 613L-2 784H77L163 613H97ZM91 0V530H166V0H91Z" />
<glyph unicode="&#xed;" glyph-name="iacute" horiz-adv-x="256" d="M162 613H97L182 784H261L162 613ZM91 0V530H166V0H91Z" />
<glyph unicode="&#xee;" glyph-name="icircumflex" horiz-adv-x="256" d="M-22 607L95 769H162L279 607H210L128 719L47 607H-22ZM91 0V530H166V0H91Z" />
<glyph unicode="&#xef;" glyph-name="idieresis" horiz-adv-x="256" d="M214 617Q191 617 176 633T161 670Q161 692 176 707T214 723Q237 723 252 708T267 670Q267 648 252 633T214 617ZM41 617Q18 617 3 633T-12 670Q-12 692 3 707T41 723Q64 723 79 708T94 670Q94
648 79 633T41 617ZM91 0V530H166V0H91Z" />
<glyph unicode="&#xf0;" glyph-name="eth" horiz-adv-x="630" d="M314 -10Q250 -10 203 13T124 76T78 165T62 265Q62 316 77 364T121 451T196 512T300 535Q346 535 381 519T439 482Q405 542 356 589T257 672L144 607L114 660L199 709Q155 735 126 748T97 762L124
821Q124 821 165 803T267 748L383 815L414 762L323 709Q367 677 410 634T489 537T546 419T568 278Q568 203 540 137T456 31T314 -10ZM315 55Q375 55 414 86T472 165T491 265Q491 317 472 365T413 444T315 475Q255 475 216 444T157 365T138 265Q138 213 157 165T215
86T315 55Z" />
<glyph unicode="&#xf1;" glyph-name="ntilde" horiz-adv-x="589" d="M363 618Q338 618 321 629T290 654T264 678T238 689Q220 689 212 672T204 624H152Q152 654 159 682T184 727T234 745Q260 745 278 735T309 710T333 686T359 675Q376 675 383 692T391 740H444Q444
710 437 682T412 636T363 618ZM85 0V530H160V442H165Q172 457 190 480T240 522T321 540Q380 540 421 513T483 440T505 336V0H431V332Q431 393 399 433T303 474Q253 474 222 448T175 381T160 297V0H85Z" />
<glyph unicode="&#xf2;" glyph-name="ograve" horiz-adv-x="645" d="M291 613L192 785H271L356 614L291 613ZM322 -10Q259 -10 212 13T132 75T83 163T67 265Q67 318 83 367T131 455T211 517T322 540Q385 540 433 517T513 455T561 367T578 265Q578 213 562 164T513
75T433 13T322 -10ZM322 57Q381 57 421 87T481 164T502 265Q502 318 482 365T421 443T322 473Q263 473 223 443T163 366T143 265Q143 212 163 165T223 87T322 57Z" />
<glyph unicode="&#xf3;" glyph-name="oacute" horiz-adv-x="645" d="M356 613L290 614L376 785H455L356 613ZM322 -10Q259 -10 212 13T132 75T83 163T67 265Q67 318 83 367T131 455T211 517T322 540Q385 540 433 517T513 455T561 367T578 265Q578 213 562 164T513
75T433 13T322 -10ZM322 57Q381 57 421 87T481 164T502 265Q502 318 482 365T421 443T322 473Q263 473 223 443T163 366T143 265Q143 212 163 165T223 87T322 57Z" />
<glyph unicode="&#xf4;" glyph-name="ocircumflex" horiz-adv-x="645" d="M171 607L289 769H355L473 607H403L322 720L241 607H171ZM322 -10Q259 -10 212 13T132 75T83 163T67 265Q67 318 83 367T131 455T211 517T322 540Q385 540 433 517T513 455T561 367T578
265Q578 213 562 164T513 75T433 13T322 -10ZM322 57Q381 57 421 87T481 164T502 265Q502 318 482 365T421 443T322 473Q263 473 223 443T163 366T143 265Q143 212 163 165T223 87T322 57Z" />
<glyph unicode="&#xf5;" glyph-name="otilde" horiz-adv-x="645" d="M387 619Q362 619 345 629T314 654T288 679T262 690Q244 690 236 673T228 625H176Q176 655 183 682T208 728T258 746Q284 746 302 735T333 711T357 686T383 675Q400 675 407 692T415 741H468Q468
710 461 683T436 637T387 619ZM322 -10Q259 -10 212 13T132 75T83 163T67 265Q67 318 83 367T131 455T211 517T322 540Q385 540 433 517T513 455T561 367T578 265Q578 213 562 164T513 75T433 13T322 -10ZM322 57Q381 57 421 87T481 164T502 265Q502 318 482 365T421
443T322 473Q263 473 223 443T163 366T143 265Q143 212 163 165T223 87T322 57Z" />
<glyph unicode="&#xf6;" glyph-name="odieresis" horiz-adv-x="645" d="M408 618Q385 618 370 633T355 671Q355 693 370 708T408 724Q431 724 446 709T461 671Q461 649 446 634T408 618ZM235 618Q212 618 197 633T182 671Q182 693 197 708T235 724Q258 724 273
709T288 671Q288 649 273 634T235 618ZM322 -10Q259 -10 212 13T132 75T83 163T67 265Q67 318 83 367T131 455T211 517T322 540Q385 540 433 517T513 455T561 367T578 265Q578 213 562 164T513 75T433 13T322 -10ZM322 57Q381 57 421 87T481 164T502 265Q502 318
482 365T421 443T322 473Q263 473 223 443T163 366T143 265Q143 212 163 165T223 87T322 57Z" />
<glyph unicode="&#xf7;" glyph-name="divide" horiz-adv-x="644" d="M329 410Q304 410 289 427T273 466Q273 489 288 505T329 522Q352 522 368 506T385 466Q385 443 369 427T329 410ZM118 267V329H526V267H118ZM329 74Q304 74 289 90T273 130Q273 153 288 169T329
186Q352 186 368 170T385 130Q385 107 369 91T329 74Z" />
<glyph unicode="&#xf8;" glyph-name="oslash" horiz-adv-x="635" d="M114 -49L163 40Q113 79 88 139T62 265Q62 318 78 367T126 455T206 517T317 540Q348 540 375 534T426 518L460 579H521L472 490Q522 451 547 391T573 265Q573 213 557 164T508 75T428 13T317
-10Q286 -10 259 -4T208 12L175 -49H114ZM138 265Q138 219 153 177T198 104L393 457Q359 473 317 473Q258 473 218 443T158 366T138 265ZM317 57Q376 57 416 87T476 164T497 265Q497 311 482 353T437 426L242 73Q276 57 317 57Z" />
<glyph unicode="&#xf9;" glyph-name="ugrave" d="M259 613L160 784H239L324 613H259ZM258 -10Q179 -10 132 41T85 183V530H160V186Q160 124 191 90T276 56Q329 56 361 84T407 156T422 247V530H497V0H422V87H417Q410 73 392 50T342 8T258 -10Z" />
<glyph unicode="&#xfa;" glyph-name="uacute" d="M324 613H258L344 784H423L324 613ZM258 -10Q179 -10 132 41T85 183V530H160V186Q160 124 191 90T276 56Q329 56 361 84T407 156T422 247V530H497V0H422V87H417Q410 73 392 50T342 8T258 -10Z" />
<glyph unicode="&#xfb;" glyph-name="ucircumflex" d="M139 607L257 769H323L441 607H371L290 719L209 607H139ZM258 -10Q179 -10 132 41T85 183V530H160V186Q160 124 191 90T276 56Q329 56 361 84T407 156T422 247V530H497V0H422V87H417Q410 73 392 50T342 8T258 -10Z" />
<glyph unicode="&#xfc;" glyph-name="udieresis" d="M376 617Q353 617 338 633T323 670Q323 692 338 707T376 723Q399 723 414 708T429 670Q429 648 414 633T376 617ZM203 617Q180 617 165 633T150 670Q150 692 165 707T203 723Q226 723 241 708T256 670Q256 648
241 633T203 617ZM258 -10Q179 -10 132 41T85 183V530H160V186Q160 124 191 90T276 56Q329 56 361 84T407 156T422 247V530H497V0H422V87H417Q410 73 392 50T342 8T258 -10Z" />
<glyph unicode="&#xfd;" glyph-name="yacute" horiz-adv-x="575" d="M315 613H250L335 784H414L315 613ZM88 -195Q67 -195 53 -194T38 -192V-127Q38 -127 53 -128T87 -130Q148 -130 187 -100T253 -6L46 530H124L290 91L457 530H536L324 -13Q288 -106 230 -150T88 -195Z" />
<glyph unicode="&#xfe;" glyph-name="thorn" horiz-adv-x="645" d="M83 -196V760H158V435H163Q174 454 195 478T253 521T344 540Q404 540 449 517T523 454T568 365T583 265Q583 214 568 165T524 77T449 14T344 -10Q289 -10 253 8T196 52T163 95H158V-196H83ZM159
265Q159 213 178 165T236 86T333 55Q392 55 430 86T488 165T508 265Q508 317 489 365T431 444T333 475Q275 475 236 444T178 365T159 265Z" />
<glyph unicode="&#xff;" glyph-name="ydieresis" horiz-adv-x="575" d="M367 617Q344 617 329 633T314 670Q314 692 329 707T367 723Q390 723 405 708T420 670Q420 648 405 633T367 617ZM194 617Q171 617 156 633T141 670Q141 692 156 707T194 723Q217 723 232
708T247 670Q247 648 232 633T194 617ZM88 -195Q67 -195 53 -194T38 -192V-127Q38 -127 53 -128T87 -130Q148 -130 187 -100T253 -6L46 530H124L290 91L457 530H536L324 -13Q288 -106 230 -150T88 -195Z" />
<glyph unicode="&#x2013;" glyph-name="endash" horiz-adv-x="670" d="M118 281V345H552V281H118Z" />
<glyph unicode="&#x2014;" glyph-name="emdash" horiz-adv-x="843" d="M118 281V345H725V281H118Z" />
<glyph unicode="&#x2018;" glyph-name="quoteleft" horiz-adv-x="252" d="M179 740L117 640Q140 639 154 623T168 585Q168 561 152 546T112 530Q88 530 71 544T54 586Q54 610 71 639T128 726L138 740H179Z" />
<glyph unicode="&#x2019;" glyph-name="quoteright" horiz-adv-x="202" d="M50 540L112 641Q89 642 75 657T61 695Q61 720 77 735T118 750Q141 750 158 736T175 694Q175 670 158 641T101 555L92 540H50Z" />
<glyph unicode="&#x201a;" glyph-name="quotesinglbase" horiz-adv-x="294" d="M78 -106L140 -6Q117 -5 103 11T89 49Q89 73 105 88T145 103Q169 103 186 89T203 48Q203 24 186 -5T129 -92L119 -106H78Z" />
<glyph unicode="&#x201c;" glyph-name="quotedblleft" horiz-adv-x="349" d="M122 740L60 640Q83 639 97 623T111 585Q111 561 95 546T54 530Q31 530 14 544T-3 586Q-3 610 14 639T71 726L80 740H122ZM283 740L221 640Q243 639 257 623T271 585Q271 561 255 546T215
530Q191 530 174 544T157 586Q157 610 174 639T231 726L241 740H283Z" />
<glyph unicode="&#x201d;" glyph-name="quotedblright" horiz-adv-x="374" d="M227 540L289 641Q267 642 253 657T239 695Q239 720 255 735T295 750Q318 750 335 736T353 694Q353 670 336 641T279 555L269 540H227ZM67 540L129 641Q106 642 92 657T78 695Q78 720
94 735T134 750Q158 750 175 736T192 694Q192 670 175 641T118 555L108 540H67Z" />
<glyph unicode="&#x201e;" glyph-name="quotedblbase" horiz-adv-x="443" d="M239 -106L301 -6Q279 -5 265 11T251 49Q251 73 267 88T307 103Q330 103 347 89T365 48Q365 24 348 -5T291 -92L281 -106H239ZM79 -106L141 -6Q118 -5 104 11T90 49Q90 73 106 88T146
103Q170 103 187 89T204 48Q204 24 187 -5T130 -92L120 -106H79Z" />
<glyph unicode="&#x2022;" glyph-name="bullet" horiz-adv-x="515" d="M257 252Q217 252 186 271T136 323T118 393Q118 431 136 462T185 512T257 531Q297 531 328 513T378 463T397 393Q397 354 379 322T329 271T257 252Z" />
<glyph unicode="&#x2039;" glyph-name="guilsinglleft" horiz-adv-x="378" d="M338 526L128 318L338 109H252L40 318L252 526H338Z" />
<glyph unicode="&#x203a;" glyph-name="guilsinglright" horiz-adv-x="378" d="M40 109L251 317L40 526H127L338 317L127 109H40Z" />
</font>
</defs>
</svg>
