<?xml version="1.0" standalone="no"?>
<!DOCTYPE svg PUBLIC "-//W3C//DTD SVG 1.1//EN" "http://www.w3.org/Graphics/SVG/1.1/DTD/svg11.dtd">
<svg xmlns="http://www.w3.org/2000/svg">
<defs >
<font id="BeVietnamPro" horiz-adv-x="598" ><font-face
    font-family="Be Vietnam Pro Medium"
    units-per-em="1000"
    panose-1="0 0 0 0 0 0 0 0 0 0"
    ascent="1000"
    descent="-265"
    alphabetic="0" />
<glyph unicode=" " glyph-name="space" horiz-adv-x="230" />
<glyph unicode="!" glyph-name="exclam" horiz-adv-x="300" d="M99 201L91 740H209L198 201H99ZM150 -9Q120 -9 101 11T82 59Q82 87 101 107T150 127Q179 127 198 107T218 59Q218 30 199 11T150 -9Z" />
<glyph unicode="&quot;" glyph-name="quotedbl" horiz-adv-x="342" d="M209 528L219 740H320L279 528H209ZM60 528L70 740H171L130 528H60Z" />
<glyph unicode="#" glyph-name="numbersign" horiz-adv-x="820" d="M160 0L199 194H47L69 295H219L250 446H101L122 547H270L309 740H410L371 547H521L560 740H661L622 547H772L751 446H602L571 295H719L697 194H551L512 0H411L450 194H300L261 0H160ZM320 295H471L501
446H350L320 295Z" />
<glyph unicode="$" glyph-name="dollar" horiz-adv-x="646" d="M294 -99V-9Q220 -3 174 23T101 84T65 152T52 208T49 231H164Q164 231 166 213T180 168T219 120T294 89V332L289 333Q228 347 179 370T100 433T70 538Q70 601 101 646T183 717T294 749V837H373V747Q437
739 478 715T542 660T577 600T591 551T594 531H480Q480 531 478 546T465 582T433 622T373 651V422L382 420Q420 411 459 398T530 363T583 304T603 210Q603 151 574 104T492 28T373 -9V-99H294ZM182 541Q182 502 209 479T294 440V654Q242 646 212 615T182 541ZM490
209Q490 255 459 278T373 315V89Q424 98 457 130T490 209Z" />
<glyph unicode="%" glyph-name="percent" horiz-adv-x="856" d="M216 437Q171 437 135 457T78 512T57 595Q57 641 78 676T135 730T216 750Q262 750 298 731T355 676T376 595Q376 548 355 513T298 457T216 437ZM178 0L576 740H678L280 0H178ZM216 515Q248 515 270
536T292 594Q292 630 270 651T216 672Q185 672 163 651T140 594Q140 558 162 537T216 515ZM640 -10Q595 -10 559 9T502 64T481 146Q481 193 501 228T558 283T640 303Q685 303 721 283T778 228T799 146Q799 100 779 65T722 10T640 -10ZM640 67Q671 67 693 88T716
146Q716 182 694 203T640 225Q608 225 586 204T564 146Q564 110 586 89T640 67Z" />
<glyph unicode="&amp;" glyph-name="ampersand" horiz-adv-x="748" d="M315 -10Q245 -10 186 15T92 89T57 205Q57 275 96 325T204 414V415Q178 444 155 482T131 577Q131 634 157 672T226 730T316 750Q362 750 403 732T470 677T496 589Q496 527 457 480T352 398L517
214Q535 254 545 306T555 424H650Q650 332 633 262T584 139L708 1H566L516 58Q473 23 422 7T315 -10ZM229 581Q229 549 249 521T297 461H299Q343 483 370 513T398 584Q398 624 374 644T316 665Q282 665 256 643T229 581ZM163 214Q163 153 208 118T321 83Q358 83
392 94T454 129L259 351Q215 325 189 292T163 214Z" />
<glyph unicode="&apos;" glyph-name="quotesingle" horiz-adv-x="193" d="M60 528L70 740H171L130 528H60Z" />
<glyph unicode="(" glyph-name="parenleft" horiz-adv-x="444" d="M402 -208Q315 -196 249 -148T139 -28T73 133T50 313Q50 406 72 493T139 653T249 774T402 834V730Q345 718 301 679T227 582T182 455T166 313Q166 240 181 171T227 44T301 -53T402 -104V-208Z" />
<glyph unicode=")" glyph-name="parenright" horiz-adv-x="444" d="M42 834Q129 822 195 774T305 654T371 493T394 313Q394 220 372 133T305 -27T195 -148T42 -208V-104Q99 -92 143 -53T217 44T262 171T278 313Q278 386 263 455T217 582T143 679T42 730V834Z" />
<glyph unicode="*" glyph-name="asterisk" horiz-adv-x="502" d="M164 339L94 389L185 510L40 555L66 638L210 589L207 740H294L292 589L436 638L462 555L318 510L409 389L338 339L251 461L164 339Z" />
<glyph unicode="+" glyph-name="plus" horiz-adv-x="623" d="M265 119V266H117V359H265V507H358V359H505V266H358V119H265Z" />
<glyph unicode="," glyph-name="comma" horiz-adv-x="317" d="M80 -130L156 -7Q128 -5 110 14T91 63Q91 95 112 114T164 134Q195 134 216 115T238 61Q238 30 216 -9T141 -120L134 -130H80Z" />
<glyph unicode="-" glyph-name="hyphen" horiz-adv-x="608" d="M117 266V359H490V266H117Z" />
<glyph unicode="." glyph-name="period" horiz-adv-x="302" d="M151 -10Q120 -10 100 11T79 62Q79 92 99 113T151 134Q182 134 202 113T223 62Q223 32 203 11T151 -10Z" />
<glyph unicode="/" glyph-name="slash" horiz-adv-x="516" d="M38 -161L385 826H492L144 -161H38Z" />
<glyph unicode="0" glyph-name="zero" horiz-adv-x="684" d="M342 -9Q271 -9 217 21T125 104T69 225T50 371Q50 448 69 516T125 638T216 721T342 751Q413 751 467 721T559 638T615 517T634 371Q634 294 615 226T559 104T468 21T342 -9ZM342 96Q416 96 465 165T514
371Q514 506 465 575T342 644Q268 644 219 575T170 371Q170 236 218 166T342 96Z" />
<glyph unicode="1" glyph-name="one" horiz-adv-x="400" d="M296 740V0H181V559L41 558V627L65 634Q121 651 155 672T221 730L230 740H296Z" />
<glyph unicode="2" glyph-name="two" horiz-adv-x="655" d="M73 0V81L224 218Q296 282 349 329T431 420T461 516Q461 557 441 586T390 630T325 646Q284 646 258 633T216 599T193 557T184 519T182 498H70Q70 509 74 538T93 602T136 672T211 728T328 750Q395 750
452 723T543 645T578 520Q578 453 545 399T455 292T329 179L246 104H592V0H73Z" />
<glyph unicode="3" glyph-name="three" horiz-adv-x="667" d="M330 -10Q247 -10 188 22T98 107T67 224H177Q177 162 220 125T330 88Q370 88 403 103T457 147T477 217Q477 270 441 302T343 334H243V425H343Q395 425 430 455T466 535Q466 571 448 597T398 638T330
653Q270 653 230 615T189 515H81Q81 578 111 631T197 717T332 750Q395 750 451 726T543 655T579 545Q579 483 547 442T470 384V379Q522 361 557 319T593 212Q593 142 557 93T460 17T330 -10Z" />
<glyph unicode="4" glyph-name="four" horiz-adv-x="713" d="M411 0V165L51 166V270L385 740H528V265H652V165H528V0H411ZM169 265H411V608L169 265Z" />
<glyph unicode="5" glyph-name="five" horiz-adv-x="667" d="M330 -10Q259 -10 212 10T135 62T90 127T69 186T63 221H172Q172 221 174 208T184 174T209 135T255 102T329 88Q383 88 418 111T471 170T489 246Q489 286 472 323T419 384T333 408Q293 408 267 395T225
366T203 336T196 323H81L142 740H552V637H225L197 440H200Q209 450 227 464T275 490T354 502Q435 502 490 466T574 371T603 248Q603 200 586 154T536 71T451 12T330 -10Z" />
<glyph unicode="6" glyph-name="six" horiz-adv-x="687" d="M355 -10Q282 -10 228 17T139 91T87 200T70 328Q70 384 82 443T122 557T194 655T300 724T445 750Q491 750 525 743T559 736V631Q559 631 542 634T498 640T444 644Q374 644 326 619T249 556T207 475T191
398Q199 412 220 433T278 470T373 487Q454 487 508 452T589 361T617 244Q617 196 601 151T552 70T470 12T355 -10ZM354 88Q393 88 427 105T482 157T503 240Q503 289 482 323T427 374T354 392Q315 392 281 375T226 323T205 240Q205 191 226 157T281 106T354 88Z"
/>
<glyph unicode="7" glyph-name="seven" horiz-adv-x="595" d="M172 0Q176 94 197 179T249 336T316 468T383 570T435 637H49V740H567V655Q567 655 548 634T499 571T433 472T367 341T313 183T288 0H172Z" />
<glyph unicode="8" glyph-name="eight" horiz-adv-x="645" d="M322 -10Q245 -10 186 17T92 93T58 204Q58 258 77 293T122 349T167 379T187 388V394Q187 394 170 401T132 427T94 475T77 549Q77 608 108 653T194 724T322 750Q395 750 450 724T537 653T568 550Q568
505 552 475T513 427T475 402T458 394V388Q458 388 477 379T522 350T567 294T587 204Q587 141 553 93T460 18T322 -10ZM322 433Q387 433 422 467T457 545Q457 590 422 624T322 659Q258 659 223 625T188 545Q188 502 223 468T322 433ZM322 83Q373 83 407 102T458
152T476 216Q476 248 459 277T408 326T322 345Q271 345 237 326T186 278T169 216Q169 183 186 153T238 103T322 83Z" />
<glyph unicode="9" glyph-name="nine" horiz-adv-x="687" d="M331 750Q405 750 458 723T547 649T599 540T617 412Q617 356 604 297T564 183T493 85T387 16T241 -10Q195 -10 161 -3T127 4V109Q127 109 144 106T189 100T243 96Q313 96 360 121T437 184T480 265T496
342Q487 328 467 307T409 270T314 253Q233 253 179 288T97 379T70 496Q70 544 86 589T135 670T217 728T331 750ZM333 652Q294 652 260 635T204 583T183 500Q183 451 204 417T259 366T333 348Q372 348 406 365T461 417T482 500Q482 549 461 583T406 634T333 652Z"
/>
<glyph unicode=":" glyph-name="colon" horiz-adv-x="302" d="M151 396Q120 396 100 417T79 468Q79 498 99 519T151 540Q182 540 202 519T223 468Q223 439 203 418T151 396ZM151 -10Q120 -10 100 11T79 62Q79 92 99 113T151 134Q182 134 202 113T223 62Q223 32
203 11T151 -10Z" />
<glyph unicode=";" glyph-name="semicolon" horiz-adv-x="317" d="M158 396Q127 396 107 417T87 468Q87 498 107 519T158 540Q189 540 209 519T230 468Q230 439 210 418T158 396ZM80 -129L156 -6Q128 -4 110 16T91 65Q91 97 112 116T164 135Q195 135 216 116T238
62Q238 32 216 -7T141 -118L134 -129H80Z" />
<glyph unicode="&lt;" glyph-name="less" horiz-adv-x="562" d="M484 114L78 302V370L484 559V459L209 337L484 214V114Z" />
<glyph unicode="=" glyph-name="equal" horiz-adv-x="735" d="M117 373V469H617V373H117ZM117 150V246H617V150H117Z" />
<glyph unicode="&gt;" glyph-name="greater" horiz-adv-x="562" d="M78 114V214L353 337L78 459V559L484 370V302L78 114Z" />
<glyph unicode="?" glyph-name="question" horiz-adv-x="589" d="M229 198V232Q229 280 248 313T296 371T354 420T402 470T422 534Q422 588 384 618T293 648Q260 648 230 633T181 588T162 510H51Q51 591 86 644T178 724T297 750Q362 750 416 725T504 651T538 537Q538
485 518 449T469 385T411 335T363 287T343 232V198H229ZM287 -10Q257 -10 238 10T219 58Q219 87 238 107T287 127Q316 127 335 107T355 58Q355 30 336 10T287 -10Z" />
<glyph unicode="@" glyph-name="at" horiz-adv-x="1009" d="M518 -148Q400 -148 312 -111T166 -9T79 135T50 298Q50 383 79 464T166 610T309 713T509 752Q598 752 679 724T823 641T922 506T959 324Q959 254 939 198T877 108T775 75Q713 75 676 103T625 165H618Q614
154 597 133T548 93T467 75Q403 75 362 107T299 191T278 297Q278 351 298 401T360 483T464 515Q517 515 549 494T597 450H602V507H705V321Q705 302 707 275T716 222T738 179T781 161Q822 161 842 202T862 320Q862 405 833 469T755 576T642 640T509 662Q420 662
353 632T241 549T173 433T150 300Q150 233 172 170T240 55T355 -26T516 -57Q585 -57 638 -43T721 -16T751 -2L786 -86Q786 -86 755 -101T663 -132T518 -148ZM490 161Q527 161 550 180T586 231T598 295Q598 328 586 358T551 409T490 429Q455 429 431 410T395 360T383
295Q383 262 395 231T431 181T490 161Z" />
<glyph unicode="A" glyph-name="A" horiz-adv-x="747" d="M40 0L298 740H448L707 0H584L527 166H220L163 0H40ZM255 270H492L374 615L255 270Z" />
<glyph unicode="B" glyph-name="B" horiz-adv-x="686" d="M76 0V740H380Q451 740 501 715T578 647T605 555Q605 502 586 469T541 417T498 392V386Q523 379 555 360T610 304T634 209Q634 157 609 109T530 31T387 0H76ZM369 640H193V426H369Q433 426 462 459T491
533Q491 574 462 607T369 640ZM378 334H193V100H378Q427 100 458 116T503 160T517 217Q517 247 503 273T458 317T378 334Z" />
<glyph unicode="C" glyph-name="C" horiz-adv-x="777" d="M406 -10Q317 -10 251 22T140 109T73 231T50 370Q50 441 72 509T139 631T250 718T406 750Q479 750 531 731T619 683T676 620T708 557T723 509T727 490H610Q610 490 607 505T592 544T558 589T499 627T407
643Q348 643 304 620T229 558T185 470T170 370Q170 319 184 271T229 183T303 120T407 97Q462 97 498 112T557 151T591 197T606 235T610 251H727Q727 251 723 232T709 184T677 121T620 58T532 9T406 -10Z" />
<glyph unicode="D" glyph-name="D" horiz-adv-x="736" d="M76 0V740H329Q418 740 485 709T596 624T663 505T686 370Q686 301 664 235T597 116T485 32T329 0H76ZM324 638H193V103H324Q386 103 432 125T508 186T553 272T569 370Q569 420 554 468T508 554T432 615T324 638Z" />
<glyph unicode="E" glyph-name="E" horiz-adv-x="627" d="M76 0V740H559V638H193V427H513V326H193V102H564V0H76Z" />
<glyph unicode="F" glyph-name="F" horiz-adv-x="637" d="M76 0V740H574V638H193V411H528V310H193V0H76Z" />
<glyph unicode="G" glyph-name="G" horiz-adv-x="785" d="M411 -10Q319 -10 252 22T139 108T72 230T50 369Q50 440 72 508T139 630T253 717T414 750Q486 750 537 732T623 686T679 625T711 564T726 517T730 499H613Q613 499 609 514T594 550T560 594T503 630T415
645Q353 645 307 622T230 559T184 471T169 371Q169 319 184 270T230 181T306 118T413 95Q508 95 564 149T626 295H415V389H739V336Q739 222 696 145T578 29T411 -10Z" />
<glyph unicode="H" glyph-name="H" horiz-adv-x="717" d="M76 0V740H193V428H524V740H641V0H524V324H193V0H76Z" />
<glyph unicode="I" glyph-name="I" horiz-adv-x="269" d="M76 0V740H193V0H76Z" />
<glyph unicode="J" glyph-name="J" horiz-adv-x="474" d="M136 -10Q99 -10 70 -6T40 -2V99Q40 99 66 97T119 94Q193 94 237 130T281 257V740H398V256Q398 177 369 117T283 24T136 -10Z" />
<glyph unicode="K" glyph-name="K" horiz-adv-x="691" d="M76 0V740H193V412L494 739H643L310 384L657 0H503L193 346V0H76Z" />
<glyph unicode="L" glyph-name="L" horiz-adv-x="630" d="M76 0V740H193V102H567V0H76Z" />
<glyph unicode="M" glyph-name="M" horiz-adv-x="865" d="M76 0V740H231L432 319L636 740H789V0H674V566L487 184H378L191 568V0H76Z" />
<glyph unicode="N" glyph-name="N" horiz-adv-x="738" d="M76 0V740H182L545 208V740H662V0H555L192 527V0H76Z" />
<glyph unicode="O" glyph-name="O" horiz-adv-x="827" d="M413 -10Q324 -10 256 22T142 109T73 232T50 371Q50 442 73 509T142 631T256 717T413 750Q503 750 571 718T685 631T754 510T777 371Q777 300 754 232T685 110T571 23T413 -10ZM413 97Q493 97 547 136T629
238T657 371Q657 423 641 471T595 559T519 620T413 643Q354 643 309 621T233 559T186 472T170 371Q170 301 198 239T280 137T413 97Z" />
<glyph unicode="P" glyph-name="P" horiz-adv-x="656" d="M76 0V740H354Q441 740 499 705T586 614T615 497Q615 436 586 380T499 289T354 253H193V0H76ZM354 638H193V355H354Q402 355 434 375T482 428T498 496Q498 532 482 564T434 617T354 638Z" />
<glyph unicode="Q" glyph-name="Q" horiz-adv-x="823" d="M413 -10Q324 -10 256 22T142 109T73 232T50 371Q50 442 73 509T142 631T256 717T413 750Q503 750 571 718T685 631T754 510T777 371Q777 301 755 233T687 112L795 0H658L613 46Q573 20 523 5T413 -10ZM413
97Q448 97 478 105T533 128L417 248L491 315L606 196Q631 233 644 278T657 371Q657 423 641 471T595 559T519 620T413 643Q354 643 309 621T233 559T186 472T170 371Q170 301 198 239T280 137T413 97Z" />
<glyph unicode="R" glyph-name="R" horiz-adv-x="683" d="M76 0V740H351Q430 740 484 710T567 630T595 522Q595 452 556 395T440 315L618 0H487L319 302H193V0H76ZM349 638H193V400H349Q412 400 444 436T476 519Q476 565 444 601T349 638Z" />
<glyph unicode="S" glyph-name="S" horiz-adv-x="645" d="M333 -10Q267 -10 220 7T141 50T92 107T64 163T52 207T49 224H168Q168 224 171 211T183 178T210 139T259 106T337 92Q407 92 446 125T486 209Q486 253 457 277T370 315L272 338Q217 350 171 373T96 437T67
538Q67 604 99 651T189 724T321 750Q393 750 440 729T515 676T556 614T574 561T578 539H464Q464 539 460 555T442 594T398 632T318 649Q249 649 215 617T181 546Q181 508 210 486T288 452L393 427Q451 414 498 388T574 320T602 216Q602 154 572 103T481 21T333
-10Z" />
<glyph unicode="T" glyph-name="T" horiz-adv-x="662" d="M273 0V638H43V740H619V638H389V0H273Z" />
<glyph unicode="U" glyph-name="U" horiz-adv-x="729" d="M364 -10Q279 -10 214 22T113 117T76 271V740H193V271Q193 199 235 150T364 100Q452 100 494 149T536 271V740H653V271Q653 180 617 118T515 23T364 -10Z" />
<glyph unicode="V" glyph-name="V" horiz-adv-x="719" d="M284 0L26 740H149L360 125L570 740H693L434 0H284Z" />
<glyph unicode="W" glyph-name="W" horiz-adv-x="1022" d="M229 0L36 740H155L300 164L453 740H570L723 165L867 740H986L793 0H653L511 536L369 0H229Z" />
<glyph unicode="X" glyph-name="X" horiz-adv-x="736" d="M53 0L288 370L53 740H192L368 457L544 740H683L446 370L683 0H544L368 284L192 0H53Z" />
<glyph unicode="Y" glyph-name="Y" horiz-adv-x="683" d="M283 0V260L24 740H152L341 379L531 740H659L399 260V0H283Z" />
<glyph unicode="Z" glyph-name="Z" horiz-adv-x="662" d="M59 0V87L454 638H59V740H601V654L205 102H601V0H59Z" />
<glyph unicode="[" glyph-name="bracketleft" horiz-adv-x="474" d="M76 -204V841H390V742H192V-105H390V-204H76Z" />
<glyph unicode="\" glyph-name="backslash" horiz-adv-x="500" d="M462 -161H356L9 826H115L462 -161Z" />
<glyph unicode="]" glyph-name="bracketright" horiz-adv-x="474" d="M398 841V-204H84V-105H282V742H84V841H398Z" />
<glyph unicode="^" glyph-name="asciicircum" horiz-adv-x="577" d="M117 569L241 740H335L459 569H362L288 675L214 569H117Z" />
<glyph unicode="_" glyph-name="underscore" horiz-adv-x="713" d="M117 -87V0H596V-87H117Z" />
<glyph unicode="`" glyph-name="grave" horiz-adv-x="231" d="M125 608L20 789H133L217 609L125 608Z" />
<glyph unicode="a" glyph-name="a" horiz-adv-x="647" d="M295 540Q345 540 378 524T432 487T461 451H467V530H581V0H467V79H461Q452 64 432 43T379 6T295 -10Q235 -10 191 13T116 76T72 165T57 265Q57 316 71 365T116 453T190 516T295 540ZM320 445Q271 445 238
419T189 351T172 265Q172 220 188 179T238 112T320 85Q369 85 401 111T450 179T467 265Q467 310 451 351T402 418T320 445Z" />
<glyph unicode="b" glyph-name="b" horiz-adv-x="657" d="M363 -10Q312 -10 279 6T226 43T196 79H190V0H76V760H190V451H196Q206 466 225 487T278 524T363 540Q422 540 467 517T541 454T585 365T600 265Q600 214 586 165T542 77T467 14T363 -10ZM337 85Q387 85
419 111T468 179T485 265Q485 310 469 351T420 418T337 445Q288 445 256 419T207 351T190 265Q190 220 206 179T255 112T337 85Z" />
<glyph unicode="c" glyph-name="c" horiz-adv-x="618" d="M323 -10Q256 -10 206 13T123 76T74 165T57 265Q57 316 73 365T123 453T206 516T323 540Q389 540 432 521T502 472T541 414T557 365T561 345H453Q453 345 449 360T431 395T393 430T324 445Q273 445 239
420T188 353T170 265Q170 218 187 177T239 111T324 85Q367 85 392 100T431 135T448 170T453 185H561Q561 185 558 165T541 116T502 58T433 10T323 -10Z" />
<glyph unicode="d" glyph-name="d" horiz-adv-x="657" d="M295 -10Q235 -10 191 13T116 76T72 165T57 265Q57 316 71 365T116 453T190 516T295 540Q345 540 378 524T432 487T461 451H467V760H581V0H467V79H461Q452 64 432 43T379 6T295 -10ZM320 85Q369 85 401
111T450 179T467 265Q467 310 451 351T402 418T320 445Q271 445 238 419T189 351T172 265Q172 220 188 179T238 112T320 85Z" />
<glyph unicode="e" glyph-name="e" horiz-adv-x="605" d="M315 -10Q248 -10 200 13T120 76T73 165T57 265Q57 315 72 364T118 453T197 516T310 540Q380 540 433 509T517 416T548 263V232H172Q176 171 213 127T315 83Q352 83 376 95T413 124T431 152T437 164H543Q543
164 538 147T520 103T481 51T415 8T315 -10ZM173 312H438Q434 382 397 415T309 448Q253 448 216 412T173 312Z" />
<glyph unicode="f" glyph-name="f" horiz-adv-x="394" d="M128 0V438H42V530H128V587Q128 618 136 650T163 709T215 753T298 770Q327 770 346 766T365 761V675Q365 675 351 678T318 681Q274 681 258 655T242 587V530H360V438H242V0H128Z" />
<glyph unicode="g" glyph-name="g" horiz-adv-x="648" d="M327 -211Q258 -211 213 -193T141 -149T101 -96T84 -51T80 -33H193Q193 -33 197 -45T214 -74T255 -103T326 -116Q378 -116 409 -96T454 -42T468 31V91H463Q452 74 432 54T377 18T295 3Q235 3 191 26T117
87T72 174T57 272Q57 322 72 369T116 455T190 517T295 540Q343 540 377 526T432 491T463 452H468V530H582V32Q582 -39 553 -94T467 -180T327 -211ZM321 97Q370 97 403 122T452 188T468 272Q468 316 452 356T403 421T321 446Q271 446 238 421T189 356T173 272Q173
228 189 188T238 123T321 97Z" />
<glyph unicode="h" glyph-name="h" horiz-adv-x="591" d="M76 0V760H190V453H196Q203 467 220 487T267 524T345 540Q404 540 444 513T504 441T525 342V0H411V330Q411 378 385 411T306 444Q265 444 240 424T202 371T190 301V0H76Z" />
<glyph unicode="i" glyph-name="i" horiz-adv-x="275" d="M137 621Q106 621 86 642T66 691Q66 720 86 740T137 761Q168 761 188 741T209 691Q209 662 189 642T137 621ZM81 0V530H195V0H81Z" />
<glyph unicode="j" glyph-name="j" horiz-adv-x="283" d="M146 621Q115 621 95 642T74 691Q74 720 94 740T146 761Q176 761 196 741T217 691Q217 662 197 642T146 621ZM24 -195Q-6 -195 -25 -192T-44 -189V-94Q-44 -94 -32 -96T-2 -98Q50 -98 69 -75T89 -4V530H203V-5Q203
-36 196 -69T169 -131T114 -177T24 -195Z" />
<glyph unicode="k" glyph-name="k" horiz-adv-x="570" d="M76 0V760H190V319L389 530H529L298 288L536 0H395L190 250V0H76Z" />
<glyph unicode="l" glyph-name="l" horiz-adv-x="266" d="M76 0L77 760H190V0H76Z" />
<glyph unicode="m" glyph-name="m" horiz-adv-x="894" d="M66 0V530H180V455H184Q193 471 210 491T257 525T330 540Q389 540 428 512T486 438H488Q509 478 549 509T655 540Q711 540 750 514T808 443T828 342V0H714V326Q714 378 689 411T615 444Q575 444 551 422T515
368T504 302V0H390V326Q390 378 365 411T291 444Q251 444 227 422T191 368T180 302V0H66Z" />
<glyph unicode="n" glyph-name="n" horiz-adv-x="581" d="M66 0V530H180V453H186Q193 467 210 487T257 524T335 540Q394 540 434 513T494 441T515 342V0H401V330Q401 378 375 411T296 444Q255 444 230 424T192 371T180 301V0H66Z" />
<glyph unicode="o" glyph-name="o" horiz-adv-x="647" d="M324 -10Q237 -10 178 29T88 131T57 265Q57 336 87 399T177 501T324 540Q410 540 469 501T559 399T590 265Q590 194 560 131T470 29T324 -10ZM324 87Q373 87 406 112T457 178T475 265Q475 312 458 352T407
418T324 443Q275 443 241 418T190 353T173 265Q173 219 190 178T241 112T324 87Z" />
<glyph unicode="p" glyph-name="p" horiz-adv-x="657" d="M76 -196V530H190V451H196Q206 466 225 487T278 524T363 540Q422 540 467 517T541 454T585 365T600 265Q600 214 586 165T542 77T467 14T363 -10Q312 -10 279 6T226 43T196 79H190V-196H76ZM190 265Q190
220 206 179T255 112T337 85Q387 85 419 111T468 179T485 265Q485 310 469 351T420 418T337 445Q288 445 256 419T207 351T190 265Z" />
<glyph unicode="q" glyph-name="q" horiz-adv-x="657" d="M467 -195V79H461Q452 64 432 43T379 6T295 -10Q235 -10 191 13T116 76T72 165T57 265Q57 316 71 365T116 453T190 516T295 540Q345 540 378 524T432 487T461 451H467V530H581V-195H467ZM320 85Q369 85
401 111T450 179T467 265Q467 310 451 351T402 418T320 445Q271 445 238 419T189 351T172 265Q172 220 188 179T238 112T320 85Z" />
<glyph unicode="r" glyph-name="r" horiz-adv-x="404" d="M66 0V530H180V460H184Q199 491 231 515T326 540Q345 540 358 538T372 536V426Q372 426 357 428T323 430Q253 430 217 391T180 263V0H66Z" />
<glyph unicode="s" glyph-name="s" horiz-adv-x="518" d="M270 -10Q207 -10 167 7T102 50T67 102T52 145T49 163H160Q160 163 163 151T178 122T212 94T273 81Q319 81 341 102T364 150Q364 176 345 191T291 214L219 230Q177 240 141 257T82 304T59 381Q59 450 111
495T251 540Q308 540 345 524T405 485T438 438T452 399T456 383H349Q349 383 346 393T333 416T304 440T251 451Q206 451 186 431T166 388Q166 364 185 351T237 330L308 314Q379 298 425 262T471 156Q471 110 448 73T379 13T270 -10Z" />
<glyph unicode="t" glyph-name="t" horiz-adv-x="431" d="M298 -10Q235 -10 197 13T143 74T126 158V438H33V530H126V662H240V530H364V438H240V160Q240 85 323 85Q344 85 362 88T380 91V-2Q380 -2 356 -6T298 -10Z" />
<glyph unicode="u" glyph-name="u" horiz-adv-x="573" d="M236 -10Q156 -10 111 40T66 173V530H180V187Q180 139 205 113T275 86Q318 86 344 108T381 164T393 236V530H507V0H393V76H387Q379 61 362 41T314 5T236 -10Z" />
<glyph unicode="v" glyph-name="v" horiz-adv-x="582" d="M230 0L31 530H148L292 133L433 530H551L351 0H230Z" />
<glyph unicode="w" glyph-name="w" horiz-adv-x="875" d="M200 0L31 530H146L262 147L384 530H490L612 147L728 530H844L674 0H553L437 364L322 0H200Z" />
<glyph unicode="x" glyph-name="x" horiz-adv-x="575" d="M41 0L210 264L40 530H161L287 332L414 530H535L362 264L534 0H413L287 198L162 0H41Z" />
<glyph unicode="y" glyph-name="y" horiz-adv-x="588" d="M94 -195Q69 -195 53 -193T37 -191V-96Q37 -96 53 -97T88 -99Q143 -99 178 -79T239 -7L37 530H153L296 133L439 530H557L357 6Q317 -97 255 -146T94 -195Z" />
<glyph unicode="z" glyph-name="z" horiz-adv-x="508" d="M43 0V79L339 438H57V530H477V451L181 92H477V0H43Z" />
<glyph unicode="{" glyph-name="braceleft" horiz-adv-x="444" d="M298 -204Q216 -204 172 -161T128 -35V205Q128 270 63 270H22V367H63Q128 367 128 432V672Q128 754 172 797T298 841H404V742H309Q244 742 244 677V434Q244 388 230 362T174 321V316Q216 302 230
275T244 203V-40Q244 -105 309 -105H404V-204H298Z" />
<glyph unicode="|" glyph-name="bar" horiz-adv-x="417" d="M158 -229V952H259V-229H158Z" />
<glyph unicode="}" glyph-name="braceright" horiz-adv-x="444" d="M146 841Q228 841 272 798T316 672V432Q316 367 381 367H422V270H381Q316 270 316 205V-35Q316 -117 272 -160T146 -204H40V-105H135Q200 -105 200 -40V203Q200 249 214 275T270 316V321Q228
336 214 363T200 434V677Q200 742 135 742H40V841H146Z" />
<glyph unicode="~" glyph-name="asciitilde" horiz-adv-x="475" d="M309 317Q281 317 262 326T228 349T200 371T171 381Q153 381 146 365T138 322H68Q68 353 76 383T105 434T166 455Q194 455 214 445T249 423T278 400T305 390Q322 390 330 405T338 449H407Q407
418 399 388T370 337T309 317Z" />
<glyph unicode="&#xa0;" glyph-name="uni00A0" horiz-adv-x="230" />
<glyph unicode="&#xa1;" glyph-name="exclamdown" horiz-adv-x="300" d="M150 532Q179 532 198 512T218 464Q218 436 199 416T150 396Q120 396 101 416T82 464Q82 492 101 512T150 532ZM91 -217L99 322H198L209 -217H91Z" />
<glyph unicode="&#xa2;" glyph-name="cent" horiz-adv-x="618" d="M276 -89V-7Q203 4 154 45T81 145T57 265Q57 327 81 385T154 484T276 537V620H362V538Q417 531 453 510T511 461T544 407T558 363T561 345H453Q453 345 450 357T437 386T410 418T362 441V89Q391
96 409 111T437 144T449 173T453 185H561Q561 185 558 168T544 124T512 69T454 20T362 -8V-89H276ZM170 265Q170 206 196 158T276 92V438Q223 421 197 373T170 265Z" />
<glyph unicode="&#xa3;" glyph-name="sterling" horiz-adv-x="627" d="M65 0V99Q129 108 169 147T210 242Q210 262 205 279T191 313H58V378H151Q131 408 115 444T99 528Q99 596 134 646T233 723T381 750Q423 750 458 745T516 736T538 731V628Q538 628 517 633T463
643T393 648Q311 648 262 615T212 520Q212 479 232 446T273 378H475V313H303Q307 300 309 286T312 255Q312 208 293 175T251 122T216 99H568V0H65Z" />
<glyph unicode="&#xa4;" glyph-name="currency" horiz-adv-x="618" d="M103 107L50 159L133 242Q92 297 92 368Q92 438 131 493L50 573L103 626L183 545Q239 588 312 588Q382 588 438 547L517 626L568 573L490 494Q531 439 531 368Q531 331 520 299T489 240L568
159L517 107L436 187Q380 149 312 149Q241 149 185 190L103 107ZM312 232Q349 232 380 250T429 299T448 368Q448 405 430 436T380 485T312 504Q274 504 243 486T193 436T174 368Q174 330 192 300T242 251T312 232Z" />
<glyph unicode="&#xa5;" glyph-name="yen" horiz-adv-x="683" d="M91 183V259H283V260L248 326H91V401H207L24 740H152L341 379L531 740H659L476 401H591V326H435L399 260V259H591V183H399V0H283V183H91Z" />
<glyph unicode="&#xa6;" glyph-name="brokenbar" horiz-adv-x="417" d="M158 419V953H259V419H158ZM158 -229V255H259V-229H158Z" />
<glyph unicode="&#xa7;" glyph-name="section" horiz-adv-x="698" d="M365 -230Q293 -230 243 -213T160 -170T109 -113T82 -55T72 -11T69 6H187Q187 6 189 -8T199 -43T227 -85T281 -120T369 -134Q438 -134 477 -100T516 -18Q516 33 483 57T399 92L269 119Q212
131 162 154T80 215T49 311Q49 371 87 411T192 462V469Q140 498 114 536T88 630Q88 692 120 740T211 815T346 842Q422 842 471 820T549 765T591 700T609 645T613 622H498Q498 622 496 634T486 665T461 702T416 733T344 745Q295 745 264 729T217 687T202 633Q202
588 235 565T325 528L434 505Q492 493 542 471T623 410T654 314Q654 254 616 214T512 162V156Q567 139 600 96T633 -12Q633 -73 601 -122T508 -201T365 -230ZM412 199Q444 199 473 210T521 242T540 296Q540 342 503 365T413 400L290 426Q259 426 230 415T183 383T164
328Q164 282 201 259T291 225L412 199Z" />
<glyph unicode="&#xa8;" glyph-name="dieresis" horiz-adv-x="326" d="M309 604Q278 604 259 624T239 673Q239 701 258 721T309 742Q339 742 359 722T379 673Q379 644 359 624T309 604ZM107 604Q76 604 57 624T37 673Q37 701 56 721T107 742Q136 742 156 722T177
673Q177 644 157 624T107 604Z" />
<glyph unicode="&#xa9;" glyph-name="copyright" horiz-adv-x="818" d="M409 -10Q320 -10 253 20T140 102T73 218T50 350Q50 418 72 482T140 597T252 679T409 710Q499 710 566 680T678 598T745 482T768 350Q768 283 746 219T678 103T566 21T409 -10ZM409 66Q479
66 532 90T620 155T673 246T691 351Q691 404 673 454T620 545T533 610T409 634Q339 634 286 610T198 546T146 455T128 351Q128 297 145 247T198 155T286 90T409 66ZM421 137Q352 137 306 168T237 248T214 350Q214 403 236 451T305 531T421 563Q472 563 505 548T559
511T588 466T601 428T605 412H520Q520 412 517 423T504 450T473 477T421 489Q381 489 354 470T314 418T301 350Q301 314 314 282T354 231T421 211Q453 211 473 222T503 249T517 276T520 288H605Q605 288 602 273T589 235T559 190T506 152T421 137Z" />
<glyph unicode="&#xaa;" glyph-name="ordfeminine" horiz-adv-x="424" d="M261 454Q257 448 246 437T216 417T166 408Q118 408 88 433T57 503Q57 547 90 572T186 606L266 617V625Q266 646 254 662T211 679Q186 679 174 669T158 648T155 637H68Q68 637 71 654T88
693T131 733T213 750Q264 750 296 732T343 687T358 629V414H266V454H261ZM147 510Q147 491 161 482T196 472Q226 472 246 492T266 548V559L198 549Q147 542 147 510Z" />
<glyph unicode="&#xab;" glyph-name="guillemotleft" horiz-adv-x="676" d="M514 99L297 313L514 528H638L423 313L638 99H514ZM256 99L39 313L256 528H379L165 313L379 99H256Z" />
<glyph unicode="&#xac;" glyph-name="logicalnot" horiz-adv-x="655" d="M80 437V530H575V266H483V437H80Z" />
<glyph unicode="&#xad;" glyph-name="uni00AD" horiz-adv-x="600" d="M117 266V359H490V266H117Z" />
<glyph unicode="&#xae;" glyph-name="registered" horiz-adv-x="433" d="M217 386Q156 386 115 412T54 480T34 568Q34 613 54 655T115 723T217 750Q277 750 317 724T378 655T399 568Q399 522 379 481T319 413T217 386ZM217 425Q264 425 295 446T343 499T359 568Q359
604 343 636T296 690T217 711Q169 711 138 690T91 637T75 568Q75 532 90 500T137 446T217 425ZM144 471V665H225Q259 665 279 648T299 601Q299 559 262 544L303 471H252L216 537H190V471H144ZM224 625H190V574H224Q252 574 252 599Q252 625 224 625Z" />
<glyph unicode="&#xaf;" glyph-name="overscore" horiz-adv-x="352" d="M20 643V721H332V643H20Z" />
<glyph unicode="&#xb0;" glyph-name="degree" horiz-adv-x="474" d="M236 390Q187 390 146 414T81 479T57 570Q57 619 81 660T146 725T236 750Q286 750 327 726T392 660T417 570Q417 520 393 480T327 415T236 390ZM236 473Q276 473 305 501T334 570Q334 610 305
638T236 667Q196 667 168 639T140 570Q140 530 168 502T236 473Z" />
<glyph unicode="&#xb1;" glyph-name="plusminus" horiz-adv-x="654" d="M280 157V304H133V397H280V545H373V397H521V304H373V157H280ZM117 0V69H537V0H117Z" />
<glyph unicode="&#xb2;" glyph-name="uni00B2" horiz-adv-x="442" d="M72 411V477L147 537Q206 585 241 614T277 679Q277 705 260 718T221 731Q199 731 181 716T162 670H70Q70 719 92 751T149 799T224 815Q266 815 300 799T355 754T376 687Q376 632 335 591T222
501L212 494H379V411H72Z" />
<glyph unicode="&#xb3;" glyph-name="uni00B3" horiz-adv-x="453" d="M223 403Q171 403 136 422T84 472T67 535H158Q158 513 175 498T222 482Q251 482 266 496T281 530Q281 550 267 562T227 575H173V647H226Q250 647 264 660T278 691Q278 710 263 723T223 736Q197
736 181 721T165 683H76Q76 715 93 745T143 794T224 814Q263 814 297 801T353 763T374 701Q374 664 353 643T309 614V610Q340 602 360 580T380 522Q380 485 359 458T301 417T223 403Z" />
<glyph unicode="&#xb4;" glyph-name="acute" horiz-adv-x="231" d="M95 608L3 609L87 789H200L95 608Z" />
<glyph unicode="&#xb5;" glyph-name="uni00B5" horiz-adv-x="615" d="M46 -198V530H160V187Q160 139 185 113T255 86Q298 86 324 108T361 164T373 236V530H487V160Q487 86 563 86Q580 86 589 88T599 90V-3Q599 -3 584 -6T541 -10Q480 -10 442 13T388 76H382Q382
76 376 63T356 33T315 3T248 -10Q210 -10 186 0T150 19T138 29L134 27Q149 -14 154 -48T160 -127V-198H46Z" />
<glyph unicode="&#xb6;" glyph-name="paragraph" horiz-adv-x="525" d="M335 0H262V328H198Q132 328 89 353T25 419T3 511Q3 561 25 604T90 673T198 700H477V0H404V600H335V0Z" />
<glyph unicode="&#xb7;" glyph-name="middot" horiz-adv-x="272" d="M159 314Q128 314 108 335T88 386Q88 416 108 437T159 458Q190 458 210 437T231 386Q231 356 211 335T159 314Z" />
<glyph unicode="&#xb8;" glyph-name="cedilla" horiz-adv-x="241" d="M77 -251Q52 -251 28 -248T3 -244V-179Q3 -179 14 -180T42 -183T72 -185Q115 -185 130 -169T145 -137Q145 -121 133 -109T96 -97Q72 -97 56 -106T40 -116L-2 -74L60 24H136L93 -41Q106 -38
120 -38Q167 -38 193 -67T220 -137Q220 -165 206 -191T160 -234T77 -251Z" />
<glyph unicode="&#xb9;" glyph-name="uni00B9" horiz-adv-x="321" d="M217 811V411H124V685H41V741L54 745Q92 757 115 769T158 805L163 811H217Z" />
<glyph unicode="&#xba;" glyph-name="ordmasculine" horiz-adv-x="456" d="M228 407Q174 407 136 431T77 495T57 579Q57 624 77 663T135 726T228 750Q283 750 321 727T379 664T399 579Q399 534 379 495T321 432T228 407ZM228 485Q266 485 286 513T307 579Q307
616 287 644T228 673Q191 673 171 645T150 579Q150 542 170 514T228 485Z" />
<glyph unicode="&#xbb;" glyph-name="guillemotright" horiz-adv-x="676" d="M297 99L511 313L297 528H421L638 313L421 99H297ZM39 99L253 313L39 528H163L379 313L163 99H39Z" />
<glyph unicode="&#xbc;" glyph-name="onequarter" horiz-adv-x="790" d="M165 709V358H79V600H10V652L21 655Q52 663 72 675T111 706L114 709H165ZM140 0L561 700H660L238 0H140ZM706 -1V71H540V133L684 349H794V141H845V71H794V-1H706ZM626 141H706V261L626 141Z" />
<glyph unicode="&#xbd;" glyph-name="onehalf" horiz-adv-x="801" d="M165 709V358H79V600H10V652L21 655Q52 663 72 675T111 706L114 709H165ZM140 0L561 700H660L238 0H140ZM584 -1V59L635 100Q677 133 705 155T749 195T764 235Q764 257 749 268T716 279Q697
279 682 267T666 226H582Q582 270 601 298T652 340T719 354Q774 354 813 323T853 240Q853 194 818 157T719 78L713 73H856V-1H584Z" />
<glyph unicode="&#xbe;" glyph-name="threequarters" horiz-adv-x="807" d="M174 352Q127 352 97 369T53 413T38 467H120Q120 449 134 436T173 422Q198 422 211 434T225 463Q225 479 214 491T176 503H133V567H177Q198 567 210 578T223 604Q223 620 210 631T174
643Q151 643 138 630T124 598H45Q45 625 59 651T103 695T175 712Q209 712 239 701T287 667T306 613Q306 580 287 561T250 537V533Q275 524 293 506T312 456Q312 408 272 380T174 352ZM222 0L643 700H742L320 0H222ZM788 -1V71H622V133L766 349H876V141H927V71H876V-1H788ZM709
141H788V261L709 141Z" />
<glyph unicode="&#xbf;" glyph-name="questiondown" horiz-adv-x="589" d="M302 538Q331 538 350 518T370 470Q370 441 351 421T302 401Q273 401 253 421T233 470Q233 498 253 518T302 538ZM291 -222Q227 -222 173 -197T85 -123T51 -9Q51 43 70 79T119 143T177
193T226 241T246 296V330H360V296Q360 248 341 215T292 157T235 108T187 58T167 -6Q167 -60 205 -90T295 -120Q329 -120 359 -105T407 -60T426 18H538Q538 -63 502 -116T410 -196T291 -222Z" />
<glyph unicode="&#xc0;" glyph-name="Agrave" horiz-adv-x="747" d="M332 818L227 999H339L423 819L332 818ZM40 0L298 740H448L707 0H584L526 166H221L163 0H40ZM255 270H492L374 615L255 270Z" />
<glyph unicode="&#xc1;" glyph-name="Aacute" horiz-adv-x="747" d="M419 818L328 819L412 999H524L419 818ZM40 0L298 740H448L707 0H584L526 166H221L163 0H40ZM255 270H492L374 615L255 270Z" />
<glyph unicode="&#xc2;" glyph-name="Acircumflex" horiz-adv-x="747" d="M203 813L327 962H421L545 813H448L374 902L300 813H203ZM40 0L298 740H448L707 0H584L526 166H221L163 0H40ZM255 270H492L374 615L255 270Z" />
<glyph unicode="&#xc3;" glyph-name="Atilde" horiz-adv-x="747" d="M444 826Q417 826 398 836T365 858T339 881T313 891Q296 891 289 875T282 832H212Q212 864 220 895T248 946T306 967Q333 967 352 958T385 935T411 913T437 903Q452 903 459 918T467 962H536Q536
930 529 899T501 847T444 826ZM40 0L298 740H448L707 0H584L526 166H221L163 0H40ZM255 270H492L374 615L255 270Z" />
<glyph unicode="&#xc4;" glyph-name="Adieresis" horiz-adv-x="747" d="M474 814Q444 814 425 834T405 883Q405 912 424 932T474 952Q504 952 524 932T544 883Q544 854 524 834T474 814ZM272 814Q242 814 222 834T202 883Q202 912 222 932T272 952Q302 952 322
932T342 883Q342 854 322 834T272 814ZM40 0L298 740H448L707 0H584L526 166H221L163 0H40ZM255 270H492L374 615L255 270Z" />
<glyph unicode="&#xc5;" glyph-name="Aring" horiz-adv-x="747" d="M374 807Q337 807 308 824T260 872T242 938Q242 974 260 1003T307 1050T374 1068Q409 1068 439 1051T486 1004T504 938Q504 902 487 872T439 825T374 807ZM374 880Q398 880 415 897T432 938Q432
962 415 979T374 996Q349 996 332 979T315 938Q315 914 332 897T374 880ZM40 0L298 740H448L707 0H584L526 166H221L163 0H40ZM255 270H492L374 615L255 270Z" />
<glyph unicode="&#xc6;" glyph-name="AE" horiz-adv-x="1027" d="M40 0L406 740H959V638H593V427H913V326H593V102H964V0H476V166H246L163 0H40ZM297 269H476V628L297 269Z" />
<glyph unicode="&#xc7;" glyph-name="Ccedilla" horiz-adv-x="777" d="M390 -260Q365 -260 341 -257T316 -253V-189Q316 -189 327 -190T355 -193T385 -195Q428 -195 443 -179T459 -147Q459 -131 446 -119T409 -107Q385 -107 370 -116T354 -126L311 -84L359 -7Q282
1 224 36T128 124T70 240T50 370Q50 441 72 509T139 631T250 718T406 750Q479 750 531 731T619 683T676 620T708 557T723 509T727 490H610Q610 490 607 505T592 544T558 589T499 627T407 643Q348 643 304 620T229 558T185 470T170 370Q170 319 184 271T229 183T303
120T407 97Q462 97 498 112T557 151T591 197T606 235T610 251H727Q727 251 724 234T710 188T681 127T629 66T549 16T434 -9L398 -64Q414 -59 433 -59Q480 -59 507 -83T534 -146Q534 -174 519 -200T473 -243T390 -260Z" />
<glyph unicode="&#xc8;" glyph-name="Egrave" horiz-adv-x="635" d="M292 818L187 999H299L383 819L292 818ZM84 0V740H567V638H201V427H521V326H201V102H572V0H84Z" />
<glyph unicode="&#xc9;" glyph-name="Eacute" horiz-adv-x="635" d="M379 818L288 819L372 999H484L379 818ZM84 0V740H567V638H201V427H521V326H201V102H572V0H84Z" />
<glyph unicode="&#xca;" glyph-name="Ecircumflex" horiz-adv-x="635" d="M163 813L287 962H381L505 813H408L334 902L260 813H163ZM84 0V740H567V638H201V427H521V326H201V102H572V0H84Z" />
<glyph unicode="&#xcb;" glyph-name="Edieresis" horiz-adv-x="635" d="M434 814Q404 814 385 834T365 883Q365 912 384 932T434 952Q464 952 484 932T504 883Q504 854 484 834T434 814ZM232 814Q202 814 182 834T162 883Q162 912 182 932T232 952Q262 952 282
932T302 883Q302 854 282 834T232 814ZM84 0V740H567V638H201V427H521V326H201V102H572V0H84Z" />
<glyph unicode="&#xcc;" glyph-name="Igrave" horiz-adv-x="285" d="M101 818L-5 999H108L192 819L101 818ZM84 0V740H201V0H84Z" />
<glyph unicode="&#xcd;" glyph-name="Iacute" horiz-adv-x="285" d="M188 818L97 819L181 999H293L188 818ZM84 0V740H201V0H84Z" />
<glyph unicode="&#xce;" glyph-name="Icircumflex" horiz-adv-x="285" d="M-28 813L96 984H190L314 813H217L143 919L69 813H-28ZM84 0V740H201V0H84Z" />
<glyph unicode="&#xcf;" glyph-name="Idieresis" horiz-adv-x="285" d="M243 814Q213 814 193 834T173 883Q173 912 193 932T243 952Q273 952 293 932T313 883Q313 854 293 834T243 814ZM41 814Q10 814 -9 834T-29 883Q-29 912 -10 932T41 952Q71 952 91 932T111
883Q111 854 91 834T41 814ZM84 0V740H201V0H84Z" />
<glyph unicode="&#xd0;" glyph-name="Eth" horiz-adv-x="787" d="M127 0V320H33V420H127V740H380Q470 740 536 709T647 624T714 505T737 370Q737 301 715 235T648 116T537 32T380 0H127ZM394 320H244V103H375Q437 103 483 125T559 186T605 272T620 370Q620 420
605 468T560 554T483 615T375 638H244V420H394V320Z" />
<glyph unicode="&#xd1;" glyph-name="Ntilde" horiz-adv-x="754" d="M444 826Q417 826 399 836T366 858T340 881T314 891Q297 891 290 875T283 832H213Q213 864 221 895T249 946T307 967Q334 967 353 958T386 935T412 913T438 903Q453 903 460 918T467 962H537Q537
930 530 899T502 847T444 826ZM84 0V740H190L553 208V740H670V0H563L200 527V0H84Z" />
<glyph unicode="&#xd2;" glyph-name="Ograve" horiz-adv-x="827" d="M372 828L266 1009H379L463 829L372 828ZM413 -10Q324 -10 256 22T142 109T73 232T50 371Q50 442 73 509T142 631T256 717T413 750Q503 750 571 718T685 631T754 510T777 371Q777 300 754 232T685
110T571 23T413 -10ZM413 97Q493 97 547 136T629 238T657 371Q657 423 641 471T595 559T519 620T413 643Q354 643 309 621T233 559T186 472T170 371Q170 301 198 239T280 137T413 97Z" />
<glyph unicode="&#xd3;" glyph-name="Oacute" horiz-adv-x="827" d="M459 828L368 829L452 1009H564L459 828ZM413 -10Q324 -10 256 22T142 109T73 232T50 371Q50 442 73 509T142 631T256 717T413 750Q503 750 571 718T685 631T754 510T777 371Q777 300 754 232T685
110T571 23T413 -10ZM413 97Q493 97 547 136T629 238T657 371Q657 423 641 471T595 559T519 620T413 643Q354 643 309 621T233 559T186 472T170 371Q170 301 198 239T280 137T413 97Z" />
<glyph unicode="&#xd4;" glyph-name="Ocircumflex" horiz-adv-x="827" d="M243 823L367 972H461L585 823H488L414 912L340 823H243ZM413 -10Q324 -10 256 22T142 109T73 232T50 371Q50 442 73 509T142 631T256 717T413 750Q503 750 571 718T685 631T754 510T777
371Q777 300 754 232T685 110T571 23T413 -10ZM413 97Q493 97 547 136T629 238T657 371Q657 423 641 471T595 559T519 620T413 643Q354 643 309 621T233 559T186 472T170 371Q170 301 198 239T280 137T413 97Z" />
<glyph unicode="&#xd5;" glyph-name="Otilde" horiz-adv-x="827" d="M483 836Q456 836 438 846T405 868T379 891T353 901Q336 901 329 885T322 842H252Q252 874 260 905T288 956T346 977Q373 977 392 968T425 945T451 923T477 913Q492 913 499 928T506 972H576Q576
940 569 909T541 857T483 836ZM413 -10Q324 -10 256 22T142 109T73 232T50 371Q50 442 73 509T142 631T256 717T413 750Q503 750 571 718T685 631T754 510T777 371Q777 300 754 232T685 110T571 23T413 -10ZM413 97Q493 97 547 136T629 238T657 371Q657 423 641
471T595 559T519 620T413 643Q354 643 309 621T233 559T186 472T170 371Q170 301 198 239T280 137T413 97Z" />
<glyph unicode="&#xd6;" glyph-name="Odieresis" horiz-adv-x="827" d="M514 824Q484 824 464 844T444 893Q444 922 464 942T514 962Q544 962 564 942T584 893Q584 864 564 844T514 824ZM312 824Q281 824 262 844T242 893Q242 922 261 942T312 962Q342 962 362
942T382 893Q382 864 362 844T312 824ZM413 -10Q324 -10 256 22T142 109T73 232T50 371Q50 442 73 509T142 631T256 717T413 750Q503 750 571 718T685 631T754 510T777 371Q777 300 754 232T685 110T571 23T413 -10ZM413 97Q493 97 547 136T629 238T657 371Q657
423 641 471T595 559T519 620T413 643Q354 643 309 621T233 559T186 472T170 371Q170 301 198 239T280 137T413 97Z" />
<glyph unicode="&#xd7;" glyph-name="multiply" horiz-adv-x="595" d="M188 132L118 202L227 312L117 422L188 493L298 383L407 492L477 422L368 313L478 203L407 132L297 242L188 132Z" />
<glyph unicode="&#xd8;" glyph-name="Oslash" horiz-adv-x="827" d="M101 -24L169 82Q110 137 80 213T50 371Q50 442 73 509T142 631T256 717T413 750Q459 750 499 741T575 716L605 763H725L658 659Q717 604 747 528T777 371Q777 300 754 232T685 110T571 23T413
-10Q367 -10 327 -1T252 25L221 -24H101ZM170 371Q170 318 186 269T233 181L515 622Q469 643 413 643Q354 643 309 621T233 559T186 472T170 371ZM413 97Q493 97 547 136T629 238T657 371Q657 423 641 472T594 559L312 118Q358 97 413 97Z" />
<glyph unicode="&#xd9;" glyph-name="Ugrave" horiz-adv-x="745" d="M327 818L222 999H334L419 819L327 818ZM372 -10Q287 -10 222 22T121 117T84 271V740H201V271Q201 199 243 150T372 100Q460 100 502 149T544 271V740H661V271Q661 180 625 118T523 23T372 -10Z" />
<glyph unicode="&#xda;" glyph-name="Uacute" horiz-adv-x="745" d="M415 818L323 819L407 999H520L415 818ZM372 -10Q287 -10 222 22T121 117T84 271V740H201V271Q201 199 243 150T372 100Q460 100 502 149T544 271V740H661V271Q661 180 625 118T523 23T372 -10Z" />
<glyph unicode="&#xdb;" glyph-name="Ucircumflex" horiz-adv-x="745" d="M199 813L322 984H417L540 813H443L369 919L296 813H199ZM372 -10Q287 -10 222 22T121 117T84 271V740H201V271Q201 199 243 150T372 100Q460 100 502 149T544 271V740H661V271Q661 180
625 118T523 23T372 -10Z" />
<glyph unicode="&#xdc;" glyph-name="Udieresis" horiz-adv-x="745" d="M470 814Q439 814 420 834T400 883Q400 912 419 932T470 952Q500 952 520 932T540 883Q540 854 520 834T470 814ZM268 814Q237 814 218 834T198 883Q198 912 217 932T268 952Q298 952 318
932T338 883Q338 854 318 834T268 814ZM372 -10Q287 -10 222 22T121 117T84 271V740H201V271Q201 199 243 150T372 100Q460 100 502 149T544 271V740H661V271Q661 180 625 118T523 23T372 -10Z" />
<glyph unicode="&#xdd;" glyph-name="Yacute" horiz-adv-x="683" d="M390 815L298 816L383 996H495L390 815ZM283 0V260L24 740H152L341 379L531 740H659L399 260V0H283Z" />
<glyph unicode="&#xde;" glyph-name="Thorn" horiz-adv-x="656" d="M76 0V740H193V614H354Q441 614 499 579T586 487T615 371Q615 309 586 253T499 162T354 126H193V0H76ZM354 511H193V228H354Q402 228 434 249T482 302T498 370Q498 405 482 437T434 490T354 511Z" />
<glyph unicode="&#xdf;" glyph-name="germandbls" horiz-adv-x="688" d="M336 754Q403 754 460 730T552 660T588 550Q588 486 553 444T473 386V381Q473 381 487 377T523 361T565 329T600 278T615 203Q615 137 580 90T483 16T342 -10Q307 -10 281 -7T254 -3V94Q254
94 280 91T332 88Q414 88 455 125T497 217Q497 272 458 304T354 336H272V428H348Q403 428 438 458T473 538Q473 593 434 624T339 656Q276 656 234 615T191 488V-2H76V488Q76 557 104 618T190 716T336 754Z" />
<glyph unicode="&#xe0;" glyph-name="agrave" horiz-adv-x="656" d="M287 608L182 789H294L378 609L287 608ZM299 540Q349 540 382 524T436 487T465 451H471V530H585V0H471V79H465Q456 64 436 43T383 6T299 -10Q239 -10 195 13T120 76T76 165T61 265Q61 316 75
365T120 453T194 516T299 540ZM324 445Q275 445 242 419T193 351T176 265Q176 220 192 179T242 112T324 85Q373 85 405 111T454 179T471 265Q471 310 455 351T406 418T324 445Z" />
<glyph unicode="&#xe1;" glyph-name="aacute" horiz-adv-x="656" d="M374 608L283 609L367 789H479L374 608ZM299 540Q349 540 382 524T436 487T465 451H471V530H585V0H471V79H465Q456 64 436 43T383 6T299 -10Q239 -10 195 13T120 76T76 165T61 265Q61 316 75
365T120 453T194 516T299 540ZM324 445Q275 445 242 419T193 351T176 265Q176 220 192 179T242 112T324 85Q373 85 405 111T454 179T471 265Q471 310 455 351T406 418T324 445Z" />
<glyph unicode="&#xe2;" glyph-name="acircumflex" horiz-adv-x="656" d="M158 603L282 774H376L500 603H403L329 709L255 603H158ZM299 540Q349 540 382 524T436 487T465 451H471V530H585V0H471V79H465Q456 64 436 43T383 6T299 -10Q239 -10 195 13T120 76T76
165T61 265Q61 316 75 365T120 453T194 516T299 540ZM324 445Q275 445 242 419T193 351T176 265Q176 220 192 179T242 112T324 85Q373 85 405 111T454 179T471 265Q471 310 455 351T406 418T324 445Z" />
<glyph unicode="&#xe3;" glyph-name="atilde" horiz-adv-x="656" d="M399 616Q372 616 353 626T320 648T294 671T268 681Q251 681 244 665T237 622H167Q167 654 175 685T203 736T261 757Q288 757 307 748T340 725T366 703T392 693Q407 693 414 708T422 752H491Q491
720 484 689T456 637T399 616ZM299 540Q349 540 382 524T436 487T465 451H471V530H585V0H471V79H465Q456 64 436 43T383 6T299 -10Q239 -10 195 13T120 76T76 165T61 265Q61 316 75 365T120 453T194 516T299 540ZM324 445Q275 445 242 419T193 351T176 265Q176
220 192 179T242 112T324 85Q373 85 405 111T454 179T471 265Q471 310 455 351T406 418T324 445Z" />
<glyph unicode="&#xe4;" glyph-name="adieresis" horiz-adv-x="656" d="M430 604Q399 604 380 624T360 673Q360 701 379 721T430 742Q459 742 479 722T500 673Q500 644 480 624T430 604ZM227 604Q197 604 177 624T157 673Q157 701 177 721T227 742Q257 742 277
722T297 673Q297 644 277 624T227 604ZM299 540Q349 540 382 524T436 487T465 451H471V530H585V0H471V79H465Q456 64 436 43T383 6T299 -10Q239 -10 195 13T120 76T76 165T61 265Q61 316 75 365T120 453T194 516T299 540ZM324 445Q275 445 242 419T193 351T176
265Q176 220 192 179T242 112T324 85Q373 85 405 111T454 179T471 265Q471 310 455 351T406 418T324 445Z" />
<glyph unicode="&#xe5;" glyph-name="aring" horiz-adv-x="656" d="M329 597Q292 597 263 614T215 662T197 728Q197 764 215 793T262 840T329 858Q364 858 394 841T441 794T459 728Q459 692 442 662T394 615T329 597ZM329 670Q353 670 370 687T387 728Q387 752
370 769T329 786Q304 786 287 769T270 728Q270 704 287 687T329 670ZM299 540Q349 540 382 524T436 487T465 451H471V530H585V0H471V79H465Q456 64 436 43T383 6T299 -10Q239 -10 195 13T120 76T76 165T61 265Q61 316 75 365T120 453T194 516T299 540ZM324 445Q275
445 242 419T193 351T176 265Q176 220 192 179T242 112T324 85Q373 85 405 111T454 179T471 265Q471 310 455 351T406 418T324 445Z" />
<glyph unicode="&#xe6;" glyph-name="ae" horiz-adv-x="963" d="M242 -10Q190 -10 148 8T80 62T55 151Q55 224 110 267T261 311H403V339Q403 363 394 389T360 433T291 451Q252 451 229 438T195 408T180 378T176 365H67Q67 365 71 382T87 426T123 478T186 522T286
540Q342 540 380 524T440 485T469 438H472Q482 460 506 483T569 523T665 540Q734 540 788 509T874 416T906 262V231H518Q520 191 538 157T589 101T668 80Q706 80 730 92T769 122T788 151T794 164H900Q900 164 895 147T876 103T836 51T769 8T666 -10Q615 -10 577
3T512 37T471 77T450 110H445Q445 110 437 92T406 50T344 8T242 -10ZM517 310H796Q792 388 754 420T662 452Q602 452 562 415T517 310ZM266 73Q308 73 339 92T386 145T403 217V231H265Q214 230 190 208T165 152Q165 112 195 93T266 73Z" />
<glyph unicode="&#xe7;" glyph-name="ccedilla" horiz-adv-x="625" d="M311 -263Q286 -263 262 -260T238 -257V-192Q238 -192 249 -193T276 -196T306 -198Q349 -198 364 -182T380 -150Q380 -134 368 -122T330 -110Q306 -110 291 -119T275 -129L232 -87L283 -7Q208
3 159 44T85 144T60 265Q60 316 76 365T126 453T209 516T326 540Q392 540 435 521T505 472T544 414T561 365T565 345H456Q456 345 452 360T434 395T396 430T328 445Q276 445 242 420T191 353T174 265Q174 218 191 177T242 111T328 85Q370 85 395 100T434 135T451
170T456 185H565Q565 185 562 167T547 122T513 67T453 18T358 -9L328 -54Q340 -51 354 -51Q402 -51 428 -80T455 -150Q455 -178 440 -204T394 -246T311 -263Z" />
<glyph unicode="&#xe8;" glyph-name="egrave" horiz-adv-x="612" d="M272 607L167 788H279L363 608L272 607ZM318 -10Q252 -10 203 13T123 76T76 165T60 265Q60 315 75 364T122 453T200 516T314 540Q383 540 437 509T521 416T552 263V232H175Q179 171 216 127T318
83Q355 83 379 95T416 124T435 152T440 164H546Q546 164 541 147T523 103T485 51T419 8T318 -10ZM176 312H441Q438 382 400 415T313 448Q256 448 219 412T176 312Z" />
<glyph unicode="&#xe9;" glyph-name="eacute" horiz-adv-x="612" d="M359 607L268 608L352 788H464L359 607ZM318 -10Q252 -10 203 13T123 76T76 165T60 265Q60 315 75 364T122 453T200 516T314 540Q383 540 437 509T521 416T552 263V232H175Q179 171 216 127T318
83Q355 83 379 95T416 124T435 152T440 164H546Q546 164 541 147T523 103T485 51T419 8T318 -10ZM176 312H441Q438 382 400 415T313 448Q256 448 219 412T176 312Z" />
<glyph unicode="&#xea;" glyph-name="ecircumflex" horiz-adv-x="612" d="M143 602L267 773H361L485 602H388L314 708L240 602H143ZM318 -10Q252 -10 203 13T123 76T76 165T60 265Q60 315 75 364T122 453T200 516T314 540Q383 540 437 509T521 416T552 263V232H175Q179
171 216 127T318 83Q355 83 379 95T416 124T435 152T440 164H546Q546 164 541 147T523 103T485 51T419 8T318 -10ZM176 312H441Q438 382 400 415T313 448Q256 448 219 412T176 312Z" />
<glyph unicode="&#xeb;" glyph-name="edieresis" horiz-adv-x="612" d="M414 603Q384 603 365 623T345 672Q345 701 364 721T414 741Q444 741 464 721T484 672Q484 644 464 624T414 603ZM212 603Q182 603 162 623T142 672Q142 701 162 721T212 741Q242 741 262
721T282 672Q282 644 262 624T212 603ZM318 -10Q252 -10 203 13T123 76T76 165T60 265Q60 315 75 364T122 453T200 516T314 540Q383 540 437 509T521 416T552 263V232H175Q179 171 216 127T318 83Q355 83 379 95T416 124T435 152T440 164H546Q546 164 541 147T523
103T485 51T419 8T318 -10ZM176 312H441Q438 382 400 415T313 448Q256 448 219 412T176 312Z" />
<glyph unicode="&#xec;" glyph-name="igrave" horiz-adv-x="285" d="M101 608L-5 789H108L192 609L101 608ZM86 0V530H200V0H86Z" />
<glyph unicode="&#xed;" glyph-name="iacute" horiz-adv-x="285" d="M188 608L97 609L181 789H293L188 608ZM86 0V530H200V0H86Z" />
<glyph unicode="&#xee;" glyph-name="icircumflex" horiz-adv-x="285" d="M-28 603L96 774H190L314 603H217L143 709L69 603H-28ZM86 0V530H200V0H86Z" />
<glyph unicode="&#xef;" glyph-name="idieresis" horiz-adv-x="285" d="M243 604Q213 604 193 624T173 673Q173 702 193 722T243 742Q273 742 293 722T313 673Q313 644 293 624T243 604ZM41 604Q10 604 -9 624T-29 673Q-29 702 -10 722T41 742Q71 742 91 722T111
673Q111 644 91 624T41 604ZM86 0V530H200V0H86Z" />
<glyph unicode="&#xf0;" glyph-name="eth" horiz-adv-x="646" d="M322 -10Q255 -10 205 13T122 76T73 165T57 265Q57 315 72 362T117 448T191 508T295 531Q337 531 368 519T422 489Q391 539 349 579T263 651L152 587L110 659L184 702Q145 725 119 737T93 749L132
833Q132 833 176 815T282 759L402 829L444 756L359 707Q417 663 469 603T555 465T589 290Q589 208 560 140T471 31T322 -10ZM323 85Q374 85 407 111T456 179T473 265Q473 310 456 351T406 418T323 445Q273 445 240 419T190 351T173 265Q173 221 189 180T239 112T323
85Z" />
<glyph unicode="&#xf1;" glyph-name="ntilde" horiz-adv-x="602" d="M375 616Q348 616 329 626T296 648T270 671T244 681Q227 681 220 665T213 622H143Q143 654 151 685T179 736T237 757Q264 757 283 748T316 725T343 703T368 693Q383 693 390 708T398 752H468Q468
720 460 689T432 637T375 616ZM79 0V530H193V453H199Q206 467 223 487T270 524T348 540Q407 540 447 513T507 441T528 342V0H414V330Q414 378 388 411T309 444Q268 444 243 424T205 371T193 301V0H79Z" />
<glyph unicode="&#xf2;" glyph-name="ograve" horiz-adv-x="654" d="M284 609L179 789H292L376 610L284 609ZM327 -10Q241 -10 182 29T91 131T60 265Q60 336 91 399T181 501T327 540Q413 540 472 501T563 399T594 265Q594 194 563 131T473 29T327 -10ZM327 87Q376
87 409 112T460 178T478 265Q478 312 461 352T410 418T327 443Q278 443 245 418T194 353T176 265Q176 219 193 178T244 112T327 87Z" />
<glyph unicode="&#xf3;" glyph-name="oacute" horiz-adv-x="654" d="M372 609L280 610L365 789H477L372 609ZM327 -10Q241 -10 182 29T91 131T60 265Q60 336 91 399T181 501T327 540Q413 540 472 501T563 399T594 265Q594 194 563 131T473 29T327 -10ZM327 87Q376
87 409 112T460 178T478 265Q478 312 461 352T410 418T327 443Q278 443 245 418T194 353T176 265Q176 219 193 178T244 112T327 87Z" />
<glyph unicode="&#xf4;" glyph-name="ocircumflex" horiz-adv-x="654" d="M156 603L280 775H374L498 603H401L326 709L253 603H156ZM327 -10Q241 -10 182 29T91 131T60 265Q60 336 91 399T181 501T327 540Q413 540 472 501T563 399T594 265Q594 194 563 131T473
29T327 -10ZM327 87Q376 87 409 112T460 178T478 265Q478 312 461 352T410 418T327 443Q278 443 245 418T194 353T176 265Q176 219 193 178T244 112T327 87Z" />
<glyph unicode="&#xf5;" glyph-name="otilde" horiz-adv-x="654" d="M396 617Q369 617 350 626T318 649T292 671T265 681Q249 681 242 665T235 623H165Q165 655 172 686T200 737T258 758Q286 758 305 749T338 726T364 704T389 694Q405 694 412 709T419 753H489Q489
721 482 690T454 638T396 617ZM327 -10Q241 -10 182 29T91 131T60 265Q60 336 91 399T181 501T327 540Q413 540 472 501T563 399T594 265Q594 194 563 131T473 29T327 -10ZM327 87Q376 87 409 112T460 178T478 265Q478 312 461 352T410 418T327 443Q278 443 245
418T194 353T176 265Q176 219 193 178T244 112T327 87Z" />
<glyph unicode="&#xf6;" glyph-name="odieresis" horiz-adv-x="654" d="M427 605Q396 605 377 625T357 674Q357 702 376 722T427 743Q457 743 477 723T497 674Q497 645 477 625T427 605ZM225 605Q194 605 175 625T155 674Q155 702 174 722T225 743Q255 743 275
723T295 674Q295 645 275 625T225 605ZM327 -10Q241 -10 182 29T91 131T60 265Q60 336 91 399T181 501T327 540Q413 540 472 501T563 399T594 265Q594 194 563 131T473 29T327 -10ZM327 87Q376 87 409 112T460 178T478 265Q478 312 461 352T410 418T327 443Q278
443 245 418T194 353T176 265Q176 219 193 178T244 112T327 87Z" />
<glyph unicode="&#xf7;" glyph-name="divide" horiz-adv-x="681" d="M348 411Q317 411 297 432T277 483Q277 513 297 534T348 555Q379 555 399 534T420 483Q420 453 400 432T348 411ZM117 256V343H563V256H117ZM348 46Q317 46 297 67T277 118Q277 147 297 168T348
189Q379 189 399 168T420 118Q420 88 400 67T348 46Z" />
<glyph unicode="&#xf8;" glyph-name="oslash" horiz-adv-x="647" d="M107 -45L157 44Q108 83 83 141T57 265Q57 336 87 399T177 501T324 540Q378 540 425 522L454 574H538L489 487Q539 448 564 389T590 265Q590 194 560 131T470 29T324 -10Q268 -10 220 8L191
-45H107ZM173 265Q173 230 182 198T211 141L376 434Q351 443 324 443Q275 443 241 418T190 353T173 265ZM324 87Q373 87 406 112T457 178T475 265Q475 300 465 332T435 390L270 97Q295 87 324 87Z" />
<glyph unicode="&#xf9;" glyph-name="ugrave" horiz-adv-x="594" d="M256 608L151 789H263L348 609L256 608ZM249 -10Q169 -10 124 40T79 173V530H193V187Q193 139 218 113T288 86Q331 86 357 108T394 164T406 236V530H520V0H406V76H400Q392 61 375 41T327 5T249 -10Z" />
<glyph unicode="&#xfa;" glyph-name="uacute" horiz-adv-x="594" d="M344 608L252 609L336 789H449L344 608ZM249 -10Q169 -10 124 40T79 173V530H193V187Q193 139 218 113T288 86Q331 86 357 108T394 164T406 236V530H520V0H406V76H400Q392 61 375 41T327 5T249 -10Z" />
<glyph unicode="&#xfb;" glyph-name="ucircumflex" horiz-adv-x="594" d="M128 603L251 774H346L469 603H372L298 709L225 603H128ZM249 -10Q169 -10 124 40T79 173V530H193V187Q193 139 218 113T288 86Q331 86 357 108T394 164T406 236V530H520V0H406V76H400Q392
61 375 41T327 5T249 -10Z" />
<glyph unicode="&#xfc;" glyph-name="udieresis" horiz-adv-x="594" d="M399 604Q368 604 349 624T329 673Q329 702 348 722T399 742Q429 742 449 722T469 673Q469 644 449 624T399 604ZM197 604Q166 604 147 624T127 673Q127 702 146 722T197 742Q227 742 247
722T267 673Q267 644 247 624T197 604ZM249 -10Q169 -10 124 40T79 173V530H193V187Q193 139 218 113T288 86Q331 86 357 108T394 164T406 236V530H520V0H406V76H400Q392 61 375 41T327 5T249 -10Z" />
<glyph unicode="&#xfd;" glyph-name="yacute" horiz-adv-x="588" d="M335 608L244 609L328 789H440L335 608ZM94 -195Q69 -195 53 -193T37 -191V-96Q37 -96 53 -97T88 -99Q143 -99 178 -79T239 -7L37 530H153L296 133L439 530H557L357 6Q317 -97 255 -146T94 -195Z" />
<glyph unicode="&#xfe;" glyph-name="thorn" horiz-adv-x="657" d="M76 -196V760H190V451H196Q206 466 225 487T278 524T363 540Q422 540 467 517T541 454T585 365T600 265Q600 214 586 165T542 77T467 14T363 -10Q312 -10 279 6T226 43T196 79H190V-196H76ZM190
265Q190 220 206 179T255 112T337 85Q387 85 419 111T468 179T485 265Q485 310 469 351T420 418T337 445Q288 445 256 419T207 351T190 265Z" />
<glyph unicode="&#xff;" glyph-name="ydieresis" horiz-adv-x="588" d="M390 604Q360 604 341 624T321 673Q321 702 340 722T390 742Q420 742 440 722T460 673Q460 644 440 624T390 604ZM188 604Q158 604 138 624T118 673Q118 702 138 722T188 742Q218 742 238
722T258 673Q258 644 238 624T188 604ZM94 -195Q69 -195 53 -193T37 -191V-96Q37 -96 53 -97T88 -99Q143 -99 178 -79T239 -7L37 530H153L296 133L439 530H557L357 6Q317 -97 255 -146T94 -195Z" />
<glyph unicode="&#x2013;" glyph-name="endash" horiz-adv-x="689" d="M117 266V359H572V266H117Z" />
<glyph unicode="&#x2014;" glyph-name="emdash" horiz-adv-x="868" d="M117 266V359H751V266H117Z" />
<glyph unicode="&#x2018;" glyph-name="quoteleft" horiz-adv-x="279" d="M211 740L135 617Q163 615 181 595T199 546Q199 515 178 496T127 476Q96 476 75 495T53 549Q53 580 75 619T149 730L157 740H211Z" />
<glyph unicode="&#x2019;" glyph-name="quoteright" horiz-adv-x="223" d="M45 486L120 609Q93 611 75 631T56 680Q56 711 77 730T128 750Q159 750 181 731T203 677Q203 647 180 608T106 496L99 486H45Z" />
<glyph unicode="&#x201a;" glyph-name="quotesinglbase" horiz-adv-x="297" d="M79 -130L155 -7Q127 -5 109 14T91 63Q91 95 112 114T163 134Q194 134 215 115T237 61Q237 30 215 -9T141 -120L133 -130H79Z" />
<glyph unicode="&#x201c;" glyph-name="quotedblleft" horiz-adv-x="395" d="M143 740L67 617Q95 615 113 595T132 546Q132 515 111 496T59 476Q28 476 7 495T-15 549Q-15 580 7 619T82 730L89 740H143ZM334 740L258 617Q286 615 304 595T323 546Q323 515 302
496T251 476Q220 476 198 495T176 549Q176 580 199 619T273 730L280 740H334Z" />
<glyph unicode="&#x201d;" glyph-name="quotedblright" horiz-adv-x="423" d="M252 486L328 609Q300 611 282 631T263 680Q263 711 284 730T335 750Q366 750 388 731T410 677Q410 647 387 608T313 496L306 486H252ZM61 486L136 609Q109 611 91 631T72 680Q72 711
93 730T144 750Q175 750 197 731T219 677Q219 647 196 608T122 496L115 486H61Z" />
<glyph unicode="&#x201e;" glyph-name="quotedblbase" horiz-adv-x="509" d="M271 -130L347 -7Q319 -5 301 14T283 63Q283 95 304 114T355 134Q386 134 407 115T429 61Q429 30 407 -9T333 -120L325 -130H271ZM80 -130L156 -7Q128 -5 110 14T91 63Q91 95 112 114T164
134Q195 134 216 115T238 61Q238 30 216 -9T141 -120L134 -130H80Z" />
<glyph unicode="&#x2022;" glyph-name="bullet" horiz-adv-x="558" d="M280 227Q232 227 196 249T138 309T117 390Q117 434 138 471T195 529T280 551Q326 551 362 530T420 471T441 390Q441 345 420 308T363 249T280 227Z" />
<glyph unicode="&#x2039;" glyph-name="guilsinglleft" horiz-adv-x="417" d="M378 528L164 314L378 99H255L38 314L255 528H378Z" />
<glyph unicode="&#x203a;" glyph-name="guilsinglright" horiz-adv-x="417" d="M39 99L253 313L39 528H163L379 313L163 99H39Z" />
</font>
</defs>
</svg>
