<?xml version="1.0" standalone="no"?>
<!DOCTYPE svg PUBLIC "-//W3C//DTD SVG 1.1//EN" "http://www.w3.org/Graphics/SVG/1.1/DTD/svg11.dtd">
<svg xmlns="http://www.w3.org/2000/svg">
<defs >
<font id="BeVietnamPro" horiz-adv-x="604" ><font-face
    font-family="Be Vietnam Pro SemiBold"
    units-per-em="1000"
    panose-1="0 0 0 0 0 0 0 0 0 0"
    ascent="1000"
    descent="-265"
    alphabetic="0" />
<glyph unicode=" " glyph-name="space" horiz-adv-x="230" />
<glyph unicode="!" glyph-name="exclam" horiz-adv-x="320" d="M102 210L89 740H231L215 210H102ZM160 -9Q127 -9 106 13T85 65Q85 96 106 118T160 140Q192 140 213 118T235 65Q235 34 214 13T160 -9Z" />
<glyph unicode="&quot;" glyph-name="quotedbl" horiz-adv-x="367" d="M219 522L229 740H343L296 522H219ZM60 522L70 740H184L137 522H60Z" />
<glyph unicode="#" glyph-name="numbersign" horiz-adv-x="833" d="M157 0L194 185H47L71 298H217L246 443H102L126 556H269L306 740H419L382 556H526L563 740H677L640 556H786L762 443H617L588 298H731L707 185H565L528 0H414L452 185H307L270 0H157ZM330 298H474L504
443H359L330 298Z" />
<glyph unicode="$" glyph-name="dollar" horiz-adv-x="648" d="M295 -98V-9Q220 -3 173 23T99 84T61 154T47 210T44 233H175Q175 233 177 216T191 175T226 130T295 101V326L289 328Q232 340 181 362T97 426T65 535Q65 598 96 644T180 716T295 749V836H374V747Q439
740 481 716T547 660T582 599T597 549T600 529H471Q471 529 469 542T457 575T428 612T374 639V428L385 425Q422 417 461 405T533 369T588 309T609 214Q609 153 580 106T497 28T374 -9V-98H295ZM192 539Q192 503 217 482T295 446V643Q247 635 220 607T192 539ZM481
212Q481 253 453 274T374 309V101Q421 110 451 139T481 212Z" />
<glyph unicode="%" glyph-name="percent" horiz-adv-x="863" d="M218 431Q169 431 132 452T75 509T54 591Q54 636 74 672T132 729T218 750Q267 750 303 729T360 672T381 591Q381 546 361 510T304 452T218 431ZM173 0L579 740H691L284 0H173ZM217 515Q249 515 269
536T290 590Q290 624 270 645T217 666Q186 666 166 645T145 590Q145 557 165 536T217 515ZM646 -10Q597 -10 560 11T503 68T482 150Q482 195 502 231T560 288T646 309Q695 309 731 288T788 231T809 150Q809 105 789 69T732 11T646 -10ZM646 73Q677 73 697 94T718
149Q718 183 698 204T646 225Q614 225 594 204T573 149Q573 116 593 95T646 73Z" />
<glyph unicode="&amp;" glyph-name="ampersand" horiz-adv-x="755" d="M314 -10Q242 -10 183 16T88 90T52 208Q52 277 89 326T193 414Q169 442 147 480T125 573Q125 631 152 670T224 730T317 750Q364 750 407 731T476 676T503 586Q503 522 464 476T363 396L512
232Q527 269 535 316T544 422H651Q651 334 635 266T590 146L721 1H557L511 54Q469 21 419 6T314 -10ZM237 577Q237 547 256 520T299 466Q339 486 365 514T392 581Q392 617 369 636T316 656Q285 656 261 635T237 577ZM174 218Q174 163 215 129T321 95Q353 95 383
104T440 134L257 342Q218 317 196 287T174 218Z" />
<glyph unicode="&apos;" glyph-name="quotesingle" horiz-adv-x="208" d="M60 522L70 740H184L137 522H60Z" />
<glyph unicode="(" glyph-name="parenleft" horiz-adv-x="449" d="M409 -216Q320 -205 252 -158T138 -37T69 125T45 308Q45 403 68 491T138 653T252 773T409 832V712Q356 701 314 664T242 571T196 447T180 308Q180 237 196 169T242 45T314 -48T409 -96V-216Z" />
<glyph unicode=")" glyph-name="parenright" horiz-adv-x="449" d="M39 832Q129 821 197 774T311 653T380 491T404 308Q404 214 381 125T311 -37T197 -157T39 -216V-96Q92 -85 134 -48T207 45T253 169T269 308Q269 379 253 447T207 571T135 664T39 712V832Z" />
<glyph unicode="*" glyph-name="asterisk" horiz-adv-x="508" d="M170 333L92 390L179 507L40 549L69 642L208 594L205 740H302L300 594L438 642L468 549L329 507L416 390L337 333L254 452L170 333Z" />
<glyph unicode="+" glyph-name="plus" horiz-adv-x="637" d="M117 259V366H265V514H372V366H520V259H372V111H265V259H117Z" />
<glyph unicode="," glyph-name="comma" horiz-adv-x="332" d="M82 -137L161 -8Q130 -6 110 16T90 70Q90 104 113 125T169 147Q204 147 227 126T251 66Q251 34 227 -8T148 -127L140 -137H82Z" />
<glyph unicode="-" glyph-name="hyphen" horiz-adv-x="607" d="M117 259V366H490V259H117Z" />
<glyph unicode="." glyph-name="period" horiz-adv-x="319" d="M159 -10Q125 -10 103 13T81 69Q81 101 103 124T159 147Q193 147 215 124T238 69Q238 36 216 13T159 -10Z" />
<glyph unicode="/" glyph-name="slash" horiz-adv-x="528" d="M36 -171L384 828H505L157 -171H36Z" />
<glyph unicode="0" glyph-name="zero" horiz-adv-x="692" d="M346 -9Q274 -9 218 21T123 103T65 224T45 371Q45 448 65 517T123 638T217 721T346 751Q418 751 474 721T569 639T627 517T647 371Q647 293 627 225T569 104T475 21T346 -9ZM346 112Q416 112 461 177T507
371Q507 499 462 563T346 628Q276 628 231 564T185 371Q185 243 230 178T346 112Z" />
<glyph unicode="1" glyph-name="one" horiz-adv-x="415" d="M317 740V0H183V544H42V625L65 632Q124 649 161 671T231 731L240 740H317Z" />
<glyph unicode="2" glyph-name="two" horiz-adv-x="660" d="M66 0V94L205 217Q281 282 336 329T421 419T451 511Q451 549 433 576T385 617T325 631Q282 631 256 614T216 573T197 527T192 493H62Q62 515 69 547T95 615T143 681T219 731T328 750Q398 750 456 722T550
642T586 517Q586 450 553 395T461 288T329 175L267 119H599V0H66Z" />
<glyph unicode="3" glyph-name="three" horiz-adv-x="674" d="M335 -10Q259 -10 207 13T124 72T78 149T64 225H192Q192 195 207 167T255 121T334 103Q392 103 431 133T471 218Q471 266 438 296T345 326H245V431H346Q396 431 428 459T460 531Q460 579 424 608T334
638Q291 638 262 620T218 572T203 512H78Q78 548 91 589T135 666T215 726T336 750Q402 750 460 726T555 655T592 544Q592 501 576 468T534 414T480 383V377Q532 359 569 318T606 211Q606 141 569 92T469 16T335 -10Z" />
<glyph unicode="4" glyph-name="four" horiz-adv-x="716" d="M406 0V158L47 159V278L374 740H541V273H661V158H541V0H406ZM181 273H406V591L181 273Z" />
<glyph unicode="5" glyph-name="five" horiz-adv-x="674" d="M336 -10Q270 -10 223 8T145 55T96 116T71 177T62 224H189Q189 224 191 212T200 181T223 145T266 114T334 102Q384 102 416 123T465 177T481 247Q481 284 465 317T417 373T337 395Q300 395 276 383T237
356T217 329T211 317H77L140 740H563V621H234L207 438H211Q218 446 235 461T283 488T364 500Q445 500 500 464T585 371T614 249Q614 201 597 155T545 72T458 12T336 -10Z" />
<glyph unicode="6" glyph-name="six" horiz-adv-x="693" d="M358 -10Q283 -10 228 17T137 92T83 200T65 328Q65 385 78 444T121 558T195 656T305 725T453 750Q499 750 532 744T565 738V616Q565 616 548 619T505 625T453 628Q389 628 344 607T269 552T224 477T206
400Q215 415 236 436T293 473T386 489Q466 489 520 454T601 364T628 247Q628 199 612 154T561 71T477 12T358 -10ZM358 103Q415 103 455 140T496 243Q496 308 456 345T358 383Q301 383 261 346T220 243Q220 178 260 141T358 103Z" />
<glyph unicode="7" glyph-name="seven" horiz-adv-x="596" d="M163 0Q167 93 187 176T238 329T303 457T367 555T419 621H42V740H570V642Q570 642 552 622T504 562T440 466T376 338T324 181T299 0H163Z" />
<glyph unicode="8" glyph-name="eight" horiz-adv-x="656" d="M328 -10Q251 -10 190 16T92 91T56 204Q56 256 75 291T120 347T166 377T187 386V392Q186 392 169 399T130 425T91 473T74 548Q74 608 107 653T197 724T328 750Q401 750 458 725T548 654T581 549Q581
504 565 474T526 425T486 400T469 392V386Q469 386 489 377T535 348T580 292T600 204Q600 139 564 91T467 17T328 -10ZM328 436Q385 436 419 467T453 541Q453 584 419 615T328 646Q271 646 237 615T203 540Q203 498 237 467T328 436ZM328 97Q375 97 406 114T454
160T471 218Q471 248 455 275T407 319T328 336Q280 336 249 319T201 275T185 218Q185 188 201 160T249 115T328 97Z" />
<glyph unicode="9" glyph-name="nine" horiz-adv-x="693" d="M335 750Q410 750 465 723T557 648T610 540T628 412Q628 355 615 296T573 182T498 84T388 15T240 -10Q195 -10 162 -4T128 2V124Q128 124 145 121T188 115T240 112Q304 112 350 133T425 188T469 263T487
340Q478 325 458 304T401 267T308 251Q227 251 173 286T92 376T65 493Q65 541 82 586T132 669T216 728T335 750ZM335 637Q278 637 238 600T197 497Q197 432 237 395T335 357Q392 357 433 394T474 497Q474 562 433 599T335 637Z" />
<glyph unicode=":" glyph-name="colon" horiz-adv-x="319" d="M159 383Q125 383 103 406T81 461Q81 494 103 517T159 540Q193 540 215 517T238 461Q238 429 216 406T159 383ZM159 -10Q125 -10 103 13T81 69Q81 101 103 124T159 147Q193 147 215 124T238 69Q238
36 216 13T159 -10Z" />
<glyph unicode=";" glyph-name="semicolon" horiz-adv-x="332" d="M166 383Q131 383 109 406T87 461Q87 494 109 517T166 540Q200 540 222 517T244 461Q244 429 222 406T166 383ZM82 -136L161 -7Q130 -5 110 17T90 71Q90 105 113 126T169 148Q204 148 227 127T251
67Q251 35 227 -7T148 -126L140 -136H82Z" />
<glyph unicode="&lt;" glyph-name="less" horiz-adv-x="568" d="M492 110L76 298V377L492 565V452L225 338L492 223V110Z" />
<glyph unicode="=" glyph-name="equal" horiz-adv-x="744" d="M117 364V475H627V364H117ZM117 139V250H627V139H117Z" />
<glyph unicode="&gt;" glyph-name="greater" horiz-adv-x="568" d="M76 110V223L343 338L76 452V565L492 377V298L76 110Z" />
<glyph unicode="?" glyph-name="question" horiz-adv-x="605" d="M230 207V240Q230 286 249 319T296 376T351 423T398 470T417 530Q417 577 383 604T301 632Q270 632 243 619T198 577T181 505H52Q52 588 88 642T183 723T305 750Q372 750 428 724T519 649T553 533Q553
482 534 447T486 385T430 336T382 292T363 240V207H230ZM297 -10Q264 -10 243 12T222 65Q222 96 243 117T297 139Q329 139 350 118T372 65Q372 34 351 12T297 -10Z" />
<glyph unicode="@" glyph-name="at" horiz-adv-x="1014" d="M520 -159Q400 -159 311 -121T163 -18T74 128T45 293Q45 380 74 462T163 610T309 715T513 754Q603 754 685 725T831 641T932 506T969 323Q969 252 948 195T884 103T777 69Q732 69 701 83T651 118T625
156H618Q614 147 598 126T551 87T468 69Q405 69 363 101T299 185T278 291Q278 346 298 396T360 477T465 509Q502 509 528 499T571 474T594 448H600V501H715V320Q715 296 717 269T726 219T748 180T786 165Q825 165 843 204T862 315Q862 401 833 465T755 571T643
633T513 654Q425 654 358 624T247 542T179 426T156 295Q156 229 178 166T246 53T359 -27T518 -57Q586 -57 639 -44T722 -17T753 -3L791 -97Q791 -97 759 -112T667 -143T520 -159ZM497 164Q531 164 553 182T587 230T598 289Q598 320 587 348T554 395T497 414Q463
414 441 396T407 350T396 289Q396 258 407 230T440 183T497 164Z" />
<glyph unicode="A" glyph-name="A" horiz-adv-x="758" d="M35 0L290 740H467L723 0H581L528 156H230L177 0H35ZM269 274H489L379 601L269 274Z" />
<glyph unicode="B" glyph-name="B" horiz-adv-x="698" d="M72 0V740H395Q466 740 516 715T592 648T619 556Q619 505 601 472T557 421T510 395V388Q536 381 568 361T625 305T649 210Q649 158 624 110T545 31T402 0H72ZM377 625H208V432H377Q435 432 461 461T487
529Q487 567 461 596T377 625ZM387 328H208V115H387Q453 115 483 147T513 222Q513 264 483 296T387 328Z" />
<glyph unicode="C" glyph-name="C" horiz-adv-x="778" d="M406 -10Q316 -10 249 22T136 109T68 231T45 370Q45 441 67 509T135 631T248 718T406 750Q481 750 535 731T625 682T682 618T715 554T729 505T733 486H598Q598 486 595 500T581 535T549 578T494 613T408
627Q352 627 310 606T240 547T199 464T185 370Q185 322 198 277T240 194T310 135T408 113Q459 113 493 127T549 163T580 205T594 240T598 255H733Q733 255 730 236T715 187T683 123T625 59T535 9T406 -10Z" />
<glyph unicode="D" glyph-name="D" horiz-adv-x="743" d="M72 0V740H338Q428 740 495 709T608 624T675 505T698 370Q698 301 676 235T608 116T496 32T338 0H72ZM332 621H208V120H332Q410 120 461 156T537 250T562 371Q562 433 537 490T461 584T332 621Z" />
<glyph unicode="E" glyph-name="E" horiz-adv-x="634" d="M72 0V740H568V622H208V434H523V319H208V118H573V0H72Z" />
<glyph unicode="F" glyph-name="F" horiz-adv-x="640" d="M72 0V740H579V622H208V412H534V296H208V0H72Z" />
<glyph unicode="G" glyph-name="G" horiz-adv-x="788" d="M412 -10Q319 -10 250 22T136 108T68 230T45 369Q45 440 67 508T136 630T252 717T415 750Q488 750 540 732T628 684T685 623T718 561T733 514T737 495H601Q601 495 598 508T583 542T552 582T498 615T416
629Q357 629 314 607T241 548T198 465T184 371Q184 306 210 246T287 148T415 110Q503 110 554 158T613 286H411V394H745V339Q745 224 701 147T582 30T412 -10Z" />
<glyph unicode="H" glyph-name="H" horiz-adv-x="725" d="M72 0V740H208V436H517V740H653V0H517V318H208V0H72Z" />
<glyph unicode="I" glyph-name="I" horiz-adv-x="280" d="M72 0V740H208V0H72Z" />
<glyph unicode="J" glyph-name="J" horiz-adv-x="482" d="M142 -10Q101 -10 71 -6T40 -2V113Q40 113 65 111T119 108Q190 108 232 143T275 265V740H410V263Q410 185 382 123T295 26T142 -10Z" />
<glyph unicode="K" glyph-name="K" horiz-adv-x="703" d="M72 0V740H208V419L490 739H660L339 384L673 0H497L208 338V0H72Z" />
<glyph unicode="L" glyph-name="L" horiz-adv-x="637" d="M72 0V740H208V118H576V0H72Z" />
<glyph unicode="M" glyph-name="M" horiz-adv-x="877" d="M72 0V740H253L438 339L627 740H805V0H671V535L501 179H375L206 537V0H72Z" />
<glyph unicode="N" glyph-name="N" horiz-adv-x="743" d="M72 0V740H196L536 238V740H671V0H547L207 493V0H72Z" />
<glyph unicode="O" glyph-name="O" horiz-adv-x="828" d="M414 -10Q323 -10 254 22T139 109T69 232T45 371Q45 442 68 509T138 631T254 717T414 750Q505 750 574 718T689 631T759 510T783 371Q783 300 760 232T690 110T574 23T414 -10ZM414 113Q489 113 539 150T616
246T643 371Q643 436 617 494T540 590T414 627Q339 627 288 590T211 495T185 371Q185 305 211 246T288 150T414 113Z" />
<glyph unicode="P" glyph-name="P" horiz-adv-x="667" d="M72 0V740H364Q453 740 512 705T600 613T630 495Q630 434 601 378T512 285T364 249H208V0H72ZM363 622H208V367H363Q407 367 436 385T479 433T494 494Q494 526 480 555T436 603T363 622Z" />
<glyph unicode="Q" glyph-name="Q" horiz-adv-x="825" d="M414 -10Q323 -10 254 22T139 109T69 232T45 371Q45 442 68 509T138 631T254 717T414 750Q505 750 574 718T689 631T759 510T783 371Q783 301 761 234T693 114L799 0H648L609 41Q569 17 521 4T414 -10ZM414
113Q444 113 470 119T518 138L403 260L489 334L600 214Q621 248 632 288T643 371Q643 436 617 494T540 590T414 627Q339 627 288 590T211 495T185 371Q185 305 211 246T288 150T414 113Z" />
<glyph unicode="R" glyph-name="R" horiz-adv-x="697" d="M72 0V740H360Q440 740 496 711T582 631T612 517Q612 446 574 391T464 310L634 0H483L325 294H208V0H72ZM358 622H208V405H358Q415 405 445 437T475 514Q475 558 445 590T358 622Z" />
<glyph unicode="S" glyph-name="S" horiz-adv-x="656" d="M339 -10Q270 -10 221 7T140 51T88 108T60 166T47 210T44 227H182Q182 227 184 215T196 185T222 148T269 118T343 105Q411 105 446 135T482 211Q482 249 455 271T375 305L277 326Q220 338 171 362T91 427T61
532Q61 599 94 648T187 723T325 750Q400 750 449 728T527 674T571 610T589 556T594 534H461Q461 534 457 549T439 585T397 620T322 636Q255 636 225 606T194 541Q194 505 222 485T297 454L402 432Q461 419 510 393T588 325T617 219Q617 155 585 103T491 21T339
-10Z" />
<glyph unicode="T" glyph-name="T" horiz-adv-x="674" d="M269 0V622H41V740H633V622H405V0H269Z" />
<glyph unicode="U" glyph-name="U" horiz-adv-x="733" d="M366 -10Q284 -10 217 21T111 117T72 278V740H208V278Q208 210 246 164T366 118Q448 118 487 164T526 278V740H661V278Q661 181 622 117T517 22T366 -10Z" />
<glyph unicode="V" glyph-name="V" horiz-adv-x="732" d="M277 0L22 740H164L366 138L568 740H710L454 0H277Z" />
<glyph unicode="W" glyph-name="W" horiz-adv-x="1039" d="M221 0L32 740H169L306 183L451 740H589L733 185L871 740H1007L819 0H650L520 504L389 0H221Z" />
<glyph unicode="X" glyph-name="X" horiz-adv-x="753" d="M51 0L283 370L51 740H213L376 470L540 740H701L467 370L702 0H540L376 270L213 0H51Z" />
<glyph unicode="Y" glyph-name="Y" horiz-adv-x="701" d="M283 0V257L23 740H171L350 395L529 740H678L418 257V0H283Z" />
<glyph unicode="Z" glyph-name="Z" horiz-adv-x="664" d="M54 0V98L435 622H54V740H609V642L226 119H609V0H54Z" />
<glyph unicode="[" glyph-name="bracketleft" horiz-adv-x="489" d="M72 -208V847H401V732H208V-94H401V-208H72Z" />
<glyph unicode="\" glyph-name="backslash" horiz-adv-x="515" d="M479 -171H358L10 828H132L479 -171Z" />
<glyph unicode="]" glyph-name="bracketright" horiz-adv-x="489" d="M417 847V-208H88V-94H281V732H88V847H417Z" />
<glyph unicode="^" glyph-name="asciicircum" horiz-adv-x="594" d="M117 564L243 740H351L477 564H369L297 669L225 564H117Z" />
<glyph unicode="_" glyph-name="underscore" horiz-adv-x="724" d="M117 -95V0H608V-95H117Z" />
<glyph unicode="`" glyph-name="grave" horiz-adv-x="260" d="M132 606L24 786H151L234 607L132 606Z" />
<glyph unicode="a" glyph-name="a" horiz-adv-x="652" d="M289 540Q340 540 373 524T425 488T451 456H457V530H590V0H457V74H451Q444 62 425 42T373 6T289 -10Q230 -10 186 13T113 76T69 165T54 265Q54 316 68 365T112 453T186 516T289 540ZM324 431Q279 431 249
407T203 344T188 265Q188 224 203 186T248 124T324 99Q369 99 399 123T444 186T459 265Q459 306 444 344T399 406T324 431Z" />
<glyph unicode="b" glyph-name="b" horiz-adv-x="662" d="M373 -10Q322 -10 289 6T238 43T212 74H205V0H72V760H205V456H212Q219 468 237 488T289 524T373 540Q433 540 477 517T550 454T593 365T608 265Q608 214 594 165T550 77T477 14T373 -10ZM338 99Q384 99
414 123T459 186T474 265Q474 306 459 344T414 406T338 431Q293 431 263 407T218 344T203 265Q203 224 218 186T263 124T338 99Z" />
<glyph unicode="c" glyph-name="c" horiz-adv-x="624" d="M325 -10Q257 -10 206 13T121 76T71 165T54 265Q54 316 70 365T120 453T205 516T325 540Q393 540 438 520T509 470T549 411T566 361T570 341H445Q445 341 441 354T425 386T390 418T327 432Q281 432 250
409T202 347T186 265Q186 221 202 183T249 122T327 98Q366 98 389 112T425 144T441 175T445 189H570Q570 189 566 169T549 120T510 60T438 10T325 -10Z" />
<glyph unicode="d" glyph-name="d" horiz-adv-x="662" d="M289 -10Q230 -10 186 13T113 76T69 165T54 265Q54 316 68 365T112 453T186 516T289 540Q340 540 373 524T425 488T451 456H457V760H590V0H457V74H451Q444 62 425 42T373 6T289 -10ZM324 99Q369 99 399
123T444 186T459 265Q459 306 444 344T399 406T324 431Q279 431 249 407T203 344T188 265Q188 224 203 186T248 124T324 99Z" />
<glyph unicode="e" glyph-name="e" horiz-adv-x="611" d="M318 -10Q250 -10 201 13T119 76T70 165T54 265Q54 316 69 364T116 453T197 516T313 540Q385 540 440 508T526 415T557 262V228H188Q191 174 225 135T318 95Q352 95 374 106T408 131T425 156T430 167H553Q553
167 548 150T530 106T490 53T422 8T318 -10ZM188 315H429Q426 377 392 407T312 437Q261 437 227 405T188 315Z" />
<glyph unicode="f" glyph-name="f" horiz-adv-x="401" d="M124 0V423H39V530H124V579Q124 609 132 642T159 705T214 752T304 770Q334 770 353 766T373 761V664Q373 664 360 666T332 669Q289 669 273 644T257 579V530H370V423H257V0H124Z" />
<glyph unicode="g" glyph-name="g" horiz-adv-x="654" d="M328 -212Q257 -212 211 -194T137 -149T97 -95T80 -50T76 -32H206Q206 -32 210 -43T226 -68T263 -94T327 -105Q397 -105 428 -65T459 32V91H453Q442 74 422 54T369 20T290 6Q231 6 187 29T113 90T69 175T54
273Q54 323 68 370T113 456T187 517T290 540Q336 540 368 526T421 493T453 456H459V530H592V33Q592 -36 563 -91T476 -179T328 -212ZM325 113Q370 113 400 136T445 196T460 273Q460 314 445 350T400 410T325 433Q279 433 249 410T203 351T188 273Q188 233 203 197T248
137T325 113Z" />
<glyph unicode="h" glyph-name="h" horiz-adv-x="600" d="M72 0V760H205V454H211Q219 468 236 488T283 524T359 540Q420 540 459 513T518 440T538 343V0H405V325Q405 368 381 399T309 430Q272 430 249 412T216 364T205 303V0H72Z" />
<glyph unicode="i" glyph-name="i" horiz-adv-x="285" d="M142 612Q107 612 85 635T62 690Q62 722 84 745T142 768Q177 768 200 745T223 690Q223 658 200 635T142 612ZM76 0V530H209V0H76Z" />
<glyph unicode="j" glyph-name="j" horiz-adv-x="292" d="M149 612Q114 612 92 635T69 690Q69 722 91 745T149 768Q184 768 207 745T230 690Q230 658 207 635T149 612ZM27 -200Q-3 -200 -23 -197T-43 -194V-88Q-43 -88 -32 -89T-4 -91Q46 -91 64 -69T83 -1V530H216V-3Q216
-34 209 -68T182 -132T125 -181T27 -200Z" />
<glyph unicode="k" glyph-name="k" horiz-adv-x="584" d="M72 0V760H205V320L392 530H549L329 288L556 0H397L205 244V0H72Z" />
<glyph unicode="l" glyph-name="l" horiz-adv-x="277" d="M72 0L73 760H205V0H72Z" />
<glyph unicode="m" glyph-name="m" horiz-adv-x="895" d="M62 0V530H195V456H200Q210 474 228 493T274 526T345 540Q404 540 442 512T498 440H500Q520 478 559 509T665 540Q721 540 758 515T814 446T833 353V0H700V325Q700 371 678 400T611 430Q576 430 555 412T524
365T514 308V0H381V325Q381 371 359 400T292 430Q257 430 236 412T205 365T195 308V0H62Z" />
<glyph unicode="n" glyph-name="n" horiz-adv-x="590" d="M62 0V530H195V454H201Q209 468 226 488T273 524T349 540Q410 540 449 513T508 440T528 343V0H395V325Q395 368 371 399T299 430Q262 430 239 412T206 364T195 303V0H62Z" />
<glyph unicode="o" glyph-name="o" horiz-adv-x="652" d="M326 -10Q239 -10 178 29T86 130T54 265Q54 337 85 399T178 501T326 540Q414 540 474 501T566 400T598 265Q598 193 567 131T475 29T326 -10ZM326 101Q371 101 401 124T448 184T464 265Q464 309 448 346T402
406T326 429Q282 429 251 406T204 346T188 265Q188 222 204 185T251 124T326 101Z" />
<glyph unicode="p" glyph-name="p" horiz-adv-x="662" d="M72 -196V530H205V456H212Q219 468 237 488T289 524T373 540Q433 540 477 517T550 454T593 365T608 265Q608 214 594 165T550 77T477 14T373 -10Q322 -10 289 6T238 43T212 74H205V-196H72ZM203 265Q203
224 218 186T263 124T338 99Q384 99 414 123T459 186T474 265Q474 306 459 344T414 406T338 431Q293 431 263 407T218 344T203 265Z" />
<glyph unicode="q" glyph-name="q" horiz-adv-x="662" d="M457 -195V74H451Q444 62 425 42T373 6T289 -10Q230 -10 186 13T113 76T69 165T54 265Q54 316 68 365T112 453T186 516T289 540Q340 540 373 524T425 488T451 456H457V530H590V-195H457ZM324 99Q369 99
399 123T444 186T459 265Q459 306 444 344T399 406T324 431Q279 431 249 407T203 344T188 265Q188 224 203 186T248 124T324 99Z" />
<glyph unicode="r" glyph-name="r" horiz-adv-x="416" d="M62 0V530H194V457H199Q213 488 245 514T341 540Q361 540 374 538T387 535V406Q387 406 373 408T337 410Q267 410 231 371T195 245V0H62Z" />
<glyph unicode="s" glyph-name="s" horiz-adv-x="527" d="M276 -10Q211 -10 169 7T103 51T66 104T51 147T47 165H173Q173 165 176 154T190 129T223 103T281 92Q324 92 343 110T362 152Q362 174 346 187T297 208L224 223Q180 232 142 249T80 297T56 376Q56 447
110 493T257 540Q316 540 354 524T416 484T451 436T466 396T470 379H348Q348 379 345 388T333 410T305 431T255 441Q213 441 196 423T178 385Q178 363 197 351T246 333L315 318Q389 303 436 266T484 159Q484 112 460 74T389 13T276 -10Z" />
<glyph unicode="t" glyph-name="t" horiz-adv-x="434" d="M301 -10Q247 -10 212 6T158 48T130 105T122 166V423H31V530H122V662H255V530H374V423H255V169Q255 98 335 98Q354 98 370 100T387 103V-1Q387 -1 362 -5T301 -10Z" />
<glyph unicode="u" glyph-name="u" horiz-adv-x="581" d="M230 -10Q147 -10 105 41T62 172V530H194V194Q194 151 217 126T282 100Q319 100 342 119T375 168T386 230V530H519V0H386V76H380Q370 58 352 38T304 4T230 -10Z" />
<glyph unicode="v" glyph-name="v" horiz-adv-x="588" d="M224 0L27 530H162L295 152L426 530H561L363 0H224Z" />
<glyph unicode="w" glyph-name="w" horiz-adv-x="879" d="M193 0L27 530H160L266 166L379 530H500L613 166L719 530H852L685 0H544L440 337L335 0H193Z" />
<glyph unicode="x" glyph-name="x" horiz-adv-x="591" d="M41 0L206 264L40 530H180L295 344L412 530H551L381 264L551 0H411L295 186L180 0H41Z" />
<glyph unicode="y" glyph-name="y" horiz-adv-x="592" d="M98 -195Q72 -195 56 -193T39 -191V-82Q39 -82 54 -83T89 -85Q140 -85 173 -69T230 -7L31 530H166L299 152L430 530H565L371 13Q331 -93 268 -144T98 -195Z" />
<glyph unicode="z" glyph-name="z" horiz-adv-x="514" d="M44 0V92L324 424H55V530H485V438L204 106H485V0H44Z" />
<glyph unicode="{" glyph-name="braceleft" horiz-adv-x="462" d="M315 -208Q225 -208 178 -161T130 -24V199Q130 263 66 263H24V376H66Q130 376 130 439V662Q130 752 177 799T315 847H422V732H329Q266 732 266 668V441Q266 392 251 365T191 322V316Q236 301 251
273T266 198V-30Q266 -94 329 -94H422V-208H315Z" />
<glyph unicode="|" glyph-name="bar" horiz-adv-x="426" d="M156 -237V954H270V-237H156Z" />
<glyph unicode="}" glyph-name="braceright" horiz-adv-x="462" d="M147 847Q237 847 284 800T332 662V439Q332 376 396 376H438V263H396Q332 263 332 199V-24Q332 -113 285 -160T147 -208H40V-94H133Q196 -94 196 -30V198Q196 247 211 274T271 316V322Q226 337
211 365T196 441V668Q196 732 133 732H40V847H147Z" />
<glyph unicode="~" glyph-name="asciitilde" horiz-adv-x="483" d="M315 316Q287 316 267 325T232 347T203 369T174 379Q157 379 150 364T142 321H66Q66 353 74 385T105 438T168 460Q196 460 216 451T253 429T282 407T309 397Q341 397 341 455H417Q417 423 409
391T378 338T315 316Z" />
<glyph unicode="&#xa0;" glyph-name="uni00A0" horiz-adv-x="230" />
<glyph unicode="&#xa1;" glyph-name="exclamdown" horiz-adv-x="320" d="M160 531Q192 531 213 509T235 456Q235 425 214 404T160 382Q127 382 106 403T85 456Q85 487 106 509T160 531ZM89 -218L102 312H215L231 -218H89Z" />
<glyph unicode="&#xa2;" glyph-name="cent" horiz-adv-x="624" d="M279 -92V-7Q204 4 154 45T79 144T54 265Q54 327 78 385T153 485T279 537V622H363V538Q420 532 458 510T518 460T552 404T566 359T570 341H445Q445 341 442 351T431 377T406 407T363 428V102Q389
109 405 123T430 152T442 178T445 189H570Q570 189 567 171T552 126T519 71T458 20T363 -8V-92H279ZM186 265Q186 211 209 167T279 106V424Q233 408 210 364T186 265Z" />
<glyph unicode="&#xa3;" glyph-name="sterling" horiz-adv-x="648" d="M71 0V114Q137 121 176 158T216 246Q216 265 211 281T197 312H62V378H154Q135 407 120 442T104 524Q104 593 140 644T242 722T396 750Q438 750 473 746T529 736T551 731V613Q551 613 531 618T479
627T409 632Q331 632 284 602T236 514Q236 475 255 444T294 378H490V312H324Q331 287 331 260Q331 215 313 184T273 134T242 113H581V0H71Z" />
<glyph unicode="&#xa4;" glyph-name="currency" horiz-adv-x="642" d="M110 98L50 156L136 242Q117 269 107 302T96 371Q96 441 134 498L50 581L110 641L193 556Q251 598 323 598Q394 598 452 558L534 641L592 581L510 499Q551 442 551 371Q551 334 540 301T509
241L592 156L534 98L450 181Q393 143 323 143Q288 143 255 153T195 183L110 98ZM323 238Q360 238 390 256T438 304T456 370Q456 407 438 437T390 485T323 503Q286 503 256 485T207 437T189 370Q189 334 207 304T255 256T323 238Z" />
<glyph unicode="&#xa5;" glyph-name="yen" horiz-adv-x="701" d="M92 188V266H278L240 337H92V415H197L23 740H171L350 395L529 740H678L503 415H608V337H461L423 266H608V188H418V0H283V188H92Z" />
<glyph unicode="&#xa6;" glyph-name="brokenbar" horiz-adv-x="426" d="M156 419V955H270V419H156ZM156 -237V254H270V-237H156Z" />
<glyph unicode="&#xa7;" glyph-name="section" horiz-adv-x="704" d="M367 -229Q293 -229 242 -212T158 -167T105 -110T77 -52T66 -7T64 10H200Q200 10 202 -3T212 -35T239 -73T290 -105T372 -118Q439 -118 474 -87T509 -13Q509 31 479 53T401 85L272 110Q212
121 161 144T77 207T44 306Q44 366 81 406T182 458V464Q133 494 108 532T82 625Q82 689 115 737T208 814T349 842Q427 842 478 820T559 764T603 698T621 643T625 620H491Q491 620 488 636T470 675T427 714T346 731Q300 731 271 716T229 678T215 629Q215 588 246
567T330 535L437 513Q497 502 549 479T633 417T665 318Q665 258 629 218T527 166V160Q580 143 612 101T644 -5Q644 -69 611 -119T516 -199T367 -229ZM420 207Q444 207 470 216T514 245T532 296Q532 338 498 360T413 392L289 417Q265 417 239 408T195 379T177 327Q177
285 211 264T296 232L420 207Z" />
<glyph unicode="&#xa8;" glyph-name="dieresis" horiz-adv-x="387" d="M332 598Q297 598 276 620T254 673Q254 705 275 727T332 750Q365 750 387 728T410 673Q410 642 388 620T332 598ZM117 598Q83 598 61 620T39 673Q39 705 61 727T117 750Q151 750 173 728T195
673Q195 642 173 620T117 598Z" />
<glyph unicode="&#xa9;" glyph-name="copyright" horiz-adv-x="811" d="M405 -10Q316 -10 249 20T136 102T68 218T45 350Q45 418 67 482T135 597T248 679T405 710Q495 710 562 680T675 598T743 482T766 350Q766 283 744 219T676 103T563 21T405 -10ZM405 73Q474
73 525 96T611 160T663 249T680 351Q680 402 663 451T612 540T526 603T405 627Q337 627 286 604T200 540T148 451T131 351Q131 299 148 250T199 160T285 97T405 73ZM417 144Q348 144 303 174T234 251T211 350Q211 401 233 448T302 526T417 556Q468 556 501 541T554
504T583 459T596 422T599 406H504Q504 406 501 416T489 440T463 463T416 474Q363 474 337 437T311 350Q311 301 337 264T416 226Q445 226 462 236T489 260T501 283T504 294H599Q599 294 596 279T584 241T555 197T502 159T417 144Z" />
<glyph unicode="&#xaa;" glyph-name="ordfeminine" horiz-adv-x="426" d="M257 451Q249 441 227 424T163 407Q115 407 85 432T54 502Q54 547 88 573T186 607L261 616V624Q261 644 250 658T212 672Q190 672 179 663T165 644T162 635H65Q65 635 68 652T86 692T130
732T215 750Q269 750 302 732T349 686T364 630V413H261V451H257ZM155 511Q155 494 168 486T199 477Q225 477 243 495T261 544V554L199 546Q155 540 155 511Z" />
<glyph unicode="&#xab;" glyph-name="guillemotleft" horiz-adv-x="707" d="M530 94L313 311L530 528H671L458 311L671 94H530ZM255 94L38 311L255 528H396L182 311L396 94H255Z" />
<glyph unicode="&#xac;" glyph-name="logicalnot" horiz-adv-x="655" d="M80 424V530H575V261H470V424H80Z" />
<glyph unicode="&#xad;" glyph-name="uni00AD" horiz-adv-x="600" d="M117 259V366H490V259H117Z" />
<glyph unicode="&#xae;" glyph-name="registered" horiz-adv-x="432" d="M216 383Q155 383 115 409T54 478T33 567Q33 612 53 654T114 723T216 750Q277 750 318 723T379 654T399 567Q399 521 379 479T318 410T216 383ZM216 423Q264 423 295 444T342 498T358 567Q358
603 343 635T296 689T216 710Q169 710 138 689T90 636T74 567Q74 531 90 498T137 444T216 423ZM141 471V664H224Q259 664 280 648T301 600Q301 558 265 542L304 471H249L214 534H192V471H141ZM223 621H192V575H223Q250 575 250 597Q250 621 223 621Z" />
<glyph unicode="&#xaf;" glyph-name="overscore" horiz-adv-x="364" d="M23 646V730H341V646H23Z" />
<glyph unicode="&#xb0;" glyph-name="degree" horiz-adv-x="472" d="M236 385Q185 385 144 410T79 476T54 568Q54 618 78 659T144 725T236 750Q286 750 327 726T393 660T418 568Q418 517 394 476T328 410T236 385ZM236 479Q272 479 298 505T325 568Q325 605 299
630T236 656Q199 656 174 631T148 568Q148 531 173 505T236 479Z" />
<glyph unicode="&#xb1;" glyph-name="plusminus" horiz-adv-x="661" d="M277 157V305H129V412H277V560H384V412H532V305H384V157H277ZM117 0V76H545V0H117Z" />
<glyph unicode="&#xb2;" glyph-name="uni00B2" horiz-adv-x="450" d="M65 409V484L149 549Q205 593 240 622T275 684Q275 708 259 720T222 733Q200 733 183 719T166 675H62Q62 726 85 760T146 810T225 826Q270 826 306 809T364 762T386 693Q386 637 342 595T220
503L217 501H389V409H65Z" />
<glyph unicode="&#xb3;" glyph-name="uni00B3" horiz-adv-x="462" d="M229 401Q181 401 150 415T99 452T72 497T64 539H166Q166 522 180 505T227 488Q256 488 270 502T284 534Q284 553 270 564T232 576H176V655H231Q255 655 268 667T281 696Q281 714 267 726T228
739Q200 739 187 723T173 689H74Q74 707 81 730T107 775T156 811T231 826Q272 826 308 812T366 772T388 708Q388 681 377 663T350 633T320 618V614Q351 605 373 583T395 523Q395 485 373 458T312 416T229 401Z" />
<glyph unicode="&#xb4;" glyph-name="acute" horiz-adv-x="260" d="M117 606L15 607L98 786H225L117 606Z" />
<glyph unicode="&#xb5;" glyph-name="uni00B5" horiz-adv-x="627" d="M44 -197V530H177V194Q177 151 200 126T265 100Q302 100 325 119T358 168T369 230V530H502V169Q502 136 518 118T574 99Q589 99 598 100T608 102V-3Q608 -3 590 -6T543 -10Q479 -10 440 14T385
76H379Q379 76 374 63T354 33T316 3T252 -10Q217 -10 195 -1T161 17T150 27L145 24Q164 -17 170 -53T177 -136V-197H44Z" />
<glyph unicode="&#xb6;" glyph-name="paragraph" horiz-adv-x="546" d="M349 0H266V320H203Q136 320 92 345T25 413T3 507Q3 558 25 602T92 673T203 700H500V0H417V584H349V0Z" />
<glyph unicode="&#xb7;" glyph-name="middot" horiz-adv-x="288" d="M162 300Q127 300 105 323T83 379Q83 412 105 435T162 458Q196 458 218 435T240 379Q240 347 218 324T162 300Z" />
<glyph unicode="&#xb8;" glyph-name="cedilla" horiz-adv-x="249" d="M75 -253Q48 -253 23 -250T-3 -246V-173Q-3 -173 9 -174T37 -177T69 -179Q112 -179 127 -164T142 -134Q142 -119 130 -109T96 -98Q73 -98 57 -107T41 -117L-7 -69L56 28H142L99 -36Q110 -33
123 -33Q171 -33 198 -63T226 -134Q226 -163 210 -190T161 -235T75 -253Z" />
<glyph unicode="&#xb9;" glyph-name="uni00B9" horiz-adv-x="329" d="M231 823V409H127V689H42V751L55 755Q95 767 119 780T166 818L171 823H231Z" />
<glyph unicode="&#xba;" glyph-name="ordmasculine" horiz-adv-x="456" d="M228 407Q173 407 134 431T75 494T54 579Q54 625 74 664T134 727T228 751Q283 751 322 727T381 664T402 579Q402 534 382 495T322 431T228 407ZM228 493Q262 493 280 518T299 579Q299
614 281 639T228 665Q195 665 176 640T157 579Q157 544 176 519T228 493Z" />
<glyph unicode="&#xbb;" glyph-name="guillemotright" horiz-adv-x="707" d="M313 94L527 311L313 528H455L671 311L455 94H313ZM38 94L251 311L38 528H179L396 311L179 94H38Z" />
<glyph unicode="&#xbc;" glyph-name="onequarter" horiz-adv-x="799" d="M172 707V356H79V592H10V648L20 651Q53 660 74 672T114 703L118 707H172ZM145 0L565 700H671L249 0H145ZM711 0V70H546V136L686 350H807V143H856V70H807V0H711ZM637 143H711V258L637 143Z" />
<glyph unicode="&#xbd;" glyph-name="onehalf" horiz-adv-x="802" d="M172 707V356H79V592H10V648L20 651Q53 660 74 672T114 703L118 707H172ZM145 0L565 700H671L249 0H145ZM582 0V64L629 101Q694 150 727 176T761 234Q761 255 748 265T717 275Q699 275 685
263T671 225H580Q580 269 600 298T652 341T720 355Q777 355 817 324T857 240Q857 193 822 157T719 79V78H859V0H582Z" />
<glyph unicode="&#xbe;" glyph-name="threequarters" horiz-adv-x="817" d="M174 351Q121 351 91 371T48 419T36 467H123Q123 453 135 439T174 425Q198 425 210 436T222 463Q222 478 212 489T176 500H135V567H177Q198 567 209 577T220 602Q220 616 208 627T175
638Q151 638 140 625T128 597H43Q43 617 55 644T97 691T175 711Q211 711 241 699T290 665T309 611Q309 578 290 559T253 535V531Q275 524 295 507T315 456Q315 408 275 380T174 351ZM225 0L646 700H751L330 0H225ZM792 0V70H626V136L767 350H887V143H937V70H887V0H792ZM717
143H792V258L717 143Z" />
<glyph unicode="&#xbf;" glyph-name="questiondown" horiz-adv-x="605" d="M307 538Q340 538 361 516T382 463Q382 432 361 410T307 388Q275 388 254 410T232 463Q232 494 253 516T307 538ZM299 -222Q232 -222 176 -196T86 -121T52 -5Q52 46 71 81T118 143T175
192T222 236T242 288V321H374V288Q374 242 355 209T309 152T253 105T206 58T187 -2Q187 -49 221 -76T303 -104Q334 -104 361 -91T406 -49T423 23H553Q553 -60 516 -114T421 -195T299 -222Z" />
<glyph unicode="&#xc0;" glyph-name="Agrave" horiz-adv-x="758" d="M332 816L224 996H351L433 817L332 816ZM35 0L290 740H467L723 0H581L528 156H230L177 0H35ZM269 274H489L379 601L269 274Z" />
<glyph unicode="&#xc1;" glyph-name="Aacute" horiz-adv-x="758" d="M430 816L329 817L411 996H538L430 816ZM35 0L290 740H467L723 0H581L528 156H230L177 0H35ZM269 274H489L379 601L269 274Z" />
<glyph unicode="&#xc2;" glyph-name="Acircumflex" horiz-adv-x="758" d="M199 809L326 961H433L560 809H452L380 897L307 809H199ZM35 0L290 740H467L723 0H581L528 156H230L177 0H35ZM269 274H489L379 601L269 274Z" />
<glyph unicode="&#xc3;" glyph-name="Atilde" horiz-adv-x="758" d="M451 825Q424 825 405 834T372 856T345 878T319 888Q302 888 296 873T289 831H213Q213 863 221 896T250 950T311 972Q338 972 357 963T391 941T418 919T444 909Q459 909 465 924T472 967H548Q548
934 540 902T511 847T451 825ZM35 0L290 740H467L723 0H581L528 156H230L177 0H35ZM269 274H489L379 601L269 274Z" />
<glyph unicode="&#xc4;" glyph-name="Adieresis" horiz-adv-x="758" d="M486 807Q452 807 430 830T408 883Q408 915 430 937T486 960Q520 960 542 938T564 883Q564 852 542 830T486 807ZM272 807Q237 807 216 830T194 883Q194 915 215 937T272 960Q305 960 327
938T350 883Q350 852 328 830T272 807ZM35 0L290 740H467L723 0H581L528 156H230L177 0H35ZM269 274H489L379 601L269 274Z" />
<glyph unicode="&#xc5;" glyph-name="Aring" horiz-adv-x="758" d="M379 802Q342 802 312 820T264 868T245 936Q245 972 263 1002T312 1050T379 1068Q416 1068 446 1051T494 1003T512 936Q512 899 494 869T446 820T379 802ZM379 879Q402 879 419 895T436 936Q436
959 419 975T379 992Q356 992 339 976T322 936Q322 912 339 896T379 879ZM35 0L290 740H467L723 0H581L528 156H230L177 0H35ZM269 274H489L379 601L269 274Z" />
<glyph unicode="&#xc6;" glyph-name="AE" horiz-adv-x="1034" d="M35 0L386 740H968V622H608V434H923V319H608V118H973V0H472V156H252L177 0H35ZM308 273H472V617L308 273Z" />
<glyph unicode="&#xc7;" glyph-name="Ccedilla" horiz-adv-x="778" d="M388 -261Q362 -261 337 -258T311 -254V-182Q311 -182 322 -183T351 -186T382 -188Q425 -188 440 -174T455 -144Q455 -128 443 -118T409 -107Q386 -107 370 -116T354 -126L306 -78L353 -7Q276
3 219 38T123 126T65 242T45 370Q45 441 67 509T135 631T248 718T406 750Q481 750 535 731T625 682T682 618T715 554T729 505T733 486H598Q598 486 595 500T581 535T549 578T494 613T408 627Q352 627 310 606T240 547T199 464T185 370Q185 322 198 277T240 194T310
135T408 113Q459 113 493 127T549 163T580 205T594 240T598 255H733Q733 255 730 237T717 191T687 130T635 67T554 16T437 -9L406 -55Q420 -51 436 -51Q484 -51 511 -77T539 -144Q539 -173 524 -200T475 -244T388 -261Z" />
<glyph unicode="&#xc8;" glyph-name="Egrave" horiz-adv-x="640" d="M285 816L177 996H304L386 817L285 816ZM78 0V740H574V622H214V434H529V319H214V118H579V0H78Z" />
<glyph unicode="&#xc9;" glyph-name="Eacute" horiz-adv-x="640" d="M383 816L282 817L364 996H491L383 816ZM78 0V740H574V622H214V434H529V319H214V118H579V0H78Z" />
<glyph unicode="&#xca;" glyph-name="Ecircumflex" horiz-adv-x="640" d="M152 809L279 961H386L513 809H405L333 897L260 809H152ZM78 0V740H574V622H214V434H529V319H214V118H579V0H78Z" />
<glyph unicode="&#xcb;" glyph-name="Edieresis" horiz-adv-x="640" d="M439 807Q405 807 383 830T361 883Q361 915 383 937T439 960Q473 960 495 938T517 883Q517 852 495 830T439 807ZM225 807Q190 807 169 830T147 883Q147 915 168 937T225 960Q258 960 280
938T303 883Q303 852 281 830T225 807ZM78 0V740H574V622H214V434H529V319H214V118H579V0H78Z" />
<glyph unicode="&#xcc;" glyph-name="Igrave" horiz-adv-x="292" d="M98 816L-9 996H118L200 817L98 816ZM78 0V740H214V0H78Z" />
<glyph unicode="&#xcd;" glyph-name="Iacute" horiz-adv-x="292" d="M197 816L95 817L178 996H304L197 816ZM78 0V740H214V0H78Z" />
<glyph unicode="&#xce;" glyph-name="Icircumflex" horiz-adv-x="292" d="M-34 809L93 985H200L327 809H219L146 914L74 809H-34ZM78 0V740H214V0H78Z" />
<glyph unicode="&#xcf;" glyph-name="Idieresis" horiz-adv-x="292" d="M253 807Q218 807 197 830T175 883Q175 915 196 937T253 960Q286 960 308 938T331 883Q331 852 309 830T253 807ZM38 807Q4 807 -18 830T-40 883Q-40 915 -18 937T38 960Q72 960 94 938T116
883Q116 852 94 830T38 807ZM78 0V740H214V0H78Z" />
<glyph unicode="&#xd0;" glyph-name="Eth" horiz-adv-x="786" d="M114 0V314H26V426H114V740H381Q471 740 538 709T651 624T718 505T741 370Q741 301 719 235T651 116T539 32T381 0H114ZM394 314H250V120H375Q453 120 503 156T579 250T605 371Q605 433 580 490T504
584T375 621H250V426H394V314Z" />
<glyph unicode="&#xd1;" glyph-name="Ntilde" horiz-adv-x="755" d="M447 825Q420 825 401 834T367 856T341 878T314 888Q298 888 292 873T285 831H209Q209 863 217 896T246 950T306 972Q334 972 353 963T386 941T413 919T439 909Q454 909 461 924T468 967H543Q543
934 536 902T507 847T447 825ZM78 0V740H202L542 238V740H677V0H553L213 493V0H78Z" />
<glyph unicode="&#xd2;" glyph-name="Ograve" horiz-adv-x="828" d="M366 826L259 1006H386L468 827L366 826ZM414 -10Q323 -10 254 22T139 109T69 232T45 371Q45 442 68 509T138 631T254 717T414 750Q505 750 574 718T689 631T759 510T783 371Q783 300 760 232T690
110T574 23T414 -10ZM414 113Q489 113 539 150T616 246T643 371Q643 436 617 494T540 590T414 627Q339 627 288 590T211 495T185 371Q185 305 211 246T288 150T414 113Z" />
<glyph unicode="&#xd3;" glyph-name="Oacute" horiz-adv-x="828" d="M465 826L363 827L446 1006H572L465 826ZM414 -10Q323 -10 254 22T139 109T69 232T45 371Q45 442 68 509T138 631T254 717T414 750Q505 750 574 718T689 631T759 510T783 371Q783 300 760 232T690
110T574 23T414 -10ZM414 113Q489 113 539 150T616 246T643 371Q643 436 617 494T540 590T414 627Q339 627 288 590T211 495T185 371Q185 305 211 246T288 150T414 113Z" />
<glyph unicode="&#xd4;" glyph-name="Ocircumflex" horiz-adv-x="828" d="M234 819L361 971H468L595 819H487L414 907L342 819H234ZM414 -10Q323 -10 254 22T139 109T69 232T45 371Q45 442 68 509T138 631T254 717T414 750Q505 750 574 718T689 631T759 510T783
371Q783 300 760 232T690 110T574 23T414 -10ZM414 113Q489 113 539 150T616 246T643 371Q643 436 617 494T540 590T414 627Q339 627 288 590T211 495T185 371Q185 305 211 246T288 150T414 113Z" />
<glyph unicode="&#xd5;" glyph-name="Otilde" horiz-adv-x="828" d="M486 835Q459 835 440 844T406 866T380 888T353 898Q337 898 331 883T324 841H248Q248 873 256 906T285 960T345 982Q373 982 392 973T425 951T452 929T478 919Q493 919 500 934T507 977H582Q582
944 575 912T546 857T486 835ZM414 -10Q323 -10 254 22T139 109T69 232T45 371Q45 442 68 509T138 631T254 717T414 750Q505 750 574 718T689 631T759 510T783 371Q783 300 760 232T690 110T574 23T414 -10ZM414 113Q489 113 539 150T616 246T643 371Q643 436 617
494T540 590T414 627Q339 627 288 590T211 495T185 371Q185 305 211 246T288 150T414 113Z" />
<glyph unicode="&#xd6;" glyph-name="Odieresis" horiz-adv-x="828" d="M521 817Q486 817 465 840T443 893Q443 925 464 947T521 970Q554 970 576 948T599 893Q599 862 577 840T521 817ZM306 817Q272 817 250 840T228 893Q228 925 250 947T306 970Q340 970 362
948T384 893Q384 862 362 840T306 817ZM414 -10Q323 -10 254 22T139 109T69 232T45 371Q45 442 68 509T138 631T254 717T414 750Q505 750 574 718T689 631T759 510T783 371Q783 300 760 232T690 110T574 23T414 -10ZM414 113Q489 113 539 150T616 246T643 371Q643
436 617 494T540 590T414 627Q339 627 288 590T211 495T185 371Q185 305 211 246T288 150T414 113Z" />
<glyph unicode="&#xd7;" glyph-name="multiply" horiz-adv-x="612" d="M198 123L117 204L225 312L117 420L198 501L306 393L414 501L494 420L387 312L495 205L413 123L306 231L198 123Z" />
<glyph unicode="&#xd8;" glyph-name="Oslash" horiz-adv-x="828" d="M95 -24L164 83Q105 138 75 214T45 371Q45 442 68 509T138 631T254 717T414 750Q458 750 497 742T571 719L599 763H732L664 657Q723 603 753 527T783 371Q783 300 760 232T690 110T574 23T414
-10Q369 -10 330 -2T257 21L228 -24H95ZM185 371Q185 324 198 280T238 200L501 611Q461 627 414 627Q339 627 288 590T211 495T185 371ZM414 113Q489 113 539 150T616 246T643 371Q643 417 630 461T589 541L326 130Q366 113 414 113Z" />
<glyph unicode="&#xd9;" glyph-name="Ugrave" horiz-adv-x="745" d="M322 816L215 996H342L424 817L322 816ZM372 -10Q290 -10 223 21T117 117T78 278V740H214V278Q214 210 252 164T372 118Q454 118 493 164T532 278V740H667V278Q667 181 628 117T523 22T372 -10Z" />
<glyph unicode="&#xda;" glyph-name="Uacute" horiz-adv-x="745" d="M421 816L319 817L402 996H529L421 816ZM372 -10Q290 -10 223 21T117 117T78 278V740H214V278Q214 210 252 164T372 118Q454 118 493 164T532 278V740H667V278Q667 181 628 117T523 22T372 -10Z" />
<glyph unicode="&#xdb;" glyph-name="Ucircumflex" horiz-adv-x="745" d="M190 809L317 985H424L551 809H443L370 914L298 809H190ZM372 -10Q290 -10 223 21T117 117T78 278V740H214V278Q214 210 252 164T372 118Q454 118 493 164T532 278V740H667V278Q667 181
628 117T523 22T372 -10Z" />
<glyph unicode="&#xdc;" glyph-name="Udieresis" horiz-adv-x="745" d="M477 807Q443 807 421 830T399 883Q399 915 421 937T477 960Q510 960 532 938T555 883Q555 852 533 830T477 807ZM263 807Q228 807 207 830T185 883Q185 915 206 937T263 960Q296 960 318
938T341 883Q341 852 319 830T263 807ZM372 -10Q290 -10 223 21T117 117T78 278V740H214V278Q214 210 252 164T372 118Q454 118 493 164T532 278V740H667V278Q667 181 628 117T523 22T372 -10Z" />
<glyph unicode="&#xdd;" glyph-name="Yacute" horiz-adv-x="701" d="M404 814L302 815L384 994H511L404 814ZM283 0V257L23 740H171L350 395L529 740H678L418 257V0H283Z" />
<glyph unicode="&#xde;" glyph-name="Thorn" horiz-adv-x="667" d="M72 0V740H208V615H364Q453 615 512 580T600 488T630 371Q630 309 601 253T512 160T364 124H208V0H72ZM363 497H208V242H363Q407 242 436 261T479 309T494 370Q494 401 480 430T436 478T363 497Z" />
<glyph unicode="&#xdf;" glyph-name="germandbls" horiz-adv-x="701" d="M344 758Q414 758 473 734T569 663T606 552Q606 507 589 474T545 418T490 386V381Q490 381 504 377T540 361T582 329T618 278T633 203Q633 137 597 90T499 16T356 -10Q319 -10 293 -7T267
-3V109Q267 109 292 106T343 103Q420 103 458 137T497 221Q497 271 462 300T364 329H288V436H356Q409 436 440 464T472 537Q472 586 437 615T348 645Q286 645 246 605T205 481V-1H72V481Q72 533 88 582T137 671T221 734T344 758Z" />
<glyph unicode="&#xe0;" glyph-name="agrave" horiz-adv-x="660" d="M283 606L175 786H302L384 607L283 606ZM292 540Q343 540 376 524T428 488T454 456H460V530H593V0H460V74H454Q447 62 428 42T376 6T292 -10Q233 -10 189 13T116 76T72 165T57 265Q57 316 71
365T115 453T189 516T292 540ZM327 431Q282 431 252 407T206 344T191 265Q191 224 206 186T251 124T327 99Q372 99 402 123T447 186T462 265Q462 306 447 344T402 406T327 431Z" />
<glyph unicode="&#xe1;" glyph-name="aacute" horiz-adv-x="660" d="M381 606L280 607L362 786H489L381 606ZM292 540Q343 540 376 524T428 488T454 456H460V530H593V0H460V74H454Q447 62 428 42T376 6T292 -10Q233 -10 189 13T116 76T72 165T57 265Q57 316 71
365T115 453T189 516T292 540ZM327 431Q282 431 252 407T206 344T191 265Q191 224 206 186T251 124T327 99Q372 99 402 123T447 186T462 265Q462 306 447 344T402 406T327 431Z" />
<glyph unicode="&#xe2;" glyph-name="acircumflex" horiz-adv-x="660" d="M150 599L277 775H384L511 599H403L331 704L258 599H150ZM292 540Q343 540 376 524T428 488T454 456H460V530H593V0H460V74H454Q447 62 428 42T376 6T292 -10Q233 -10 189 13T116 76T72
165T57 265Q57 316 71 365T115 453T189 516T292 540ZM327 431Q282 431 252 407T206 344T191 265Q191 224 206 186T251 124T327 99Q372 99 402 123T447 186T462 265Q462 306 447 344T402 406T327 431Z" />
<glyph unicode="&#xe3;" glyph-name="atilde" horiz-adv-x="660" d="M402 615Q375 615 356 624T323 646T296 668T270 678Q253 678 247 663T240 621H164Q164 653 172 686T201 740T262 762Q289 762 308 753T342 731T369 709T395 699Q410 699 416 714T423 757H499Q499
724 491 692T462 637T402 615ZM292 540Q343 540 376 524T428 488T454 456H460V530H593V0H460V74H454Q447 62 428 42T376 6T292 -10Q233 -10 189 13T116 76T72 165T57 265Q57 316 71 365T115 453T189 516T292 540ZM327 431Q282 431 252 407T206 344T191 265Q191
224 206 186T251 124T327 99Q372 99 402 123T447 186T462 265Q462 306 447 344T402 406T327 431Z" />
<glyph unicode="&#xe4;" glyph-name="adieresis" horiz-adv-x="660" d="M437 598Q403 598 381 620T359 673Q359 705 381 727T437 750Q471 750 493 728T515 673Q515 642 493 620T437 598ZM223 598Q189 598 167 620T145 673Q145 705 167 727T223 750Q256 750 278
728T301 673Q301 642 279 620T223 598ZM292 540Q343 540 376 524T428 488T454 456H460V530H593V0H460V74H454Q447 62 428 42T376 6T292 -10Q233 -10 189 13T116 76T72 165T57 265Q57 316 71 365T115 453T189 516T292 540ZM327 431Q282 431 252 407T206 344T191
265Q191 224 206 186T251 124T327 99Q372 99 402 123T447 186T462 265Q462 306 447 344T402 406T327 431Z" />
<glyph unicode="&#xe5;" glyph-name="aring" horiz-adv-x="660" d="M330 592Q293 592 263 610T215 658T196 726Q196 762 214 792T263 840T330 858Q367 858 397 841T445 793T463 726Q463 689 445 659T397 610T330 592ZM330 669Q353 669 370 685T387 726Q387 749
370 765T330 782Q307 782 290 766T273 726Q273 702 290 686T330 669ZM292 540Q343 540 376 524T428 488T454 456H460V530H593V0H460V74H454Q447 62 428 42T376 6T292 -10Q233 -10 189 13T116 76T72 165T57 265Q57 316 71 365T115 453T189 516T292 540ZM327 431Q282
431 252 407T206 344T191 265Q191 224 206 186T251 124T327 99Q372 99 402 123T447 186T462 265Q462 306 447 344T402 406T327 431Z" />
<glyph unicode="&#xe6;" glyph-name="ae" horiz-adv-x="960" d="M239 -10Q185 -10 143 8T75 63T50 151Q50 225 105 268T261 312L394 313V338Q394 362 385 385T354 423T293 438Q258 438 237 427T206 400T192 374T189 362H63Q63 362 66 380T82 424T119 477T185 522T287
540Q346 540 384 524T443 486T469 446H472Q480 463 502 485T564 523T661 540Q731 540 786 509T873 416T906 261V227H527Q529 192 545 161T592 112T664 93Q698 93 720 104T756 130T774 156T779 167H901Q901 167 896 150T877 106T836 53T767 8T662 -10Q609 -10 570
4T505 37T465 76T446 105H441Q441 105 432 88T401 48T340 8T239 -10ZM526 313H779Q776 381 741 410T656 440Q603 440 567 407T526 313ZM270 83Q327 83 360 120T394 211V227L269 225Q222 225 200 205T178 154Q178 119 205 101T270 83Z" />
<glyph unicode="&#xe7;" glyph-name="ccedilla" horiz-adv-x="627" d="M311 -263Q284 -263 259 -260T233 -256V-185Q233 -185 245 -186T273 -189T304 -191Q347 -191 362 -176T378 -146Q378 -131 366 -121T332 -110Q309 -110 293 -119T277 -129L229 -81L277 -6Q203
5 154 46T81 145T56 265Q56 316 72 365T122 453T207 516T327 540Q395 540 440 520T511 470T551 411T568 361T572 341H446Q446 341 442 354T427 386T392 418T329 432Q282 432 251 409T204 347T188 265Q188 221 204 183T251 122T329 98Q368 98 391 112T426 144T442
175T446 189H572Q572 189 569 171T554 126T520 70T459 19T362 -8L335 -48Q346 -45 359 -45Q407 -45 434 -75T462 -146Q462 -175 446 -202T397 -246T311 -263Z" />
<glyph unicode="&#xe8;" glyph-name="egrave" horiz-adv-x="615" d="M268 605L160 786H287L369 606L268 605ZM320 -10Q252 -10 202 13T120 76T72 165T56 265Q56 316 71 364T118 453T199 516T315 540Q387 540 442 508T528 415T559 262V228H190Q193 174 226 135T320
95Q354 95 376 106T410 131T426 156T431 167H554Q554 167 550 150T531 106T491 53T424 8T320 -10ZM190 315H431Q428 377 394 407T314 437Q263 437 229 405T190 315Z" />
<glyph unicode="&#xe9;" glyph-name="eacute" horiz-adv-x="615" d="M366 605L265 606L347 786H474L366 605ZM320 -10Q252 -10 202 13T120 76T72 165T56 265Q56 316 71 364T118 453T199 516T315 540Q387 540 442 508T528 415T559 262V228H190Q193 174 226 135T320
95Q354 95 376 106T410 131T426 156T431 167H554Q554 167 550 150T531 106T491 53T424 8T320 -10ZM190 315H431Q428 377 394 407T314 437Q263 437 229 405T190 315Z" />
<glyph unicode="&#xea;" glyph-name="ecircumflex" horiz-adv-x="615" d="M135 599L262 775H369L496 599H388L316 704L243 599H135ZM320 -10Q252 -10 202 13T120 76T72 165T56 265Q56 316 71 364T118 453T199 516T315 540Q387 540 442 508T528 415T559 262V228H190Q193
174 226 135T320 95Q354 95 376 106T410 131T426 156T431 167H554Q554 167 550 150T531 106T491 53T424 8T320 -10ZM190 315H431Q428 377 394 407T314 437Q263 437 229 405T190 315Z" />
<glyph unicode="&#xeb;" glyph-name="edieresis" horiz-adv-x="615" d="M422 597Q388 597 366 619T344 673Q344 705 366 727T422 749Q456 749 478 727T500 673Q500 642 478 620T422 597ZM208 597Q173 597 152 619T130 673Q130 705 151 727T208 749Q241 749 263
727T286 673Q286 642 264 620T208 597ZM320 -10Q252 -10 202 13T120 76T72 165T56 265Q56 316 71 364T118 453T199 516T315 540Q387 540 442 508T528 415T559 262V228H190Q193 174 226 135T320 95Q354 95 376 106T410 131T426 156T431 167H554Q554 167 550 150T531
106T491 53T424 8T320 -10ZM190 315H431Q428 377 394 407T314 437Q263 437 229 405T190 315Z" />
<glyph unicode="&#xec;" glyph-name="igrave" horiz-adv-x="294" d="M99 606L-8 786H119L201 607L99 606ZM81 0V530H214V0H81Z" />
<glyph unicode="&#xed;" glyph-name="iacute" horiz-adv-x="294" d="M198 606L96 607L179 786H305L198 606ZM81 0V530H214V0H81Z" />
<glyph unicode="&#xee;" glyph-name="icircumflex" horiz-adv-x="294" d="M-33 599L94 775H201L328 599H220L147 704L75 599H-33ZM81 0V530H214V0H81Z" />
<glyph unicode="&#xef;" glyph-name="idieresis" horiz-adv-x="294" d="M254 597Q219 597 198 620T176 673Q176 705 197 727T254 750Q287 750 309 728T332 673Q332 642 310 620T254 597ZM39 597Q5 597 -17 620T-39 673Q-39 705 -17 727T39 750Q73 750 95 728T117
673Q117 642 95 620T39 597ZM81 0V530H214V0H81Z" />
<glyph unicode="&#xf0;" glyph-name="eth" horiz-adv-x="653" d="M325 -10Q256 -10 205 13T121 76T71 165T54 265Q54 315 69 362T115 446T189 506T292 529Q332 529 362 518T414 492Q385 537 346 574T267 641L155 576L110 655L181 697Q142 720 117 731T91 743L135
837Q135 837 156 829T212 804T291 761L412 832L459 753L375 704Q432 661 483 602T566 466T599 296Q599 211 569 142T478 31T325 -10ZM326 99Q373 99 403 123T448 186T463 265Q463 306 448 344T403 406T326 431Q280 431 250 407T204 344T189 265Q189 224 204 186T249
124T326 99Z" />
<glyph unicode="&#xf1;" glyph-name="ntilde" horiz-adv-x="607" d="M379 615Q351 615 332 624T299 646T273 668T246 678Q230 678 223 663T216 621H141Q141 653 148 686T177 740T238 762Q265 762 284 753T318 731T345 709T371 699Q386 699 393 714T400 757H475Q475
724 468 692T439 637T379 615ZM73 0V530H206V454H212Q220 468 237 488T284 524T360 540Q421 540 460 513T519 440T539 343V0H406V325Q406 368 382 399T310 430Q273 430 250 412T217 364T206 303V0H73Z" />
<glyph unicode="&#xf2;" glyph-name="ograve" horiz-adv-x="656" d="M280 606L172 787H299L382 607L280 606ZM328 -10Q240 -10 180 29T88 130T56 265Q56 337 87 399T179 501T328 540Q416 540 476 501T568 400T600 265Q600 193 569 131T477 29T328 -10ZM328 101Q372
101 403 124T450 184T466 265Q466 309 450 346T403 406T328 429Q284 429 253 406T206 346T190 265Q190 222 206 185T253 124T328 101Z" />
<glyph unicode="&#xf3;" glyph-name="oacute" horiz-adv-x="656" d="M379 606L277 607L359 787H486L379 606ZM328 -10Q240 -10 180 29T88 130T56 265Q56 337 87 399T179 501T328 540Q416 540 476 501T568 400T600 265Q600 193 569 131T477 29T328 -10ZM328 101Q372
101 403 124T450 184T466 265Q466 309 450 346T403 406T328 429Q284 429 253 406T206 346T190 265Q190 222 206 185T253 124T328 101Z" />
<glyph unicode="&#xf4;" glyph-name="ocircumflex" horiz-adv-x="656" d="M148 600L274 776H382L508 600H400L328 705L256 600H148ZM328 -10Q240 -10 180 29T88 130T56 265Q56 337 87 399T179 501T328 540Q416 540 476 501T568 400T600 265Q600 193 569 131T477
29T328 -10ZM328 101Q372 101 403 124T450 184T466 265Q466 309 450 346T403 406T328 429Q284 429 253 406T206 346T190 265Q190 222 206 185T253 124T328 101Z" />
<glyph unicode="&#xf5;" glyph-name="otilde" horiz-adv-x="656" d="M399 616Q372 616 353 625T320 647T293 669T267 679Q250 679 244 664T237 622H162Q162 654 169 686T198 741T259 763Q286 763 305 754T339 732T366 710T392 700Q407 700 413 715T420 757H496Q496
725 488 692T460 638T399 616ZM328 -10Q240 -10 180 29T88 130T56 265Q56 337 87 399T179 501T328 540Q416 540 476 501T568 400T600 265Q600 193 569 131T477 29T328 -10ZM328 101Q372 101 403 124T450 184T466 265Q466 309 450 346T403 406T328 429Q284 429 253
406T206 346T190 265Q190 222 206 185T253 124T328 101Z" />
<glyph unicode="&#xf6;" glyph-name="odieresis" horiz-adv-x="656" d="M434 598Q400 598 378 620T356 674Q356 706 378 728T434 750Q468 750 490 728T512 674Q512 643 490 621T434 598ZM220 598Q186 598 164 620T142 674Q142 706 164 728T220 750Q253 750 275
728T298 674Q298 643 276 621T220 598ZM328 -10Q240 -10 180 29T88 130T56 265Q56 337 87 399T179 501T328 540Q416 540 476 501T568 400T600 265Q600 193 569 131T477 29T328 -10ZM328 101Q372 101 403 124T450 184T466 265Q466 309 450 346T403 406T328 429Q284
429 253 406T206 346T190 265Q190 222 206 185T253 124T328 101Z" />
<glyph unicode="&#xf7;" glyph-name="divide" horiz-adv-x="698" d="M355 426Q320 426 298 449T276 505Q276 538 298 561T355 584Q389 584 411 561T433 505Q433 473 411 450T355 426ZM117 264V362H581V264H117ZM355 43Q320 43 298 66T276 121Q276 154 298 177T355
200Q389 200 411 177T433 121Q433 89 411 66T355 43Z" />
<glyph unicode="&#xf8;" glyph-name="oslash" horiz-adv-x="652" d="M103 -43L153 47Q105 85 80 143T54 265Q54 337 85 399T178 501T326 540Q378 540 423 525L450 572H545L496 486Q546 447 572 389T598 265Q598 193 567 131T475 29T326 -10Q272 -10 225 7L197
-43H103ZM188 265Q188 204 217 160L366 424Q347 429 326 429Q282 429 251 406T204 346T188 265ZM326 101Q371 101 401 124T448 184T464 265Q464 329 433 374L282 108Q303 101 326 101Z" />
<glyph unicode="&#xf9;" glyph-name="ugrave" horiz-adv-x="598" d="M252 606L145 786H272L354 607L252 606ZM241 -10Q158 -10 116 41T73 172V530H205V194Q205 151 228 126T293 100Q330 100 353 119T386 168T397 230V530H530V0H397V76H391Q381 58 363 38T315 4T241 -10Z" />
<glyph unicode="&#xfa;" glyph-name="uacute" horiz-adv-x="598" d="M351 606L249 607L332 786H459L351 606ZM241 -10Q158 -10 116 41T73 172V530H205V194Q205 151 228 126T293 100Q330 100 353 119T386 168T397 230V530H530V0H397V76H391Q381 58 363 38T315 4T241 -10Z" />
<glyph unicode="&#xfb;" glyph-name="ucircumflex" horiz-adv-x="598" d="M120 599L247 775H354L481 599H373L300 704L228 599H120ZM241 -10Q158 -10 116 41T73 172V530H205V194Q205 151 228 126T293 100Q330 100 353 119T386 168T397 230V530H530V0H397V76H391Q381
58 363 38T315 4T241 -10Z" />
<glyph unicode="&#xfc;" glyph-name="udieresis" horiz-adv-x="598" d="M407 597Q373 597 351 620T329 673Q329 705 351 727T407 750Q440 750 462 728T485 673Q485 642 463 620T407 597ZM193 597Q158 597 137 620T115 673Q115 705 136 727T193 750Q226 750 248
728T271 673Q271 642 249 620T193 597ZM241 -10Q158 -10 116 41T73 172V530H205V194Q205 151 228 126T293 100Q330 100 353 119T386 168T397 230V530H530V0H397V76H391Q381 58 363 38T315 4T241 -10Z" />
<glyph unicode="&#xfd;" glyph-name="yacute" horiz-adv-x="592" d="M345 606L244 607L326 786H453L345 606ZM98 -195Q72 -195 56 -193T39 -191V-82Q39 -82 54 -83T89 -85Q140 -85 173 -69T230 -7L31 530H166L299 152L430 530H565L371 13Q331 -93 268 -144T98 -195Z" />
<glyph unicode="&#xfe;" glyph-name="thorn" horiz-adv-x="662" d="M72 -196V760H205V456H212Q219 468 237 488T289 524T373 540Q433 540 477 517T550 454T593 365T608 265Q608 214 594 165T550 77T477 14T373 -10Q322 -10 289 6T238 42T212 74H205V-196H72ZM203
265Q203 224 218 186T263 124T338 99Q384 99 414 123T459 186T474 265Q474 306 459 344T414 406T338 431Q293 431 263 407T218 344T203 265Z" />
<glyph unicode="&#xff;" glyph-name="ydieresis" horiz-adv-x="592" d="M401 597Q367 597 345 620T323 673Q323 705 345 727T401 750Q435 750 457 728T479 673Q479 642 457 620T401 597ZM187 597Q152 597 131 620T109 673Q109 705 130 727T187 750Q220 750 242
728T265 673Q265 642 243 620T187 597ZM98 -195Q72 -195 56 -193T39 -191V-82Q39 -82 54 -83T89 -85Q140 -85 173 -69T230 -7L31 530H166L299 152L430 530H565L371 13Q331 -93 268 -144T98 -195Z" />
<glyph unicode="&#x2013;" glyph-name="endash" horiz-adv-x="696" d="M116 259V366H580V259H116Z" />
<glyph unicode="&#x2014;" glyph-name="emdash" horiz-adv-x="868" d="M116 259V366H751V259H116Z" />
<glyph unicode="&#x2018;" glyph-name="quoteleft" horiz-adv-x="270" d="M213 740L134 611Q165 608 185 586T206 533Q206 499 183 477T126 455Q92 455 69 477T45 536Q45 569 69 610T148 730L155 740H213Z" />
<glyph unicode="&#x2019;" glyph-name="quoteright" horiz-adv-x="228" d="M40 465L119 595Q88 597 68 619T47 673Q47 707 70 728T126 750Q161 750 184 729T208 669Q208 637 184 595T105 476L98 465H40Z" />
<glyph unicode="&#x201a;" glyph-name="quotesinglbase" horiz-adv-x="300" d="M82 -137L161 -8Q130 -6 110 16T89 70Q89 104 112 125T169 147Q203 147 226 126T250 66Q250 34 226 -8T147 -127L140 -137H82Z" />
<glyph unicode="&#x201c;" glyph-name="quotedblleft" horiz-adv-x="420" d="M164 740L85 611Q116 608 136 586T156 533Q156 499 133 477T77 455Q42 455 19 477T-5 536Q-5 569 19 610T98 730L106 740H164ZM368 740L289 611Q320 608 340 586T361 533Q361 499 338
477T281 455Q247 455 223 477T199 536Q199 569 223 610T303 730L310 740H368Z" />
<glyph unicode="&#x201d;" glyph-name="quotedblright" horiz-adv-x="440" d="M256 465L335 595Q304 597 284 619T263 673Q263 707 286 728T343 750Q377 750 401 729T425 669Q425 637 401 595T321 476L314 465H256ZM52 465L131 595Q100 597 80 619T59 673Q59 707
82 728T138 750Q173 750 196 729T220 669Q220 637 196 595T117 476L110 465H52Z" />
<glyph unicode="&#x201e;" glyph-name="quotedblbase" horiz-adv-x="536" d="M287 -137L366 -8Q335 -6 315 16T294 70Q294 104 317 125T374 147Q408 147 431 126T455 66Q455 34 431 -8T352 -127L345 -137H287ZM82 -137L161 -8Q130 -6 110 16T90 70Q90 104 113
125T169 147Q204 147 227 126T251 66Q251 34 227 -8T148 -127L140 -137H82Z" />
<glyph unicode="&#x2022;" glyph-name="bullet" horiz-adv-x="564" d="M282 214Q234 214 197 236T138 297T117 380Q117 425 138 462T196 522T282 544Q329 544 366 522T425 463T447 380Q447 334 426 297T367 237T282 214Z" />
<glyph unicode="&#x2039;" glyph-name="guilsinglleft" horiz-adv-x="432" d="M394 528L180 312L394 94H253L36 312L253 528H394Z" />
<glyph unicode="&#x203a;" glyph-name="guilsinglright" horiz-adv-x="432" d="M38 94L251 311L38 528H179L396 311L179 94H38Z" />
</font>
</defs>
</svg>
