<svg width="1168" height="1351" fill="none" xmlns="http://www.w3.org/2000/svg"><path fill-rule="evenodd" clip-rule="evenodd" d="M624.186 24.106C736.568 56.397 782.551 185.386 875.512 256.3c89.467 68.249 236.368 69.536 280.108 173.199 43.82 103.865-40.38 213.693-71.12 322.149-32.33 114.112-40.83 234.143-113.172 328.142-91.64 119.08-197.859 287.27-347.142 269.98-153.492-17.78-177.54-241.76-293.234-344.16-97.951-86.687-286.145-77.79-324.719-202.758C-32.43 677.593 119.8 576.117 159.853 451.295c40.299-125.588-16.739-288.233 80.339-377.545 97.352-89.564 256.84-86.18 383.994-49.644Z" fill="url(#a)"/><defs><linearGradient id="a" x1="584" y1="1343" x2="983.003" y2="528.281" gradientUnits="userSpaceOnUse"><stop stop-color="#FDFAF4"/><stop offset="1" stop-color="#FFE8D6"/></linearGradient></defs></svg>