<svg width="24" height="15" fill="none" xmlns="http://www.w3.org/2000/svg"><g clip-path="url(#a)" fill="#1C96E8"><path d="m16.931 12.258.143-.238 1.624-1.04-.085.038 1.61-.376h-.1l1.44.038c.627.075.855.388.655.927-.598.413-.726.526-.37.325l-4.276.501c.172.075.214.075.114 0-.1-.075-.07-.063.072.063.142.262 0-.113.1.213l5.786-1.753c-.129-.1-.157-.113-.072-.05.143.1.129.237-.028.438l-5.615.976c-.143-.175.014.125.028.188-.028-.188 0 .013-.028.113-.043.163 0 .288 0 .088-.128.15-.128.162 0 .037.1-.113.228-.188.37-.25l1.596-.476c.172-.025.343-.025.514-.013.128 0 .527.138.128-.012-.185-.075-.314-.15-.556-.4-.884-.902-1.097-2.405-1.24-3.57a9.031 9.031 0 0 1 .257-3.48c.085-.3.185-.614.313-.902.043-.112.1-.212.143-.313.213-.463-.157.213.128-.225.157-.238.3-.488.47-.726.1-.138.214-.276.328-.4.057-.064.428-.427.128-.139.3-.275.699-.65.57-1.076-.128-.401-.698-.626-1.111-.69-1.34-.212-2.993.151-4.033.952-3.307 2.542-3.877 6.599-2.88 10.192.257.915.685 1.904 1.454 2.592 1.012.902 2.509 1.252 3.962 1.19 1.782-.088 3.891-.701 4.974-2.054.684-.864.77-1.815.1-2.704-.485-.651-2.152-.476-2.793-.363-.984.175-2.238.563-2.808 1.34-.428.575-.513 1.314.114 1.803.94.726 2.537.488 3.606.175.784-.238 2.494-.927 2.195-1.916-.841-2.83-6.1-1.615-7.369.35-.67 1.04.214 1.741 1.34 1.929 1.055.188 2.266-.013 3.235-.4.713-.276 1.796-.79 1.896-1.578.128-1.165-1.668-1.253-2.608-1.14-.784.1-1.61.288-2.28.676-.428.25-1.084.626-1.14 1.115v.025ZM4.347 12.258l.142-.238 1.625-1.04-.086.038 1.61-.376H7.54l1.44.038c.627.075.855.388.655.927-.598.413-.727.526-.37.325l-4.276.501c.171.075.214.075.114 0-.1-.075-.071-.063.071.063.143.262 0-.113.1.213l5.815-1.753c-.128-.1-.157-.113-.071-.05.142.1.128.237-.029.438l-5.615.976c-.143-.175.014.125.028.188-.028-.188 0 .013-.028.113-.043.163 0 .288 0 .088-.128.15-.128.162 0 .037.1-.113.228-.188.37-.25l1.597-.476c.17-.025.342-.025.513-.013.128 0 .527.138.128-.012-.185-.075-.314-.15-.556-.4-.883-.902-1.097-2.405-1.24-3.57a9.03 9.03 0 0 1 .257-3.48c.085-.3.185-.614.313-.902.043-.112.1-.212.143-.313.214-.463-.157.213.128-.225.157-.238.3-.488.47-.726.1-.138.214-.276.328-.4.057-.064.428-.427.128-.139.3-.275.699-.65.57-1.076-.128-.401-.698-.626-1.111-.69-1.34-.212-2.993.151-4.033.952C.07 3.568-.5 7.625.498 11.218c.257.915.685 1.904 1.454 2.592.998.902 2.495 1.252 3.934 1.19 1.796-.088 3.89-.689 4.974-2.054.684-.864.77-1.815.1-2.704-.485-.651-2.152-.476-2.794-.363-.983.175-2.237.563-2.807 1.34-.428.575-.513 1.314.114 1.803.94.726 2.536.488 3.605.175.798-.238 2.509-.927 2.224-1.916-.841-2.83-6.1-1.615-7.369.35-.67 1.04.214 1.741 1.34 1.929 1.055.188 2.266-.013 3.235-.4.713-.276 1.796-.79 1.896-1.578.128-1.165-1.668-1.253-2.608-1.14-.784.1-1.61.288-2.28.676-.428.25-1.084.626-1.14 1.115l-.03.025Z"/></g><defs><clipPath id="a"><path fill="#fff" d="M24 15H0V0h24z"/></clipPath></defs></svg>