<svg xmlns="http://www.w3.org/2000/svg" width="31" height="30" viewBox="0 0 31 30" fill="none">
  <g clip-path="url(#clip0_193_3296)">
    <path d="M19.5643 18.9256C20.4057 18.9857 23.7416 18.5575 26.3937 19.722C29.0459 20.8865 29.6394 22.8174 28.9106 23.4035C28.2194 23.9519 23.2457 23.6138 22.1112 23.2006C20.9767 22.7874 19.5643 18.9256 19.5643 18.9256Z" fill="#76A4D7"/>
    <path d="M19.5792 19.6168C19.5792 19.6168 25.9504 18.9482 29.181 15.4996C32.4117 12.0511 29.8572 7.43802 27.8963 4.77837C25.9353 2.11871 22.344 -0.796389 20.045 0.20286C17.746 1.20211 15.4845 13.2757 15.7175 13.7641C15.9504 14.2524 19.4214 19.3539 19.5792 19.6168Z" fill="#4684C9"/>
    <g style="mix-blend-mode:multiply" opacity="0.42">
      <path d="M27.8962 4.77837C25.9352 2.11871 22.3439 -0.796389 20.0449 0.20286C19.7294 0.338096 19.4213 0.683701 19.1133 1.17957C19.1283 1.27724 19.1358 1.38242 19.1133 1.48761C18.9255 3.10294 22.3665 3.47108 23.3958 4.27499C25.0111 5.55222 24.38 6.87454 24.5152 8.64013C24.643 10.3231 26.3259 11.5402 26.7917 13.148C27.0697 14.1097 27.0922 15.1089 26.8218 16.0706C26.664 16.6491 26.4085 17.1901 26.093 17.701C27.22 17.1375 28.3094 16.4162 29.1659 15.4921C32.3965 12.0436 29.8421 7.43051 27.8811 4.77085L27.8962 4.77837Z" fill="#4684C9"/>
    </g>
    <g style="mix-blend-mode:soft-light">
      <path d="M17.8137 12.2239C18.8655 11.0819 19.3915 9.63937 19.6244 8.12171C19.6469 7.94891 19.9324 7.98648 19.9249 8.15177C19.8949 9.81217 19.1736 11.2547 18.0692 12.4718C17.9114 12.6446 17.6559 12.3967 17.8062 12.2239H17.8137Z" fill="#A1C0E3"/>
    </g>
    <g style="mix-blend-mode:soft-light">
      <path d="M19.5641 13.2682C20.4055 12.7724 21.1343 12.1187 21.8556 11.4576C21.9983 11.3298 22.1862 11.5102 22.0735 11.6604C21.4424 12.4643 20.6309 13.0503 19.7519 13.5612C19.5566 13.6739 19.3762 13.3809 19.5641 13.2607V13.2682Z" fill="#A1C0E3"/>
    </g>
    <g style="mix-blend-mode:soft-light">
      <path d="M20.4357 14.8084C21.3447 14.7183 22.1862 14.4403 23.0427 14.1322C23.2155 14.0721 23.3282 14.3276 23.1704 14.4252C22.344 14.9286 21.4048 15.139 20.4432 15.2066C20.1877 15.2216 20.1877 14.8385 20.4357 14.8159V14.8084Z" fill="#A1C0E3"/>
    </g>
    <g style="mix-blend-mode:soft-light">
      <path d="M21.1644 16.822C22.0659 16.8445 22.8924 16.5966 23.7339 16.2885C23.8992 16.2284 23.9968 16.4688 23.8541 16.559C23.0577 17.0849 22.111 17.2427 21.1719 17.2126C20.9164 17.2126 20.9089 16.8069 21.1644 16.8144V16.822Z" fill="#A1C0E3"/>
    </g>
    <g style="mix-blend-mode:soft-light">
      <path d="M20.7588 10.7213C21.4125 10.0601 21.8407 9.28625 22.2765 8.46732C22.3591 8.31706 22.6296 8.40722 22.5695 8.58002C22.2615 9.48911 21.6454 10.2555 20.9692 10.9166C20.834 11.0443 20.6311 10.849 20.7588 10.7138V10.7213Z" fill="#A1C0E3"/>
    </g>
    <g style="mix-blend-mode:soft-light">
      <path d="M17.8437 8.99325C18.0842 8.01654 18.1443 7.01729 18.2795 6.01804C18.302 5.86778 18.5124 5.91286 18.5274 6.04809C18.6176 7.07739 18.3922 8.06913 18.1142 9.06086C18.0691 9.23367 17.8062 9.16605 17.8437 8.99325Z" fill="#A1C0E3"/>
    </g>
    <g style="mix-blend-mode:soft-light">
      <path d="M22.4643 12.7649C23.0503 12.5845 23.5537 12.2389 24.0345 11.8633C24.1848 11.7431 24.3276 11.976 24.2299 12.1037C23.8167 12.6446 23.2231 12.9677 22.5845 13.148C22.3366 13.2232 22.2239 12.84 22.4718 12.7649H22.4643Z" fill="#A1C0E3"/>
    </g>
    <g style="mix-blend-mode:soft-light">
      <path d="M21.3372 7.79865C21.4274 7.49061 21.51 7.19008 21.6678 6.90458C21.7354 6.78437 21.8857 6.86702 21.8781 6.98723C21.8406 7.29526 21.7504 7.58076 21.6452 7.87378C21.5776 8.06161 21.2846 7.99399 21.3372 7.79865Z" fill="#A1C0E3"/>
    </g>
    <g style="mix-blend-mode:soft-light">
      <path d="M20.3155 5.95042C20.3381 5.55222 20.3381 5.15402 20.4132 4.76334C20.4432 4.59054 20.6987 4.63562 20.7062 4.79339C20.7287 5.17656 20.6762 5.55973 20.6461 5.93539C20.6311 6.14576 20.308 6.16078 20.3155 5.9429V5.95042Z" fill="#A1C0E3"/>
    </g>
    <g style="mix-blend-mode:soft-light">
      <path d="M19.2036 3.64388C19.2261 3.85425 19.2562 4.0571 19.2787 4.26747C19.3012 4.43276 19.0308 4.44027 19.0157 4.26747C18.9932 4.0571 18.9707 3.85425 18.9556 3.64388C18.9406 3.47859 19.1885 3.47859 19.2036 3.64388Z" fill="#A1C0E3"/>
    </g>
    <g style="mix-blend-mode:soft-light">
      <path d="M22.5995 10.4658C22.7347 10.2555 22.8699 10.0451 22.9977 9.83472C23.1404 9.60932 23.501 9.81218 23.3583 10.0301C23.2231 10.2404 23.0878 10.4508 22.9601 10.6612C22.8174 10.8866 22.4567 10.6837 22.5995 10.4658Z" fill="#A1C0E3"/>
    </g>
    <g style="mix-blend-mode:soft-light">
      <path d="M22.93 6.58152C22.96 6.43877 22.9901 6.30353 23.0277 6.16078C23.0652 6.01052 23.2981 6.07063 23.2606 6.22089C23.2305 6.36364 23.2005 6.49888 23.1629 6.64163C23.1253 6.79189 22.8924 6.73178 22.93 6.58152Z" fill="#A1C0E3"/>
    </g>
    <g style="mix-blend-mode:soft-light">
      <path d="M17.7835 13.5162C17.9187 13.426 18.0465 13.3358 18.1892 13.2757C18.3094 13.2231 18.3695 13.3884 18.3094 13.4711C18.2118 13.5913 18.1066 13.6814 17.9939 13.7791C17.8136 13.9369 17.5882 13.6589 17.7835 13.5237V13.5162Z" fill="#A1C0E3"/>
    </g>
    <g style="mix-blend-mode:soft-light">
      <path d="M18.5876 14.9061C18.7829 14.831 18.9482 14.7183 19.1135 14.5905C19.2412 14.4929 19.3689 14.6882 19.2788 14.7934C19.121 14.9887 18.9106 15.1014 18.6702 15.1766C18.4899 15.2292 18.4148 14.9662 18.5876 14.9061Z" fill="#A1C0E3"/>
    </g>
    <g style="mix-blend-mode:soft-light">
      <path d="M19.6544 16.2134C19.8122 16.1758 19.9624 16.1382 20.1202 16.0932C20.3155 16.0406 20.4057 16.3411 20.2104 16.3937C20.0526 16.4313 19.9023 16.4688 19.7445 16.5064C19.5567 16.5515 19.4666 16.2585 19.6544 16.2134Z" fill="#A1C0E3"/>
    </g>
    <g style="mix-blend-mode:soft-light">
      <path d="M24.1097 14.9286C24.4628 14.7408 24.8084 14.553 25.1766 14.3877C25.3043 14.3276 25.3869 14.5379 25.2742 14.6056C24.9437 14.8084 24.6056 14.9887 24.26 15.1691C24.0947 15.2517 23.9444 15.0113 24.1097 14.9286Z" fill="#A1C0E3"/>
    </g>
    <g style="mix-blend-mode:soft-light">
      <path d="M21.4725 18.257C21.7505 18.2044 22.0285 18.1443 22.299 18.0917C22.4868 18.0541 22.5695 18.3396 22.3816 18.3772C22.1036 18.4298 21.8257 18.4899 21.5552 18.5425C21.3674 18.58 21.2847 18.2945 21.4725 18.257Z" fill="#A1C0E3"/>
    </g>
    <g style="mix-blend-mode:soft-light">
      <path d="M25.2743 16.3336C25.5372 16.1683 25.7551 15.9504 26.003 15.7776C26.1082 15.7025 26.2585 15.8452 26.1909 15.9504C26.0106 16.2434 25.7401 16.4388 25.4546 16.6191C25.2668 16.7318 25.094 16.4463 25.2743 16.3336Z" fill="#A1C0E3"/>
    </g>
    <g style="mix-blend-mode:soft-light">
      <path d="M22.7574 20.1428C23.7867 20.5034 24.9512 20.7213 25.9129 21.2171C26.0331 21.2772 25.9505 21.435 25.8303 21.4275C24.7709 21.3073 23.6815 20.7889 22.6823 20.4283C22.5095 20.3681 22.5771 20.0826 22.7499 20.1428H22.7574Z" fill="#C0D5ED"/>
    </g>
    <g style="mix-blend-mode:soft-light">
      <path d="M24.1548 22.006C24.6807 22.1563 25.1465 22.3441 25.6273 22.5996C25.725 22.6521 25.6649 22.8024 25.5597 22.7799C25.0263 22.6521 24.553 22.4793 24.0646 22.2389C23.9369 22.1788 24.0195 21.9609 24.1548 22.006Z" fill="#C0D5ED"/>
    </g>
    <g style="mix-blend-mode:soft-light">
      <path d="M26.7093 20.6311C27.0098 20.7663 27.3028 20.8866 27.5808 21.0669C27.6784 21.1345 27.6259 21.3223 27.4981 21.2772C27.1751 21.1721 26.8896 21.0068 26.589 20.849C26.4463 20.7739 26.5665 20.5635 26.7093 20.6311Z" fill="#C0D5ED"/>
    </g>
    <g style="mix-blend-mode:soft-light">
      <path d="M26.8069 22.0586C27.145 22.2014 27.438 22.3742 27.7084 22.6296C27.7986 22.7122 27.6859 22.885 27.5732 22.8099C27.2877 22.6146 27.0022 22.4192 26.6942 22.2615C26.5589 22.1938 26.6716 21.9985 26.8069 22.0586Z" fill="#C0D5ED"/>
    </g>
    <g style="mix-blend-mode:soft-light">
      <path d="M26.2058 8.6251C26.3411 9.20361 27.2201 8.5124 26.7468 8.17431C26.6191 8.08415 26.4312 8.10669 26.3786 8.27198C26.3636 8.32457 26.3636 8.39219 26.4012 8.42976C26.4312 8.48986 26.4838 8.48986 26.5589 8.42976C26.5439 8.3396 26.5289 8.30955 26.4988 8.34711C26.5514 8.18182 26.852 8.12172 26.8895 8.3396C26.9346 8.60256 26.7393 8.84298 26.4538 8.79039C26.1608 8.7378 26.0481 8.38468 26.2133 8.15177C26.3861 7.91135 26.7468 7.93389 26.9196 8.1668C27.0999 8.3997 26.9872 8.74531 26.7393 8.88055C26.0931 9.21864 25.6724 8.28701 26.1232 7.84373C26.604 7.3704 27.3629 7.9414 27.2426 8.53494C27.175 8.87303 26.8745 9.16605 26.5214 9.18107C26.1983 9.1961 25.9354 8.96319 25.9729 8.63261C25.9879 8.5124 26.1833 8.5124 26.2058 8.63261V8.6251Z" fill="#A1C0E3"/>
    </g>
    <g style="mix-blend-mode:soft-light">
      <path d="M27.761 11.2998C27.761 11.2998 27.7761 11.2848 27.7836 11.2848C27.7836 11.4576 27.5807 11.4951 27.4906 11.3749C27.175 10.9692 28.0465 10.6837 28.1141 11.2622C28.1667 11.728 27.4605 11.728 27.5281 11.2772C27.5507 11.1345 27.761 11.1721 27.7685 11.3073L27.761 11.2998Z" fill="#A1C0E3"/>
    </g>
    <g style="mix-blend-mode:soft-light">
      <path d="M29.0608 9.63186C29.0533 9.67693 29.0458 9.72201 29.0383 9.75958C29.0984 9.70699 29.166 9.66191 29.2261 9.60932C29.1885 9.7145 29.1435 9.81968 29.0909 9.91736C29.0232 10.0526 28.7903 10 28.7978 9.84222C28.7978 9.72953 28.8204 9.61683 28.8354 9.51165C28.8504 9.40646 28.9782 9.33884 29.0758 9.3689C29.2937 9.429 29.444 9.74455 29.2111 9.90233C28.9932 10.0526 28.7528 9.83471 28.8054 9.6018C28.8354 9.45905 29.0383 9.48911 29.0533 9.63186H29.0608Z" fill="#A1C0E3"/>
    </g>
    <g style="mix-blend-mode:soft-light">
      <path d="M28.9782 12.7198C29.0083 12.7573 29.0759 12.7724 29.106 12.7273C29.1586 12.6597 28.8656 12.6521 28.8956 12.5545C28.9106 12.5094 28.9482 12.4493 29.0008 12.4418C29.0083 12.4418 29.0158 12.4418 29.0233 12.4418C29.1435 12.4192 29.2337 12.4643 29.2788 12.577C29.429 12.9301 28.9482 13.1555 28.7153 12.8851C28.4598 12.5845 28.7979 12.1638 29.1511 12.2464C29.4591 12.3141 29.6544 12.7198 29.429 12.9752C29.2337 13.1931 28.858 13.133 28.7378 12.87C28.6627 12.7047 28.8656 12.577 28.9782 12.7198Z" fill="#A1C0E3"/>
    </g>
    <g style="mix-blend-mode:soft-light">
      <path d="M26.2509 5.45455C26.2509 5.45455 26.2659 5.4846 26.2734 5.49963C26.2359 5.46958 26.2058 5.43201 26.1683 5.40196C26.281 5.43201 26.3411 5.53719 26.3185 5.65741C26.3035 5.72502 26.2434 5.76259 26.1833 5.7701C26.1683 5.7701 26.1607 5.7701 26.1457 5.7701C26.0781 5.7701 26.018 5.73254 25.9804 5.67994C25.7175 5.25921 26.4237 4.94366 26.5589 5.41698C26.6867 5.86026 25.9579 5.96544 25.9879 5.49963C25.9955 5.34185 26.1983 5.3118 26.2584 5.45455H26.2509Z" fill="#A1C0E3"/>
    </g>
    <g style="mix-blend-mode:soft-light">
      <path d="M23.1856 2.40421C23.2082 2.64463 23.2908 2.66717 23.4261 2.47183C23.4486 2.38918 23.4261 2.31405 23.366 2.24643C23.1932 2.16379 23.3284 2.42675 23.2908 2.43426C23.2457 2.47183 23.2082 2.50188 23.1631 2.53193C23.1631 2.49437 23.1406 2.46431 23.103 2.43426C23.1856 2.46431 23.2683 2.49437 23.3509 2.53193C23.2533 2.5695 23.1706 2.58452 23.088 2.50188C22.9903 2.39669 23.0053 2.23892 23.1255 2.16379C23.1406 2.15627 23.1556 2.14125 23.1706 2.13373C23.2683 2.06612 23.411 2.11119 23.4711 2.20887C23.5838 2.38918 23.6665 2.64463 23.4711 2.8024C23.2908 2.96018 23.0204 2.86251 22.9077 2.66717C22.6823 2.284 22.9377 1.58527 23.4636 1.83321C23.8768 2.02855 23.9069 2.69722 23.4636 2.87754C23.0579 3.05034 22.6747 2.59204 22.9678 2.24643C23.0579 2.14125 23.2382 2.26897 23.1631 2.38918L23.1856 2.40421Z" fill="#A1C0E3"/>
    </g>
    <g style="mix-blend-mode:soft-light">
      <path d="M21.0519 1.84823C21.0519 1.84823 21.0443 1.86326 21.0368 1.87829C21.0368 1.82569 21.0368 1.78061 21.0368 1.72802C21.1345 1.69046 21.1721 1.69797 21.1646 1.75807C21.1646 1.7731 21.1646 1.78813 21.1646 1.81067C21.1796 1.90834 21.0819 1.97596 20.9993 1.98347C20.7739 2.02104 20.6687 1.76559 20.7513 1.58527C20.849 1.3749 21.1345 1.34485 21.2773 1.52517C21.5853 1.93088 20.834 2.29902 20.7664 1.81067C20.7588 1.75056 20.8114 1.67543 20.8715 1.66792C20.8791 1.66792 20.8941 1.66792 20.9016 1.66792C21.0143 1.64538 21.112 1.75056 21.0594 1.86326L21.0519 1.84823Z" fill="#A1C0E3"/>
    </g>
    <g style="mix-blend-mode:soft-light">
      <path d="M25.3268 3.53119C25.3268 3.53119 25.3043 3.58378 25.2892 3.60632C25.3343 3.63637 25.3719 3.66643 25.417 3.70399C25.432 3.70399 25.4395 3.70399 25.4395 3.69648C25.3268 3.79415 25.139 3.74156 25.1315 3.57627C25.1164 3.32082 25.3494 3.21564 25.5672 3.31331C25.6349 3.34336 25.6724 3.42601 25.6799 3.49362C25.6799 3.6514 25.5973 3.75658 25.4395 3.79415C25.2817 3.83172 25.1916 3.62886 25.3268 3.5387V3.53119Z" fill="#A1C0E3"/>
    </g>
    <g style="mix-blend-mode:soft-light">
      <path d="M27.8962 6.6191C27.8962 6.6191 27.8661 6.64163 27.8511 6.65666C27.8811 6.69423 27.9187 6.73931 27.9488 6.77687C27.9488 6.77687 27.9488 6.77687 27.9412 6.76936C27.791 6.84449 27.5881 6.73179 27.6407 6.55148C27.7083 6.30354 28.0464 6.21339 28.2042 6.44629C28.362 6.6792 28.1366 6.91211 27.9037 6.88957C27.7309 6.87454 27.7234 6.63412 27.9037 6.6191H27.8962Z" fill="#A1C0E3"/>
    </g>
    <g style="mix-blend-mode:soft-light">
      <path d="M27.9714 14.5905C27.9564 14.5455 27.9489 14.4929 27.9339 14.4478C27.9865 14.4853 28.0315 14.5154 28.0841 14.553C28.039 14.553 27.9865 14.553 27.9414 14.5455C28.0015 14.4853 28.0616 14.4177 28.1217 14.3576C28.1292 14.4027 28.1517 14.4328 28.1893 14.4628C28.2569 14.5379 28.2344 14.6582 28.1367 14.6882C27.9113 14.7558 27.7686 14.583 27.7611 14.3727C27.7535 14.2299 27.9113 14.1473 28.0315 14.2074C28.0766 14.2299 28.1217 14.2524 28.1593 14.275C28.2043 14.2975 28.2419 14.3501 28.2344 14.4027C28.2344 14.4553 28.2269 14.5004 28.2194 14.553C28.2119 14.6807 28.0165 14.7333 27.9789 14.5905H27.9714Z" fill="#A1C0E3"/>
    </g>
    <path d="M18.5498 19.5868C18.3244 20.4057 16.8068 23.4035 17.0172 26.2885C17.2275 29.1811 18.8504 30.3832 19.6468 29.8873C20.3981 29.4215 21.7429 24.6206 21.7279 23.411C21.7204 22.2014 18.5498 19.5868 18.5498 19.5868Z" fill="#76A4D7"/>
    <path d="M19.196 19.8347C19.196 19.8347 16.4387 25.6123 12.1036 27.5056C7.76855 29.3914 4.28245 25.447 2.4267 22.7123C0.570951 19.9775 -0.969244 15.6123 0.73624 13.7791C2.44172 11.9534 14.583 13.8543 14.9661 14.2374C15.3493 14.6281 18.9932 19.5943 19.196 19.8347Z" fill="#4684C9"/>
    <g style="mix-blend-mode:multiply" opacity="0.42">
      <path d="M2.42673 22.7123C0.570985 19.97 -0.96921 15.6123 0.736275 13.7791C0.969182 13.5312 1.39743 13.3509 1.96843 13.2307C2.05859 13.2757 2.14875 13.3133 2.26144 13.3434C3.84672 13.7115 3.0353 17.0774 3.45603 18.3096C4.1247 20.263 5.58226 20.1052 7.19758 20.8189C8.74529 21.5026 9.3238 23.5011 10.6837 24.4779C11.4951 25.0564 12.4267 25.417 13.4335 25.4846C14.0345 25.5297 14.6281 25.4696 15.2141 25.3494C14.305 26.2209 13.2607 27.0023 12.1037 27.5132C7.76858 29.399 4.28248 25.4546 2.42673 22.7198V22.7123Z" fill="#4684C9"/>
    </g>
    <g style="mix-blend-mode:soft-light">
      <path d="M12.8174 15.695C11.3899 16.3035 9.84972 16.3186 8.34709 16.0256C8.17429 15.9955 8.11418 16.266 8.27947 16.3186C9.85723 16.8445 11.4575 16.6492 12.9677 16.018C13.178 15.9279 13.0353 15.5973 12.8249 15.6875L12.8174 15.695Z" fill="#A1C0E3"/>
    </g>
    <g style="mix-blend-mode:soft-light">
      <path d="M13.2155 17.701C12.4642 18.3246 11.6077 18.7979 10.7437 19.2562C10.5709 19.3464 10.6836 19.5868 10.8639 19.5267C11.8331 19.2036 12.6595 18.6326 13.4334 17.9715C13.6062 17.8287 13.3883 17.5507 13.2155 17.701Z" fill="#A1C0E3"/>
    </g>
    <g style="mix-blend-mode:soft-light">
      <path d="M14.38 19.0308C13.9893 19.8497 13.4484 20.556 12.8699 21.2622C12.7572 21.405 12.96 21.5928 13.1028 21.4801C13.8541 20.864 14.365 20.0526 14.7481 19.1736C14.8533 18.9407 14.4852 18.8054 14.38 19.0308Z" fill="#A1C0E3"/>
    </g>
    <g style="mix-blend-mode:soft-light">
      <path d="M16.0329 20.3982C15.7549 21.2622 15.2441 21.9459 14.6731 22.6446C14.5604 22.7799 14.7557 22.9527 14.8909 22.855C15.6573 22.284 16.1156 21.4425 16.4011 20.5485C16.4762 20.3081 16.1081 20.1653 16.0329 20.4057V20.3982Z" fill="#A1C0E3"/>
    </g>
    <g style="mix-blend-mode:soft-light">
      <path d="M10.4206 17.9715C9.57908 18.3697 8.70756 18.5049 7.79095 18.6476C7.61815 18.6777 7.61815 18.9557 7.79847 18.9632C8.75264 18.9782 9.68427 18.6552 10.5333 18.2344C10.6985 18.1518 10.5858 17.8888 10.413 17.9715H10.4206Z" fill="#A1C0E3"/>
    </g>
    <g style="mix-blend-mode:soft-light">
      <path d="M9.75956 14.6431C8.76031 14.5455 7.79112 14.2675 6.81441 14.0571C6.67166 14.0271 6.63409 14.2449 6.7543 14.2975C7.70096 14.7258 8.70772 14.846 9.72951 14.9136C9.90982 14.9286 9.93236 14.6582 9.75956 14.6356V14.6431Z" fill="#A1C0E3"/>
    </g>
    <g style="mix-blend-mode:soft-light">
      <path d="M11.7729 20.2555C11.4048 20.7513 10.9164 21.1045 10.398 21.435C10.2327 21.5402 10.4055 21.7506 10.5558 21.698C11.2019 21.4951 11.7053 21.0368 12.096 20.4959C12.2462 20.2855 11.9307 20.0526 11.7729 20.2555Z" fill="#A1C0E3"/>
    </g>
    <g style="mix-blend-mode:soft-light">
      <path d="M7.46795 17.5432C7.14489 17.5207 6.83685 17.5056 6.51378 17.5507C6.37855 17.5733 6.4086 17.7461 6.51378 17.7761C6.82182 17.8437 7.11484 17.8512 7.43039 17.8588C7.63324 17.8588 7.6633 17.5582 7.46044 17.5432H7.46795Z" fill="#A1C0E3"/>
    </g>
    <g style="mix-blend-mode:soft-light">
      <path d="M6.07059 15.9579C5.68742 15.8452 5.31177 15.71 4.92108 15.6499C4.74828 15.6274 4.7032 15.8753 4.85346 15.9354C5.20658 16.0857 5.58224 16.1608 5.95038 16.2585C6.15324 16.3111 6.27345 16.0105 6.07059 15.9504V15.9579Z" fill="#A1C0E3"/>
    </g>
    <g style="mix-blend-mode:soft-light">
      <path d="M4.2599 14.1398L4.82338 14.4177C4.97365 14.4929 5.07132 14.2449 4.92106 14.1698C4.73323 14.0797 4.5454 13.9895 4.35757 13.8993C4.20731 13.8317 4.12466 14.0646 4.26741 14.1322L4.2599 14.1398Z" fill="#A1C0E3"/>
    </g>
    <g style="mix-blend-mode:soft-light">
      <path d="M9.56403 19.6168C9.32361 19.6694 9.07568 19.7295 8.83525 19.7821C8.57981 19.8422 8.63991 20.2479 8.90287 20.1878C9.14329 20.1352 9.39123 20.0751 9.63165 20.0225C9.8871 19.9624 9.82699 19.5567 9.56403 19.6168Z" fill="#A1C0E3"/>
    </g>
    <g style="mix-blend-mode:soft-light">
      <path d="M5.79248 18.6326C5.64973 18.6176 5.50698 18.595 5.36423 18.58C5.20646 18.565 5.18392 18.8054 5.34169 18.8204C5.48444 18.8355 5.62719 18.858 5.76994 18.873C5.92772 18.8881 5.95026 18.6476 5.79248 18.6326Z" fill="#A1C0E3"/>
    </g>
    <g style="mix-blend-mode:soft-light">
      <path d="M14.0418 16.1007C13.9141 16.1984 13.7864 16.2885 13.6737 16.4012C13.5835 16.4914 13.7188 16.6116 13.8164 16.574C13.9592 16.5214 14.0794 16.4538 14.2146 16.3787C14.425 16.2585 14.2372 15.9579 14.0418 16.0932V16.1007Z" fill="#A1C0E3"/>
    </g>
    <g style="mix-blend-mode:soft-light">
      <path d="M15.0863 17.3253C14.951 17.4831 14.7858 17.6033 14.613 17.716C14.4777 17.8062 14.613 17.9865 14.7482 17.9414C14.9886 17.8588 15.1614 17.701 15.3192 17.4906C15.4319 17.3404 15.2065 17.1826 15.0863 17.3178V17.3253Z" fill="#A1C0E3"/>
    </g>
    <g style="mix-blend-mode:soft-light">
      <path d="M15.9653 18.7679C15.8752 18.9031 15.785 19.0308 15.7024 19.1661C15.5897 19.3313 15.8451 19.5192 15.9503 19.3539C16.0404 19.2186 16.1231 19.0834 16.2132 18.9557C16.3184 18.7904 16.078 18.6101 15.9653 18.7754V18.7679Z" fill="#A1C0E3"/>
    </g>
    <g style="mix-blend-mode:soft-light">
      <path d="M13.2606 22.5319C12.96 22.8024 12.6745 23.0654 12.3965 23.3584C12.2989 23.4636 12.4642 23.6063 12.5693 23.5237C12.8774 23.2833 13.1554 23.0203 13.4409 22.7573C13.5761 22.6296 13.3958 22.4117 13.2606 22.5319Z" fill="#A1C0E3"/>
    </g>
    <g style="mix-blend-mode:soft-light">
      <path d="M17.2801 21.157C17.1374 21.3975 16.9871 21.6379 16.8444 21.8858C16.7467 22.0436 16.9871 22.2239 17.0848 22.0586C17.2275 21.8182 17.3778 21.5778 17.5206 21.3298C17.6182 21.1721 17.3778 20.9918 17.2801 21.157Z" fill="#A1C0E3"/>
    </g>
    <g style="mix-blend-mode:soft-light">
      <path d="M14.1998 24.1022C13.9518 24.29 13.6813 24.4253 13.4259 24.6056C13.3207 24.6807 13.4034 24.8685 13.5311 24.8385C13.8692 24.7709 14.1397 24.5755 14.4101 24.3652C14.5829 24.2299 14.3726 23.967 14.1998 24.1022Z" fill="#A1C0E3"/>
    </g>
    <g style="mix-blend-mode:soft-light">
      <path d="M18.625 22.9978C18.625 24.0872 18.4372 25.2592 18.5874 26.3336C18.6024 26.4688 18.7828 26.4388 18.8128 26.3336C19.0532 25.2893 18.933 24.0947 18.9255 23.0353C18.9255 22.8475 18.6325 22.8174 18.6325 23.0053L18.625 22.9978Z" fill="#C0D5ED"/>
    </g>
    <g style="mix-blend-mode:soft-light">
      <path d="M19.9171 24.9437C19.8796 25.4846 19.9021 25.988 19.9848 26.5289C19.9998 26.6416 20.1651 26.6341 20.1801 26.5289C20.2402 25.988 20.2327 25.4846 20.1801 24.9437C20.1651 24.8009 19.9397 24.8084 19.9247 24.9512L19.9171 24.9437Z" fill="#C0D5ED"/>
    </g>
    <g style="mix-blend-mode:soft-light">
      <path d="M17.7684 26.8896C17.7909 27.2126 17.8135 27.5357 17.8886 27.8512C17.9187 27.9715 18.114 27.979 18.114 27.8437C18.114 27.5056 18.0614 27.1751 18.0163 26.8445C17.9938 26.6792 17.7534 26.7243 17.7684 26.882V26.8896Z" fill="#C0D5ED"/>
    </g>
    <g style="mix-blend-mode:soft-light">
      <path d="M19.0757 27.4606C19.0982 27.8287 19.1583 28.1668 19.3161 28.4974C19.3687 28.6101 19.5641 28.5575 19.5265 28.4298C19.4438 28.0992 19.3537 27.7611 19.3086 27.4155C19.2861 27.2652 19.0682 27.3028 19.0757 27.453V27.4606Z" fill="#C0D5ED"/>
    </g>
    <g style="mix-blend-mode:soft-light">
      <path d="M6.61897 22.4042C7.11484 22.7198 6.1757 23.3283 6.01792 22.7648C5.97284 22.6146 6.05549 22.4418 6.22829 22.4493C6.2884 22.4493 6.34099 22.4718 6.37104 22.5244C6.41612 22.577 6.40109 22.6221 6.31845 22.6672C6.2358 22.6221 6.22078 22.5996 6.25834 22.5845C6.08554 22.5845 5.92776 22.84 6.12311 22.9452C6.35601 23.0804 6.64903 22.9677 6.69411 22.6822C6.7467 22.3892 6.44617 22.1638 6.1757 22.2464C5.8902 22.3291 5.79253 22.6747 5.9503 22.9151C6.10808 23.163 6.47623 23.1781 6.68659 22.9827C7.22003 22.4869 6.48374 21.7806 5.92025 22.0511C5.3192 22.3441 5.59719 23.2532 6.19824 23.3358C6.54384 23.3884 6.9195 23.2006 7.04722 22.87C7.16743 22.5695 7.0322 22.2464 6.70913 22.1713C6.58892 22.1488 6.52882 22.3291 6.62649 22.3892L6.61897 22.4042Z" fill="#A1C0E3"/>
    </g>
    <g style="mix-blend-mode:soft-light">
      <path d="M8.61743 24.7634C8.61743 24.7634 8.60241 24.7709 8.59489 24.7784C8.75267 24.8385 8.85786 24.6582 8.77521 24.5304C8.49722 24.0947 7.93374 24.8235 8.46717 25.0789C8.88791 25.2818 9.12082 24.6131 8.67754 24.5304C8.53479 24.5079 8.50474 24.7108 8.62495 24.7634H8.61743Z" fill="#A1C0E3"/>
    </g>
    <g style="mix-blend-mode:soft-light">
      <path d="M6.61137 25.432C6.65645 25.432 6.70153 25.447 6.73909 25.4546C6.67148 25.4996 6.60386 25.5372 6.53624 25.5823C6.64894 25.5823 6.76163 25.5823 6.87433 25.5597C7.02459 25.5372 7.05465 25.3043 6.90438 25.2592C6.7992 25.2292 6.6865 25.2066 6.57381 25.1841C6.46862 25.1691 6.36344 25.2592 6.35592 25.3644C6.3409 25.5898 6.58883 25.8377 6.81423 25.6724C7.02459 25.5222 6.90438 25.2141 6.67148 25.1916C6.52873 25.1766 6.49116 25.3794 6.61137 25.432Z" fill="#A1C0E3"/>
    </g>
    <g style="mix-blend-mode:soft-light">
      <path d="M9.54899 26.3862C9.57153 26.4313 9.56401 26.4914 9.51142 26.5139C9.42878 26.544 9.52645 26.266 9.42126 26.2585C9.36867 26.2585 9.30857 26.2735 9.27851 26.3186C9.27851 26.3186 9.271 26.3336 9.26349 26.3411C9.20338 26.4463 9.21841 26.544 9.30857 26.6266C9.59407 26.882 9.96972 26.5064 9.78941 26.1984C9.59407 25.8603 9.08317 26.0331 9.03809 26.3937C9.00053 26.7092 9.31608 27.0248 9.63163 26.8971C9.89459 26.7844 9.97724 26.4087 9.76687 26.2134C9.63915 26.0857 9.45132 26.2359 9.54899 26.3862Z" fill="#A1C0E3"/>
    </g>
    <g style="mix-blend-mode:soft-light">
      <path d="M3.62118 21.3824C3.62118 21.3824 3.64372 21.405 3.65875 21.42L3.59864 21.2848C3.59113 21.405 3.67377 21.4951 3.78647 21.5101C3.85409 21.5177 3.91419 21.4726 3.93673 21.42C3.93673 21.4125 3.94425 21.3975 3.95176 21.3899C3.9743 21.3298 3.95927 21.2547 3.92171 21.2096C3.61367 20.8265 3.08024 21.3749 3.47843 21.6604C3.85409 21.9309 4.19969 21.2772 3.7489 21.1495C3.59864 21.1044 3.50848 21.2848 3.62118 21.3899V21.3824Z" fill="#A1C0E3"/>
    </g>
    <g style="mix-blend-mode:soft-light">
      <path d="M1.76535 17.4756C1.98323 17.5808 1.97572 17.6634 1.75032 17.7235C1.66017 17.716 1.60006 17.6709 1.55498 17.5958C1.53244 17.408 1.7353 17.6183 1.75784 17.5958C1.80292 17.5658 1.848 17.5432 1.89308 17.5132C1.85551 17.4906 1.83297 17.4681 1.81794 17.423C1.81794 17.5132 1.81794 17.6033 1.81794 17.6935C1.88556 17.6183 1.93064 17.5357 1.87805 17.438C1.81794 17.3103 1.66017 17.2727 1.54747 17.3554C1.53244 17.3629 1.51742 17.3779 1.50239 17.3854C1.40472 17.4606 1.39721 17.6033 1.46483 17.6935C1.59255 17.8588 1.81043 18.0241 2.02831 17.8963C2.23117 17.7761 2.23868 17.4906 2.09593 17.3178C1.81043 16.9797 1.06663 16.9872 1.12673 17.5658C1.17181 18.0165 1.78789 18.272 2.11096 17.9189C2.41148 17.5958 2.11096 17.0774 1.68271 17.2427C1.55498 17.2953 1.61509 17.5056 1.75032 17.4756H1.76535Z" fill="#A1C0E3"/>
    </g>
    <g style="mix-blend-mode:soft-light">
      <path d="M1.96075 15.2817C1.96075 15.2817 1.98329 15.2817 1.9908 15.2817C1.94572 15.2667 1.90064 15.2442 1.84805 15.2292C1.78043 15.3043 1.77292 15.3494 1.83303 15.3569C1.84805 15.3569 1.86308 15.3644 1.87811 15.3719C1.96826 15.417 2.05842 15.3494 2.09599 15.2742C2.20117 15.0714 1.99831 14.8911 1.80297 14.9061C1.57007 14.9211 1.44986 15.1841 1.57758 15.3794C1.85557 15.8077 2.44911 15.2216 2.01334 14.9962C1.96075 14.9662 1.87059 14.9962 1.84054 15.0488C1.84054 15.0564 1.83303 15.0639 1.82551 15.0789C1.76541 15.1766 1.82551 15.3043 1.95324 15.2893L1.96075 15.2817Z" fill="#A1C0E3"/>
    </g>
    <g style="mix-blend-mode:soft-light">
      <path d="M2.11858 19.8723C2.11858 19.8723 2.17118 19.8723 2.20123 19.8648C2.21625 19.9174 2.23128 19.97 2.2463 20.015C2.2463 20.0301 2.24631 20.0376 2.23128 20.0376C2.36652 19.9625 2.37403 19.7671 2.22377 19.707C1.98335 19.6093 1.81054 19.7972 1.83308 20.0301C1.83308 20.1052 1.9007 20.1653 1.96832 20.1954C2.11858 20.2555 2.24631 20.1954 2.32895 20.0751C2.41911 19.9399 2.26133 19.7896 2.12609 19.8798L2.11858 19.8723Z" fill="#A1C0E3"/>
    </g>
    <g style="mix-blend-mode:soft-light">
      <path d="M4.16223 23.3283C4.16223 23.3283 4.19228 23.3058 4.21482 23.2983C4.24487 23.3434 4.26741 23.3884 4.29746 23.426C4.29746 23.426 4.29746 23.4185 4.29746 23.411C4.41767 23.2983 4.3801 23.0654 4.19228 23.0503C3.93683 23.0278 3.73397 23.3208 3.89926 23.5462C4.06455 23.7716 4.35757 23.6364 4.41767 23.411C4.46275 23.2457 4.23736 23.1555 4.16974 23.3133L4.16223 23.3283Z" fill="#A1C0E3"/>
    </g>
    <g style="mix-blend-mode:soft-light">
      <path d="M11.6452 26.0631C11.6077 26.0331 11.5626 26.0105 11.525 25.9805C11.5401 26.0406 11.5626 26.0932 11.5776 26.1533C11.5926 26.1082 11.6077 26.0631 11.6152 26.0105C11.5401 26.0481 11.4574 26.0782 11.3823 26.1157C11.4198 26.1383 11.4424 26.1683 11.4574 26.2134C11.5025 26.296 11.6227 26.3261 11.6828 26.2359C11.8256 26.0481 11.7053 25.8603 11.51 25.7776C11.3823 25.725 11.2395 25.8452 11.2621 25.9805C11.2696 26.0256 11.2771 26.0782 11.2846 26.1232C11.2921 26.1683 11.3297 26.2284 11.3823 26.2359C11.4349 26.251 11.4799 26.2585 11.525 26.2735C11.6527 26.3111 11.7654 26.1458 11.6452 26.0556V26.0631Z" fill="#A1C0E3"/>
    </g>
    <path d="M14.9361 13.7265H14.9512C15.0563 13.719 15.139 13.6213 15.124 13.5162C15.124 13.4936 14.9061 11.157 15.0263 9.62435C15.0338 9.51917 14.9512 9.4215 14.846 9.41398C14.7408 9.39896 14.6431 9.4816 14.6356 9.5943C14.5079 11.157 14.7183 13.4561 14.7333 13.5537C14.7408 13.6514 14.8234 13.734 14.9286 13.734L14.9361 13.7265Z" fill="#3B4072"/>
    <path d="M14.9061 13.9745C14.9587 13.9745 15.0113 13.9519 15.0488 13.9144C15.124 13.8392 15.1164 13.7115 15.0413 13.6364C13.704 12.3967 11.5928 11.0894 11.5702 11.0744C11.4801 11.0218 11.3599 11.0443 11.2998 11.1345C11.2472 11.2247 11.2697 11.3449 11.3599 11.405C11.3824 11.42 13.4636 12.7047 14.7708 13.9219C14.8084 13.9594 14.8535 13.9745 14.9061 13.9745Z" fill="#3B4072"/>
    <path d="M23.0502 24.6732C23.5837 24.2825 22.7647 22.254 20.6836 19.5868C18.6025 16.9196 15.9728 13.0203 15.3417 13.0879C14.7106 13.1555 14.1246 13.5087 14.7407 14.5455C15.3568 15.5823 18.8354 20.7138 20.2478 22.4869C21.8256 24.4703 22.7497 24.8836 23.0502 24.6657V24.6732Z" fill="#3B4072"/>
    <g style="mix-blend-mode:soft-light">
      <path d="M15.2592 14.1097C15.8302 14.9512 16.4313 15.7701 17.115 16.5214C17.2277 16.6416 17.0473 16.8219 16.9346 16.7017C16.2284 15.9429 15.6048 15.1165 15.1165 14.1923C15.0639 14.0947 15.1991 14.0195 15.2592 14.1097Z" fill="#B1B3C7"/>
    </g>
    <g style="mix-blend-mode:soft-light">
      <path d="M17.5806 17.115C17.7684 17.423 17.9863 17.716 18.1591 18.0391C18.2117 18.1443 18.0839 18.2419 18.0013 18.1593C17.7158 17.9038 17.528 17.5883 17.3476 17.2502C17.265 17.0999 17.4904 16.9647 17.5806 17.115Z" fill="#B1B3C7"/>
    </g>
  </g>
  <defs>
    <clipPath id="clip0_193_3296">
      <rect width="30.7213" height="30" fill="white" transform="matrix(-1 0 0 1 30.7212 0)"/>
    </clipPath>
  </defs>
</svg>