<svg width="235" height="39" fill="none" xmlns="http://www.w3.org/2000/svg"><g clip-path="url(#a)"><path d="M179.74 37.05a1.87 1.87 0 0 0-1.87-1.87h-26.3a30.941 30.941 0 0 0-58.74-11.6 20.72 20.72 0 0 0-22.52-6.24A37 37 0 0 0 1.92 35.15h-.05a1.87 1.87 0 1 0 0 3.74h176a1.87 1.87 0 0 0 1.87-1.84Z" fill="#F7E8D4"/><path d="M197.6 38.95h34.81a1.868 1.868 0 0 0 1.322-3.192 1.868 1.868 0 0 0-1.322-.548H197.6a1.868 1.868 0 0 0-1.87 1.87 1.87 1.87 0 0 0 1.87 1.87Z" fill="#FFECD3"/></g><defs><clipPath id="a"><path fill="#fff" d="M0 0h234.28v38.95H0z"/></clipPath></defs></svg>