<svg width="117" height="90" fill="none" xmlns="http://www.w3.org/2000/svg"><circle cx="33.433" cy="59.957" r="12" transform="rotate(4.178 33.433 59.957)" fill="#FFCEA0"/><g clip-path="url(#a)" fill="#000"><path d="M103.017 11.993c-.559 6.202-1.144 13.481-6.079 17.945-5.26 4.755-12.724 2.244-18.636.289-5.913-1.956-12.434-4.395-19.042-3.783-3.11.289-6.116 1.286-8.682 3.082-2.902 2.032-5.074 4.918-6.992 7.86-4.379 6.707-8.086 13.838-11.11 21.25-.17.416.112.703.517.624.48-.096 1.016-.596 1.2-1.034 2.755-6.617 6.033-13.016 9.859-19.079 1.846-2.92 3.787-5.975 6.618-8.041 2.53-1.845 5.682-2.592 8.77-2.72 6.805-.27 13.154 2.5 19.534 4.445 3.124.956 6.384 1.836 9.675 1.797 3.291-.04 6.297-1.292 8.717-3.451 5.825-5.195 6.865-12.932 7.527-20.28.054-.558-.597-.42-.9-.255-.468.252-.929.805-.979 1.346l.003.005Z"/><path d="M40.663 51.614a337.83 337.83 0 0 1-5.858 8.035 313.93 313.93 0 0 1-2.93 3.832c-.511.655-1.017 1.306-1.532 1.955-.371.469-.652.91-1.29.92l.472.447c.098-2.192.814-4.255 1.528-6.308.714-2.054 1.462-4.192 2.113-6.314 1.29-4.193 2.312-8.525 2.313-12.939.002-.561-.58-.459-.928-.265-.455.25-.995.837-1.014 1.394-.149 4.448-1.141 8.77-2.469 13.007-.653 2.073-1.37 4.122-2.079 6.173-.709 2.05-1.393 4.2-1.475 6.417-.013.313.18.456.472.446 1.687-.044 2.86-1.537 3.81-2.745a333.852 333.852 0 0 0 10.216-13.715c.212-.3.556-.986.04-1.18-.515-.193-1.164.504-1.396.83l.007.01Z"/></g><g clip-path="url(#b)" fill="#000"><path d="M27.39 77.027a59.851 59.851 0 0 1-.686 2.49c-.117.4-.243.795-.368 1.192-.142.431-.352.888-.366 1.345-.01.385.592.305.792.233.437-.158.83-.454 1.077-.858.247-.405.363-.91.51-1.362a55.082 55.082 0 0 0 1.063-3.721c.131-.511-.47-.545-.812-.421-.48.172-1.074.57-1.21 1.102ZM20.981 75.902a113.436 113.436 0 0 1-3.764 7.008c-.077.135-.14.354-.041.497.099.143.329.155.483.136.512-.066 1.003-.451 1.266-.879a92.754 92.754 0 0 0 3.831-7.02c.073-.146.155-.366.045-.522-.11-.157-.346-.167-.503-.14-.5.084-1.087.45-1.319.915l.002.005ZM18.09 72.368a47.611 47.611 0 0 1-2.496 1.643l-.293.177c-.225.135.073-.044-.136.084-.23.137-.461.274-.694.405a68.04 68.04 0 0 1-1.305.738c-.346.196-.957.612-.887 1.087.07.475.77.24 1.017.116 1.895-.968 3.71-2.105 5.449-3.325.271-.188.875-.726.605-1.111s-.999.003-1.255.184l-.005.002Z"/></g><defs><clipPath id="a"><path fill="#fff" d="m112.075 22.4-81.79 50.262L16.59 50.378 98.38.115z"/></clipPath><clipPath id="b"><path fill="#fff" d="m31.075 80.733-15.3 5.511-4.184-11.618 15.3-5.511z"/></clipPath></defs></svg>