<svg width="64" height="65" fill="none" xmlns="http://www.w3.org/2000/svg"><g clip-path="url(#a)" fill="#000"><path d="m53.025 29.527-1.033 9.818-.503 4.75c-.178 1.673-.466 3.373-.502 5.053-.016.608.571.56.995.365.555-.255 1.127-.83 1.236-1.442.302-1.671.387-3.398.565-5.085l.503-4.75 1.039-9.821c.068-.635-.626-.554-1.027-.37-.537.246-1.205.862-1.27 1.488l-.003-.006ZM39.702 26.192C31.817 34.107 23.855 41.954 16.06 49.96c-.274.277-.926.965-.55 1.386.364.399 1.177-.147 1.438-.404 7.975-7.824 15.795-15.807 23.677-23.728.287-.292.969-1.009.57-1.447-.374-.416-1.235.148-1.503.422l.009.003ZM36.136 14.474l-9.757-.892-4.799-.44c-1.65-.152-3.322-.387-4.978-.42-.564-.008-1.16.521-1.461.943-.158.218-.593 1.033-.051 1.124 1.643.279 3.333.352 4.99.5l4.799.44 9.918.911c.887.08 2.645-2.047 1.344-2.169l-.005.003Z"/></g><defs><clipPath id="a"><path fill="#fff" d="M63.275 43.732 22.329 64.693 0 21.076 40.946.115z"/></clipPath></defs></svg>