<svg width="146" height="78" fill="none" xmlns="http://www.w3.org/2000/svg"><circle cx="111.951" cy="44.91" r="12" transform="rotate(4.178 111.951 44.91)" fill="#FFBCBC"/><g clip-path="url(#a)" fill="#000"><path d="M112.014 42.918C107.805 53.17 95.39 56.648 85.17 56.582a49.324 49.324 0 0 1-18.3-3.668c-2.87-1.17-5.774-2.595-8.274-4.44-2.307-1.7-4.334-3.995-4.836-6.88-.999-5.748 5.11-9.855 10.248-10.25 2.557-.194 5.288.49 7.31 2.11 2.021 1.62 3.016 4.093 2.734 6.684-.57 5.222-4.964 9.226-9.421 11.504-5.079 2.6-10.855 3.394-16.53 2.996-6.663-.469-13.17-2.474-19.42-4.747-6.582-2.394-12.96-5.288-19.31-8.243-1.572-.732-3.138-1.468-4.708-2.206-.446-.208-1.071-.28-1.52-.05-.362.189-.44.552-.023.752 6.834 3.264 13.691 6.504 20.743 9.278 6.736 2.647 13.742 5.02 20.942 5.983 6.368.851 12.931.516 18.937-1.842 5.132-2.012 10.287-5.738 12.02-11.162.78-2.447.771-5.157-.677-7.384-1.659-2.56-4.643-4.004-7.579-4.543C61.948 29.46 55.02 31.65 52.26 36.84c-1.42 2.673-.885 5.875.726 8.363 1.72 2.658 4.46 4.468 7.187 5.983 5.943 3.293 12.585 5.382 19.335 6.136 6.32.704 12.898.41 18.98-1.49 5.251-1.642 10.342-4.498 13.558-9.036a17.56 17.56 0 0 0 1.93-3.53c.3-.732-1.72-.953-1.975-.336l.014-.011Z"/><path d="m113.982 40.13.095 5.709.046 2.747.025 1.481c.003.308.13.829-.064 1.083-.217.295.282.556.477.62.422.143.901.118 1.312-.04.411-.156.527-.434.528-.847-.001-.53-.018-1.06-.026-1.587l-.05-2.961-.103-6.13c-.016-.784-2.252-.837-2.24-.076Z"/><path d="M112.754 40.173c-2.686 1.709-5.452 3.272-8.191 4.89-.358.21-.427.53-.019.758.407.228 1.102.268 1.525.05 2.958-1.526 5.806-3.292 8.61-5.071.442-.28-.1-.682-.383-.772-.501-.167-1.094-.133-1.539.151l-.003-.006Z"/></g><g clip-path="url(#b)" fill="#000"><path d="m118.065 28.364.233-4.847.114-2.346c.04-.826.134-1.668.105-2.494-.009-.299-.296-.26-.498-.152-.264.14-.529.437-.565.74-.102.829-.095 1.678-.135 2.511l-.114 2.346-.236 4.849c-.016.313.322.255.514.154.256-.134.566-.455.581-.764l.001.003ZM124.687 29.65c3.643-4.095 7.326-8.157 10.922-12.294.126-.143.427-.498.231-.695-.189-.186-.573.103-.694.236-3.689 4.052-7.299 8.178-10.94 12.275-.133.151-.447.521-.239.726.194.194.601-.106.724-.247l-.004-.001ZM126.761 35.308l4.806.18 2.364.09c.813.03 1.638.102 2.451.075.276-.012.554-.287.69-.502.071-.111.261-.523-.007-.553-.813-.094-1.643-.085-2.459-.114l-2.364-.09-4.886-.184c-.436-.017-1.238 1.075-.598 1.1l.003-.002Z"/></g><defs><clipPath id="a"><path fill="#fff" d="M109.037 75.57 1.775 43.296 12.23 8.549l107.262 32.274z"/></clipPath><clipPath id="b"><path fill="#fff" d="m112.647 21.661 19.48-11.373 12.157 20.825-19.48 11.372z"/></clipPath></defs></svg>