<svg xmlns="http://www.w3.org/2000/svg" width="27" height="35" viewBox="0 0 27 35" fill="none">
  <g clip-path="url(#clip0_193_3080)">
    <path d="M15.73 26.22C14.56 26.33 9.91998 25.85 6.27998 27.56C2.63998 29.27 1.87998 31.97 2.90998 32.75C3.88998 33.49 10.78 32.85 12.34 32.24C13.9 31.63 15.73 26.22 15.73 26.22Z" fill="#6BCFAF"/>
    <path d="M15.73 27.18C15.73 27.18 6.86998 26.47 2.26998 21.79C-2.33002 17.11 1.05998 10.63 3.68998 6.87001C6.31998 3.10001 11.21 -1.05999 14.43 0.250013C17.65 1.56001 21.2 18.24 20.89 18.93C20.58 19.62 15.94 26.81 15.73 27.19V27.18Z" fill="#6BCFAF"/>
    <g style="mix-blend-mode:multiply" opacity="0.42">
      <path d="M3.68994 6.86C6.31994 3.1 11.2099 -1.06 14.4299 0.250004C14.8699 0.430004 15.3099 0.900004 15.7499 1.57C15.7299 1.71 15.7299 1.85 15.7499 2C16.0599 4.24 11.2999 4.86 9.89994 6.01C7.69994 7.84 8.61994 9.65 8.49994 12.1C8.37994 14.44 6.07994 16.19 5.48994 18.44C5.13994 19.78 5.13994 21.17 5.53994 22.5C5.77994 23.3 6.14994 24.04 6.59994 24.74C5.01994 23.99 3.47994 23.03 2.25994 21.78C-2.34006 17.1 1.04994 10.62 3.67994 6.86H3.68994Z" fill="#6BCFAF"/>
    </g>
    <g style="mix-blend-mode:soft-light">
      <path d="M17.76 17.03C16.24 15.5 15.27 13.43 15.08 11.28L17.76 17.03Z" fill="#6BCFAF"/>
      <path d="M17.5801 17.2C16.0101 15.55 14.9601 13.57 14.8601 11.27C14.8501 11.03 15.2401 10.97 15.2801 11.21C15.6501 13.31 16.4301 15.29 17.9301 16.84C18.1501 17.07 17.8001 17.43 17.5801 17.19V17.2Z" fill="#F5A1AE"/>
    </g>
    <g style="mix-blend-mode:soft-light">
      <path d="M15.4099 18.58C14.1999 17.92 13.0999 17.08 12.1499 16.08L15.4099 18.58Z" fill="#6BCFAF"/>
      <path d="M15.2899 18.79C14.0499 18.11 12.9099 17.33 11.9999 16.23C11.8299 16.03 12.0899 15.76 12.2899 15.94C13.3099 16.83 14.3499 17.71 15.5299 18.37C15.7999 18.52 15.5599 18.94 15.2799 18.79H15.2899Z" fill="#F5A1AE"/>
    </g>
    <g style="mix-blend-mode:soft-light">
      <path d="M14.3901 20.81C13.1101 20.75 11.8501 20.44 10.6901 19.9L14.3901 20.81Z" fill="#6BCFAF"/>
      <path d="M14.3901 21.08C13.0601 21.02 11.7501 20.76 10.5801 20.09C10.3701 19.97 10.5101 19.6 10.7501 19.68C11.9401 20.07 13.1301 20.43 14.3901 20.53C14.7401 20.56 14.7401 21.09 14.3901 21.08Z" fill="#F5A1AE"/>
    </g>
    <g style="mix-blend-mode:soft-light">
      <path d="M13.4399 23.63C12.1899 23.72 10.9199 23.46 9.79994 22.91L13.4399 23.63Z" fill="#6BCFAF"/>
      <path d="M13.44 23.91C12.13 23.98 10.82 23.8 9.70004 23.09C9.51004 22.97 9.63003 22.63 9.86003 22.71C11.04 23.11 12.18 23.42 13.44 23.36C13.8 23.34 13.79 23.89 13.44 23.91Z" fill="#F5A1AE"/>
    </g>
    <g style="mix-blend-mode:soft-light">
      <path d="M13.6599 15.02C12.7199 14.15 11.9599 13.08 11.4299 11.92L13.6599 15.02Z" fill="#6BCFAF"/>
      <path d="M13.5099 15.16C12.5499 14.26 11.6699 13.22 11.2099 11.97C11.1199 11.73 11.4899 11.59 11.6099 11.8C12.2499 12.91 12.8599 13.97 13.7899 14.87C13.9799 15.05 13.6899 15.33 13.5099 15.15V15.16Z" fill="#F5A1AE"/>
    </g>
    <g style="mix-blend-mode:soft-light">
      <path d="M17.6001 12.42C17.2001 11.08 16.9701 9.70002 16.9101 8.30002L17.6001 12.42Z" fill="#6BCFAF"/>
      <path d="M17.4201 12.47C17.0001 11.11 16.6501 9.74001 16.7501 8.30001C16.7601 8.12001 17.0601 8.05001 17.0901 8.25001C17.3101 9.63001 17.4301 11.01 17.7901 12.36C17.8601 12.6 17.4901 12.7 17.4201 12.46V12.47Z" fill="#F5A1AE"/>
    </g>
    <g style="mix-blend-mode:soft-light">
      <path d="M11.4299 18.03C10.5899 17.81 9.79993 17.37 9.18993 16.75L11.4299 18.03Z" fill="#6BCFAF"/>
      <path d="M11.35 18.3C10.45 18.06 9.62001 17.64 9.03001 16.9C8.89001 16.73 9.08001 16.4 9.29001 16.56C9.97001 17.07 10.67 17.52 11.5 17.76C11.85 17.86 11.7 18.39 11.35 18.3Z" fill="#F5A1AE"/>
    </g>
    <g style="mix-blend-mode:soft-light">
      <path d="M12.6799 10.89C12.5399 10.49 12.4099 10.08 12.2699 9.68002L12.6799 10.89Z" fill="#6BCFAF"/>
      <path d="M12.4699 10.95C12.3199 10.54 12.1799 10.16 12.1199 9.72002C12.0999 9.56002 12.3099 9.43002 12.4099 9.60002C12.6299 9.99002 12.7599 10.4 12.8999 10.83C12.9799 11.1 12.5699 11.21 12.4799 10.95H12.4699Z" fill="#F5A1AE"/>
    </g>
    <g style="mix-blend-mode:soft-light">
      <path d="M14.03 8.23999C13.98 7.70999 13.93 7.17999 13.89 6.64999L14.03 8.23999Z" fill="#6BCFAF"/>
      <path d="M13.8001 8.24C13.7401 7.71 13.6601 7.18 13.6801 6.65C13.6801 6.43 14.0401 6.36 14.0901 6.59C14.2101 7.13 14.2201 7.68 14.2601 8.23C14.2801 8.53 13.8301 8.52 13.8001 8.23V8.24Z" fill="#F5A1AE"/>
    </g>
    <g style="mix-blend-mode:soft-light">
      <path d="M15.8901 4.98999C15.8601 5.27999 15.8401 5.56999 15.8101 5.84999L15.8901 4.98999Z" fill="#6BCFAF"/>
      <path d="M16.0601 4.99C16.0401 5.28 16.0201 5.57 15.9901 5.85C15.9701 6.08 15.6001 6.08 15.6201 5.85C15.6501 5.56 15.6801 5.27 15.7001 4.99C15.7201 4.77 16.0701 4.76 16.0501 4.99H16.0601Z" fill="#F5A1AE"/>
    </g>
    <g style="mix-blend-mode:soft-light">
      <path d="M10.99 14.72C10.8 14.43 10.61 14.14 10.41 13.85L10.99 14.72Z" fill="#6BCFAF"/>
      <path d="M10.7501 14.87C10.5601 14.58 10.3701 14.29 10.1701 14C9.97006 13.69 10.4601 13.41 10.6601 13.71C10.8501 14 11.0401 14.29 11.2401 14.58C11.4401 14.89 10.9501 15.17 10.7501 14.87Z" fill="#F5A1AE"/>
    </g>
    <g style="mix-blend-mode:soft-light">
      <path d="M10.48 9.25001C10.43 9.06001 10.38 8.87001 10.34 8.67001L10.48 9.25001Z" fill="#6BCFAF"/>
      <path d="M10.32 9.29001L10.18 8.71001C10.13 8.50001 10.45 8.41001 10.5 8.62001C10.55 8.81001 10.6 9.00001 10.64 9.20001C10.69 9.41001 10.37 9.50001 10.32 9.29001Z" fill="#F5A1AE"/>
    </g>
    <g style="mix-blend-mode:soft-light">
      <path d="M17.8999 18.85C17.7299 18.73 17.5699 18.61 17.3999 18.48L17.8999 18.85Z" fill="#6BCFAF"/>
      <path d="M17.7399 19.01C17.5799 18.88 17.4199 18.75 17.2899 18.59C17.1999 18.48 17.2899 18.25 17.4499 18.32C17.6599 18.41 17.8399 18.52 18.0199 18.64C18.2999 18.82 17.9999 19.22 17.7399 19V19.01Z" fill="#F5A1AE"/>
    </g>
    <g style="mix-blend-mode:soft-light">
      <path d="M16.8999 20.8C16.6099 20.72 16.3299 20.56 16.1199 20.35L16.8999 20.8Z" fill="#6BCFAF"/>
      <path d="M16.8499 20.99C16.5099 20.89 16.2299 20.75 15.9899 20.48C15.8599 20.33 16.0299 20.07 16.2099 20.19C16.4499 20.36 16.6799 20.51 16.9499 20.61C17.1899 20.69 17.0899 21.07 16.8399 20.99H16.8499Z" fill="#F5A1AE"/>
    </g>
    <g style="mix-blend-mode:soft-light">
      <path d="M15.46 22.66C15.24 22.61 15.03 22.56 14.81 22.51L15.46 22.66Z" fill="#6BCFAF"/>
      <path d="M15.4 22.87C15.18 22.82 14.97 22.77 14.75 22.73C14.48 22.67 14.59 22.25 14.86 22.31L15.51 22.46C15.78 22.52 15.66 22.93 15.4 22.87Z" fill="#F5A1AE"/>
    </g>
    <g style="mix-blend-mode:soft-light">
      <path d="M9.18994 21C8.70994 20.76 8.22994 20.52 7.74994 20.28L9.18994 21Z" fill="#6BCFAF"/>
      <path d="M9.08999 21.17C8.60999 20.93 8.12999 20.7 7.65999 20.42C7.49999 20.33 7.60999 20.04 7.78999 20.11C8.29999 20.32 8.78999 20.57 9.28999 20.82C9.51999 20.94 9.31999 21.27 9.08999 21.16V21.17Z" fill="#F5A1AE"/>
    </g>
    <g style="mix-blend-mode:soft-light">
      <path d="M13.01 25.55C12.62 25.48 12.24 25.41 11.85 25.35L13.01 25.55Z" fill="#6BCFAF"/>
      <path d="M12.95 25.74C12.56 25.67 12.18 25.6 11.79 25.54C11.53 25.49 11.64 25.1 11.9 25.15C12.29 25.22 12.67 25.29 13.06 25.35C13.32 25.4 13.21 25.79 12.95 25.74Z" fill="#F5A1AE"/>
    </g>
    <g style="mix-blend-mode:soft-light">
      <path d="M7.6001 23.02C7.2301 22.8 6.8901 22.54 6.5901 22.23L7.6001 23.02Z" fill="#6BCFAF"/>
      <path d="M7.49005 23.22C7.08005 22.98 6.70005 22.72 6.44005 22.32C6.34005 22.17 6.54005 21.97 6.69005 22.07C7.05005 22.31 7.36005 22.6 7.72005 22.82C7.98005 22.98 7.74005 23.38 7.48005 23.22H7.49005Z" fill="#F5A1AE"/>
    </g>
    <g style="mix-blend-mode:soft-light">
      <path d="M11.3999 28.21C9.9699 28.76 8.5299 29.27 7.0799 29.75L11.3999 28.21Z" fill="#6BCFAF"/>
      <path d="M11.45 28.4C10.07 28.94 8.57996 29.69 7.11996 29.89C6.95996 29.91 6.82996 29.7 6.99996 29.6C8.31996 28.88 9.92996 28.53 11.35 28C11.6 27.91 11.7 28.3 11.46 28.39L11.45 28.4Z" fill="#F8C0C9"/>
    </g>
    <g style="mix-blend-mode:soft-light">
      <path d="M9.51001 30.82C8.84001 31.09 8.17001 31.37 7.51001 31.64L9.51001 30.82Z" fill="#6BCFAF"/>
      <path d="M9.60011 30.97C8.93011 31.32 8.2801 31.57 7.5401 31.77C7.3901 31.81 7.3001 31.6 7.4401 31.52C8.1001 31.14 8.7401 30.87 9.4601 30.65C9.6501 30.59 9.78011 30.88 9.60011 30.97Z" fill="#F8C0C9"/>
    </g>
    <g style="mix-blend-mode:soft-light">
      <path d="M5.95996 28.98C5.55996 29.19 5.15996 29.39 4.75996 29.6L5.95996 28.98Z" fill="#6BCFAF"/>
      <path d="M6.05006 29.13C5.64006 29.36 5.24006 29.59 4.80006 29.75C4.62006 29.82 4.54006 29.56 4.68006 29.46C5.05006 29.2 5.46006 29.02 5.87006 28.83C6.07006 28.73 6.24006 29.02 6.05006 29.13Z" fill="#F8C0C9"/>
    </g>
    <g style="mix-blend-mode:soft-light">
      <path d="M5.87012 30.95C5.44012 31.16 5.03012 31.43 4.67012 31.74L5.87012 30.95Z" fill="#6BCFAF"/>
      <path d="M5.95003 31.09C5.53003 31.32 5.14003 31.6 4.75003 31.88C4.60003 31.98 4.44003 31.76 4.56003 31.63C4.92003 31.27 5.33003 31.02 5.79003 30.81C5.98003 30.72 6.14003 30.99 5.95003 31.09Z" fill="#F8C0C9"/>
    </g>
    <g style="mix-blend-mode:soft-light">
      <path d="M6.33 12.18C6.35 12.37 6.22 12.56 6.04 12.64C5.86 12.72 5.65 12.7 5.47 12.61C5.12 12.45 4.89 12.03 4.99 11.66C5.09 11.29 5.53 11.03 5.89 11.17C6.25 11.31 6.38 11.86 6.1 12.12C5.97 12.24 5.77 12.29 5.6 12.22C5.43 12.15 5.32 11.95 5.37 11.78C5.42 11.61 5.64 11.5 5.8 11.57C5.96 11.65 6 11.91 5.86 12.02C5.72 12.13 5.46 12 5.48 11.82" fill="#6BCFAF"/>
      <path d="M6.50009 12.18C6.54009 12.78 5.92009 13.04 5.41009 12.85C4.93009 12.66 4.61009 12.11 4.73009 11.6C5.02009 10.36 6.98009 10.85 6.51009 12.07C6.32009 12.55 5.66009 12.77 5.27009 12.39C4.88009 12.02 5.06009 11.35 5.60009 11.27C6.09009 11.2 6.46009 11.77 6.15009 12.18C5.84009 12.58 5.18009 12.35 5.21009 11.84C5.23009 11.59 5.61009 11.42 5.73009 11.7C5.77009 11.79 6.12009 11.63 5.76009 11.49C5.59009 11.42 5.38009 11.5 5.29009 11.68C5.03009 12.21 6.02008 12.82 6.19008 12.13C6.24008 11.94 6.51009 11.99 6.52009 12.17L6.50009 12.18Z" fill="#F5A1AE"/>
    </g>
    <g style="mix-blend-mode:soft-light">
      <path d="M4.27021 15.9C4.33021 16.06 4.08021 16.21 3.95021 16.11C3.82021 16.01 3.84021 15.77 3.98021 15.67C4.05021 15.62 4.16021 15.6 4.24021 15.64C4.32021 15.68 4.36021 15.8 4.30021 15.87" fill="#6BCFAF"/>
      <path d="M4.44009 15.9C4.52009 16.5 3.52009 16.47 3.63009 15.8C3.75009 15.05 4.91009 15.42 4.49009 15.98C4.36009 16.15 4.08009 16.1 4.08009 15.87C4.08009 15.87 4.10009 15.89 4.11009 15.9C4.13009 15.68 4.42009 15.69 4.45009 15.9H4.44009Z" fill="#F5A1AE"/>
    </g>
    <g style="mix-blend-mode:soft-light">
      <path d="M2.40994 13.63C2.46994 13.76 2.27994 13.91 2.16994 13.83C2.05994 13.75 2.12994 13.53 2.26994 13.54C2.30994 13.67 2.34993 13.8 2.37993 13.93" fill="#6BCFAF"/>
      <path d="M2.57993 13.59C2.62993 13.87 2.39993 14.2 2.07993 14.05C1.74993 13.89 1.83993 13.43 2.12993 13.3C2.27993 13.23 2.49993 13.27 2.53993 13.47C2.56993 13.62 2.58993 13.78 2.59993 13.93C2.61993 14.15 2.29993 14.22 2.19993 14.04C2.11993 13.9 2.05993 13.76 2.00993 13.62C2.11993 13.68 2.23993 13.75 2.34993 13.81C2.31993 13.74 2.27993 13.67 2.24993 13.59C2.26993 13.42 2.55993 13.43 2.58993 13.59H2.57993Z" fill="#F5A1AE"/>
    </g>
    <g style="mix-blend-mode:soft-light">
      <path d="M2.62012 18.02C2.52012 18.27 2.09012 18.28 1.98012 18.02C1.88012 17.77 2.19012 17.47 2.44012 17.58C2.54012 17.62 2.62012 17.73 2.61012 17.84C2.61012 17.95 2.49012 18.04 2.38012 18.01C2.28012 17.98 2.25012 17.81 2.34012 17.75" fill="#6BCFAF"/>
      <path d="M2.79007 18.12C2.61007 18.5 2.07007 18.58 1.80007 18.24C1.50007 17.85 1.82007 17.29 2.29007 17.25C2.76007 17.21 3.14007 17.78 2.80007 18.16C2.47007 18.52 1.83007 18.21 2.02007 17.73C2.08007 17.57 2.20007 17.5 2.37007 17.53C2.38007 17.53 2.39007 17.53 2.40007 17.53C2.47007 17.54 2.53007 17.62 2.55007 17.68C2.58007 17.75 2.55007 17.81 2.48007 17.87C2.63007 17.69 2.87007 17.92 2.79007 18.11V18.12Z" fill="#F5A1AE"/>
    </g>
    <g style="mix-blend-mode:soft-light">
      <path d="M6.17993 7.80001C6.19993 7.95001 5.96993 8.06001 5.85993 7.95001C5.74993 7.84001 5.85993 7.61001 6.01993 7.63001C6.17993 7.65001 6.23993 7.89001 6.10993 7.98001" fill="#6BCFAF"/>
      <path d="M6.3599 7.75002C6.4599 8.38002 5.5099 8.39002 5.5599 7.78002C5.6199 7.11002 6.6399 7.33002 6.4199 7.98002C6.3799 8.10002 6.2899 8.17002 6.1599 8.18002C6.1399 8.18002 6.1199 8.18002 6.1099 8.18002C6.0299 8.18002 5.9299 8.11002 5.9199 8.03002C5.8899 7.87002 5.8999 7.90002 6.0199 7.71002C6.0999 7.58002 6.3399 7.59002 6.3699 7.76002L6.3599 7.75002Z" fill="#F5A1AE"/>
    </g>
    <g style="mix-blend-mode:soft-light">
      <path d="M10.2999 3.32999C10.4499 3.46999 10.4099 3.74999 10.2299 3.85999C10.0599 3.96999 9.80993 3.91999 9.66993 3.76999C9.53993 3.61999 9.50993 3.37999 9.57993 3.18999C9.65993 2.96999 9.92993 2.78999 10.1399 2.90999C10.3099 3.00999 10.3299 3.23999 10.3099 3.43999C10.2999 3.53999 10.2699 3.64999 10.1999 3.71999C10.1299 3.78999 9.99993 3.81999 9.91993 3.75999C9.78993 3.65999 9.88993 3.44999 9.98993 3.31999C10.0399 3.31999 10.0899 3.36999 10.0799 3.42999" fill="#6BCFAF"/>
      <path d="M10.42 3.19999C10.8 3.67999 10.35 4.30999 9.76003 4.08999C9.11003 3.84999 9.16003 2.85999 9.78003 2.60999C10.49 2.32999 10.82 3.27999 10.5 3.78999C10.35 4.02999 10.03 4.17999 9.77003 3.99999C9.47003 3.78999 9.57003 3.41999 9.72003 3.14999C9.80003 3.00999 10 2.94999 10.14 3.03999C10.16 3.04999 10.18 3.06999 10.2 3.07999C10.37 3.17999 10.39 3.40999 10.26 3.54999C10.16 3.65999 10.03 3.64999 9.90003 3.59999C10.02 3.54999 10.13 3.50999 10.25 3.45999C10.16 3.64999 10.08 3.59999 10.01 3.29999C9.69003 3.43999 9.74003 3.46999 10.14 3.39999C10.05 3.23999 10.29 3.03999 10.41 3.18999L10.42 3.19999Z" fill="#F5A1AE"/>
    </g>
    <g style="mix-blend-mode:soft-light">
      <path d="M13.25 2.47002C13.32 2.47002 13.28 2.59002 13.21 2.60002C13.1 2.63002 12.97 2.56002 12.94 2.44002C12.91 2.32002 13.03 2.20002 13.15 2.24002C13.26 2.27002 13.28 2.46002 13.17 2.50002" fill="#6BCFAF"/>
      <path d="M13.3 2.30002C13.3 2.30002 13.33 2.30002 13.34 2.30002C13.42 2.31002 13.5 2.42002 13.49 2.50002C13.42 3.06002 12.61 2.85002 12.69 2.34002C12.78 1.71002 13.75 1.94002 13.51 2.53002C13.46 2.65002 13.36 2.76002 13.23 2.75002C13.21 2.75002 13.19 2.75002 13.17 2.75002C13.04 2.75002 12.93 2.65002 12.93 2.51002C12.91 2.42002 12.97 2.38002 13.1 2.40002V2.61002C13.1 2.61002 13.09 2.58002 13.08 2.57002C13 2.42002 13.13 2.27002 13.29 2.30002H13.3Z" fill="#F5A1AE"/>
    </g>
    <g style="mix-blend-mode:soft-light">
      <path d="M7.11999 5.21999C7.02999 5.20999 6.96999 5.07999 7.01999 4.99999C7.09999 4.94999 7.21999 4.99999 7.23999 5.09999" fill="#6BCFAF"/>
      <path d="M7.06992 5.41C6.83992 5.35 6.74992 5.23001 6.72992 5.00001C6.71992 4.87001 6.82992 4.75 6.94992 4.72C7.24992 4.62 7.46992 4.8 7.48992 5.1C7.49992 5.28 7.26992 5.42 7.11992 5.31C7.08992 5.31 7.05992 5.3 7.02992 5.29C7.10992 5.24 7.19992 5.19 7.27992 5.14C7.27992 5.12 7.27992 5.09001 7.26992 5.07001C7.41992 5.21001 7.26992 5.45001 7.07992 5.40001L7.06992 5.41Z" fill="#F5A1AE"/>
    </g>
    <g style="mix-blend-mode:soft-light">
      <path d="M3.75009 9.60002C3.63009 9.65002 3.49009 9.51002 3.54009 9.39002C3.59009 9.27002 3.78009 9.27002 3.84009 9.39002" fill="#6BCFAF"/>
      <path d="M3.74999 9.79001C3.41999 9.81001 3.09999 9.49001 3.32999 9.17001C3.55999 8.84001 3.98999 8.99001 4.10999 9.31001C4.17999 9.50001 3.95999 9.73001 3.76999 9.65001C3.63999 9.63001 3.64999 9.55001 3.80999 9.42001C4.02999 9.46001 3.95999 9.77001 3.75999 9.79001H3.74999Z" fill="#F5A1AE"/>
    </g>
    <g style="mix-blend-mode:soft-light">
      <path d="M3.75012 20.43C3.75012 20.36 3.76012 20.29 3.77012 20.22C3.84012 20.2 3.90012 20.18 3.97012 20.16C4.00012 20.29 3.89012 20.43 3.76012 20.43" fill="#6BCFAF"/>
      <path d="M3.58003 20.43C3.58003 20.36 3.57003 20.29 3.56003 20.22C3.56003 20.15 3.61003 20.07 3.66003 20.04C3.72003 20.01 3.78003 19.97 3.84003 19.94C3.99003 19.85 4.25003 19.96 4.22003 20.16C4.18003 20.48 4.04003 20.67 3.71003 20.61C3.56003 20.59 3.55003 20.4 3.63003 20.3C3.66003 20.25 3.69003 20.2 3.72003 20.16C3.80003 20.24 3.89003 20.33 3.97003 20.41C3.90003 20.41 3.84003 20.42 3.77003 20.43C3.84003 20.38 3.90003 20.33 3.97003 20.28C3.95003 20.35 3.93003 20.41 3.92003 20.48C3.87003 20.68 3.60003 20.62 3.58003 20.43Z" fill="#F5A1AE"/>
    </g>
    <path d="M21.9701 18.85C22.1101 18.85 22.2301 18.74 22.2401 18.6C22.2401 18.47 22.4601 15.27 22.2401 13.11C22.2201 12.96 22.0901 12.85 21.9401 12.87C21.7901 12.89 21.6801 13.02 21.7001 13.17C21.9201 15.29 21.7001 18.54 21.7001 18.57C21.6901 18.72 21.8001 18.85 21.9501 18.86H21.9701V18.85Z" fill="#3B4072"/>
    <path d="M22.0201 19.19C22.0901 19.19 22.1601 19.16 22.2101 19.11C23.9801 17.39 26.8301 15.53 26.8601 15.51C26.9801 15.43 27.0201 15.26 26.9401 15.14C26.8601 15.01 26.6901 14.98 26.5701 15.06C26.5401 15.08 23.6501 16.96 21.8401 18.73C21.7301 18.83 21.7301 19.01 21.8401 19.11C21.8901 19.16 21.9601 19.19 22.0301 19.19H22.0201Z" fill="#3B4072"/>
    <path d="M11.0801 34.31C10.3201 33.78 11.4001 30.94 14.2001 27.18C17.0001 23.41 20.5201 17.91 21.3901 17.99C22.2601 18.07 23.0901 18.53 22.2701 19.99C21.4501 21.45 16.7901 28.69 14.9001 31.2C12.7701 34.01 11.5101 34.61 11.0801 34.32V34.31Z" fill="#3B4072"/>
    <g style="mix-blend-mode:soft-light">
      <path d="M21.7502 19.5C21.1002 20.79 20.2602 21.96 19.3102 23.04C19.1602 23.21 18.9102 22.96 19.0602 22.79C19.9902 21.72 20.7902 20.57 21.5502 19.39C21.6302 19.27 21.8102 19.37 21.7502 19.51V19.5Z" fill="#B1B3C7"/>
    </g>
    <g style="mix-blend-mode:soft-light">
      <path d="M18.74 23.82C18.5 24.3 18.25 24.73 17.87 25.1C17.75 25.21 17.58 25.07 17.65 24.93C17.88 24.48 18.17 24.07 18.42 23.63C18.54 23.42 18.85 23.6 18.74 23.82Z" fill="#B1B3C7"/>
    </g>
  </g>
  <defs>
    <clipPath id="clip0_193_3080">
      <rect width="26.98" height="34.38" fill="white" transform="matrix(-1 0 0 1 26.98 0)"/>
    </clipPath>
  </defs>
</svg>