<svg xmlns="http://www.w3.org/2000/svg" width="42" height="45" viewBox="0 0 42 45" fill="none">
  <g clip-path="url(#clip0_193_3378)">
    <path d="M17.9861 31.118C16.9156 30.5854 13.1715 27.656 9.11124 27.1615C5.05094 26.6671 2.93477 28.5834 3.39937 29.8171C3.84251 30.9819 10.1304 34.1573 11.8119 34.4816C13.4909 34.7951 17.9861 31.118 17.9861 31.118Z" fill="#FFB5D9"/>
    <path d="M17.4663 31.947C17.4663 31.947 10.2082 26.5465 8.7744 20.0207C7.34056 13.4948 13.7601 9.73994 18.0726 7.91631C22.3677 6.091 28.8356 5.14749 30.9077 8.01733C32.9798 10.8872 27.0181 27.19 26.3785 27.6206C25.739 28.0512 17.845 31.741 17.4621 31.9537L17.4663 31.947Z" fill="#FF9BCB"/>
    <g style="mix-blend-mode:multiply" opacity="0.42">
      <path d="M18.0661 7.91215C22.3678 6.091 28.8357 5.14749 30.9078 8.01733C31.1902 8.4069 31.3171 9.05929 31.3333 9.87334C31.2452 9.98441 31.1637 10.0996 31.1005 10.2448C30.1623 12.3453 25.7134 10.3044 23.8892 10.5466C21.0026 10.9359 20.8171 13.0002 19.3779 15.0452C18.0035 17.0016 15.0765 17.2638 13.3515 18.8803C12.3229 19.8431 11.5703 21.0436 11.2024 22.4114C10.9822 23.2342 10.8906 24.073 10.9076 24.9153C9.94469 23.4153 9.14461 21.7588 8.76121 20.0124C7.32738 13.4865 13.7469 9.73162 18.0594 7.90799L18.0661 7.91215Z" fill="#FF9BCB"/>
    </g>
    <g style="mix-blend-mode:soft-light">
      <path d="M24.948 24.2289C24.5012 22.0824 24.8975 19.9471 25.7144 17.9368C25.8101 17.7104 25.4428 17.5448 25.3271 17.7587C24.17 19.7959 23.9992 22.0726 24.4624 24.3402C24.53 24.6598 25.0263 24.546 24.9587 24.2264L24.948 24.2289Z" fill="#FFCCE4"/>
    </g>
    <g style="mix-blend-mode:soft-light">
      <path d="M22.0552 24.2447C21.3914 23.034 20.9742 21.7099 20.5769 20.3982C20.5001 20.1376 20.1332 20.2217 20.1669 20.4922C20.3549 21.9314 20.9123 23.2233 21.6209 24.4806C21.7765 24.763 22.2174 24.5312 22.0618 24.2489L22.0552 24.2447Z" fill="#FFCCE4"/>
    </g>
    <g style="mix-blend-mode:soft-light">
      <path d="M19.8984 25.4889C18.8647 24.7207 18.0346 23.7752 17.2186 22.7924C17.0546 22.5972 16.7332 22.8299 16.8523 23.0525C17.4987 24.2616 18.489 25.1873 19.599 25.9664C19.8958 26.171 20.1802 25.7025 19.8942 25.4955L19.8984 25.4889Z" fill="#FFCCE4"/>
    </g>
    <g style="mix-blend-mode:soft-light">
      <path d="M17.55 27.4074C16.4357 26.7826 15.6179 25.8911 14.8086 24.9125C14.6512 24.7214 14.3621 24.9467 14.4614 25.1568C15.0405 26.3699 16.0857 27.2377 17.2506 27.8849C17.564 28.0629 17.8634 27.5854 17.55 27.4074Z" fill="#FFCCE4"/>
    </g>
    <g style="mix-blend-mode:soft-light">
      <path d="M22.4483 20.2872C22.1323 19.008 22.1755 17.7601 22.228 16.4532C22.2341 16.2076 21.8476 16.1316 21.7916 16.3829C21.5093 17.7027 21.7065 19.0829 22.049 20.3787C22.1192 20.6352 22.5118 20.5395 22.4483 20.2872Z" fill="#FFCCE4"/>
    </g>
    <g style="mix-blend-mode:soft-light">
      <path d="M27.2419 20.2898C27.6513 18.9295 28.3044 17.6666 28.863 16.363C28.9488 16.1673 28.6527 16.0648 28.5396 16.2157C27.6824 17.406 27.2407 18.7737 26.8695 20.1764C26.8003 20.4194 27.1727 20.5328 27.2419 20.2898Z" fill="#FFCCE4"/>
    </g>
    <g style="mix-blend-mode:soft-light">
      <path d="M18.9083 21.5418C18.3234 20.8979 17.9627 20.1174 17.6535 19.3137C17.5551 19.058 17.2213 19.2368 17.245 19.4642C17.354 20.4103 17.8441 21.235 18.4912 21.9271C18.7398 22.1938 19.1527 21.8152 18.9083 21.5418Z" fill="#FFCCE4"/>
    </g>
    <g style="mix-blend-mode:soft-light">
      <path d="M23.8553 16.3186C23.9754 15.8765 24.0831 15.4543 24.1028 14.9954C24.1147 14.7996 23.8624 14.7893 23.7909 14.9477C23.6111 15.3524 23.5184 15.7655 23.4282 16.1894C23.373 16.4689 23.7827 16.5965 23.8553 16.3186Z" fill="#FFCCE4"/>
    </g>
    <g style="mix-blend-mode:soft-light">
      <path d="M26.4348 14.8128C26.6968 14.3211 26.983 13.8353 27.1746 13.3086C27.257 13.0739 26.9212 12.9465 26.7939 13.1347C26.4937 13.584 26.2798 14.0874 26.0434 14.5675C25.9161 14.8295 26.2925 15.084 26.4348 14.8128Z" fill="#FFCCE4"/>
    </g>
    <g style="mix-blend-mode:soft-light">
      <path d="M29.4497 12.804C29.2693 13.0328 29.0914 13.2723 28.911 13.5011C28.7664 13.6876 29.0806 13.8938 29.2294 13.7007C29.4031 13.4678 29.5811 13.2282 29.7548 12.9953C29.8887 12.8113 29.5968 12.6283 29.4564 12.8082L29.4497 12.804Z" fill="#FFCCE4"/>
    </g>
    <g style="mix-blend-mode:soft-light">
      <path d="M20.4042 18.6546L20.3725 17.5999C20.3664 17.2265 19.7773 17.2082 19.7942 17.5792L19.8217 18.6405C19.8278 19.0139 20.417 19.0322 20.4 18.6612L20.4042 18.6546Z" fill="#FFCCE4"/>
    </g>
    <g style="mix-blend-mode:soft-light">
      <path d="M22.7934 13.6941C22.8576 13.5034 22.9151 13.3085 22.9793 13.1177C23.0451 12.9095 22.7208 12.8078 22.6508 13.0226C22.5867 13.2134 22.5291 13.4083 22.465 13.5991C22.3991 13.8073 22.7234 13.909 22.7934 13.6941Z" fill="#FFCCE4"/>
    </g>
    <g style="mix-blend-mode:soft-light">
      <path d="M24.0477 25.8266C23.955 25.6207 23.8582 25.4214 23.7249 25.2362C23.623 25.0892 23.4253 25.2424 23.4401 25.381C23.4655 25.591 23.5382 25.7844 23.6068 25.9845C23.7159 26.3116 24.1866 26.1355 24.041 25.8225L24.0477 25.8266Z" fill="#FFCCE4"/>
    </g>
    <g style="mix-blend-mode:soft-light">
      <path d="M22.0656 26.9399C21.8767 26.7106 21.7651 26.4466 21.6509 26.1718C21.5691 25.9634 21.2776 26.104 21.3047 26.2966C21.3582 26.6535 21.5312 26.9375 21.769 27.2067C21.9438 27.3994 22.2296 27.1351 22.0697 26.9333L22.0656 26.9399Z" fill="#FFCCE4"/>
    </g>
    <g style="mix-blend-mode:soft-light">
      <path d="M19.8338 27.7583C19.6731 27.602 19.5165 27.4392 19.3557 27.283C19.1568 27.0844 18.8328 27.3801 19.0317 27.5787C19.1924 27.735 19.3532 27.8912 19.5098 28.054C19.7087 28.2526 20.0285 27.9635 19.8297 27.7649L19.8338 27.7583Z" fill="#FFCCE4"/>
    </g>
    <g style="mix-blend-mode:soft-light">
      <path d="M15.3432 22.984C15.0559 22.499 14.7645 22.0206 14.4366 21.5563C14.3256 21.3943 14.0681 21.584 14.1575 21.7509C14.4058 22.2392 14.6989 22.7001 14.9878 23.1677C15.1286 23.3853 15.4798 23.2082 15.3474 22.9773L15.3432 22.984Z" fill="#FFCCE4"/>
    </g>
    <g style="mix-blend-mode:soft-light">
      <path d="M16.1547 28.9256C15.8605 28.658 15.5663 28.3904 15.2679 28.1294C15.074 27.9524 14.7624 28.2283 14.963 28.4094C15.2572 28.677 15.5514 28.9447 15.8497 29.2056C16.0437 29.3826 16.3552 29.1068 16.1547 28.9256Z" fill="#FFCCE4"/>
    </g>
    <g style="mix-blend-mode:soft-light">
      <path d="M12.9132 23.8535C12.7154 23.4616 12.604 23.0498 12.4211 22.6488C12.3425 22.4794 12.0686 22.5479 12.065 22.7304C12.0743 23.2167 12.2646 23.6501 12.4805 24.072C12.6229 24.346 13.0381 24.1258 12.9065 23.8493L12.9132 23.8535Z" fill="#FFCCE4"/>
    </g>
    <g style="mix-blend-mode:soft-light">
      <path d="M13.2302 30.289C11.7229 29.9815 10.1496 29.4109 8.61796 29.3191C8.42215 29.3072 8.41183 29.5595 8.57022 29.631C9.9493 30.2462 11.6435 30.4029 13.1176 30.6896C13.3732 30.7389 13.499 30.3466 13.2369 30.2931L13.2302 30.289Z" fill="#FFDDED"/>
    </g>
    <g style="mix-blend-mode:soft-light">
      <path d="M10.1855 31.5493C9.44144 31.3508 8.73461 31.2402 7.96709 31.2118C7.81276 31.2074 7.77344 31.4322 7.92688 31.4822C8.66093 31.7115 9.36191 31.846 10.1302 31.9027C10.3327 31.9188 10.3846 31.6002 10.1855 31.5493Z" fill="#FFDDED"/>
    </g>
    <g style="mix-blend-mode:soft-light">
      <path d="M8.0737 28.0355C7.61822 27.9809 7.16027 27.9155 6.70469 27.9348C6.53541 27.9396 6.46035 28.2066 6.65279 28.2534C7.11817 28.3511 7.58781 28.3684 8.06408 28.3898C8.29474 28.405 8.29605 28.064 8.0737 28.0355Z" fill="#FFDDED"/>
    </g>
    <g style="mix-blend-mode:soft-light">
      <path d="M6.92789 29.7009C6.41767 29.6305 5.92892 29.629 5.42175 29.7453C5.2491 29.7849 5.26364 30.0712 5.4545 30.0615C5.94246 30.0348 6.43041 30.0081 6.91331 30.0336C7.12655 30.0472 7.12865 29.7344 6.92373 29.7076L6.92789 29.7009Z" fill="#FFDDED"/>
    </g>
    <g style="mix-blend-mode:soft-light">
      <path d="M17.3451 13.8076C16.7667 14.4059 16.1871 12.943 17.0128 12.8786C17.2361 12.8615 17.4491 13.0228 17.3882 13.2526C17.3665 13.3314 17.3274 13.4085 17.2411 13.4283C17.1622 13.4804 17.0958 13.4389 17.0554 13.3118C17.1393 13.2074 17.18 13.1867 17.1841 13.2539C17.2358 13.0092 16.9218 12.7291 16.7198 12.9629C16.4738 13.2521 16.5379 13.6804 16.9244 13.8303C17.3108 13.9802 17.7071 13.6281 17.672 13.2272C17.6386 12.809 17.1825 12.5785 16.8089 12.7323C16.4245 12.8886 16.306 13.3871 16.5154 13.731C17.0527 14.613 18.2413 13.7782 18.0152 12.9157C17.77 11.9951 16.4405 12.141 16.1589 12.9438C15.9981 13.4066 16.1466 13.9802 16.5669 14.253C16.9516 14.4941 17.438 14.411 17.6278 13.9757C17.6952 13.8239 17.4589 13.685 17.3492 13.801L17.3451 13.8076Z" fill="#FFCCE4"/>
    </g>
    <g style="mix-blend-mode:soft-light">
      <path d="M13.5275 15.9323C13.5275 15.9323 13.5159 15.9066 13.5135 15.8958C13.3846 16.1014 13.6116 16.2992 13.8092 16.2198C14.4925 15.9553 13.6309 14.9716 13.1305 15.6372C12.7347 16.1652 13.5962 16.6776 13.8335 16.078C13.9043 15.8914 13.6298 15.784 13.5234 15.939L13.5275 15.9323Z" fill="#FFCCE4"/>
    </g>
    <g style="mix-blend-mode:soft-light">
      <path d="M13.149 12.9695C13.129 13.0308 13.1024 13.0881 13.0866 13.1428C13.0444 13.0332 13.0089 12.9278 12.9625 12.8248C12.9366 12.9841 12.9148 13.1367 12.8996 13.2936C12.8861 13.5068 13.2062 13.6151 13.3027 13.4169C13.3726 13.276 13.4425 13.135 13.4992 12.9857C13.5517 12.8431 13.449 12.6678 13.3113 12.6369C13.0027 12.5544 12.5891 12.8309 12.7554 13.1847C12.9126 13.5234 13.3575 13.4328 13.4658 13.1126C13.5275 12.9111 13.2596 12.8078 13.149 12.9695Z" fill="#FFCCE4"/>
    </g>
    <g style="mix-blend-mode:soft-light">
      <path d="M11.0186 16.7802C10.9563 16.8058 10.8684 16.7692 10.8511 16.6937C10.8346 16.5725 11.1945 16.7796 11.2295 16.6353C11.2471 16.5631 11.2381 16.4743 11.18 16.4195C11.1734 16.4153 11.1602 16.407 11.1535 16.4028C11.0267 16.2956 10.8873 16.2821 10.7469 16.3881C10.3108 16.7153 10.7257 17.3357 11.2097 17.168C11.7369 16.9903 11.6309 16.2309 11.1465 16.075C10.7235 15.9392 10.1945 16.282 10.2925 16.7592C10.3733 17.161 10.8742 17.3642 11.2023 17.1356C11.4132 16.9907 11.2593 16.6909 11.0186 16.7802Z" fill="#FFCCE4"/>
    </g>
    <g style="mix-blend-mode:soft-light">
      <path d="M19.5735 9.929C19.5735 9.929 19.5353 9.96048 19.5162 9.97622C19.5809 9.96138 19.6457 9.94653 19.7212 9.92921C19.5636 9.88584 19.4141 9.97691 19.3575 10.1262C19.3275 10.2183 19.3713 10.3104 19.4443 10.3562C19.4576 10.3645 19.4708 10.3728 19.4841 10.3811C19.5637 10.431 19.6657 10.4303 19.7471 10.389C20.3658 10.0654 19.7414 9.17496 19.2378 9.65387C18.7617 10.1038 19.564 10.7546 19.8777 10.1659C19.9809 9.9719 19.7587 9.79567 19.5885 9.9199L19.5735 9.929Z" fill="#FFCCE4"/>
    </g>
    <g style="mix-blend-mode:soft-light">
      <path d="M25.5004 8.43375C25.295 8.70231 25.1814 8.67726 25.157 8.3478C25.1928 8.23168 25.2775 8.15546 25.3938 8.11745C25.6593 8.13608 25.3138 8.36296 25.3452 8.40117C25.3734 8.47423 25.3948 8.54314 25.4229 8.6162C25.4587 8.57393 25.5035 8.54661 25.5641 8.53839C25.4397 8.51582 25.3152 8.49324 25.1908 8.47066C25.2745 8.58777 25.3764 8.66094 25.5275 8.6263C25.7192 8.57097 25.8199 8.36616 25.7281 8.18845C25.7165 8.16271 25.7049 8.13697 25.6958 8.12202C25.6197 7.96343 25.4272 7.91669 25.2728 7.98617C25.0029 8.12188 24.7213 8.37955 24.837 8.7108C24.9502 9.03126 25.3434 9.11147 25.615 8.95834C26.1647 8.65624 26.3529 7.61926 25.5406 7.54427C24.9026 7.48612 24.3771 8.26538 24.7746 8.81029C25.1448 9.31034 25.9385 9.03182 25.834 8.40269C25.8002 8.20598 25.4841 8.23873 25.4896 8.43622L25.5004 8.43375Z" fill="#FFCCE4"/>
    </g>
    <g style="mix-blend-mode:soft-light">
      <path d="M28.4912 9.29264C28.4912 9.29264 28.492 9.32085 28.4903 9.33828L28.6026 9.1592C28.5148 9.04871 28.4576 9.02208 28.4317 9.10751C28.4192 9.12741 28.4068 9.14731 28.3943 9.16721C28.3062 9.27827 28.3798 9.42608 28.471 9.50172C28.7221 9.70537 29.0328 9.47513 29.0664 9.20051C29.105 8.87363 28.7767 8.63087 28.4695 8.75242C27.8037 9.01867 28.4504 10.0062 28.8826 9.46413C28.935 9.39533 28.9227 9.26752 28.8581 9.20852C28.8448 9.2002 28.8315 9.19188 28.8183 9.18357C28.6915 9.07635 28.4997 9.13167 28.4895 9.31006L28.4912 9.29264Z" fill="#FFCCE4"/>
    </g>
    <g style="mix-blend-mode:soft-light">
      <path d="M22.0875 8.26217C22.0875 8.26217 22.0832 8.34265 22.0799 8.3775C22.0019 8.38403 21.9305 8.39471 21.8525 8.40124C21.835 8.39956 21.8259 8.38461 21.8235 8.37382C21.8879 8.58053 22.1525 8.64479 22.2839 8.44997C22.4752 8.14488 22.2781 7.85501 21.9446 7.81222C21.84 7.80211 21.7354 7.86586 21.6813 7.95208C21.5607 8.14443 21.5986 8.3345 21.7528 8.48657C21.916 8.65359 22.1694 8.47056 22.0809 8.25801L22.0875 8.26217Z" fill="#FFCCE4"/>
    </g>
    <g style="mix-blend-mode:soft-light">
      <path d="M16.7387 10.1474C16.7387 10.1474 16.7552 10.1947 16.7626 10.2271C16.6937 10.2486 16.6273 10.2808 16.5584 10.3023C16.5584 10.3023 16.5692 10.2998 16.58 10.2974C16.7091 10.4892 17.0311 10.5063 17.102 10.2458C17.2029 9.89331 16.8499 9.54264 16.4895 9.70478C16.1358 9.87107 16.2372 10.3135 16.5324 10.4616C16.7505 10.5706 16.9443 10.2763 16.732 10.1432L16.7387 10.1474Z" fill="#FFCCE4"/>
    </g>
    <g style="mix-blend-mode:soft-light">
      <path d="M10.9008 19.783C10.9515 19.7317 10.998 19.6869 11.0553 19.6397C10.9665 19.6487 10.8885 19.6552 10.7997 19.6642L10.9805 19.7591L10.8988 19.403C10.8523 19.4477 10.8074 19.4751 10.7468 19.4833C10.6198 19.5237 10.5483 19.6821 10.6535 19.7943C10.8797 20.0378 11.1678 19.9319 11.3432 19.6816C11.4471 19.5158 11.3213 19.2891 11.1322 19.2813C11.0625 19.2746 10.9952 19.2787 10.9256 19.2719C10.8625 19.2693 10.7745 19.3066 10.7437 19.3704C10.7129 19.4343 10.6821 19.4981 10.6513 19.562C10.5648 19.7295 10.7703 19.9322 10.9182 19.7847L10.9008 19.783Z" fill="#FFCCE4"/>
    </g>
    <path d="M27.3488 28.1364L27.3355 28.1281C27.2137 28.0425 27.1849 27.8673 27.2705 27.7455C27.2871 27.7189 29.2384 25.034 30.1896 23.0895C30.2554 22.9551 30.4231 22.894 30.5574 22.9597C30.6984 23.0296 30.7529 23.1932 30.6805 23.3233C29.7002 25.3143 27.7888 27.9503 27.7074 28.0656C27.6259 28.1808 27.4574 28.2137 27.338 28.1389L27.3488 28.1364Z" fill="#3B4072"/>
    <path d="M27.2079 28.464C27.1482 28.4266 27.1052 28.3626 27.0878 28.2871C27.0532 28.136 27.1513 27.9942 27.2957 27.9555C29.8108 27.4072 33.3234 27.3457 33.3582 27.3491C33.5101 27.3427 33.6352 27.4673 33.6416 27.6192C33.6481 27.771 33.5234 27.8962 33.3716 27.9026C33.3367 27.8992 29.8764 27.9657 27.4153 28.5016C27.3398 28.5189 27.2676 28.5014 27.2079 28.464Z" fill="#3B4072"/>
    <path d="M9.59478 35.5862C9.22756 34.7277 11.688 32.8517 16.1398 31.1154C20.5916 29.3791 26.5958 26.5372 27.3103 27.0776C28.0249 27.6179 28.485 28.4608 26.9919 29.2802C25.4988 30.0996 17.5666 33.8208 14.5728 34.9559C11.2244 36.2291 9.80155 36.067 9.59894 35.5796L9.59478 35.5862Z" fill="#3B4072"/>
    <g style="mix-blend-mode:soft-light">
      <path d="M26.697 28.3654C25.3959 28.9817 24.0799 29.5333 22.706 29.9563C22.4885 30.0232 22.5635 30.3751 22.7876 30.3124C24.1964 29.8928 25.5472 29.3446 26.8029 28.5796C26.9333 28.5043 26.8324 28.3116 26.6929 28.372L26.697 28.3654Z" fill="#B1B3C7"/>
    </g>
    <g style="mix-blend-mode:soft-light">
      <path d="M21.7046 30.3449C21.2487 30.5857 20.7763 30.7792 20.332 31.0458C20.1974 31.1277 20.2643 31.3452 20.4328 31.3123C20.9599 31.2085 21.4199 30.961 21.8834 30.6787C22.0927 30.5512 21.9272 30.2257 21.7046 30.3449Z" fill="#B1B3C7"/>
    </g>
  </g>
  <defs>
    <clipPath id="clip0_193_3378">
      <rect width="27.4692" height="35" fill="white" transform="translate(18.5916) rotate(32.0859)"/>
    </clipPath>
  </defs>
</svg>