<svg xmlns="http://www.w3.org/2000/svg" width="28" height="34" viewBox="0 0 28 34" fill="none">
  <g clip-path="url(#clip0_193_3189)">
    <path d="M13.1999 26.6C14.3799 26.5 18.8999 25.16 22.8299 26.19C26.7599 27.22 28.0099 29.76 27.1299 30.73C26.2999 31.65 19.3299 32.28 17.6599 31.96C15.9899 31.64 13.1899 26.6 13.1899 26.6H13.1999Z" fill="#B4A1EC"/>
    <path d="M13.37 27.56C13.37 27.56 22.05 25.23 25.75 19.73C29.46 14.23 24.9 8.42 21.6 5.16C18.3 1.91 12.67 -1.33 9.71 0.560001C6.75 2.45 6.29 19.68 6.73 20.3C7.17 20.92 13.1 27.22 13.37 27.56Z" fill="#B4A1EC"/>
    <g style="mix-blend-mode:multiply" opacity="0.42">
      <path d="M21.6 5.16C18.3 1.91 12.67 -1.33 9.71001 0.560001C9.31001 0.820001 8.95001 1.37 8.64001 2.11C8.68001 2.24 8.71001 2.38 8.72001 2.54C8.82001 4.82 13.67 4.56 15.27 5.46C17.79 6.87 17.21 8.85 17.78 11.26C18.33 13.57 20.94 14.88 21.94 17C22.54 18.27 22.79 19.65 22.63 21.05C22.54 21.89 22.31 22.7 21.99 23.47C23.43 22.44 24.77 21.2 25.76 19.73C29.47 14.23 24.91 8.42 21.61 5.16H21.6Z" fill="#B4A1EC"/>
    </g>
    <g style="mix-blend-mode:soft-light">
      <path d="M9.27998 17.72C10.48 15.89 10.9 13.81 10.89 11.64C10.89 11.41 11.28 11.34 11.31 11.58C11.63 13.89 10.97 16.03 9.71998 17.97C9.53998 18.24 9.10998 17.99 9.28998 17.72H9.27998Z" fill="#D9CFF5"/>
    </g>
    <g style="mix-blend-mode:soft-light">
      <path d="M11.9299 18.78C12.9999 17.89 13.8799 16.81 14.7399 15.73C14.8899 15.54 15.1799 15.78 15.0699 15.98C14.3799 17.24 13.3899 18.23 12.2799 19.13C12.0399 19.33 11.6899 18.99 11.9299 18.78Z" fill="#D9CFF5"/>
    </g>
    <g style="mix-blend-mode:soft-light">
      <path d="M13.54 20.98C14.8 20.68 15.99 20.14 17.05 19.4L13.54 20.98Z" fill="#B4A1EC"/>
      <path d="M13.46 20.72C14.7 20.39 15.81 19.82 16.93 19.21C17.14 19.09 17.4 19.39 17.2 19.56C16.16 20.44 14.92 20.94 13.61 21.25C13.26 21.33 13.12 20.81 13.46 20.72Z" fill="#D9CFF5"/>
    </g>
    <g style="mix-blend-mode:soft-light">
      <path d="M15 23.61C16.26 23.47 17.47 22.98 18.48 22.22L15 23.61Z" fill="#B4A1EC"/>
      <path d="M15 23.33C16.23 23.17 17.3 22.64 18.37 22.04C18.58 21.93 18.81 22.2 18.63 22.37C17.63 23.3 16.34 23.71 15 23.89C14.64 23.94 14.65 23.38 15 23.33Z" fill="#D9CFF5"/>
    </g>
    <g style="mix-blend-mode:soft-light">
      <path d="M13.2001 15.09C13.9701 14.05 14.5401 12.85 14.8401 11.6L13.2001 15.09Z" fill="#B4A1EC"/>
      <path d="M13.02 14.99C13.78 13.93 14.21 12.77 14.63 11.54C14.72 11.27 15.11 11.38 15.06 11.66C14.83 12.96 14.15 14.14 13.38 15.2C13.23 15.41 12.88 15.2 13.03 14.99H13.02Z" fill="#D9CFF5"/>
    </g>
    <g style="mix-blend-mode:soft-light">
      <path d="M8.79985 13.24C8.94985 11.84 8.92985 10.42 8.71985 9.02L8.79985 13.24Z" fill="#B4A1EC"/>
      <path d="M8.60995 13.24C8.72995 11.83 8.58995 10.43 8.54995 9.02C8.54995 8.82 8.84995 8.78 8.89995 8.97C9.24995 10.38 9.16995 11.8 8.99995 13.23C8.96995 13.47 8.58995 13.48 8.60995 13.23V13.24Z" fill="#D9CFF5"/>
    </g>
    <g style="mix-blend-mode:soft-light">
      <path d="M15.97 17.68C16.77 17.31 17.47 16.72 17.96 16L15.97 17.68Z" fill="#B4A1EC"/>
      <path d="M15.8199 17.44C16.5999 17.05 17.2199 16.48 17.7999 15.84C17.9699 15.65 18.2599 15.89 18.1399 16.1C17.6899 16.94 16.9499 17.52 16.0999 17.92C15.7699 18.07 15.4899 17.6 15.8199 17.43V17.44Z" fill="#D9CFF5"/>
    </g>
    <g style="mix-blend-mode:soft-light">
      <path d="M13.4099 10.82C13.4699 10.39 13.5299 9.97 13.5999 9.54L13.4099 10.82Z" fill="#B4A1EC"/>
      <path d="M13.19 10.82C13.24 10.37 13.29 9.94 13.44 9.5C13.5 9.33 13.74 9.36 13.75 9.54C13.77 10 13.7 10.43 13.62 10.88C13.58 11.12 13.16 11.07 13.18 10.82H13.19Z" fill="#D9CFF5"/>
    </g>
    <g style="mix-blend-mode:soft-light">
      <path d="M11.5798 8.42C11.5298 7.89 11.4798 7.35 11.4298 6.82L11.5798 8.42Z" fill="#B4A1EC"/>
      <path d="M11.3499 8.42C11.2899 7.89 11.1999 7.35 11.2199 6.82C11.2199 6.59 11.5799 6.53 11.6299 6.76C11.7499 7.3 11.7699 7.86 11.8099 8.42C11.8299 8.72 11.3799 8.71 11.3499 8.42Z" fill="#D9CFF5"/>
    </g>
    <g style="mix-blend-mode:soft-light">
      <path d="M9.13987 5.54C9.21987 5.82 9.29987 6.1 9.36987 6.39L9.13987 5.54Z" fill="#B4A1EC"/>
      <path d="M9.30982 5.5C9.38982 5.78 9.46982 6.06 9.54982 6.34C9.61982 6.57 9.24982 6.67 9.18982 6.44C9.10982 6.16 9.03982 5.87 8.95982 5.59C8.89982 5.37 9.23982 5.28 9.29982 5.5H9.30982Z" fill="#D9CFF5"/>
    </g>
    <g style="mix-blend-mode:soft-light">
      <path d="M15.79 14.31C15.93 13.99 16.07 13.67 16.2 13.34L15.79 14.31Z" fill="#B4A1EC"/>
      <path d="M15.54 14.17C15.68 13.85 15.82 13.53 15.95 13.2C16.1 12.86 16.59 13.15 16.45 13.49C16.31 13.81 16.17 14.13 16.04 14.46C15.89 14.8 15.4 14.51 15.54 14.17Z" fill="#D9CFF5"/>
    </g>
    <g style="mix-blend-mode:soft-light">
      <path d="M15.2901 8.78C15.3001 8.58 15.3201 8.38 15.3301 8.18L15.2901 8.78Z" fill="#B4A1EC"/>
      <path d="M15.12 8.78C15.13 8.58 15.15 8.38 15.16 8.18C15.17 7.96 15.51 7.96 15.5 8.18C15.49 8.38 15.47 8.58 15.46 8.78C15.45 9 15.11 9 15.12 8.78Z" fill="#D9CFF5"/>
    </g>
    <g style="mix-blend-mode:soft-light">
      <path d="M9.67986 19.68L10.1099 19.22L9.67986 19.68Z" fill="#B4A1EC"/>
      <path d="M9.51984 19.51C9.67984 19.35 9.83983 19.2 10.0298 19.08C10.1698 18.99 10.3298 19.17 10.2498 19.3C10.1398 19.5 9.98984 19.67 9.83984 19.84C9.64984 20.07 9.28984 19.72 9.50984 19.51H9.51984Z" fill="#D9CFF5"/>
    </g>
    <g style="mix-blend-mode:soft-light">
      <path d="M11.0397 21.43C11.3197 21.29 11.5597 21.09 11.7397 20.84L11.0397 21.43Z" fill="#B4A1EC"/>
      <path d="M10.9399 21.26C11.1999 21.11 11.3999 20.92 11.6099 20.71C11.7599 20.56 12.0099 20.75 11.8999 20.93C11.7199 21.24 11.4699 21.44 11.1399 21.6C10.9099 21.72 10.7099 21.38 10.9399 21.25V21.26Z" fill="#D9CFF5"/>
    </g>
    <g style="mix-blend-mode:soft-light">
      <path d="M12.8099 23.02C13.0199 22.93 13.2199 22.84 13.4299 22.76L12.8099 23.02Z" fill="#B4A1EC"/>
      <path d="M12.6999 22.83C12.9099 22.74 13.1099 22.65 13.3199 22.56C13.6099 22.44 13.7799 22.84 13.4899 22.96C13.2799 23.05 13.0799 23.13 12.8699 23.22C12.6499 23.31 12.4799 22.92 12.6999 22.83Z" fill="#D9CFF5"/>
    </g>
    <g style="mix-blend-mode:soft-light">
      <path d="M18.73 20.22C19.16 19.89 19.6 19.57 20.03 19.24L18.73 20.22Z" fill="#B4A1EC"/>
      <path d="M18.63 20.04C19.06 19.71 19.49 19.38 19.95 19.09C20.11 18.99 20.3 19.23 20.16 19.36C19.74 19.73 19.29 20.06 18.84 20.39C18.63 20.54 18.44 20.2 18.64 20.04H18.63Z" fill="#D9CFF5"/>
    </g>
    <g style="mix-blend-mode:soft-light">
      <path d="M15.7699 25.44C16.1399 25.3 16.5099 25.16 16.8799 25.03L15.7699 25.44Z" fill="#B4A1EC"/>
      <path d="M15.72 25.24C16.09 25.1 16.46 24.96 16.83 24.83C17.08 24.74 17.19 25.14 16.94 25.23C16.57 25.37 16.2 25.51 15.83 25.64C15.58 25.73 15.47 25.33 15.72 25.24Z" fill="#D9CFF5"/>
    </g>
    <g style="mix-blend-mode:soft-light">
      <path d="M20.68 21.93C21.01 21.65 21.3 21.32 21.54 20.96L20.68 21.93Z" fill="#B4A1EC"/>
      <path d="M20.51 21.76C20.83 21.47 21.09 21.12 21.4 20.82C21.52 20.7 21.79 20.82 21.71 21C21.52 21.45 21.2 21.77 20.84 22.09C20.61 22.29 20.28 21.96 20.51 21.76Z" fill="#D9CFF5"/>
    </g>
    <g style="mix-blend-mode:soft-light">
      <path d="M17.8599 27.79C19.3799 28.07 20.9099 28.32 22.4399 28.53L17.8599 27.79Z" fill="#B4A1EC"/>
      <path d="M17.92 27.59C19.41 27.86 21.04 27.9 22.48 28.37C22.65 28.43 22.62 28.67 22.44 28.68C20.92 28.75 19.29 28.27 17.81 27.98C17.55 27.93 17.66 27.54 17.92 27.58V27.59Z" fill="#E5DFF9"/>
    </g>
    <g style="mix-blend-mode:soft-light">
      <path d="M20.2199 30.03C20.9299 30.18 21.6499 30.33 22.3599 30.48L20.2199 30.03Z" fill="#B4A1EC"/>
      <path d="M20.2198 29.85C20.9798 29.94 21.6698 30.09 22.3998 30.34C22.5398 30.39 22.5298 30.62 22.3598 30.61C21.5998 30.55 20.8998 30.42 20.1698 30.2C19.9898 30.14 20.0098 29.82 20.2198 29.85Z" fill="#E5DFF9"/>
    </g>
    <g style="mix-blend-mode:soft-light">
      <path d="M23.4097 27.55C23.8497 27.68 24.2797 27.81 24.7197 27.95L23.4097 27.55Z" fill="#B4A1EC"/>
      <path d="M23.4498 27.38C23.9098 27.5 24.3598 27.61 24.7898 27.81C24.9698 27.89 24.8298 28.13 24.6698 28.1C24.2198 28.02 23.7898 27.87 23.3598 27.72C23.1498 27.65 23.2298 27.32 23.4498 27.38Z" fill="#E5DFF9"/>
    </g>
    <g style="mix-blend-mode:soft-light">
      <path d="M23.86 29.49C24.33 29.62 24.78 29.81 25.2 30.06L23.86 29.49Z" fill="#B4A1EC"/>
      <path d="M23.9 29.33C24.4 29.46 24.85 29.63 25.27 29.92C25.44 30.04 25.29 30.28 25.11 30.19C24.68 29.99 24.26 29.79 23.81 29.65C23.61 29.58 23.69 29.28 23.9 29.33Z" fill="#E5DFF9"/>
    </g>
    <g style="mix-blend-mode:soft-light">
      <path d="M19.9598 10.93C19.9798 11.13 20.1398 11.29 20.3398 11.33C20.5298 11.37 20.7398 11.31 20.8998 11.2C21.2198 10.98 21.3698 10.52 21.2098 10.17C21.0498 9.82 20.5598 9.64 20.2298 9.85C19.8998 10.06 19.8698 10.62 20.1998 10.83C20.3498 10.93 20.5598 10.94 20.7198 10.84C20.8698 10.74 20.9398 10.52 20.8598 10.36C20.7798 10.2 20.5398 10.13 20.3998 10.23C20.2498 10.34 20.2598 10.6 20.4298 10.69C20.5898 10.77 20.8198 10.6 20.7698 10.42" fill="#B4A1EC"/>
      <path d="M20.1198 10.89C20.3898 11.53 21.4298 10.61 20.8298 10.16C20.6998 10.07 20.4798 10.03 20.3498 10.16C20.1898 10.32 20.3798 10.76 20.4698 10.36C20.5298 10.09 20.9498 10.09 21.0098 10.36C21.1398 10.88 20.4798 11.29 20.0998 10.86C19.7498 10.47 20.0798 9.86 20.5798 9.88C21.1398 9.9 21.3598 10.58 21.0198 10.98C20.6398 11.44 19.9198 11.23 19.6998 10.73C19.1898 9.55 21.0298 8.95 21.4498 10.1C21.6498 10.63 21.3698 11.25 20.8698 11.48C20.3898 11.71 19.8198 11.48 19.7798 10.93C19.7598 10.72 20.0498 10.72 20.1098 10.88L20.1198 10.89Z" fill="#D9CFF5"/>
    </g>
    <g style="mix-blend-mode:soft-light">
      <path d="M22.6898 14.25C22.6598 14.42 22.9298 14.52 23.0498 14.4C23.1698 14.27 23.0898 14.04 22.9398 13.97C22.8598 13.93 22.7498 13.93 22.6798 13.99C22.6098 14.05 22.5998 14.17 22.6598 14.23" fill="#B4A1EC"/>
      <path d="M22.8499 14.21C22.8499 14.21 22.8699 14.19 22.8699 14.17C22.9099 14.39 22.6699 14.55 22.4899 14.39C21.9499 13.89 23.0599 13.31 23.3099 14.05C23.5199 14.69 22.5499 14.9 22.5099 14.25C22.5099 14.06 22.7899 14.02 22.8399 14.2L22.8499 14.21Z" fill="#D9CFF5"/>
    </g>
    <g style="mix-blend-mode:soft-light">
      <path d="M24.1101 11.65C24.0801 11.79 24.2901 11.9 24.3901 11.8C24.4901 11.7 24.3701 11.49 24.2301 11.53C24.2201 11.67 24.2001 11.8 24.1901 11.94" fill="#B4A1EC"/>
      <path d="M24.28 11.61C24.26 11.68 24.25 11.75 24.23 11.81C24.32 11.74 24.41 11.67 24.5 11.6C24.47 11.73 24.44 11.86 24.4 11.99C24.32 12.23 24 12.17 23.97 11.93C23.96 11.79 23.95 11.66 23.95 11.52C23.95 11.33 24.13 11.21 24.3 11.25C24.6 11.32 24.84 11.75 24.53 11.98C24.26 12.19 23.94 11.94 23.93 11.64C23.93 11.44 24.21 11.41 24.28 11.59V11.61Z" fill="#D9CFF5"/>
    </g>
    <g style="mix-blend-mode:soft-light">
      <path d="M24.7097 16.05C24.8597 16.28 25.2897 16.21 25.3397 15.94C25.3997 15.67 25.0297 15.43 24.7997 15.58C24.7097 15.64 24.6497 15.76 24.6797 15.87C24.7097 15.98 24.8397 16.05 24.9397 16C25.0397 15.95 25.0397 15.77 24.9297 15.74" fill="#B4A1EC"/>
      <path d="M24.8498 15.91C25.0798 15.95 25.0898 15.93 24.8698 15.85C24.7398 15.85 24.6898 15.81 24.7198 15.73C24.7298 15.62 24.7798 15.55 24.8798 15.52C24.8898 15.52 24.9098 15.51 24.9198 15.5C25.0398 15.46 25.1798 15.53 25.2398 15.63C25.5098 16.07 24.9898 16.52 24.5798 16.23C24.1398 15.92 24.4198 15.25 24.9098 15.22C25.3798 15.18 25.8198 15.73 25.5398 16.16C25.2998 16.54 24.7698 16.48 24.5398 16.14C24.3998 15.95 24.6898 15.76 24.8498 15.9V15.91Z" fill="#D9CFF5"/>
    </g>
    <g style="mix-blend-mode:soft-light">
      <path d="M19.2999 6.55C19.3099 6.71 19.5599 6.77 19.6499 6.64C19.7399 6.51 19.5799 6.31 19.4299 6.35C19.2799 6.4 19.2599 6.64 19.3999 6.71" fill="#B4A1EC"/>
      <path d="M19.4299 6.41C19.5299 6.52 19.5999 6.56 19.5999 6.71C19.5999 6.83 19.5099 6.9 19.3999 6.91C19.3799 6.91 19.3599 6.91 19.3299 6.91C19.2399 6.91 19.1399 6.85 19.0999 6.78C18.7599 6.17 19.7099 5.75 19.8999 6.4C20.0799 7 19.1199 7.18 19.0999 6.54C19.0999 6.38 19.3199 6.28 19.4299 6.4V6.41Z" fill="#D9CFF5"/>
    </g>
    <g style="mix-blend-mode:soft-light">
      <path d="M14.3899 2.86C14.2699 3.03 14.3599 3.3 14.5499 3.38C14.7399 3.46 14.9799 3.36 15.0799 3.18C15.1899 3 15.1699 2.77 15.0599 2.59C14.9399 2.38 14.6299 2.26 14.4499 2.41C14.2999 2.54 14.3199 2.78 14.3799 2.97C14.4099 3.07 14.4599 3.17 14.5399 3.23C14.6199 3.29 14.7599 3.3 14.8199 3.22C14.9299 3.09 14.7999 2.91 14.6699 2.79C14.6199 2.8 14.5799 2.86 14.5999 2.91" fill="#B4A1EC"/>
      <path d="M14.5599 2.91C14.7899 2.67 14.8399 2.6 14.7099 2.7C14.5999 2.77 14.5199 2.88 14.4799 3.02C14.6099 3.04 14.7299 3.05 14.8599 3.07C14.7499 3.14 14.6099 3.2 14.4899 3.11C14.3399 3 14.2699 2.78 14.4299 2.63C14.4499 2.61 14.4699 2.6 14.4899 2.58C14.6099 2.47 14.8099 2.45 14.9299 2.58C15.1299 2.8 15.3099 3.13 15.0999 3.41C14.9299 3.63 14.6099 3.64 14.3899 3.48C13.8799 3.11 13.9499 1.99 14.7299 2.07C15.3999 2.14 15.6899 3.09 15.1499 3.5C14.6299 3.9 13.9499 3.37 14.2599 2.79C14.3499 2.62 14.6399 2.74 14.5799 2.92L14.5599 2.91Z" fill="#D9CFF5"/>
    </g>
    <g style="mix-blend-mode:soft-light">
      <path d="M11.3001 2.56C11.2301 2.56 11.2901 2.68 11.3601 2.69C11.4801 2.69 11.5901 2.6 11.6001 2.48C11.6101 2.36 11.4601 2.26 11.3601 2.32C11.2601 2.37 11.2701 2.56 11.3901 2.58" fill="#B4A1EC"/>
      <path d="M11.48 2.61C11.56 2.43 11.6 2.4 11.61 2.52C11.64 2.65 11.58 2.78 11.44 2.81C11.42 2.81 11.41 2.81 11.39 2.82C11.26 2.85 11.13 2.8 11.05 2.68C10.7 2.13 11.58 1.7 11.81 2.29C12 2.78 11.22 3.18 11.05 2.64C11.01 2.53 11.09 2.42 11.2 2.38C11.21 2.38 11.23 2.38 11.24 2.37C11.38 2.32 11.51 2.47 11.47 2.6L11.48 2.61Z" fill="#D9CFF5"/>
    </g>
    <g style="mix-blend-mode:soft-light">
      <path d="M17.89 4.16C17.98 4.13 18.01 4 17.95 3.93C17.86 3.89 17.75 3.97 17.75 4.07" fill="#B4A1EC"/>
      <path d="M17.72 4.06C17.79 4.12 17.86 4.18 17.93 4.24C17.76 4.41 17.53 4.27 17.51 4.06C17.48 3.79 17.69 3.59 17.96 3.63C18.13 3.65 18.24 3.75 18.26 3.93C18.28 4.13 18.19 4.25 18.01 4.34C17.85 4.42 17.61 4.24 17.74 4.07L17.72 4.06Z" fill="#D9CFF5"/>
    </g>
    <g style="mix-blend-mode:soft-light">
      <path d="M22.05 7.89C22.17 7.91 22.29 7.75 22.22 7.64C22.15 7.53 21.95 7.56 21.92 7.69" fill="#B4A1EC"/>
      <path d="M22 7.71C22.02 7.78 22.04 7.86 22.07 7.93C21.84 8.07 21.62 7.84 21.66 7.61C21.72 7.24 22.26 7.11 22.45 7.46C22.63 7.78 22.37 8.05 22.05 8.08C21.84 8.1 21.79 7.75 22 7.71Z" fill="#D9CFF5"/>
    </g>
    <g style="mix-blend-mode:soft-light">
      <path d="M24.03 18.66C24.01 18.59 23.99 18.52 23.98 18.46C23.91 18.46 23.84 18.44 23.77 18.43C23.77 18.56 23.9 18.68 24.03 18.66Z" fill="#B4A1EC"/>
      <path d="M23.8799 18.74C23.8499 18.68 23.8299 18.62 23.7899 18.55C23.8499 18.58 23.9099 18.62 23.9699 18.65C23.8999 18.65 23.8299 18.66 23.7599 18.67C23.8399 18.56 23.9299 18.45 24.0099 18.34C24.0399 18.41 24.0899 18.47 24.1499 18.51C24.2599 18.61 24.1899 18.78 24.0699 18.82C23.7799 18.93 23.5999 18.75 23.5099 18.48C23.4499 18.3 23.6399 18.1 23.8299 18.16C23.8999 18.18 23.9599 18.21 24.0299 18.23C24.1199 18.26 24.1799 18.33 24.1799 18.43C24.1799 18.5 24.1799 18.57 24.1999 18.63C24.2199 18.8 23.9499 18.87 23.8799 18.72V18.74Z" fill="#D9CFF5"/>
    </g>
    <path d="M5.58997 20.43C5.58997 20.43 5.62997 20.43 5.65997 20.43C5.80997 20.39 5.88997 20.24 5.85997 20.1C5.85997 20.07 5.03997 16.88 4.86997 14.73C4.85997 14.58 4.71997 14.46 4.57997 14.48C4.42997 14.49 4.31997 14.62 4.32997 14.77C4.49997 16.97 5.29997 20.1 5.33997 20.23C5.36997 20.35 5.47997 20.43 5.59997 20.43H5.58997Z" fill="#3B4072"/>
    <path d="M5.59986 20.78C5.68986 20.78 5.76986 20.74 5.82986 20.66C5.90986 20.54 5.87986 20.37 5.75986 20.28C3.63986 18.86 0.419862 17.52 0.389862 17.5C0.249862 17.44 0.0898614 17.5 0.0298615 17.65C-0.0301385 17.79 0.0298629 17.95 0.179863 18.01C0.209863 18.02 3.37986 19.34 5.45986 20.74C5.50986 20.77 5.55986 20.79 5.60986 20.79L5.59986 20.78Z" fill="#3B4072"/>
    <path d="M19.2999 33.79C19.9599 33.13 18.3699 30.5 14.8899 27.27C11.4199 24.04 6.90993 19.22 6.05993 19.46C5.19993 19.69 4.46993 20.31 5.54993 21.61C6.62993 22.91 12.5899 29.25 14.9399 31.39C17.5699 33.79 18.9399 34.16 19.3099 33.79H19.2999Z" fill="#3B4072"/>
    <g style="mix-blend-mode:soft-light">
      <path d="M6.14982 20.87C7.12982 21.92 8.15982 22.93 9.27982 23.82C9.45982 23.96 9.20982 24.21 9.02982 24.07C7.88982 23.17 6.84982 22.17 5.96982 21C5.88982 20.89 6.05982 20.77 6.14982 20.86V20.87Z" fill="#B1B3C7"/>
    </g>
    <g style="mix-blend-mode:soft-light">
      <path d="M10.03 24.52C10.36 24.91 10.73 25.26 11.04 25.67C11.13 25.79 11.02 25.99 10.87 25.89C10.4 25.59 10.07 25.19 9.74001 24.74C9.61001 24.57 9.90001 24.35 10.04 24.51L10.03 24.52Z" fill="#B1B3C7"/>
    </g>
  </g>
  <defs>
    <clipPath id="clip0_193_3189">
      <rect width="27.4" height="33.92" fill="white" transform="matrix(-1 0 0 1 27.3999 0)"/>
    </clipPath>
  </defs>
</svg>