<svg xmlns="http://www.w3.org/2000/svg" width="53" height="47" viewBox="0 0 53 47" fill="none">
    <g style="mix-blend-mode: luminosity">
        <path d="M18.1004 25.5973C16.0402 23.6749 13.235 22.6953 10.4344 22.455C7.6338 22.2147 4.81482 22.6676 2.07861 23.3237C3.89969 23.7212 5.33907 25.0751 6.97619 25.9623C10.5264 27.8939 15.0193 27.5288 18.6246 25.6989" fill="#ECEAE7" />
        <path d="M18.2797 25.3939L17.8796 25.0473L17.4473 24.71C17.1576 24.4974 16.8541 24.2987 16.5506 24.1093C16.2379 23.929 15.9252 23.7534 15.6079 23.5917C15.286 23.4346 14.9549 23.2913 14.6238 23.1573C14.2881 23.0279 13.9524 22.9124 13.6075 22.8061C13.2672 22.6999 12.9223 22.6074 12.5728 22.5243C12.2233 22.4457 11.8738 22.3764 11.5197 22.3163C11.1656 22.2609 10.8161 22.2146 10.4528 22.1777C10.1033 22.1453 9.74917 22.1268 9.39048 22.1084C9.03178 22.0945 8.67768 22.0853 8.31899 22.0899C7.60619 22.0945 6.8934 22.1361 6.18521 22.2054C4.76882 22.3487 3.36163 22.5797 1.97283 22.8708L0 23.2821L1.98203 23.7858C3.29265 24.1185 4.42852 25.0103 5.66556 25.856C5.97827 26.0686 6.29557 26.2765 6.63588 26.4706C7.01757 26.6647 7.27509 26.8218 7.67518 26.9835C8.04767 27.1545 8.41556 27.2746 8.78805 27.3948C9.16514 27.4964 9.53764 27.6073 9.92392 27.672C10.3056 27.7506 10.6919 27.806 11.0782 27.8384C11.4645 27.8661 11.8508 27.8892 12.2371 27.8846L12.8165 27.8707L13.3913 27.8153C13.773 27.7783 14.1547 27.7182 14.5318 27.6443C14.9089 27.5658 15.2814 27.478 15.6447 27.367C16.0126 27.27 16.3713 27.1221 16.7254 26.9927C17.0749 26.8449 17.4243 26.697 17.7647 26.5168C18.1049 26.3504 18.4269 26.1471 18.7488 25.9484L18.505 25.4678C18.1555 25.5833 17.8244 25.7174 17.4749 25.8144C17.1346 25.9345 16.7851 26.0177 16.4402 26.1148C16.0907 26.1979 15.7458 26.2857 15.3963 26.3458C15.0468 26.4197 14.6973 26.4706 14.3478 26.5122C12.9452 26.6878 11.5289 26.6785 10.1585 26.4197C9.81355 26.3643 9.47785 26.2673 9.14215 26.1795C8.81105 26.0732 8.47994 25.9715 8.17183 25.8421C7.87752 25.7451 7.49123 25.5325 7.21531 25.4031C6.9072 25.2414 6.60368 25.0566 6.29098 24.8717C5.67475 24.4974 5.05394 24.0769 4.37793 23.7072C3.70653 23.3329 2.97074 23.0141 2.17977 22.8616L2.18897 23.7812C3.53638 23.4207 4.89298 23.0973 6.26798 22.9124C6.95318 22.8154 7.64298 22.7461 8.33738 22.7137C8.68228 22.6998 9.02718 22.6906 9.37668 22.6906C9.71698 22.6906 10.0619 22.7137 10.416 22.7368C10.7517 22.7645 11.1012 22.8015 11.4415 22.8477C11.7818 22.8986 12.1221 22.9586 12.4624 23.0279C12.7981 23.1019 13.1338 23.1851 13.4649 23.2821C13.796 23.3838 14.1225 23.4993 14.4444 23.6194C14.7663 23.7488 15.079 23.8874 15.3917 24.0353C15.6999 24.1924 16.0034 24.3542 16.2931 24.5344C16.5828 24.7192 16.8679 24.9133 17.1392 25.1212L17.5347 25.4401L17.9256 25.7913L18.2797 25.3846V25.3939Z" fill="#896B85" />
        <path d="M39.3555 38.8733C37.8793 37.9075 36.3296 36.9371 34.5913 36.6922C32.5173 36.401 30.4295 37.1958 28.6314 38.291C26.8333 39.3862 25.233 40.791 23.4441 41.8954C25.2698 42.5654 27.1506 43.2447 29.0913 43.1985C32.715 43.1061 36.0766 40.4583 39.3509 38.8686" fill="#ECEAE7" />
        <path d="M39.5026 38.6469C38.2471 37.8521 36.9457 37.0249 35.4511 36.6136C35.2672 36.5628 35.074 36.5212 34.8855 36.4843L34.5912 36.438L34.3153 36.4057C33.929 36.3734 33.5335 36.3595 33.1518 36.3918C32.3792 36.4473 31.625 36.6183 30.903 36.8724C30.1811 37.1266 29.4821 37.4408 28.8152 37.8059C28.4795 37.9953 28.1622 38.1802 27.8357 38.3881C27.5138 38.5914 27.2011 38.7994 26.8884 39.0119C25.6468 39.8622 24.4465 40.7448 23.1911 41.4749C22.9611 41.6089 22.8784 41.9093 23.0163 42.1403C23.0715 42.2374 23.1589 42.3113 23.2601 42.3483L23.2831 42.3575C24.6075 42.8797 25.9687 43.4157 27.4494 43.6791C27.8219 43.7392 28.1944 43.7854 28.5761 43.7993C28.7785 43.8131 28.9348 43.8085 29.1739 43.8085L29.7074 43.7808C30.0707 43.7438 30.4984 43.693 30.8525 43.6052C31.2249 43.5313 31.5836 43.4204 31.9423 43.3187C32.6505 43.0877 33.3311 42.7873 33.9887 42.4731C34.6372 42.1403 35.2718 41.7892 35.888 41.4149C37.1158 40.6709 38.2839 39.8714 39.4796 39.1136C39.6037 39.0304 39.6451 38.8641 39.5623 38.7347C39.4934 38.6238 39.3554 38.5822 39.2404 38.6238C38.9001 38.7485 38.5598 38.8779 38.2333 39.0212C37.9022 39.1644 37.5757 39.3169 37.2492 39.4694C36.6054 39.779 35.9708 40.1025 35.3408 40.426L34.398 40.8973C34.0853 41.059 33.768 41.193 33.4553 41.3455C33.138 41.4842 32.8253 41.632 32.508 41.7522C32.1907 41.8862 31.8688 41.9879 31.5515 42.1034C31.2296 42.2004 30.9076 42.3021 30.5811 42.3668C30.2454 42.45 29.9649 42.4823 29.62 42.5285L29.0866 42.5701C28.967 42.5701 28.7739 42.584 28.6175 42.5701C28.2864 42.5701 27.9553 42.5331 27.6242 42.4869C26.2906 42.3206 24.9616 41.8723 23.6142 41.4195L23.7015 42.3067C24.98 41.4657 26.125 40.4907 27.3115 39.608C28.4933 38.7254 29.7212 37.9075 31.087 37.3992C31.7676 37.1451 32.4712 36.9695 33.1886 36.9094C33.5473 36.8724 33.9014 36.877 34.2555 36.9001L34.5314 36.9279L34.7889 36.9695C34.9637 37.0018 35.1384 37.0388 35.3132 37.085C36.7112 37.4547 37.9712 38.2633 39.2036 39.0859C39.3278 39.1691 39.4934 39.1367 39.5761 39.0119C39.6589 38.8872 39.6267 38.7208 39.5026 38.6376C39.5026 38.6376 39.5026 38.6376 39.498 38.6376L39.5026 38.6469Z" fill="#896B85" />
        <path d="M31.2066 31.9649C28.5808 30.0056 26.7735 25.7959 26.2539 22.5473C25.7296 19.2988 26.2539 15.9439 27.3483 12.8433C28.8153 14.8349 31.1055 16.2628 31.9746 18.5779C32.807 20.796 32.1356 23.259 31.5883 25.5602C31.0411 27.8615 30.6778 30.4816 31.993 32.4455" fill="#ECEAE7" />
        <path d="M31.3767 31.7523L30.8754 31.3457L30.4294 30.9205L30.0017 30.4584L29.6016 29.9686L29.2291 29.4557L28.8842 28.9196C28.6635 28.5546 28.4519 28.1849 28.2634 27.806C28.0702 27.4271 27.8863 27.0435 27.7253 26.6461C27.5552 26.258 27.408 25.8559 27.2701 25.4493C26.9941 24.6406 26.7734 23.8181 26.6171 22.9817C26.5389 22.5704 26.4791 22.1453 26.4377 21.7155C26.3963 21.2996 26.3687 20.8745 26.3687 20.4494C26.3641 20.0242 26.3687 19.5991 26.4009 19.174C26.4239 18.7488 26.4653 18.3283 26.5205 17.9078C26.6309 17.0668 26.7918 16.2304 27.0079 15.4079C27.2241 14.5853 27.4862 13.7767 27.7897 12.9818L26.9941 13.102C28.0886 14.65 29.5326 15.796 30.5305 17.1685C30.7835 17.5104 30.9996 17.8616 31.1789 18.2267C31.2755 18.3976 31.3491 18.6195 31.4181 18.7581C31.487 18.9707 31.5652 19.1971 31.5974 19.3681C31.6848 19.7424 31.7446 20.1629 31.7538 20.5741C31.763 20.99 31.7538 21.4105 31.6986 21.8357C31.602 22.6859 31.4227 23.5408 31.2295 24.4142C31.1329 24.8439 31.0226 25.2968 30.9398 25.7358C30.8524 26.1886 30.7651 26.6461 30.7053 27.1082C30.5903 28.0324 30.5489 28.989 30.6915 29.9409C30.7651 30.4168 30.8892 30.8836 31.0686 31.3318C31.2479 31.78 31.4916 32.2052 31.786 32.5795L32.232 32.2791C32.0389 31.8956 31.8871 31.5028 31.7814 31.0961C31.6756 30.6895 31.6388 30.2644 31.6112 29.8438C31.5836 29.4233 31.6158 28.9936 31.6526 28.5684C31.6894 28.1433 31.7584 27.7136 31.8411 27.2884C31.9193 26.8587 32.0159 26.4336 32.1217 26.0084L32.4482 24.7007C32.6643 23.8181 32.8666 22.9077 32.9494 21.9651C33 21.4937 33.0092 21.0085 32.9908 20.5233C32.9724 20.0335 32.9034 19.5575 32.7793 19.0538C32.7149 18.7858 32.6413 18.5871 32.5677 18.3699C32.4528 18.0973 32.3746 17.894 32.2504 17.6722C32.0297 17.2285 31.7446 16.8311 31.4503 16.4568C30.2546 14.9689 28.7922 13.8968 27.7345 12.5429L27.2011 11.8543L26.939 12.663C26.6676 13.4994 26.4377 14.3497 26.2538 15.2092C26.0698 16.0687 25.9273 16.9374 25.8445 17.8154C25.8031 18.2544 25.7755 18.6934 25.7663 19.1324C25.7525 19.5714 25.7571 20.0104 25.7801 20.454C25.7985 20.893 25.8399 21.332 25.8905 21.771C25.9411 22.2053 26.01 22.6351 26.0974 23.0695C26.2722 23.9336 26.5113 24.7746 26.8056 25.6018C26.9528 26.013 27.1091 26.4243 27.2839 26.8263C27.4494 27.2284 27.6426 27.6258 27.8403 28.0139C28.038 28.4067 28.2542 28.7856 28.4841 29.1599C28.714 29.5342 28.967 29.8947 29.2245 30.2505L29.6338 30.768L30.0753 31.2625L30.5627 31.7338L31.0594 32.1497L31.3997 31.7292L31.3767 31.7523Z" fill="#896B85" />
        <path d="M11.3723 24.9826C11.3723 24.9826 11.6758 25.0057 12.2093 25.0427C12.476 25.0612 12.7979 25.0935 13.1612 25.1444C13.5245 25.1859 13.9384 25.2414 14.389 25.3153C14.8397 25.3847 15.3226 25.4817 15.8284 25.588C16.3389 25.685 16.8723 25.8283 17.4196 25.9669C17.9668 26.1194 18.5278 26.2811 19.0935 26.4752C19.6591 26.66 20.2247 26.8772 20.7904 27.0852C21.3468 27.3162 21.9125 27.5242 22.4551 27.7645C22.9977 28.0048 23.5312 28.2358 24.0462 28.4669C24.5567 28.7118 25.0579 28.9197 25.5178 29.1554C25.9869 29.3772 26.4284 29.5805 26.833 29.7746C27.2423 29.9641 27.6194 30.1396 27.9551 30.2921C28.2954 30.44 28.5897 30.5694 28.8335 30.6757C29.3209 30.8883 29.6198 30.9853 29.6198 30.9853L29.9049 30.5278C29.9049 30.5278 29.6796 30.3106 29.2519 29.9733C29.045 29.7977 28.7737 29.6082 28.4656 29.3911C28.1529 29.1785 27.7988 28.9428 27.3895 28.7164C26.994 28.4715 26.5387 28.2497 26.0651 28.0094C25.5868 27.7783 25.0717 27.5565 24.5337 27.3301C23.9911 27.1175 23.4346 26.8957 22.8506 26.7155C22.2758 26.5168 21.6779 26.3458 21.0893 26.1748C20.4915 26.0223 19.8936 25.8606 19.3004 25.7358C18.7118 25.588 18.1232 25.4817 17.5621 25.3569C16.9965 25.2553 16.4492 25.1397 15.9296 25.0519C15.4099 24.9641 14.9179 24.881 14.4626 24.8255C13.5567 24.6823 12.7841 24.6037 12.2553 24.5436C11.7264 24.4836 11.4229 24.4512 11.4229 24.4512L11.3723 24.9872V24.9826Z" fill="#896B85" />
        <path d="M16.4817 15.7267L16.7806 16.5077C16.8726 16.7711 17.0013 17.0298 17.1163 17.2886C17.337 17.8154 17.613 18.3052 17.8613 18.8135C18.1326 19.308 18.3947 19.8024 18.6936 20.283C18.9742 20.7682 19.2823 21.2396 19.5858 21.7155C20.1974 22.6582 20.8412 23.5778 21.5172 24.4742C21.8529 24.9225 22.1978 25.3661 22.5473 25.8051C22.8968 26.2441 23.2463 26.6785 23.6188 27.1128C23.6326 27.1267 23.6464 27.1406 23.6602 27.1498L23.674 27.159C25.2008 28.2912 26.7505 29.4002 28.2957 30.5139C29.8454 31.6229 31.4136 32.7088 33.0139 33.7532C33.8141 34.2707 34.6188 34.7883 35.4374 35.2874C36.256 35.7818 37.0883 36.2531 37.9253 36.7199C38.7622 37.182 39.613 37.6394 40.4867 38.0461C41.3559 38.4574 42.225 38.8501 43.0988 39.2291C46.603 40.7355 50.1439 42.1264 53.7263 43.4157C55.5152 44.0626 57.3178 44.6772 59.1389 45.2456C60.0495 45.5275 60.9646 45.7955 61.8889 46.045C62.8133 46.2946 63.7376 46.5256 64.7125 46.655C64.8597 46.6735 64.993 46.5718 65.016 46.4239C65.0344 46.2853 64.9424 46.1559 64.8045 46.1236H64.7953C63.8985 45.9295 62.9926 45.6384 62.1005 45.3473C61.2037 45.0515 60.3162 44.728 59.4286 44.4C57.649 43.753 55.8831 43.0691 54.1172 42.3806C52.3559 41.6828 50.5946 40.985 48.8425 40.2642C47.0904 39.5433 45.3383 38.8224 43.6092 38.06C42.7447 37.681 41.8801 37.3021 41.0248 36.9047C40.1786 36.5165 39.3463 36.0775 38.5139 35.6339C37.6815 35.1857 36.8584 34.7282 36.0398 34.2569C35.2167 33.7948 34.3981 33.3188 33.5887 32.8336C31.9654 31.8586 30.3605 30.8558 28.7693 29.8253C27.1736 28.7995 25.61 27.7182 24.0465 26.6461L24.0971 26.6923C23.3521 25.8836 22.6439 25.0195 21.9679 24.1415C21.2873 23.2635 20.6389 22.3624 20.0181 21.4429C19.7192 20.9762 19.4156 20.5141 19.1351 20.0335C18.8454 19.5621 18.5833 19.0723 18.3166 18.5871C18.0728 18.0927 17.8153 17.5982 17.6084 17.0945C17.5026 16.8404 17.383 16.6001 17.2957 16.3321L17.0105 15.5465C16.96 15.4079 16.8036 15.3339 16.6656 15.3848C16.5277 15.4356 16.4541 15.5927 16.5047 15.7313L16.4817 15.7267Z" fill="#896B85" />
        <path d="M28.59 19.3866C28.59 19.3866 28.5808 19.4374 28.5716 19.5391C28.5578 19.6361 28.5348 19.7794 28.5164 19.9734C28.4704 20.357 28.4245 20.893 28.4153 21.5446C28.4015 22.1961 28.4383 22.954 28.4934 23.7626C28.5578 24.5713 28.6176 25.4308 28.774 26.2903C28.9211 27.1452 29.1143 27.9816 29.3258 28.7579C29.5373 29.5343 29.7719 30.2459 30.0064 30.842C30.1306 31.1377 30.2409 31.4104 30.3559 31.6461C30.3835 31.7061 30.4111 31.7616 30.4387 31.817L30.4801 31.9002L30.4893 31.9187C30.3789 31.8586 31.4826 32.4963 31.0365 32.2237C31.1239 32.2144 31.3308 32.0758 31.363 31.8817C31.3906 31.6738 31.3446 31.6368 31.363 31.6645V31.6507L31.3446 31.6091C31.294 31.5028 31.248 31.4058 31.2067 31.3226C31.1193 31.1516 31.0457 31.0176 30.9859 30.9206C30.9537 30.8651 30.9261 30.8281 30.9077 30.8004C30.8939 30.7773 30.8893 30.7634 30.8434 30.7126C30.825 30.6895 30.802 30.6756 30.7836 30.6618L30.756 30.6479C30.7238 30.6341 30.6824 30.6202 30.641 30.6202C30.4525 30.6341 30.4341 30.7219 30.4295 30.708L30.8296 31.0684C30.8296 31.0684 30.8112 31.1424 30.6226 31.1562C30.5812 31.1562 30.5398 31.1424 30.5077 31.1285L30.4847 31.1146C30.4847 31.1146 30.4479 31.0915 30.4295 31.0684C30.3973 31.0268 30.3973 31.0315 30.3973 31.0315C30.3973 31.0407 30.3973 31.0731 30.3973 31.1193C30.4019 31.2117 30.4203 31.3596 30.4387 31.5398C30.4479 31.6322 30.4617 31.7339 30.4709 31.8448V31.8817C30.4847 31.9095 30.4433 31.8817 30.4709 31.6692C30.5031 31.4751 30.71 31.3411 30.7974 31.3318C30.3513 31.0546 31.455 31.6923 31.3446 31.6276V31.5998L31.3262 31.512C31.317 31.452 31.3032 31.3919 31.2894 31.3272C31.2434 31.0731 31.1745 30.7866 31.1055 30.4769C30.9583 29.8577 30.756 29.1507 30.5214 28.3975C30.2915 27.6443 30.0478 26.8402 29.8041 26.0408C29.6891 25.6388 29.5741 25.2367 29.4638 24.8393C29.3534 24.4419 29.2522 24.0445 29.174 23.661C29.0085 22.8939 28.9349 22.1638 28.9165 21.5399C28.9027 21.2257 28.9165 20.9438 28.9303 20.6897C28.9441 20.4402 28.9671 20.2137 28.9993 20.0427C29.0269 19.8672 29.0499 19.7239 29.0729 19.6269C29.0959 19.5298 29.1051 19.479 29.1051 19.479L28.5762 19.3866H28.59Z" fill="#896B85" />
        <path d="M16.914 15.7082C16.914 15.7082 16.9599 15.5927 17.0519 15.3801C17.1393 15.1583 17.2635 14.8348 17.4014 14.419C17.6681 13.5826 17.9901 12.3672 18.1648 10.8747C18.2522 10.1353 18.3212 9.31276 18.266 8.44401C18.2108 7.57527 17.9901 6.64183 17.544 5.79157C17.3278 5.36644 17.0795 4.95517 16.8358 4.54852C16.5875 4.13725 16.3253 3.71212 15.9896 3.31934C15.6585 2.92655 15.2309 2.5615 14.7112 2.3628C14.2053 2.15947 13.5707 2.10402 13.0235 2.35817C12.4579 2.62157 12.1038 3.06981 11.8186 3.5088C11.5335 3.94317 11.3036 4.42838 11.138 4.92282C10.8023 5.91171 10.7426 6.97917 10.9311 7.95882C11.1242 8.94771 11.4783 9.78872 11.8462 10.5974C12.2325 11.3552 12.5912 12.0761 12.9407 12.7323C13.0281 12.8987 13.1109 13.0558 13.1936 13.2175C13.2902 13.4023 13.373 13.5317 13.4696 13.6888C13.6535 13.9846 13.8421 14.2665 14.0444 14.516C14.4491 15.0151 14.9181 15.3894 15.355 15.5834C15.7873 15.7868 16.169 15.8468 16.4265 15.8422C16.684 15.8422 16.8174 15.8099 16.8174 15.8099H16.8312C16.937 15.7821 17.0013 15.6759 16.9737 15.5742C16.9508 15.4818 16.868 15.4217 16.776 15.4263C16.776 15.4263 16.661 15.431 16.4587 15.3986C16.2564 15.3663 15.9574 15.2831 15.6263 15.0705C15.2998 14.858 14.9503 14.5345 14.633 14.0678C14.4721 13.8367 14.3157 13.5733 14.164 13.2822C14.0904 13.1436 13.9984 12.9726 13.9386 12.8432C13.8604 12.6815 13.7869 12.5197 13.7041 12.3488C13.3914 11.6741 13.0327 10.9532 12.6602 10.1908C12.3153 9.46064 11.9612 8.63348 11.791 7.79246C11.6209 6.94682 11.6531 6.0411 11.906 5.16312C12.0348 4.72412 12.2141 4.30361 12.4533 3.90621C12.6832 3.51342 12.9729 3.1576 13.3086 2.98663C13.6627 2.80179 14.0904 2.80641 14.4951 2.94504C14.9043 3.07905 15.263 3.35169 15.5758 3.68902C15.8839 4.02635 16.146 4.41913 16.4035 4.82116C16.661 5.22319 16.914 5.61597 17.1347 6.01338C17.5854 6.79894 17.8061 7.64459 17.8613 8.47636C17.9257 9.30814 17.8613 10.103 17.7831 10.8377C17.6222 12.3025 17.3324 13.504 17.0519 14.3081C16.914 14.7147 16.7898 15.0243 16.7024 15.2369C16.6105 15.4494 16.5599 15.565 16.5599 15.565C16.5185 15.662 16.5599 15.7775 16.6564 15.8191C16.753 15.8607 16.868 15.8191 16.9094 15.7221L16.914 15.7082Z" fill="#896B85" />
        <path d="M11.46 6.23519C11.46 6.23519 11.1565 6.05497 10.6231 5.74536C10.3563 5.58825 10.0298 5.39879 9.65273 5.1816C9.45039 5.07532 9.23425 4.97366 8.98593 4.90435C8.7376 4.83503 8.45708 4.77958 8.14897 4.84427C7.83166 4.89972 7.54194 5.15388 7.40858 5.445C7.3396 5.57901 7.27982 5.69915 7.20624 5.78695C7.13726 5.87013 7.04989 5.91634 6.91653 5.96255L6.70499 6.02724L6.57623 6.06883L6.46586 6.11043C6.29571 6.18436 6.14855 6.2814 6.01059 6.39693C5.73467 6.62335 5.52313 6.92834 5.38057 7.26105C5.08166 7.94033 5.13224 8.73977 5.33918 9.44216C5.38977 9.61775 5.44955 9.79335 5.51393 9.96433L5.6243 10.2231L5.73467 10.4634C5.89102 10.7915 6.07497 11.1242 6.27731 11.4292C7.08668 12.6676 8.19955 13.6888 9.38601 14.3866C9.98384 14.7424 10.5771 15.0243 11.1657 15.2554C11.7543 15.4725 12.3246 15.6435 12.858 15.7544C13.9249 15.9855 14.8262 16.0409 15.4563 16.0409C16.0863 16.0456 16.4404 16.0132 16.4404 16.0132C16.5461 16.004 16.6243 15.9069 16.6151 15.8006C16.6059 15.7128 16.5369 15.6435 16.4542 15.625C16.4542 15.625 16.1093 15.565 15.5022 15.4587C14.9044 15.3432 14.0491 15.1907 13.0557 14.9134C12.5591 14.7702 12.0302 14.613 11.483 14.3959C10.9404 14.1925 10.3655 13.9338 9.82288 13.6195C9.27564 13.2961 8.733 12.9264 8.22255 12.4966C7.7121 12.0669 7.24303 11.5724 6.83835 11.0272C6.63141 10.7499 6.45206 10.4773 6.28651 10.1769L6.16234 9.94584L6.05198 9.72404C5.983 9.57154 5.91861 9.41905 5.86343 9.26194C5.64729 8.64273 5.58751 7.98655 5.80365 7.42279C5.90942 7.14091 6.07037 6.88675 6.28191 6.70191C6.49345 6.50321 6.71878 6.42465 7.04069 6.32761C7.19704 6.27678 7.38099 6.17974 7.50056 6.02724C7.61552 5.88399 7.67531 5.73612 7.73969 5.61598C7.84546 5.38493 8.01101 5.24168 8.22255 5.19547C8.65942 5.11229 9.12389 5.31562 9.47798 5.49583C9.84128 5.69454 10.1678 5.9071 10.4299 6.06421C10.9588 6.38768 11.2577 6.57253 11.2577 6.57253C11.3496 6.62798 11.4692 6.60025 11.5244 6.50783C11.5796 6.41541 11.552 6.29527 11.46 6.23981V6.23519Z" fill="#896B85" />
        <path d="M16.5004 3.90629C16.5004 3.90629 16.4912 3.88318 16.4728 3.84621C16.4728 3.83235 16.4728 3.83697 16.4728 3.82773C16.4728 3.80925 16.4728 3.79538 16.4774 3.76766C16.4958 3.67062 16.62 3.47192 16.8545 3.33791C17.0614 3.18542 17.4201 3.25935 17.8984 3.26859C18.0179 3.26859 18.1513 3.25935 18.2847 3.22238C18.3812 3.19466 18.4088 3.17617 18.4732 3.15306C18.533 3.12996 18.602 3.08375 18.6664 3.04678C18.9101 2.88505 19.0848 2.64938 19.2412 2.41371C19.3975 2.17804 19.5401 1.92388 19.7011 1.69746C19.862 1.46641 20.0552 1.26308 20.2943 1.16604C20.7679 0.958093 21.4072 1.30005 21.6739 1.8407C21.959 2.38136 21.9866 3.08837 22.028 3.80924C22.0556 4.52088 22.0556 5.24637 22.0142 5.96725C21.936 7.40899 21.6647 8.82302 21.2324 10.0753C20.7909 11.3276 20.1517 12.3812 19.5033 13.2083C19.1768 13.615 18.8503 13.9708 18.5376 14.2619C18.2295 14.5577 17.9352 14.7887 17.6914 14.9782C17.4431 15.163 17.2362 15.2924 17.0936 15.3802C16.9511 15.468 16.8775 15.5188 16.8775 15.5188L16.8683 15.5281C16.7763 15.5835 16.7487 15.7037 16.8085 15.7961C16.8591 15.8747 16.9511 15.907 17.0338 15.8746C17.0338 15.8746 17.1212 15.8423 17.2914 15.7868C17.4615 15.7314 17.7006 15.6251 17.9996 15.4772C18.5974 15.1815 19.4067 14.6362 20.1655 13.7675C20.5518 13.3377 20.9105 12.8248 21.2416 12.2564C21.5589 11.6834 21.844 11.0365 22.0648 10.3618C22.2901 9.68253 22.4603 8.96627 22.5568 8.22692C22.658 7.49218 22.7086 6.73895 22.704 5.99035C22.704 5.24175 22.6534 4.49777 22.5798 3.76766C22.5016 3.06065 22.4649 2.29356 22.0694 1.61427C21.8808 1.28618 21.5819 1.00892 21.2462 0.856431C20.9197 0.690075 20.4828 0.653111 20.1471 0.810225C19.7976 0.958097 19.5677 1.23536 19.3975 1.48951C19.2228 1.74829 19.0894 2.00244 18.9469 2.22425C18.6664 2.68635 18.3123 2.94512 17.903 2.92201C17.7006 2.92201 17.4891 2.89429 17.2822 2.89429C17.0752 2.88043 16.8453 2.93126 16.6843 3.0283C16.3624 3.21314 16.1739 3.45805 16.1141 3.69834C16.0957 3.7538 16.0957 3.81387 16.0957 3.8647C16.0957 3.92015 16.1141 3.98022 16.1233 4.00795C16.1371 4.04954 16.1463 4.07264 16.1463 4.07264C16.1831 4.17431 16.298 4.22052 16.3946 4.18355C16.4958 4.14658 16.5418 4.03105 16.505 3.93401L16.5004 3.90629Z" fill="#896B85" />
        <path d="M7.33052 5.75463C7.33052 5.75463 7.31673 5.80546 7.28914 5.89788C7.26154 5.99954 7.22935 6.1428 7.20636 6.33226C7.16497 6.70656 7.15118 7.25183 7.31213 7.87105C7.46389 8.49488 7.79959 9.16492 8.20427 9.83959C8.41581 10.1815 8.63195 10.505 8.88027 10.847C9.11941 11.1843 9.38153 11.5124 9.65285 11.8359C10.2047 12.4736 10.8025 13.0743 11.4233 13.5641C12.0396 14.0632 12.6558 14.4744 13.2122 14.7702C13.4881 14.9227 13.7549 15.0428 13.9894 15.1445C14.2239 15.2461 14.4355 15.3201 14.6102 15.3802C14.9597 15.4957 15.1621 15.5465 15.1621 15.5465C15.231 15.565 15.3 15.5234 15.3184 15.4541C15.3322 15.3986 15.3092 15.3386 15.2586 15.3108C15.2586 15.3108 15.0793 15.1999 14.7666 15.029C14.4585 14.8395 14.0124 14.5992 13.4973 14.2757C13.2398 14.1094 12.9593 13.943 12.6742 13.7397C12.3845 13.5502 12.0809 13.3377 11.782 13.102C11.4785 12.871 11.1796 12.6168 10.8761 12.358C10.5726 12.0946 10.2783 11.8128 9.99315 11.5263C9.70804 11.2351 9.43211 10.9301 9.17459 10.6205C8.92626 10.3155 8.67793 9.98284 8.46639 9.67323C8.02492 9.04478 7.72141 8.39322 7.56046 7.81097C7.4041 7.22411 7.3949 6.71118 7.45009 6.36922C7.47768 6.19825 7.50987 6.06424 7.53287 5.97644C7.56046 5.88402 7.57885 5.83319 7.57885 5.83319C7.60185 5.76387 7.56506 5.69456 7.49608 5.67145C7.4271 5.64835 7.35812 5.68532 7.33512 5.75463H7.33052Z" fill="#896B85" />
        <path d="M18.7029 3.00519C18.7029 3.00519 18.7672 3.02367 18.8362 3.05602C18.9144 3.09299 19.034 3.15768 19.1443 3.28245C19.3743 3.53198 19.5306 4.05877 19.5352 4.69647C19.5352 5.02456 19.5352 5.37576 19.5352 5.75006C19.5444 6.12436 19.5536 6.52176 19.5628 6.92841C19.5858 7.74632 19.618 8.61507 19.5628 9.46995C19.549 9.68252 19.5352 9.89971 19.5122 10.103C19.4892 10.3202 19.4616 10.5282 19.4249 10.7315C19.3513 11.1428 19.2593 11.5402 19.1443 11.9145C18.9098 12.6631 18.5695 13.3054 18.2016 13.7906C18.0131 14.0355 17.8337 14.2388 17.6452 14.419C17.4612 14.5993 17.2865 14.7564 17.1531 14.9042C16.8772 15.1907 16.7668 15.4033 16.7668 15.4033V15.4125C16.73 15.4772 16.753 15.5558 16.8174 15.5881C16.868 15.6159 16.9324 15.602 16.9692 15.565C16.9692 15.565 17.1117 15.4172 17.406 15.2C17.5624 15.0891 17.7463 14.9551 17.9625 14.8026C18.1786 14.6408 18.4223 14.419 18.6431 14.1603C19.1029 13.6381 19.4708 12.908 19.7008 12.0901C19.8203 11.6834 19.9077 11.2537 19.9537 10.8147C19.9767 10.5929 19.9951 10.3711 20.0043 10.1539C20.0135 9.92744 20.0181 9.71025 20.0135 9.48844C19.9997 8.60583 19.9169 7.73246 19.8617 6.91917C19.7881 6.10588 19.7881 5.35727 19.7789 4.69647C19.7652 4.03105 19.595 3.45804 19.3237 3.12995C19.1857 2.96822 19.0386 2.88042 18.9328 2.82959C18.8178 2.77876 18.781 2.77414 18.7764 2.76952C18.7075 2.74641 18.6385 2.78338 18.6155 2.84807C18.5925 2.91739 18.6293 2.99133 18.6937 3.00981L18.7029 3.00519Z" fill="#896B85" />
        <path d="M47.8907 40.5461C47.8907 40.5461 47.8355 40.5091 47.7252 40.4398C47.624 40.3751 47.4446 40.2596 47.2285 40.144C46.7916 39.9084 46.1478 39.6172 45.3385 39.4001C44.5383 39.1644 43.5772 39.0119 42.5655 38.8594C41.5446 38.7115 40.4501 38.5729 39.351 38.4897C38.7992 38.4481 38.2473 38.4296 37.7047 38.4204C37.4333 38.4204 37.162 38.4204 36.8953 38.4204C36.6286 38.4296 36.3665 38.4435 36.1043 38.4528C35.5847 38.4805 35.088 38.5313 34.6144 38.5821C34.1453 38.6515 33.6992 38.7115 33.2899 38.8039C32.8807 38.8825 32.5174 38.9934 32.1909 39.0766C31.869 39.1829 31.5884 39.2707 31.3631 39.3585C30.9078 39.5341 30.6595 39.6635 30.6595 39.6635C30.5216 39.7328 30.471 39.8991 30.5399 40.0378C30.5859 40.1302 30.6825 40.1856 30.7791 40.1902H30.7883C30.7883 40.1902 31.0688 40.1949 31.5425 40.1625C32.0161 40.1394 32.6875 40.0747 33.4877 39.9915C33.8878 39.9453 34.3155 39.8991 34.7753 39.8483C35.2306 39.7882 35.7134 39.7466 36.2101 39.6912C36.7114 39.645 37.2264 39.5988 37.7507 39.5525C38.2749 39.511 38.8129 39.4832 39.3464 39.4601C40.4179 39.4139 41.4986 39.4185 42.5057 39.4971C43.0161 39.5387 43.499 39.5803 43.9543 39.6496C44.4095 39.7143 44.8372 39.7975 45.2235 39.8945C45.9915 40.0978 46.6031 40.3612 46.994 40.5969C47.1963 40.7124 47.3297 40.8002 47.4354 40.8834C47.5366 40.9573 47.5918 40.9989 47.5918 40.9989C47.7114 41.0867 47.8815 41.0636 47.9689 40.9435C48.0563 40.8233 48.0333 40.6523 47.9137 40.5645C47.9137 40.5645 47.9045 40.5599 47.8999 40.5553L47.8907 40.5461Z" fill="#896B85" />
        <path d="M45.3704 36.1746C44 35.7218 42.6296 35.2458 41.4799 34.4279C41.1948 34.2246 40.9235 34.0028 40.6752 33.7532C40.413 33.4991 40.2061 33.2449 39.9992 32.9538C39.5899 32.3854 39.2726 31.7523 39.0196 31.0915C38.523 29.7607 38.3574 28.3282 38.2747 26.8957C38.1919 25.4539 38.2103 23.9891 38.0401 22.5011L37.2997 22.9956C38.4632 23.7442 39.6175 24.4881 40.5786 25.3892C40.8223 25.611 41.0522 25.8421 41.2638 26.087C41.3742 26.2072 41.4753 26.3319 41.5719 26.4567L41.6087 26.5029C41.5903 26.4798 41.6271 26.526 41.6317 26.5352L41.7053 26.6415L41.857 26.8541C41.9674 27.002 42.0456 27.1314 42.1191 27.2654C42.1973 27.3994 42.2847 27.5241 42.3537 27.6766L42.5744 28.111L42.7676 28.5639C42.8871 28.8688 43.0113 29.1784 43.117 29.4973C43.2274 29.8115 43.3194 30.135 43.4114 30.4585C43.4987 30.7866 43.5953 31.11 43.6735 31.4427L43.9126 32.4455C44.069 33.1202 44.2253 33.7948 44.4001 34.4787C44.4921 34.8207 44.5794 35.158 44.6852 35.4953C44.7818 35.8327 44.9013 36.17 45.0209 36.5027C45.0715 36.646 45.2278 36.7153 45.3658 36.6645C45.4854 36.6182 45.5589 36.4981 45.5405 36.3733C45.3612 34.9963 45.2278 33.6238 45.0117 32.2283C44.7956 30.842 44.4967 29.428 43.9356 28.0694L43.7149 27.5657L43.4619 27.0713C43.3838 26.9095 43.2734 26.7432 43.1722 26.5768C43.0711 26.4105 42.9699 26.2441 42.8641 26.1147L42.7078 25.9068L42.6296 25.8005L42.5744 25.7266L42.5284 25.6711C42.4089 25.5279 42.2893 25.3846 42.1605 25.2506C41.9076 24.978 41.6409 24.7238 41.365 24.4835C40.2475 23.5362 39.0104 22.8292 37.8056 22.1407L37.7826 22.1268C37.5481 21.9928 37.2538 22.076 37.1204 22.3117C37.0606 22.4133 37.0468 22.5288 37.0652 22.6351C37.3089 24.0307 37.3917 25.4863 37.5389 26.9511C37.6814 28.416 37.9298 29.8993 38.4908 31.2949C38.7713 31.988 39.1208 32.6627 39.5761 33.2634C39.7968 33.5591 40.0589 33.8641 40.3257 34.1137C40.597 34.3771 40.8867 34.622 41.1948 34.8345C41.8064 35.2689 42.4732 35.6062 43.1492 35.8974C43.8252 36.1931 44.515 36.4426 45.2002 36.6829C45.3382 36.7338 45.4946 36.6598 45.5451 36.5166C45.5957 36.378 45.5222 36.2208 45.3796 36.17H45.375L45.3704 36.1746Z" fill="#896B85" />
        <path d="M52.0756 41.4564C52.0756 41.4564 52.0112 41.4379 51.8917 41.4056C51.7629 41.3732 51.6112 41.3178 51.3996 41.2346C50.9765 41.0729 50.4017 40.7679 49.7625 40.3058C49.4498 40.0701 49.1187 39.7929 48.783 39.4879C48.4427 39.1829 48.107 38.8456 47.7575 38.4759C47.0677 37.755 46.3871 36.9371 45.7433 36.0868C45.4214 35.6617 45.104 35.2366 44.8051 34.8114C44.5108 34.3817 44.2211 33.9612 43.936 33.5545C43.6601 33.1433 43.3887 32.7505 43.145 32.3669C42.8921 31.988 42.6576 31.6322 42.4368 31.2995C41.9953 30.6387 41.6137 30.0934 41.3331 29.7191C41.0572 29.3402 40.8779 29.1322 40.8779 29.1322C40.7767 29.0121 40.6019 29.0029 40.487 29.1045C40.4088 29.1738 40.3766 29.2801 40.3996 29.3772C40.3996 29.3772 40.464 29.6498 40.6157 30.1073C40.6939 30.3337 40.8043 30.6063 40.9285 30.9159C41.071 31.2163 41.2182 31.5675 41.4205 31.9233C41.8022 32.6534 42.3264 33.4575 42.9335 34.2846C43.2416 34.6959 43.5681 35.1118 43.9222 35.5184C44.2763 35.9251 44.6396 36.3317 45.0167 36.7245C45.7754 37.5101 46.5664 38.2541 47.3206 38.9426C48.0702 39.6173 48.7876 40.255 49.4682 40.7217C50.135 41.2069 50.7558 41.5211 51.2019 41.7152C51.4226 41.8122 51.6204 41.8816 51.7307 41.9185C51.8503 41.9601 51.9147 41.9786 51.9147 41.9786C52.0572 42.0248 52.209 41.9509 52.255 41.8076C52.301 41.6644 52.2274 41.5119 52.0848 41.4657C52.0802 41.4657 52.0756 41.4657 52.071 41.461L52.0756 41.4564Z" fill="#896B85" />
    </g>
</svg>