<svg xmlns="http://www.w3.org/2000/svg" width="64" height="58" viewBox="0 0 64 58" fill="none">
    <g style="mix-blend-mode: luminosity" clip-path="url(#clip0_231_22952)">
        <path d="M30.8096 37.688C30.8096 37.688 30.7647 37.7174 30.7398 37.737C30.7647 37.7223 30.7847 37.7076 30.8096 37.688Z" fill="white" />
        <path d="M30.7852 37.7272C30.7852 37.7272 30.7702 37.7566 30.7652 37.7664C30.7652 37.7664 30.7802 37.737 30.7852 37.7272Z" fill="white" />
        <path d="M30.8097 37.688C30.7851 37.7027 30.7654 37.7174 30.7408 37.737C30.1499 36.8988 30.1942 36.1244 30.1105 35.2911C30.0957 35.1245 30.0711 34.9578 30.0416 34.7863C30.0268 34.7029 30.0071 34.6147 29.9825 34.5265C29.9135 34.2667 29.8151 33.9971 29.6624 33.7177C29.6526 33.6932 29.6329 33.6736 29.623 33.6491C29.5689 33.556 29.5098 33.4629 29.4507 33.3697C29.2685 33.0952 29.0765 32.8256 28.9337 32.5365C28.6382 31.9238 28.5742 31.2277 28.52 30.5513C28.52 30.4876 28.5102 30.4239 28.5053 30.3602C28.4954 30.169 28.4905 29.9828 28.5447 29.8014C28.5447 29.8014 28.5447 29.772 28.5545 29.7524C28.6038 29.5857 28.6875 29.4338 28.7859 29.2916C28.8844 29.1446 28.9977 29.0073 29.1011 28.8652C29.8938 27.7574 30.0563 26.2282 29.5098 24.9783C29.5787 25.0126 29.6427 25.0469 29.7067 25.0861C29.7117 25.1253 29.7117 25.1547 29.7166 25.1939C29.7117 25.1596 29.7117 25.1253 29.7067 25.0861C30.726 25.6351 31.6468 26.4046 32.2131 27.4094C33.1191 29.0122 33.0895 31.1199 34.3796 32.4335L34.3205 32.409C34.3205 33.3256 33.9414 34.2373 33.2816 34.8843C33.0994 35.0608 32.8926 35.2176 32.7399 35.4186C32.5479 35.6685 32.4396 35.9626 32.3362 36.2567C32.0309 37.1047 31.179 37.0655 30.8688 37.9135C30.8343 37.8693 30.7949 37.8252 30.7703 37.7811C30.7752 37.7664 30.7851 37.7517 30.79 37.7419C30.7949 37.7272 30.8048 37.7174 30.8097 37.7027V37.688Z" fill="#948E6A" />
        <path d="M4.07722 37.8596C3.98859 37.8203 3.90488 37.7713 3.8261 37.7174C3.90488 37.7762 3.98859 37.8203 4.07722 37.8596Z" fill="white" />
        <path d="M3.82593 37.7125C3.74714 37.6537 3.67328 37.59 3.59942 37.5164C3.23996 37.1292 3.14149 36.59 3.04301 36.0607C3.14641 36.59 3.23996 37.1292 3.59942 37.5164C3.67328 37.59 3.74714 37.6586 3.82593 37.7125Z" fill="white" />
        <path d="M28.5398 29.7965C28.5398 29.7965 28.5398 29.7622 28.5496 29.7475C28.5989 29.5808 28.6777 29.4289 28.7811 29.2868C28.8795 29.1397 28.9928 29.0025 29.0962 28.8554C29.3867 28.4535 29.5935 27.9927 29.7068 27.5124C29.9136 26.6693 29.8496 25.7674 29.5098 24.9734C29.5738 25.0077 29.6378 25.0469 29.7068 25.0763C29.6871 24.944 29.6723 24.8067 29.6575 24.6695C29.628 24.4342 29.5935 24.1891 29.5591 23.949L29.5443 23.8411C29.5 23.5667 29.4557 23.2824 29.4015 23.003C29.3473 22.7285 29.2833 22.4491 29.2193 22.1746C29.0814 21.6305 28.8992 21.1012 28.6727 20.6012C28.3871 19.9787 28.0178 19.4101 27.5402 18.9298C27.3334 18.7239 27.1118 18.5328 26.8755 18.3514C26.2895 17.9103 25.6445 17.5328 25.0585 17.0819C24.9403 16.9937 24.8221 16.9005 24.7089 16.8074C24.571 16.6849 24.4381 16.5574 24.31 16.43C23.404 15.5134 22.695 14.3861 21.6412 13.6361C21.203 13.3273 20.7352 13.092 20.2428 12.9254C19.9178 12.8127 19.5781 12.7293 19.2334 12.6754C18.8887 12.6215 18.5391 12.5823 18.1796 12.5725C17.8251 12.5627 17.4656 12.5725 17.1013 12.597C16.7369 12.6264 16.3725 12.6656 16.0032 12.7195C15.821 12.7489 15.6388 12.7734 15.4566 12.8127C15.0923 12.8764 14.7279 12.9548 14.3684 13.0332C14.009 13.1117 13.6544 13.1999 13.3048 13.2881C12.9158 13.3861 12.5219 13.4842 12.1378 13.6018C11.4928 13.8077 10.8822 14.0675 10.3504 14.4743C10.0698 14.6998 9.80385 14.9742 9.73492 15.3272C9.72014 15.4154 9.71522 15.5036 9.72015 15.5918C9.72999 15.8418 9.81862 16.0869 9.88756 16.332C10.3603 17.9985 10.1338 19.768 10.1288 21.4982C10.1141 23.2284 10.38 25.0959 11.5864 26.336C12.3693 27.1301 13.4033 27.5418 14.5014 27.782C14.5014 27.782 14.5047 27.782 14.5112 27.782C15.2154 27.9437 15.949 28.0271 16.663 28.1006C17.3425 28.1741 18.0221 28.2525 18.7065 28.2329C19.7947 28.2133 20.8731 27.9633 21.9564 28.0271C24.054 28.1447 26.4274 29.522 28.5299 29.7965H28.5398Z" fill="white" />
        <path d="M26.9541 48.2214C26.831 48.3734 26.7079 48.5302 26.5946 48.6871C26.4814 48.8488 26.3731 49.0106 26.2746 49.1821C26.3731 49.0155 26.4814 48.8488 26.5946 48.6871C26.7079 48.5253 26.8261 48.3734 26.9541 48.2214Z" fill="white" />
        <path d="M7.49925 38.0507C7.52387 39.3447 7.28259 40.6583 7.59281 41.9131C7.83408 42.8738 8.40035 43.7512 9.18819 44.3639C9.31129 44.4619 9.44916 44.555 9.60181 44.5992C9.15372 45.1285 8.83858 45.7902 8.64162 46.4568C8.31664 47.545 8.24278 48.692 8.00642 49.7997C7.97688 49.9565 7.93256 50.1183 7.89317 50.2752C7.6322 50.1183 7.37615 49.9566 7.12995 49.7752C6.88374 49.5987 6.64739 49.4076 6.42581 49.2066C6.20423 49.0057 5.99249 48.79 5.80046 48.5596C5.60842 48.3292 5.43608 48.0842 5.28836 47.8244C5.0914 47.4862 4.93876 47.1235 4.80581 46.7558C4.67286 46.3882 4.55961 46.0108 4.45128 45.6334C4.41188 45.501 4.37249 45.3687 4.3331 45.2315C4.06228 44.2904 3.83085 43.3297 3.90963 42.3641C3.92933 42.1092 3.97364 41.8592 4.01796 41.6092C4.06228 41.3592 4.11644 41.1093 4.15583 40.8593C4.27401 40.0995 4.22969 39.031 4.12629 38.1928C4.11152 38.0752 4.09674 37.9576 4.07705 37.8497C5.03231 38.2811 6.39627 37.7713 7.50417 38.0409L7.49925 38.0507Z" fill="#FFF7E6" />
        <path d="M13.9498 56.0247C14.1714 55.9708 14.3831 55.8923 14.5899 55.8041C14.7968 55.711 14.9986 55.6032 15.1956 55.4953C15.2596 55.4561 15.3236 55.4218 15.3876 55.3875C17.1455 54.4121 18.9083 53.4367 20.6613 52.4711C20.8238 52.3828 20.9813 52.2946 21.1438 52.2064C22.3748 51.5251 23.6255 50.8291 24.6153 49.8291C25.738 48.6969 26.383 47.0745 26.9197 45.3589C27.7174 42.8199 28.3034 40.0849 29.9135 38.4281C30.1351 38.1978 30.3764 37.9919 30.6423 37.8007C30.6718 37.7762 30.7063 37.7566 30.7358 37.737C30.7211 37.7174 30.7063 37.6978 30.6964 37.6782C30.5783 37.5017 30.4847 37.3302 30.4158 37.1586C30.1597 36.5361 30.1745 35.9284 30.1105 35.2961C30.0957 35.1294 30.0711 34.9627 30.0366 34.7863C30.0219 34.703 30.0022 34.6147 29.9825 34.5314C29.9135 34.2765 29.82 34.0118 29.6772 33.7423C29.6722 33.7325 29.6722 33.7276 29.6624 33.7227C29.6132 33.7668 29.559 33.8109 29.4999 33.8648C28.8549 34.4285 28.0719 35.1735 27.2447 35.9529C27.2447 35.9529 27.2447 35.9529 27.2447 35.9578C25.797 37.3253 24.2263 38.7811 23.0347 39.4771C21.2866 40.4966 19.5337 41.5161 17.6428 42.2415C17.244 42.3935 16.8402 42.5356 16.4315 42.668C15.9982 42.8052 15.5698 42.9376 15.1365 43.065C13.4919 43.565 11.8473 44.0649 10.2026 44.56C10.0549 44.609 9.89242 44.6531 9.73486 44.6384C9.68562 44.6384 9.6413 44.6237 9.59206 44.609C9.14397 45.1384 8.83376 45.7952 8.63187 46.4667C8.30689 47.5548 8.23303 48.6969 7.99667 49.8046C7.96221 49.9664 7.92281 50.1281 7.88342 50.2801C7.80463 50.5938 7.71108 50.9026 7.60767 51.2065C7.40087 51.8094 7.14482 52.4024 6.8346 52.9661C6.68196 53.2455 6.51454 53.5249 6.3422 53.7945C6.15016 54.0886 5.93351 54.4219 5.89904 54.7601C5.88919 54.8728 5.89411 54.9856 5.92858 55.0983C6.07138 55.5296 6.52439 55.7159 6.9971 55.7992C7.15466 55.8237 7.31716 55.8384 7.4698 55.8482C9.07504 55.9316 10.6753 56.0198 12.2757 56.1031C12.5514 56.1227 12.8321 56.1325 13.1127 56.1325C13.3934 56.1276 13.6692 56.1031 13.9449 56.0394L13.9498 56.0247Z" fill="white" />
        <path d="M7.61743 51.1967C7.41062 51.8044 7.14965 52.3926 6.84436 52.9563C7.14965 52.3926 7.41062 51.7995 7.61743 51.1967Z" fill="white" />
        <path d="M10.2075 44.5502C11.8521 44.0551 13.4967 43.5552 15.1414 43.0552C15.4762 42.9523 15.8159 42.8543 16.1508 42.7415C16.653 42.5847 17.1504 42.418 17.6477 42.2269C19.5336 41.5014 21.2915 40.4819 23.0395 39.4624C24.044 38.8791 25.3144 37.7615 26.5503 36.6048C27.2003 35.997 27.8404 35.3843 28.4313 34.8304C28.8745 34.4187 29.2881 34.0413 29.6475 33.7276C29.6574 33.7227 29.6623 33.7178 29.6672 33.7129C29.6525 33.6884 29.6377 33.659 29.6278 33.6393C29.5737 33.5413 29.5097 33.4531 29.4506 33.36C29.3127 33.1443 29.1551 32.9286 29.032 32.7081C28.9926 32.6492 28.9631 32.5904 28.9336 32.5267C28.9286 32.5071 28.9188 32.4973 28.9139 32.4777C28.8055 32.2473 28.7317 32.0071 28.6824 31.7621C28.5889 31.365 28.5544 30.9484 28.5199 30.5465C28.5199 30.5318 28.5199 30.522 28.5199 30.5073C28.515 30.4582 28.5101 30.4043 28.5052 30.3553C28.4904 30.1691 28.4904 29.9779 28.5396 29.7965C26.4371 29.5221 24.0637 28.1496 21.9661 28.0271C20.8828 27.9634 19.8044 28.2133 18.7162 28.2329C18.0318 28.2525 17.3522 28.1741 16.6727 28.1006C15.9587 28.0271 15.23 27.9389 14.5209 27.782C12.7483 27.7379 10.9756 27.7624 9.20297 27.8653C8.87799 27.8849 8.553 27.9094 8.25756 28.0467C7.80455 28.2624 7.51896 28.7231 7.3023 29.174C6.69172 30.4582 6.45536 31.914 6.62278 33.3256C6.79512 34.7618 7.36631 36.1293 7.47956 37.5704C7.49434 37.7272 7.49434 37.889 7.49926 38.0507C7.52388 39.3447 7.2826 40.6633 7.59282 41.9132C7.82917 42.8739 8.40036 43.7512 9.18328 44.3639C9.3113 44.462 9.44918 44.5551 9.5969 44.6041C9.64614 44.6139 9.69045 44.6286 9.73969 44.6335C9.89726 44.6482 10.0598 44.6041 10.2075 44.5551V44.5502Z" fill="white" />
        <path d="M4.80103 46.7608C4.66808 46.3932 4.55482 46.0157 4.44649 45.6383C4.4071 45.506 4.36772 45.3736 4.32832 45.2364C4.36772 45.3687 4.4071 45.506 4.44649 45.6383C4.55482 46.0108 4.66808 46.3883 4.80103 46.7608Z" fill="white" />
        <path d="M5.80054 48.5596C5.6085 48.3293 5.43616 48.0842 5.28844 47.8244C5.43616 48.0842 5.61342 48.3293 5.80054 48.5596Z" fill="white" />
        <path d="M9.89729 16.332C10.37 17.9936 10.1484 19.768 10.1386 21.4933C10.1238 23.2236 10.3897 25.096 11.601 26.3311C12.379 27.1252 13.413 27.5369 14.516 27.7771C14.516 27.7771 14.521 27.7771 14.5259 27.7771C12.7532 27.733 10.9757 27.7575 9.203 27.8604C8.88294 27.88 8.55303 27.9045 8.25759 28.0418C7.79966 28.2575 7.51406 28.7133 7.30233 29.1691C6.69667 30.4533 6.45539 31.9091 6.62281 33.3208C6.79023 34.7569 7.36634 36.1244 7.47959 37.5655C7.49437 37.7223 7.49929 37.8841 7.49929 38.0458C6.39138 37.7763 5.02743 38.286 4.07217 37.8547C4.07217 37.84 4.07217 37.8253 4.06725 37.8106C4.06725 37.8253 4.06724 37.84 4.07217 37.8547C3.98353 37.8155 3.89983 37.7665 3.82104 37.7125C3.74226 37.6586 3.6684 37.59 3.59454 37.5165C3.23508 37.1293 3.1366 36.5901 3.03812 36.0607C3.00365 35.8843 2.96918 35.7078 2.92487 35.5363C2.59496 34.2962 1.65939 33.306 1.13744 32.1395C1.06358 31.9728 0.994649 31.8013 0.940484 31.6297C0.881396 31.4533 0.837078 31.2719 0.807533 31.0856C0.649964 30.1691 0.797688 29.2084 1.17191 28.3408C1.31964 27.9928 1.50675 27.6644 1.7234 27.3556C2.15672 26.738 2.69836 26.2135 3.30402 25.7675C3.60931 25.542 3.92937 25.341 4.25928 25.1597C4.58919 24.9783 4.93387 24.8117 5.27855 24.6695C5.36719 24.6303 5.45582 24.596 5.54445 24.5568C5.63309 24.5176 5.72172 24.4784 5.80543 24.4293C5.97284 24.3362 6.12549 24.2284 6.24367 24.0764C6.46525 23.7921 6.50956 23.4441 6.48494 23.0814C6.46032 22.7187 6.36184 22.3364 6.30275 21.9835C6.21904 21.4639 6.23381 20.9345 6.32244 20.415C6.38153 20.0719 6.48002 19.7288 6.60312 19.3955C6.72622 19.0622 6.88379 18.7436 7.06105 18.4348C7.14969 18.2828 7.24324 18.1309 7.34665 17.9887C7.98677 17.0574 8.82878 16.2781 9.7348 15.5919C9.74465 15.8418 9.83328 16.0918 9.89729 16.3369V16.332Z" fill="#FFF7E6" />
        <path d="M20.2427 12.9205C19.9177 12.8078 19.5779 12.7294 19.2333 12.6705C19.5779 12.7294 19.9128 12.8078 20.2427 12.9205Z" fill="white" />
        <path d="M26.9541 48.2214C27.2052 47.9175 27.4711 47.6283 27.7419 47.3441C27.4711 47.6283 27.2003 47.9175 26.9541 48.2214Z" fill="white" />
        <path d="M16.4562 56.8677C16.1805 56.7746 15.8653 56.5687 15.624 56.3237C15.3778 56.0737 15.2055 55.7796 15.1956 55.4953C15.2597 55.461 15.3237 55.4218 15.3877 55.3875C17.3081 54.3238 19.2235 53.2651 21.1439 52.2064C22.3749 51.5251 23.6256 50.829 24.6153 49.834C27.6485 46.7853 27.1561 40.1044 30.7359 37.737C30.7408 37.7468 30.7506 37.7615 30.7605 37.7713C30.6916 37.8988 30.6276 38.0262 30.5783 38.1634C30.47 38.433 30.3961 38.7222 30.342 39.0212C30.2878 39.3202 30.2533 39.6339 30.2336 39.9574C30.2139 40.2809 30.2041 40.6093 30.2041 40.9377C30.2041 41.4328 30.2041 41.9376 30.1893 42.4278C30.1795 42.7562 30.1598 43.0748 30.1204 43.3885C30.0465 44.011 29.8988 44.5894 29.6132 45.0844C29.4162 45.4226 29.1897 45.7363 28.9386 46.0353C28.6924 46.3343 28.4216 46.6235 28.1508 46.9078C28.0129 47.0499 27.8799 47.1921 27.7421 47.3342C27.4712 47.6185 27.2004 47.9077 26.9542 48.2116C26.8311 48.3636 26.708 48.5204 26.5948 48.6773C26.4815 48.839 26.3732 49.0008 26.2747 49.1723C25.674 50.182 25.285 51.3094 24.827 52.4024C24.7532 52.5838 24.6744 52.7651 24.5907 52.9465C24.4134 53.3337 24.2214 53.716 24.0146 54.0886C23.3942 55.2061 22.6359 56.2452 21.7594 57.1814C21.6904 57.255 21.6215 57.3285 21.5476 57.3971C21.3261 57.6079 21.0897 57.799 20.8041 57.902C20.2083 58.1176 19.5534 57.9167 18.9527 57.7108C18.1205 57.4265 17.2884 57.1422 16.4513 56.8628L16.4562 56.8677Z" fill="#FFF7E6" />
        <path d="M6.60327 19.3906C6.48017 19.7239 6.38169 20.0621 6.3226 20.4101C6.38169 20.067 6.48017 19.7239 6.60327 19.3906Z" fill="white" />
        <path d="M1.71851 27.3555C1.50185 27.6643 1.31966 27.9927 1.16702 28.3407C1.31474 27.9927 1.50185 27.6643 1.71851 27.3555Z" fill="white" />
        <path d="M7.06104 18.4298C6.88377 18.7337 6.73113 19.0572 6.6031 19.3905C6.7262 19.0572 6.88377 18.7386 7.06104 18.4298Z" fill="white" />
        <path d="M28.5496 29.7426C28.5496 29.7426 28.5396 29.772 28.5396 29.7916C28.5396 29.7916 28.5396 29.7622 28.5496 29.7426Z" fill="white" />
        <path d="M30.7847 37.7272C30.7847 37.7272 30.7697 37.7566 30.7647 37.7664C30.7548 37.7566 30.7448 37.7419 30.7398 37.7321C30.7647 37.7174 30.7847 37.7027 30.8096 37.6831C30.7996 37.6978 30.7946 37.7125 30.7896 37.7223L30.7847 37.7272Z" fill="white" />
        <path d="M30.8096 37.688C30.8096 37.688 30.7946 37.7174 30.7896 37.7272C30.7946 37.7125 30.8046 37.7027 30.8096 37.688Z" fill="white" />
        <path d="M28.5398 29.7916C28.49 29.973 28.49 30.1641 28.4999 30.3504C28.49 30.1592 28.485 29.973 28.5398 29.7916Z" fill="white" />
        <path d="M69.7834 56.2012C67.1983 51.1183 63.2689 47.0255 58.5369 43.8738C56.1783 42.3004 53.7113 40.874 51.2493 39.4673C48.7873 38.0605 46.2957 36.7273 43.7008 35.5902C40.6922 34.2716 37.5802 33.3207 34.3501 32.7081C34.2319 32.6835 34.2565 32.4826 34.3796 32.4973C40.1013 33.2374 45.4734 35.8794 50.4467 38.6585C55.42 41.4377 60.7281 44.3737 64.7264 48.5989C66.8388 50.8291 68.5425 53.3926 69.8425 56.1669C69.8622 56.2061 69.8031 56.2355 69.7883 56.2012H69.7834Z" fill="#A89070" />
        <path d="M0.137918 0.323507C0.172386 0.230378 0.201937 0.137248 0.236405 0.0441189C0.246253 0.0196112 0.270871 4.96302e-06 0.295491 0.00490651C0.320111 0.00490651 0.344727 0.0294142 0.344727 0.0588235C0.344727 0.156854 0.339808 0.254885 0.334884 0.352916C0.334884 0.411735 0.280714 0.46075 0.221626 0.450947C0.167462 0.441144 0.118222 0.382326 0.137918 0.323507Z" fill="#FFF7E6" />
        <path d="M29.5197 28.7623C29.8446 28.7917 30.1844 28.8211 30.5192 28.875C30.5734 28.625 30.6029 28.3702 30.6029 28.1104C30.6276 26.0272 30.406 23.0128 29.4507 21.1404C28.6333 19.5278 27.0035 18.4102 25.4032 17.6701C21.3408 15.7977 16.7812 15.0085 12.32 15.4105C15.2301 15.5379 18.1107 16.2829 20.7204 17.5819C18.4997 16.8907 16.0032 17.1064 13.945 18.1798C16.988 17.773 19.903 19.3415 22.5719 20.8512C19.9326 20.959 17.2982 21.0669 14.6589 21.1698C17.3573 21.8315 20.0458 22.4981 22.7442 23.1598C20.2576 24.1303 17.5001 24.4097 14.8657 23.9539C17.4656 24.4244 20.0704 24.8852 22.6753 25.3557C20.5629 26.0223 18.3273 26.3066 16.1115 26.2037C18.7459 26.3507 21.3753 26.5076 24.0097 26.6595C23.0101 27.0713 22.0056 27.4781 21.006 27.8849C21.3605 27.7428 21.7298 27.6987 22.0942 27.7232C22.8919 27.5369 23.7093 27.4487 24.5513 27.532C25.5903 27.6349 26.26 28.0712 26.8755 28.625C27.7618 28.6741 28.6678 28.6888 29.5147 28.7623H29.5197Z" fill="#FCF5E6" />
        <path d="M16.1508 42.7415C16.653 42.5846 17.1504 42.418 17.6477 42.2268C19.5336 41.5014 21.2915 40.4819 23.0395 39.4623C24.9746 38.335 27.8897 35.2274 29.6672 33.7128C29.6525 33.6883 29.6377 33.6589 29.6278 33.6393C29.5737 33.5413 29.5097 33.453 29.4506 33.3599C29.2733 33.0854 29.0764 32.8207 28.9336 32.5267C28.6381 31.914 28.579 31.2179 28.5199 30.5415C28.5199 30.5268 28.5199 30.517 28.5199 30.5023C28.2294 30.5268 27.934 30.5219 27.6484 30.4533C26.1613 30.1053 24.7728 29.3995 23.2611 29.0809C21.7149 28.7574 20.1392 28.5956 18.5586 28.6005C16.8007 28.6054 15.0429 28.826 13.3342 29.2573C16.4265 29.6102 19.5237 29.9582 22.616 30.3112C19.6025 30.9435 16.589 31.5807 13.5755 32.213C17.2439 32.3355 20.9074 32.4531 24.5758 32.5757C21.06 34.5461 17.5394 36.5263 14.0236 38.5016C17.7954 37.9135 21.4884 36.791 24.95 35.1784C21.8183 37.7027 18.337 39.8054 14.6391 41.4132C16.7269 41.2955 18.7851 40.7711 20.676 39.8986C19.1692 40.8446 17.6674 41.7955 16.1606 42.7415H16.1508Z" fill="#FCF5E6" />
        <path d="M20.3706 41.9866C20.5676 41.9376 20.7645 41.8739 20.9517 41.7955C20.7596 41.8592 20.5676 41.9229 20.3706 41.9866Z" fill="#FCF5E6" />
        <path d="M25.6494 47.0107C26.1123 46.4715 26.5357 45.9226 26.9198 45.3589C27.2054 44.4521 27.4664 43.5159 27.752 42.6189C28.2641 41.0014 28.8746 39.4917 29.9087 38.4281C30.0958 38.2369 30.2878 38.0654 30.5045 37.9085C30.5488 37.8644 30.5931 37.835 30.6424 37.8007C30.6621 37.7615 30.6768 37.7223 30.6965 37.6733C30.6424 37.5948 30.5931 37.5164 30.5488 37.438C30.4996 37.34 30.4553 37.2419 30.4109 37.1488C30.1549 36.5263 30.1697 35.9185 30.1057 35.2862C30.0909 35.1196 30.0663 34.9529 30.0318 34.7764C30.017 34.6931 29.9973 34.6049 29.9776 34.5216C29.9481 34.4235 29.9185 34.3206 29.8841 34.2177C29.8299 34.0608 29.756 33.8942 29.6723 33.7324C29.6132 33.7716 29.5542 33.8108 29.5 33.8501C28.6629 34.4284 27.9342 35.1588 27.2448 35.9381C27.2448 35.9381 27.2448 35.9381 27.2448 35.943C26.6884 36.5851 26.1566 37.2566 25.6199 37.9085C24.3298 39.4917 22.8476 41.0847 20.947 41.7906C21.1833 41.717 21.4197 41.6386 21.656 41.5651C20.361 43.2953 18.4554 44.5746 16.3528 45.1138C15.9392 45.2167 15.4911 45.3148 15.1908 45.6236C14.8953 45.9324 14.8806 46.5451 15.2794 46.7117C15.5404 46.8245 15.8457 46.6921 16.1066 46.5598C17.83 45.6677 19.5485 44.7756 21.2719 43.8884C19.4205 46.7264 16.663 48.9713 13.5067 50.2261C16.7024 49.4811 19.7356 48.0498 22.3552 46.0745C22.1681 48.5792 20.0902 50.8241 17.5937 51.2162C20.7205 51.1574 23.6059 49.3537 25.6543 47.0058L25.6494 47.0107Z" fill="#FCF5E6" />
        <path d="M29.5049 24.9685C29.5689 25.0028 29.6329 25.042 29.7018 25.0714C29.6821 24.9391 29.6673 24.8018 29.6526 24.6646C29.623 24.4293 29.5886 24.1842 29.5541 23.9441C29.042 22.6059 28.4216 21.3707 27.4072 20.2287C25.8463 18.4837 23.7487 17.2289 21.4738 16.6702C23.3153 18.3122 25.0141 20.1111 26.5406 22.0472C25.1323 21.2335 23.7191 20.4248 22.3108 19.616L27.3186 23.6402C25.6444 23.2235 23.9752 22.8118 22.301 22.4001C23.7487 23.0961 25.2013 23.7872 26.6489 24.4832C25.5706 24.5764 24.4971 24.6744 23.4188 24.7675C24.9895 25.3018 26.5554 25.841 28.131 26.3752C27.4269 26.5272 26.7277 26.6742 26.0236 26.8164C27.2841 26.787 28.5447 27.0271 29.7117 27.5124C29.9185 26.6693 29.8545 25.7674 29.5147 24.9734L29.5049 24.9685Z" fill="#F9E3CD" />
        <path d="M23.6747 31.4728C25.4178 31.8061 27.1609 32.1395 28.9089 32.4777C28.8006 32.2473 28.7267 32.0071 28.6775 31.762C28.387 31.7032 28.0915 31.6542 27.8207 31.6052C26.442 31.3405 25.0682 31.2523 23.6747 31.4777V31.4728Z" fill="#F9E3CD" />
        <path d="M22.2665 34.5118C24.7285 34.2569 27.1806 33.9873 29.6427 33.7324C29.6525 33.7275 29.6574 33.7226 29.6624 33.7177C29.6476 33.6932 29.6328 33.6638 29.623 33.6442C29.5688 33.5462 29.5048 33.4579 29.4457 33.3648C29.3078 33.1491 29.1503 32.9335 29.0272 32.7129C26.7719 33.3158 24.5167 33.9187 22.2665 34.5167V34.5118Z" fill="#F9E3CD" />
        <path d="M24.374 37.5115C25.0979 37.2125 25.8217 36.9086 26.5455 36.6047C27.1955 35.997 27.8356 35.3843 28.4265 34.8304C27.0724 35.7225 25.7281 36.6145 24.374 37.5115Z" fill="#F9E3CD" />
        <path d="M29.2981 40.0799C28.7417 41.6827 28.1902 43.2807 27.6338 44.8786C29.2341 42.8934 30.2435 40.4378 30.5094 37.9135C30.5291 37.7566 30.5439 37.5998 30.5537 37.4429C30.5045 37.3449 30.4602 37.2469 30.4158 37.1537C30.1598 36.5312 30.1746 35.9234 30.1105 35.2911C30.0958 35.1245 30.0712 34.9578 30.0367 34.7814C30.0219 34.698 30.0022 34.6098 29.9825 34.5265C29.953 34.4285 29.9234 34.3255 29.889 34.2226C29.303 35.5656 28.6777 36.889 27.8898 38.1242C26.8853 39.6927 25.5903 41.1289 23.9555 42.0455C25.5854 41.3298 27.0527 40.276 28.2493 38.9624C26.6194 41.222 24.9846 43.4767 23.3499 45.7314C25.349 44.1286 27.097 42.2121 28.5053 40.075C27.2743 42.5356 25.6543 44.8099 23.7192 46.7804C25.2653 45.604 26.6342 44.1923 27.7667 42.6091C28.3428 41.8053 28.8598 40.9573 29.3079 40.0701L29.2981 40.0799Z" fill="#F9E3CD" />
        <path d="M40.6775 17.1554C41.7066 24.7675 45.6163 31.713 50.7816 37.3155C52.244 38.9036 53.8099 40.3985 55.4594 41.7955C55.6071 41.9229 55.3954 42.1288 55.2477 42.0062C49.3536 37.0753 44.3951 30.7474 41.938 23.4245C41.2585 21.3952 40.7809 19.3023 40.5199 17.175C40.5101 17.0868 40.6676 17.0623 40.6775 17.1554Z" fill="#948E6A" />
        <path d="M45.8772 31.5856C44.5231 27.9535 44.8678 23.699 45.2666 19.8464C45.5473 17.1113 46.217 14.1018 44.7053 11.8029C43.0804 9.32765 39.4858 8.65614 37.9938 6.09753C37.856 9.4747 37.142 12.8323 37.3242 16.2094C37.6639 22.4246 40.5149 28.3751 45.8723 31.5856" fill="#C3AD87" />
        <path d="M61.8112 45.952C58.5368 44.9374 55.2081 44.7805 51.8007 44.7952C48.3933 44.8099 44.8332 44.8491 42.3072 47.3538C42.2284 47.4322 42.1102 47.3146 42.1841 47.2313C44.5033 44.658 48.2505 44.5844 51.4659 44.5746C54.9028 44.5648 58.6205 44.4864 61.8162 45.9422C61.8211 45.9422 61.8162 45.9569 61.8162 45.952H61.8112Z" fill="#948E6A" />
        <path d="M51.1458 44.7756C49.8754 44.6874 48.8217 45.6971 47.9846 46.6529C46.0494 48.8586 44.2226 51.2016 41.9132 53.0102C39.599 54.8189 36.6692 56.0786 33.7541 55.6865C34.5174 55.4463 34.9556 54.667 35.2757 53.9366C36.4771 51.2016 37.1419 48.143 39.0869 45.8687C41.7803 42.717 47.8664 42.6092 51.4609 44.6825" fill="#948E6A" />
        <path d="M69.4338 15.783C65.5635 17.3123 63.3575 21.0914 61.4125 24.5273C60.216 26.6399 59.1179 28.7672 58.8077 31.2032C58.5123 33.5119 58.596 35.9332 58.788 38.2468C58.8963 39.5555 59.0834 40.8593 59.4035 42.1337C59.7236 43.4081 60.2554 44.5306 60.7035 45.7412C60.7527 45.8687 60.5607 45.9324 60.4917 45.8295C59.8614 44.8884 59.5069 43.7071 59.2164 42.6288C58.9259 41.5504 58.7141 40.3642 58.5861 39.2124C58.3055 36.7665 58.2316 34.2128 58.463 31.762C58.6944 29.3113 59.6349 27.1938 60.8462 25.0812C61.9 23.2431 62.9685 21.4002 64.2832 19.7336C65.5979 18.0671 67.3312 16.4986 69.4288 15.6997C69.4781 15.68 69.4978 15.7585 69.4485 15.7781L69.4338 15.783Z" fill="#948E6A" />
        <path d="M59.7973 27.1742C60.0681 24.1254 59.3886 21.111 58.0099 18.3906C57.9557 18.2877 58.1084 18.1946 58.1674 18.2975C59.7333 20.959 60.2946 24.1254 59.9352 27.1742C59.9253 27.2624 59.7874 27.2624 59.7973 27.1742Z" fill="#948E6A" />
        <path d="M59.7778 23.2922C59.9551 23.5029 60.029 22.0864 60.1225 21.8266C61.0187 19.4199 60.1816 16.6653 58.7044 14.5625C57.2272 12.4597 55.1689 10.8471 53.288 9.08747C52.1259 8.00423 51.0278 6.85727 49.9889 5.65149C50.107 7.06313 50.2745 8.47478 50.4911 9.87662C50.8604 12.2735 51.3774 14.6899 52.5198 16.8319C54.1694 19.9297 56.3852 22.3167 59.7729 23.2824" fill="#948E6A" />
    </g>
    <defs>
        <clipPath id="clip0_231_22952">
            <rect width="70" height="58" fill="white" transform="matrix(-1 0 0 1 70 0)" />
        </clipPath>
    </defs>
</svg>