<svg xmlns="http://www.w3.org/2000/svg" width="37" height="91" viewBox="0 0 37 91" fill="none">
    <path d="M32.8039 51.6392C32.4114 52.5616 32.11 53.504 31.8166 54.4344V54.4464C31.7809 54.5466 31.8007 54.6629 31.8761 54.7512C31.9911 54.8835 32.1893 54.8995 32.3202 54.7832C32.8674 54.306 33.5612 54.0012 34.2988 53.8128C35.0363 53.6243 35.8134 53.524 36.5946 53.3957C36.9911 53.3355 37.3757 53.2553 37.7682 53.1551C38.1608 53.0749 38.5375 52.9385 38.9221 52.8262C39.2948 52.6819 39.6755 52.5616 40.0402 52.3972C40.409 52.2488 40.7659 52.0683 41.1227 51.8919C41.8602 51.5109 42.57 51.0858 43.256 50.6246C41.547 52.4533 39.8301 54.3702 38.1687 56.3472C37.8039 56.7844 37.4431 57.2215 37.0823 57.6586C36.5668 58.0275 36.0157 58.3925 35.4486 58.7333C35.1156 58.9258 34.7944 59.1303 34.4613 59.3108C34.1322 59.4953 33.811 59.6757 33.4978 59.8482C33.1806 60.0166 32.8872 60.1931 32.5938 60.3414C32.3083 60.5019 32.0386 60.6542 31.7888 60.7946C31.5351 60.939 31.3011 61.0793 31.0989 61.2036C31.087 61.1996 31.0791 61.1956 31.0672 61.1916C30.8015 61.0873 30.409 60.947 29.8935 60.8908C29.7627 60.8788 29.6318 60.8668 29.4811 60.8708C29.3543 60.8708 29.1917 60.8828 29.041 60.9069C28.7357 60.963 28.4185 61.0593 28.1171 61.2357C27.8158 61.4082 27.5303 61.6568 27.3321 61.9937C27.2369 62.146 27.1497 62.3426 27.1219 62.5631C27.0862 62.7877 27.1576 63.0604 27.2924 63.2328C27.5581 63.5777 27.903 63.7261 28.252 63.8103C28.6009 63.8905 28.9459 63.8745 29.2631 63.7983C29.5723 63.7261 29.8737 63.5857 30.1116 63.4333C30.3535 63.2729 30.5597 63.0885 30.7262 62.9C31.0712 62.531 31.2773 62.1741 31.432 61.9295C31.432 61.9295 31.432 61.9215 31.4399 61.9175C31.6699 61.8373 31.9276 61.741 32.2052 61.6167C32.4788 61.5084 32.7603 61.356 33.0616 61.2036C33.359 61.0432 33.6683 60.8628 33.9815 60.6743C34.2948 60.4778 34.616 60.2733 34.9292 60.0407C35.1354 59.8963 35.3416 59.7399 35.5478 59.5835C35.2385 59.9805 34.9371 60.3856 34.6358 60.7906C33.5256 62.3185 32.6017 63.9667 31.7968 65.5588C31.0236 67.0867 30.3217 68.5825 29.6953 70.0262C29.6437 70.0422 29.5961 70.0623 29.5446 70.0743C29.3146 70.1304 29.0648 70.1505 28.811 70.1746C28.5573 70.1986 28.2837 70.2066 28.0101 70.2427C27.7286 70.2788 27.447 70.335 27.1734 70.4152C26.0751 70.74 25.0957 71.3856 24.3067 72.1797C24.1084 72.3802 23.9181 72.5807 23.7317 72.8013C23.6326 72.9135 23.5612 73.0138 23.478 73.1221L23.2282 73.463C22.907 73.9161 22.6215 74.3893 22.3677 74.8786C21.8562 75.849 21.4359 76.8476 21.0354 77.8421L21.0236 77.8702C20.9958 77.9384 20.9918 78.0186 21.0156 78.0988C21.0711 78.2712 21.2535 78.3635 21.424 78.3073L22.11 78.0747L22.7841 77.806L23.4423 77.5053L24.0807 77.1684L24.6992 76.7995L25.2979 76.3944L25.8729 75.9613L26.428 75.5042L26.9593 75.0189L27.4629 74.5056L27.9427 73.9682L28.1251 73.7437C28.0259 73.9923 27.9229 74.2369 27.8277 74.4775C27.2964 75.8009 26.8285 77.02 26.4121 78.1028C25.9958 79.1856 25.6588 80.136 25.3693 80.918C25.3614 80.9421 25.3535 80.9661 25.3455 80.9902C25.3257 80.9942 25.3059 80.9942 25.29 81.0062H25.2781C25.1037 81.0984 24.8737 81.2268 24.6952 81.3551C24.5089 81.4834 24.3344 81.6318 24.1758 81.7922C23.8546 82.105 23.5771 82.4659 23.355 82.8509C23.129 83.2399 22.9625 83.645 22.8237 84.0741C22.6889 84.4951 22.5977 84.9282 22.5382 85.3613C22.4232 86.2316 22.3955 87.0938 22.4193 87.964C22.447 88.8302 22.5303 89.7044 22.6889 90.5666C22.6929 90.5947 22.7008 90.6268 22.7127 90.6508C22.8118 90.9276 23.1171 91.0679 23.3907 90.9677L23.4423 90.9476C24.382 90.5987 25.2067 89.941 25.7698 89.0868C26.0592 88.6658 26.2694 88.1845 26.4042 87.6833C26.4399 87.5589 26.4677 87.4306 26.4914 87.2983L26.5073 87.202L26.5192 87.0978L26.539 86.9334C26.5628 86.6567 26.5707 86.404 26.5628 86.1594C26.543 85.1688 26.313 84.2986 26.1941 83.4886C26.0553 82.6865 26.0394 81.8764 26.091 81.0102C26.091 80.938 26.0751 80.8699 26.0394 80.8137C26.2932 80.0959 26.6025 79.2658 26.9593 78.3234C27.3677 77.2446 27.8475 76.0335 28.4026 74.7302C28.9577 73.4229 29.5604 72.0112 30.2662 70.5475C30.3892 70.2868 30.52 70.0222 30.6469 69.7575L30.5676 70.4713L30.5398 71.2894L30.5755 72.1075L30.6627 72.9216L30.8095 73.7276L31.0117 74.5217L31.2694 75.2996L31.5787 76.0616L31.9435 76.7995L32.3598 77.5093L32.8317 78.183L33.3511 78.8246L33.9221 79.4222L34.5406 79.9716C34.6199 80.0397 34.731 80.0718 34.838 80.0478C35.0204 80.0077 35.1354 79.8232 35.0918 79.6387L35.0839 79.6026C34.9847 79.1535 35.0918 78.6442 35.2028 78.0908C35.2583 77.8181 35.3138 77.5133 35.3376 77.2125C35.3614 76.8917 35.3495 76.5909 35.3059 76.2781C35.2623 75.9694 35.1909 75.6646 35.0839 75.3758C34.9847 75.0871 34.834 74.7903 34.6834 74.5457C34.5168 74.269 34.3463 74.0364 34.16 73.8078C33.9736 73.5792 33.7873 73.3667 33.6009 73.1582C33.2321 72.7371 32.8753 72.3401 32.6057 71.911L32.5541 71.8308C32.5541 71.8308 32.5264 71.7786 32.5105 71.7546L32.4074 71.5701C32.3559 71.4578 32.2964 71.3616 32.2488 71.2373C32.1417 71.0047 32.0704 70.752 31.995 70.5034C31.8523 69.9981 31.765 69.4647 31.7056 68.9193C31.6739 68.6466 31.6421 68.3699 31.6223 68.0932C31.6144 68.013 31.6064 67.9328 31.6025 67.8566C31.9197 67.2471 32.2448 66.6375 32.5858 66.0199C33.4542 64.48 34.4336 62.9722 35.5597 61.5205C36.6818 60.0768 37.9189 58.6451 39.164 57.2415C40.0125 56.2911 40.8729 55.3527 41.7294 54.4263C41.6025 54.6349 41.4717 54.8594 41.3289 55.088C41.0632 55.5372 40.7738 56.0184 40.5002 56.5076C40.2345 57.0009 39.9728 57.4982 39.7627 57.9834C39.5565 58.4687 39.3781 58.9258 39.267 59.3349C39.0965 59.9164 39.045 60.3775 39.0291 60.5941C39.0093 60.6943 38.9816 60.7866 38.9617 60.8908C38.9142 61.1716 38.8785 61.4523 38.8547 61.733C38.8349 62.0137 38.819 62.2984 38.819 62.5792C38.819 62.8599 38.8349 63.1446 38.8547 63.4253C38.8824 63.706 38.9181 63.9867 38.9657 64.2635C39.0172 64.5402 39.0767 64.8169 39.1481 65.0896C39.2234 65.3623 39.3107 65.6309 39.4058 65.8996C39.505 66.1643 39.616 66.425 39.7389 66.6816L39.9292 67.0546L40.1433 67.4275C40.29 67.6682 40.4447 67.9088 40.6073 68.1374C40.7738 68.3659 40.9522 68.5865 41.1346 68.803C41.321 69.0156 41.5192 69.2201 41.7215 69.4166C41.9276 69.6091 42.1418 69.7976 42.3638 69.974C42.5858 70.1465 42.8158 70.3189 43.0498 70.4753C43.2877 70.6317 43.5295 70.7761 43.7793 70.9164C44.0331 71.0488 44.2869 71.1731 44.5525 71.2854C44.6874 71.3415 44.846 71.3095 44.9451 71.1932C45.072 71.0488 45.0561 70.8282 44.9134 70.6999L44.8935 70.6839C44.5407 70.3711 44.3424 69.9019 44.2631 69.3845C44.1759 68.8632 44.2036 68.3258 44.2472 67.7443C44.2869 67.1669 44.3146 66.5493 44.2036 65.9077C44.1441 65.5868 44.041 65.258 43.8864 64.9612C43.8349 64.8449 43.7199 64.6645 43.6247 64.5321C43.5295 64.3958 43.4265 64.2715 43.3154 64.1512C42.8832 63.678 42.3836 63.3331 41.9316 62.9922C41.7056 62.8198 41.4835 62.6553 41.2774 62.4829C41.1743 62.3947 41.0751 62.3065 40.9839 62.2142C40.9403 62.1701 40.8848 62.118 40.8531 62.0819L40.7143 61.9215C40.5636 61.745 40.409 61.5124 40.29 61.2838C40.1671 61.0513 40.064 60.8066 39.9887 60.554C39.9134 60.3134 39.8618 60.0647 39.8341 59.8121C39.8697 59.7359 39.9015 59.6557 39.9372 59.5715C40.0958 59.1905 40.2623 58.7414 40.4447 58.2601C40.5359 58.0195 40.6271 57.7709 40.7222 57.5182C40.8174 57.2656 40.9165 57.0089 41.0157 56.7523C41.2179 56.239 41.432 55.7297 41.658 55.2645C41.884 54.7993 42.1219 54.3782 42.3281 54.0213C42.5145 53.7085 42.677 53.4518 42.8079 53.2553C44.1243 51.8477 45.4407 50.4803 46.7215 49.1729C47.1893 48.6997 47.6493 48.2345 48.1093 47.7774C48.0894 47.8134 48.0656 47.8495 48.0458 47.8856C47.681 48.5273 47.2964 49.213 46.9316 49.9148C46.7571 50.2677 46.5827 50.6246 46.4241 50.9815C46.2575 51.3344 46.1188 51.6913 45.984 52.0362C45.8571 52.3851 45.7381 52.726 45.635 53.0508C45.5399 53.3797 45.4487 53.6884 45.3892 53.9812C45.3218 54.278 45.2742 54.5506 45.2385 54.7953C45.2385 54.7953 45.2345 54.7993 45.2306 54.8033C45.0244 54.9998 44.7112 55.2725 44.4177 55.6815C44.2671 55.882 44.1243 56.1187 44.0133 56.3914C43.9062 56.656 43.8269 56.9809 43.8111 57.3017C43.7952 57.6265 43.8428 57.9754 43.9855 58.3082C44.1322 58.6411 44.3424 58.9539 44.723 59.1544C44.9134 59.2587 45.1949 59.2787 45.405 59.2025C45.6152 59.1344 45.7897 59.01 45.9205 58.8897C46.21 58.6291 46.4003 58.3042 46.5153 57.9714C46.6303 57.6385 46.666 57.3057 46.666 56.9929C46.666 56.8405 46.6422 56.6761 46.6223 56.5478C46.5985 56.3954 46.5629 56.267 46.5272 56.1387C46.3765 55.6374 46.1703 55.2725 46.0196 55.0279C46.0117 55.0158 46.0077 55.0118 45.9998 54.9998C46.0831 54.7752 46.1743 54.5186 46.2694 54.2379C46.3606 53.9652 46.4558 53.6684 46.5589 53.3556C46.6501 53.0388 46.769 52.7099 46.8721 52.3651C46.9832 52.0242 47.1021 51.6673 47.2171 51.3104C47.3321 50.9495 47.4709 50.5885 47.5938 50.2236C47.8595 49.4977 48.1489 48.7799 48.4621 48.1262C48.7238 47.5808 48.9974 47.0796 49.2512 46.6384C49.6081 46.2855 49.961 45.9367 50.3139 45.5958C51.4717 44.4689 52.57 43.4102 53.6049 42.4598C54.1402 41.9585 54.6596 41.4893 55.1553 41.0442C54.7825 41.5134 54.4138 41.9906 54.0609 42.4758C53.3551 43.4503 52.6929 44.4609 52.1101 45.5196C51.8166 46.0489 51.5391 46.5863 51.2893 47.1357C51.1624 47.4084 51.0355 47.6851 50.9245 47.9658C50.8095 48.2425 50.6905 48.5313 50.5954 48.816C50.4923 49.0967 50.3932 49.3814 50.3059 49.6742C50.2147 49.9669 50.1235 50.2557 50.0522 50.5524C49.8936 51.1379 49.7627 51.7315 49.6556 52.329C49.4415 53.524 49.3186 54.7351 49.271 55.9462C49.1759 58.3684 49.3464 60.7946 49.6517 63.1887C49.6755 63.3852 49.8539 63.5256 50.0482 63.4975C50.2425 63.4694 50.3773 63.293 50.3535 63.0965V63.0885C50.2861 62.5872 50.4725 62.1059 50.8016 61.6688C51.1307 61.2317 51.5668 60.8427 52.0149 60.4497C52.4629 60.0527 52.9348 59.6557 53.3511 59.1504L53.4939 58.9739L53.6406 58.7654C53.7437 58.6251 53.819 58.4887 53.9023 58.3484C54.0649 58.0676 54.1957 57.7709 54.3186 57.4701C54.7746 56.259 54.8777 54.9717 54.846 53.7286C54.8381 53.4158 54.8182 53.111 54.7905 52.7942C54.7627 52.4974 54.731 52.1886 54.6913 51.8838L54.4534 50.0832C54.3028 48.8962 54.1798 47.7212 54.279 46.5743C54.2869 46.5101 54.2909 46.4179 54.2988 46.3738L54.3305 46.1492C54.3543 46.0008 54.3662 45.8444 54.394 45.7041C54.4534 45.4273 54.4971 45.1547 54.5803 44.8739C54.7231 44.3125 54.9332 43.7671 55.1553 43.2297C55.3813 42.6924 55.6588 42.171 55.9443 41.6577C56.2417 41.1484 56.547 40.6391 56.8841 40.1499C57.2132 39.6526 57.5581 39.1634 57.911 38.6821C58.2005 38.4495 58.4741 38.233 58.7278 38.0405C59.049 37.7918 59.3464 37.5833 59.6002 37.3988C59.8619 37.2224 60.0799 37.074 60.2623 36.9537C60.6311 36.7291 60.8254 36.6088 60.8254 36.6088L60.8452 36.5968C60.98 36.5126 61.0395 36.3401 60.9721 36.1918C60.9007 36.0314 60.7104 35.9552 60.5518 36.0273C60.5518 36.0273 60.3297 36.1276 59.9174 36.3161C59.6358 36.4524 59.2631 36.6489 58.827 36.9016C58.7754 36.9016 58.7239 36.9256 58.6882 36.9657C58.6763 36.9778 58.6644 36.9898 58.6525 37.0018C58.5098 37.086 58.367 37.1703 58.2124 37.2665C57.5026 37.7116 56.666 38.2851 55.7342 38.9829C54.8024 39.6767 53.7913 40.5028 52.7009 41.4251C51.6223 42.3555 50.4685 43.3821 49.2869 44.505C48.7001 45.0624 48.1013 45.6399 47.4947 46.2374C47.2607 46.3617 47.0228 46.47 46.7809 46.5582C46.6778 46.5903 46.5866 46.6224 46.4717 46.6505L46.2932 46.6906L46.2179 46.7066L46.1346 46.7186C45.9205 46.7587 45.6985 46.7748 45.4764 46.7828C44.5803 46.8109 43.6604 46.5983 42.6929 46.4339C42.451 46.3898 42.2092 46.3537 41.9554 46.3176C41.8245 46.2976 41.7135 46.2896 41.5906 46.2735L41.202 46.2494C40.6945 46.2294 40.183 46.2374 39.6755 46.3056C38.6644 46.4259 37.6731 46.7186 36.7571 47.1758C36.3011 47.4084 35.861 47.6771 35.4566 47.9899C35.0561 48.3067 34.6635 48.6797 34.3384 49.0526C33.6683 49.8346 33.1727 50.7369 32.7762 51.6553L32.8039 51.6392ZM28.5018 72.6048L28.0894 73.1742L27.6493 73.7196L27.1774 74.2369L26.6778 74.7262L26.1544 75.1874L25.6072 75.6205L25.0323 76.0175L24.4375 76.3824L23.8269 76.7112L23.2004 77.008L22.5581 77.2647L21.9474 77.4652C22.3082 76.7273 22.677 75.9974 23.0894 75.3037C23.359 74.8585 23.6405 74.4254 23.9458 74.0124L24.1758 73.7156C24.2591 73.6153 24.3503 73.5031 24.4296 73.4148C24.5882 73.2304 24.7666 73.0419 24.9451 72.8654C25.3059 72.5125 25.6984 72.1957 26.1108 71.919C26.5271 71.6463 26.9633 71.4137 27.4272 71.2453C27.6572 71.1571 27.8911 71.0889 28.133 71.0327L28.8547 70.8844C28.7952 70.9285 28.7317 70.9766 28.6723 71.0287C28.4185 71.2252 28.1449 71.4819 27.8554 71.7586C27.562 72.0313 27.2686 72.3441 26.9633 72.6449C26.6619 72.9496 26.3566 73.2544 26.0553 73.5191C25.7579 73.7878 25.4645 74.0204 25.2147 74.2249C24.7111 74.6219 24.3503 74.8585 24.3503 74.8585C24.3503 74.8585 24.3424 74.8625 24.3384 74.8665C24.271 74.9227 24.2551 75.0229 24.3106 75.0911C24.3661 75.1593 24.4653 75.1753 24.5327 75.1192C24.5327 75.1192 24.8697 74.8505 25.3891 74.4655C25.6508 74.277 25.9562 74.0525 26.2813 73.8159C26.6104 73.5792 26.9673 73.3346 27.3202 73.086C27.6691 72.8293 28.022 72.5767 28.3352 72.316C28.5612 72.1235 28.7635 71.9391 28.9459 71.7586C28.8745 71.927 28.8031 72.0955 28.7317 72.2599L28.5018 72.6168V72.6048ZM53.3789 46.474C53.2599 47.7372 53.3749 48.9884 53.5415 50.1915L53.7913 51.9841C53.8309 52.2768 53.8626 52.5696 53.8944 52.8744C53.9221 53.1591 53.9419 53.4559 53.9538 53.7486C53.9975 54.9156 53.8904 56.0866 53.5177 57.1493C53.4185 57.41 53.3115 57.6706 53.1767 57.9152C53.1093 58.0356 53.0419 58.1599 52.9665 58.2641L52.8595 58.4286L52.7207 58.605C52.3836 59.0381 51.9396 59.4311 51.4994 59.8402C51.0593 60.2492 50.5954 60.6703 50.2068 61.2077C50.179 61.2478 50.1513 61.2879 50.1235 61.332C49.9055 59.5434 49.7746 57.7468 49.8182 55.9462C49.846 54.7552 49.9411 53.5681 50.1315 52.3931C50.2266 51.8076 50.3416 51.2221 50.4883 50.6487C50.5557 50.3559 50.635 50.0752 50.7223 49.7945C50.8016 49.5098 50.9007 49.2291 51.0038 48.9443C51.0989 48.6556 51.206 48.3909 51.321 48.1142C51.4281 47.8375 51.551 47.5648 51.6739 47.2961C51.9158 46.7547 52.1854 46.2254 52.4748 45.7041C53.0458 44.6614 53.6921 43.6588 54.386 42.6924C54.5208 42.5039 54.6557 42.3194 54.7944 42.1349C54.7627 42.1951 54.731 42.2593 54.6993 42.3194C54.616 42.4237 54.5288 42.536 54.4415 42.6563C54.2591 42.925 54.0331 43.2137 53.8269 43.5546C53.6208 43.8954 53.3908 44.2644 53.1886 44.6734C52.9824 45.0825 52.7643 45.5156 52.5779 45.9808C52.3718 46.4379 52.2052 46.9272 52.0347 47.4244C51.888 47.9297 51.7135 48.435 51.6025 48.9564C51.4717 49.4737 51.3765 49.999 51.2813 50.5123C51.202 51.0297 51.1148 51.539 51.0752 52.0322C51.0196 52.5255 50.9998 53.0067 50.9721 53.4639C50.9562 53.921 50.9522 54.3501 50.9602 54.7472C50.976 55.1442 50.976 55.5091 51.0078 55.8339C51.0395 56.1547 51.0474 56.4435 51.0791 56.6681C51.1346 57.1252 51.1664 57.3859 51.1664 57.3859C51.1783 57.4741 51.2615 57.5343 51.3488 57.5222C51.436 57.5102 51.4955 57.426 51.4836 57.3378C51.4836 57.3378 51.4479 57.0771 51.3805 56.6239C51.3408 56.3954 51.3289 56.1227 51.3012 55.8059C51.2694 55.4931 51.2694 55.1321 51.2576 54.7391C51.2576 54.3501 51.2694 53.9251 51.2972 53.4759C51.317 53.2513 51.3329 53.0227 51.3527 52.7902C51.3765 52.5576 51.4162 52.321 51.4518 52.0763C51.5113 51.5911 51.6263 51.0978 51.7254 50.5966C51.8523 50.0993 51.9792 49.598 52.1457 49.1047C52.2885 48.6075 52.4828 48.1262 52.6572 47.649C52.8595 47.1798 53.0339 46.7106 53.2441 46.2775C53.3194 46.1091 53.3947 45.9447 53.4741 45.7843C53.4384 46.0048 53.4027 46.2134 53.3789 46.474ZM34.9808 49.59C35.3059 49.2411 35.631 48.9524 36.0038 48.6756C36.3765 48.411 36.769 48.1744 37.1774 47.9698C38.0022 47.5728 38.8983 47.3162 39.8103 47.2159C40.2663 47.1598 40.7262 47.1598 41.1822 47.1798L41.5192 47.2039L41.8761 47.244C42.0981 47.2721 42.336 47.3082 42.57 47.3442C43.5097 47.4966 44.501 47.7012 45.5438 47.637C45.7619 47.625 45.98 47.5929 46.1941 47.5488C46.1743 47.5688 46.1545 47.5889 46.1346 47.6089C46.091 47.633 46.0514 47.657 46.0077 47.6811C45.528 47.9338 44.9292 48.2064 44.2869 48.4952C43.6445 48.7799 42.9546 49.0887 42.2488 49.3574C41.547 49.6341 40.8293 49.8747 40.1473 50.0632C39.4653 50.2597 38.819 50.392 38.2599 50.5003C37.7008 50.5966 37.2329 50.6647 36.9038 50.6928C36.5708 50.7249 36.3844 50.7409 36.3844 50.7409C36.3844 50.7409 36.3844 50.7409 36.3804 50.7409C36.2932 50.753 36.2298 50.8332 36.2417 50.9214C36.2536 51.0096 36.3329 51.0738 36.4201 51.0617C36.4201 51.0617 36.6104 51.0377 36.9395 50.9976C37.2726 50.9495 37.7484 50.8933 38.3115 50.7971C38.8785 50.7169 39.5327 50.5805 40.2385 50.4402C40.5914 50.368 40.9522 50.2838 41.317 50.1915C41.6858 50.1073 42.0585 50.0111 42.4272 49.9068C42.8 49.8065 43.1648 49.6862 43.5256 49.5659C43.8864 49.4496 44.2353 49.3173 44.5724 49.1809C44.5843 49.1769 44.5922 49.1729 44.6041 49.1689C43.4463 50.0552 42.229 50.8652 40.9364 51.5189C40.5874 51.6873 40.2385 51.8598 39.8777 52.0001C39.5248 52.1605 39.1521 52.2768 38.7873 52.4052C38.4145 52.5054 38.0458 52.6297 37.6651 52.6979C37.2924 52.7821 36.9038 52.8503 36.5232 52.9024C35.75 53.0107 34.9609 53.0909 34.1719 53.2714C33.6881 53.3837 33.1965 53.5401 32.7365 53.7727C32.9665 53.1511 33.2044 52.5415 33.4819 51.952C33.8864 51.0898 34.3701 50.2757 34.9887 49.598L34.9808 49.59Z" fill="#779192" />
    <path d="M21.7419 3.45867L13.6296 0L13.572 0.301469C13.4515 0.926333 13.3199 1.5649 13.1884 2.20347C13.0568 2.84751 12.9253 3.49156 12.8019 4.12191C11.9523 8.5398 11.3795 12.4863 13.0239 16.0272C14.3531 18.8912 16.9787 20.9384 19.6151 22.7198C22.2215 24.482 25.8007 26.184 28.9579 27.6146L29.1607 27.7078L29.2731 27.5132C29.4156 27.2665 29.5554 27.0116 29.687 26.7485C31.3012 23.5584 32.1508 19.242 31.8246 15.7148C31.4601 11.7683 29.4896 8.12597 26.5517 5.96909C25.0745 4.8838 23.378 4.16027 21.7364 3.46141L21.7419 3.45867Z" fill="#A7B9AF" />
    <path d="M14.1668 0.619347C17.5789 4.44527 20.2812 8.80835 22.9314 13.1769C24.2688 15.3585 25.3459 17.7017 26.3626 20.0449C27.3712 22.3936 28.3003 24.778 29.0046 27.2391C29.0293 27.324 28.9799 27.409 28.895 27.4337C28.8182 27.4556 28.7388 27.4172 28.7086 27.346C26.5956 22.7225 24.8854 17.9182 22.4435 13.4537C19.9934 9.01937 17.3816 4.57407 13.9366 0.833116C13.8763 0.770082 13.8791 0.668679 13.9421 0.611125C14.0051 0.550832 14.1065 0.553572 14.1668 0.619347Z" fill="white" />
    <path d="M15.0492 18.2388C16.5675 19.5872 18.6614 19.9764 20.5963 20.4149C22.5777 20.8616 24.5346 21.1302 26.5297 21.5221C26.6997 21.5495 26.6942 21.8181 26.5215 21.8373C23.4109 22.2073 20.4373 20.9411 17.546 19.9764C16.5867 19.6119 15.6494 19.146 14.8437 18.48C14.6847 18.3457 14.8903 18.1018 15.0492 18.2416V18.2388Z" fill="white" />
    <path d="M29.0211 8.54527C29.3856 9.51271 29.265 10.5377 29.1882 11.5353C28.895 14.4678 28.1276 17.6058 25.968 19.7435C25.8474 19.8641 25.6336 19.7106 25.7159 19.5571C27.0259 16.9672 28.5003 14.4239 28.8621 11.4969C28.9717 10.5679 29.1115 9.54286 28.7305 8.66586C28.6456 8.47675 28.9416 8.3452 29.0211 8.54527Z" fill="white" />
    <path d="M12.3059 10.7788C13.8653 11.8998 15.6467 12.711 17.4994 13.2043C19.3576 13.7278 21.2294 13.9196 23.1232 14.3142C23.2904 14.3444 23.2849 14.6075 23.115 14.6294C19.2452 15.1008 15.3069 13.0481 12.1278 11.0392C11.9551 10.9241 12.1305 10.6555 12.3059 10.7816V10.7788Z" fill="white" />
    <path d="M20.7744 10.3157C21.7063 9.01116 22.1639 7.43256 22.353 5.86492C22.4216 5.35242 22.4736 4.85088 22.5997 4.30824C22.6189 4.22054 22.7093 4.16299 22.797 4.18491C22.8491 4.19587 22.8902 4.23424 22.9121 4.28083C23.3616 5.3579 23.0464 6.56652 22.6079 7.58329C22.153 8.59732 21.5966 9.53462 21.043 10.4856C20.9361 10.6692 20.6566 10.4966 20.7772 10.3184L20.7744 10.3157Z" fill="white" />
    <path d="M30.8934 20.8396C30.2655 20.7201 29.633 20.5983 28.9957 20.6194C28.1429 20.6499 27.3018 20.9333 26.4514 20.8654C25.9804 20.8279 25.5236 20.6827 25.0527 20.6428C23.9679 20.5515 22.9652 21.0153 22.0538 21.6526L22.2483 21.3902C20.7746 20.6991 19.0386 20.9146 17.4735 21.3574C15.9085 21.8002 14.388 22.4562 12.7691 22.6225C11.4219 22.7608 9.78429 22.6835 9.05097 23.8244C8.79092 24.2297 8.70892 24.7194 8.61052 25.1927C8.28486 26.7671 7.7296 28.2946 6.96349 29.7097C6.14818 31.2161 5.05875 32.8163 5.41252 34.4844C5.11029 34.5149 4.81275 34.5688 4.64406 34.8054C4.48944 35.0256 4.51755 35.3232 4.55504 35.5902C4.84321 37.6426 5.25086 39.6785 5.76629 41.6864V41.6957C4.95566 43.3521 3.36721 44.9429 1.85841 46.0019C1.02201 46.5899 0.0544101 47.3209 0.089553 48.3424C0.105953 48.8367 0.368353 49.2866 0.649495 49.6919C2.97361 53.0515 7.0244 54.9352 9.24777 58.3628C9.8288 59.2601 10.295 60.2722 11.1361 60.9353C11.9749 61.5983 13.6898 61.8021 14.4021 60.4714C16.8152 61.6897 19.3642 62.8494 22.0585 62.7814C23.0823 62.7557 24.1624 62.5589 25.0925 62.9899C25.7251 63.2828 26.278 63.8591 26.9762 63.831C27.3018 63.8193 27.604 63.6717 27.8969 63.5265C29.0636 62.9478 30.2327 62.3691 31.3995 61.7904C31.7275 61.6287 32.0672 61.4554 32.2921 61.1672C32.5732 60.8064 32.6295 60.3261 32.7654 59.888C33.3089 58.1426 35.1316 57.0742 35.8368 55.3874C35.9071 55.2187 35.9657 55.0453 36.0149 54.8696L36.1367 54.8391C37.2238 55.3124 38.4163 55.795 39.5643 55.4998C40.5366 55.2491 41.2816 54.4854 41.9376 53.7263C42.6569 52.8922 43.3363 52.023 43.9689 51.121C44.6366 50.1698 45.2739 49.1296 45.3723 47.9722C45.4215 47.3865 45.3324 46.7867 45.4753 46.2174C45.7401 45.1491 46.7709 44.3549 46.8811 43.2608C46.942 42.661 46.71 42.0776 46.4851 41.5177C46.1079 40.5876 45.7331 39.6598 45.3559 38.7297C44.7397 37.2092 44.1235 35.6886 43.5074 34.1681C43.0224 32.9733 42.5116 31.7386 41.5651 30.8624C40.6186 29.9885 39.1028 29.5878 38.0204 30.2907L37.8423 30.286C37.8423 30.286 37.8423 30.2837 37.8423 30.2813C37.7439 28.7749 38.4116 27.2755 38.1867 25.7831C37.9524 24.2297 36.7693 22.9482 35.387 22.1985C34.0071 21.4488 32.435 21.1419 30.8911 20.8443L30.8934 20.8396Z" fill="white" />
    <path d="M29.6166 34.7538C31.8658 36.8179 33.4144 39.6973 33.7588 42.7359C34.0821 46.112 32.2289 49.2725 29.9985 51.6529C28.724 52.6298 27.255 51.3975 26.9879 50.0644C26.6131 48.5322 27.1871 46.9718 27.5549 45.5193C28.3304 42.6047 29.0497 39.6387 29.2488 36.6305C29.3308 35.3887 29.3144 34.1213 29.1926 32.8842C29.0661 31.4036 28.6092 28.9928 26.592 29.8385C25.6455 30.2251 24.4623 30.9303 23.4877 30.197L23.6681 30.2509C22.6466 30.3399 21.6439 30.7569 20.9129 31.4692C20.7278 31.6519 20.4889 31.7854 20.2546 31.8791C19.5189 32.1626 18.7411 32.2072 18.0921 32.671C16.349 33.7651 15.7563 36.197 16.7637 37.9963L16.5739 38.1065C15.3861 36.2017 15.9765 33.5566 17.8555 32.3149C18.2936 31.9986 18.8442 31.7948 19.3573 31.6683C19.7977 31.5394 20.2452 31.4457 20.5779 31.1294C21.419 30.2977 22.5646 29.8315 23.7267 29.7378C24.5186 30.3985 25.5541 29.6745 26.4186 29.3582C28.8552 28.4281 29.5557 30.9397 29.6893 32.8327C29.8134 34.1002 29.8134 35.4005 29.715 36.6633C29.4784 39.7183 28.724 42.6797 27.9063 45.613C27.5268 47.0538 26.9551 48.5087 27.2902 49.9918C27.4846 50.8891 28.2133 51.8379 29.2113 51.7114C29.7267 51.6739 30.0149 51.2663 30.3312 50.9102C31.6479 49.4014 32.7561 47.6606 33.2785 45.7231C34.3375 41.8105 32.3507 37.5606 29.4737 34.9178L29.6166 34.7515V34.7538Z" fill="#829B95" />
    <path d="M19.0644 35.7917C19.048 36.0705 19.362 36.3189 19.6572 36.3212C20.1375 36.3259 20.5803 35.9393 20.8942 35.5879C21.1261 35.3747 21.0231 34.9928 20.7372 34.9108C20.2569 34.8687 19.7532 35.1029 19.3479 35.3466C19.0691 35.5293 18.7997 35.7566 18.6544 36.0377C18.3592 36.6188 18.7739 37.3802 19.376 37.5676C20.7138 37.9964 21.9391 36.5743 22.0937 35.356C22.082 34.3345 20.7864 33.8987 19.9383 33.798C18.1015 33.7511 17.4713 35.8995 17.2089 37.3802C17.1128 38.4884 19.533 38.8656 20.3553 38.8468C21.3253 38.8281 22.3163 38.4439 22.895 37.6543C23.4503 36.8929 23.4971 35.7285 22.7966 35.0373C22.3397 34.5641 21.7564 34.1658 21.0933 34.051C21.0324 34.0393 20.9949 33.9831 21.0043 33.9221C21.0137 33.8659 21.0652 33.8284 21.1215 33.8331C22.1968 33.9573 23.3144 34.6742 23.6564 35.7425C24.2468 37.7808 22.2718 39.4021 20.3624 39.3622C19.2448 39.3365 18.1367 39.1139 17.2183 38.4556C16.6536 38.0081 16.6396 37.413 16.8528 36.7828C16.9863 36.2627 17.1316 35.7496 17.3612 35.2529C17.7899 34.2595 18.7973 33.3153 19.9641 33.4325C21.5596 33.6527 23.1105 34.7 22.0258 36.4126C21.8477 36.7265 21.6299 37.0217 21.3581 37.2701C20.5967 38.0526 18.9941 38.1697 18.474 37.0475C18.0757 36.2884 18.5724 35.5457 19.2308 35.1639C19.6876 34.8968 20.2593 34.632 20.7981 34.7117C21.1097 34.8031 21.3019 35.1545 21.2035 35.4637C21.1004 35.7402 20.8661 35.9065 20.6599 36.0987C20.271 36.4524 19.5728 36.7406 19.1019 36.3259C18.9496 36.2017 18.8325 36.0026 18.8419 35.7847C18.8419 35.7238 18.8957 35.6746 18.9567 35.6769C19.0176 35.6793 19.0644 35.7308 19.0621 35.7917H19.0644Z" fill="#829B95" />
    <path d="M20.9268 33.7605C22.138 33.5708 23.361 33.9245 24.4598 34.4165C24.8323 34.5758 25.2728 34.8218 25.3712 35.2576C25.6664 36.4361 25.5539 37.9214 24.4832 38.6852C24.1341 38.9336 23.7593 39.0905 23.3915 39.2498C21.8967 39.8777 18.0872 41.021 16.8549 39.5849C16.1286 38.6946 16.48 37.4248 17.0447 36.5649L17.2368 36.6727C17.0821 37.0288 16.9533 37.3943 16.9017 37.7692C16.5761 39.777 18.3075 39.8988 19.8327 39.6973C20.9971 39.5661 22.1474 39.3037 23.2462 38.889C23.9631 38.629 24.6847 38.3174 24.9987 37.577C25.2915 36.9515 25.4579 35.3748 24.8651 34.8992C23.7288 34.2221 22.2927 33.7629 20.9713 33.9808L20.9291 33.7652L20.9268 33.7605Z" fill="#829B95" />
    <path d="M25.4182 35.4801C25.9829 38.2353 24.3546 41.1803 21.8594 42.3892C19.8188 43.4271 17.5111 43.7457 15.4517 44.7204C15.1471 44.8656 14.8496 45.0202 14.5638 45.1959C14.3154 45.3154 14.0765 45.5591 14.1186 45.8496C14.1397 46.03 14.2405 46.119 14.4419 46.1823C14.8637 46.2994 15.3135 46.4166 15.7493 46.515C20.0203 47.5341 20.8918 45.1889 23.4268 42.5204C24.2327 41.602 25.9079 41.0819 25.8563 39.6856C25.847 39.477 25.8235 39.2287 25.8399 38.9804C26.0039 37.345 26.9059 36.0799 25.6736 34.5852C25.1441 33.9221 24.3335 33.4887 23.4619 33.5168C22.574 33.4981 21.679 33.641 20.8239 33.9081L20.7489 33.7019C21.829 33.2919 23.0238 33.0365 24.1789 33.1935C24.8981 33.3317 25.5541 33.7347 26.0274 34.2923C26.6763 35.0209 26.9481 36.0893 26.7466 37.0358C26.6295 37.7246 26.3952 38.3361 26.3554 39.0108C26.3296 39.4606 26.4467 39.9761 26.2593 40.4353C26.0039 41.1405 25.3479 41.6161 24.795 42.0261C22.5412 43.5349 21.3932 46.6907 18.4412 47.0866C17.497 47.2155 16.5599 47.0656 15.6673 46.857C15.2174 46.7469 14.7863 46.6298 14.3342 46.4962C14.217 46.4564 14.0835 46.3978 13.9757 46.2854C13.6641 45.955 13.7836 45.4115 14.0929 45.1421C14.4654 44.8562 14.9058 44.6641 15.3275 44.4603C17.4057 43.5208 19.7204 43.2186 21.754 42.1901C24.1648 41.0397 25.7603 38.1932 25.2027 35.5434L25.4135 35.4801H25.4182Z" fill="#829B95" />
    <path d="M20.552 42.9117C19.9546 42.5322 19.1299 42.0191 18.5535 41.6231C18.0639 41.2787 16.6511 40.2198 17.3704 39.5848L17.525 39.7418C17.5063 39.8144 17.5203 39.8543 17.5461 39.9128C17.6375 40.1167 17.86 40.3182 18.0123 40.4915C18.5324 41.0468 19.0666 41.6278 19.6828 42.087C19.9967 42.319 20.32 42.5392 20.6644 42.7196L20.5543 42.9094L20.552 42.9117Z" fill="#829B95" />
    <path d="M18.8467 33.7582C19.9595 31.5699 24.1837 30.0377 25.4559 32.8163C25.6082 33.1818 25.5754 33.6129 25.5004 33.9807H25.2802C25.2146 33.627 25.2052 33.3036 25.0318 32.9991C24.1907 31.4012 21.8854 31.502 20.5007 32.3407C19.8963 32.7086 19.3504 33.2193 19.0435 33.8542L18.8467 33.7558V33.7582Z" fill="#829B95" />
    <path d="M18.2351 46.7727C19.4909 47.7708 20.9411 48.5252 22.464 49.0172C23.9517 49.4576 25.5167 49.973 27.0583 49.5654L27.152 49.7645C25.177 50.9969 21.9532 49.2772 20.1398 48.2885C19.4346 47.8832 18.7576 47.4287 18.1016 46.9484L18.2351 46.775V46.7727Z" fill="#829B95" />
    <path d="M16.6911 39.0601C15.6134 37.4107 14.8215 35.5481 14.5685 33.5825C14.531 32.9147 14.3366 32.0783 14.8895 31.5582C15.1847 31.2935 15.5361 31.2021 15.8407 31.099L16.7731 30.8015L18.6427 30.2298C19.8563 29.9089 21.405 29.2177 22.5483 30.1057L22.4217 30.2861C21.2597 29.7074 19.9524 30.4454 18.788 30.7242L16.909 31.263C16.4404 31.4177 15.5103 31.5629 15.1472 31.8534C14.4982 32.3946 14.9996 34.6813 15.2151 35.4474C15.5759 36.6867 16.1359 37.8746 16.8715 38.9335L16.6911 39.0577V39.0601Z" fill="#829B95" />
    <path d="M15.5314 36.9234C14.4912 36.2533 12.9917 36.3025 11.9257 36.8835C10.8644 37.6028 10.4661 38.9804 10.3724 40.2057C10.2037 42.7618 11.3447 45.5216 10.1077 47.9605L10.0327 47.738C11.8648 48.5837 12.9988 50.3432 14.5404 51.5287C16.0796 52.6861 17.9516 53.3725 19.7696 53.9723C22.4756 54.8392 25.6197 55.0289 28.0703 53.3889C28.8622 52.8618 29.5417 52.1589 29.9962 51.3108L30.1953 51.4069C29.5885 52.7985 28.3585 53.8552 26.9809 54.4573C24.6591 55.5022 21.9766 55.2093 19.622 54.4526C17.7384 53.8247 15.8594 53.1031 14.278 51.8661C12.7434 50.6478 11.6704 48.8953 9.89682 48.0308L9.74219 47.9559L9.82184 47.8083C11.0589 45.4232 9.97179 42.736 10.1498 40.187C10.3302 38.0034 11.3142 36.1924 13.7438 36.2322C14.4115 36.2392 15.1003 36.347 15.6626 36.7406L15.5337 36.9187L15.5314 36.9234Z" fill="#829B95" />
    <path d="M25.2003 30.1384C24.1812 28.9037 22.3092 27.1606 20.6505 27.0716C19.6993 27.0599 18.8512 27.5683 17.9445 27.826C17.005 28.0978 16.0327 28.0814 15.1003 28.1938C13.2166 28.4 11.5251 29.4168 10.1686 30.6984C9.48211 31.345 8.87062 32.0596 8.29896 32.8186C7.56565 33.8144 6.65194 34.7679 5.3212 34.7796C4.84091 34.8312 4.69331 35.0865 4.77297 35.5551L4.8784 36.2556C5.33057 39.0623 5.98891 41.8363 6.84874 44.5446C7.13457 45.449 7.43914 46.3416 7.84679 47.1733C9.04868 49.891 12.0663 50.7321 14.3388 52.3229C14.8824 52.665 15.5852 52.7071 16.2178 52.7657C16.2787 52.7704 16.3256 52.8219 16.3209 52.8829C16.3186 52.9414 16.267 52.9859 16.2108 52.9859C15.8687 52.9836 15.5243 52.9719 15.1799 52.918C14.8402 52.8782 14.3834 52.754 14.1538 52.5947C11.6961 51.0625 8.70194 50.2635 7.38759 47.4029C6.94714 46.529 6.65194 45.6059 6.36377 44.6969C5.5016 41.9605 4.86902 39.1561 4.45903 36.3165C4.3864 35.7144 4.11228 34.782 4.86902 34.4891C5.21577 34.3462 5.62811 34.3837 5.95377 34.304C6.37548 34.2009 6.76205 33.9573 7.09942 33.648C8.10685 32.6546 8.87765 31.4106 9.96473 30.4781C11.0307 29.5035 12.2701 28.6929 13.6547 28.2594C15.0159 27.7979 16.5271 27.983 17.8812 27.6105C18.7926 27.3528 19.6642 26.8373 20.6505 26.8584C21.6486 26.8842 22.4943 27.4722 23.2792 28.0205C24.057 28.5851 24.7599 29.2505 25.3667 29.9978C25.451 30.115 25.2917 30.2462 25.1956 30.1361L25.2003 30.1384Z" fill="#829B95" />
    <path d="M17.4101 27.901C17.5319 25.7432 19.1508 24.1056 20.662 22.7467C21.4328 22.0649 22.2434 21.3925 23.211 20.9661C23.6913 20.7506 24.2161 20.6241 24.7479 20.6077C25.2868 20.5889 25.7975 20.7506 26.2919 20.8162C27.2852 20.9638 28.2809 20.5351 29.3516 20.5749C30.4012 20.6288 31.3969 20.8771 32.4231 21.0739C33.4329 21.2965 34.4473 21.58 35.3845 22.0649C36.7832 22.7795 38.0436 24.0329 38.381 25.6214C38.7207 27.163 38.0272 28.7655 38.1069 30.2532C38.1303 30.7405 38.2428 31.2349 38.3248 31.7527C38.4068 32.2681 38.4606 32.8304 38.313 33.388C38.0225 34.3837 37.2775 35.1475 37.8093 36.1525C38.2639 37.1295 38.299 38.2564 38.1701 39.3013C38.053 40.3416 37.8539 41.3396 37.8585 42.347C37.8585 42.8765 37.8257 43.4646 37.561 43.9472C36.748 45.4443 34.9183 45.7489 33.386 45.9035C33.2455 45.9105 33.222 45.7114 33.3579 45.6856C34.7613 45.4466 36.4809 45.1304 37.1908 43.7574C37.4017 43.3381 37.4134 42.8601 37.3993 42.3447C37.3689 41.2881 37.5774 40.2502 37.6758 39.2474C37.7859 38.2541 37.7461 37.2537 37.3314 36.34C36.7387 35.1217 37.4837 34.3087 37.8304 33.2568C37.9523 32.8116 37.9148 32.322 37.8375 31.8253C37.7625 31.3286 37.643 30.8132 37.6243 30.2696C37.5633 28.6695 38.2639 27.2403 37.971 25.7011C37.6758 24.2274 36.5231 23.0653 35.2205 22.3719C34.3302 21.8963 33.3485 21.6034 32.3552 21.3691C31.3665 21.1629 30.3497 20.8982 29.3423 20.8326C28.3465 20.774 27.3344 21.1887 26.2614 21.0388C25.2282 20.8162 24.277 20.6897 23.3 21.1606C22.3723 21.5636 21.571 22.2219 20.8026 22.8967C19.3195 24.211 17.7334 25.8182 17.628 27.9033C17.6256 28.0486 17.3984 28.0369 17.4078 27.894L17.4101 27.901Z" fill="#829B95" />
    <path d="M15.1519 52.8477C14.3507 53.4475 13.5119 53.9957 12.87 54.7431C11.9305 55.8208 11.4666 57.4936 12.2116 58.7868C12.7247 59.6373 13.69 60.0496 14.5475 60.4901C14.9926 60.7127 15.4401 60.9329 15.8923 61.1414C17.6892 61.9755 19.5987 62.6596 21.5737 62.7111C22.5788 62.7439 23.5815 62.5096 24.5936 62.7182C25.915 62.9712 26.4773 64.3136 27.9064 63.3929L28.5741 63.0555C29.2395 62.7182 30.5843 62.0434 31.2497 61.706C32.5336 61.1742 32.2641 60.5276 32.7257 59.4592C33.3419 58.0699 34.6773 57.093 35.3942 55.8325C35.8815 55.0242 35.9799 54.0426 36.1228 53.0492C36.2564 52.091 36.6312 49.5326 36.7765 48.6025C37.1607 46.7446 36.5164 46.0042 34.6984 45.6528C34.5601 45.6223 34.607 45.4138 34.7429 45.4373C35.7597 45.5661 36.9499 45.9503 37.2052 47.1007C37.3317 47.6419 37.2474 48.169 37.1888 48.6587L37.0061 50.1464L36.6148 53.1171C36.5117 53.8598 36.4415 54.647 36.1791 55.371C35.7363 56.5892 34.7101 57.5194 33.9487 58.4565C33.4848 59.0258 33.1146 59.6162 32.9436 60.3261C32.8335 60.8275 32.6132 61.4413 32.14 61.7342C31.6948 62.0411 30.5913 62.5167 30.104 62.7697C29.6589 62.9852 28.5156 63.5428 28.0845 63.7537C26.4093 64.7213 25.9525 63.4421 24.5163 63.0579C23.5862 62.8494 22.5788 63.0672 21.562 63.0157C19.02 62.9079 16.6771 61.8115 14.4444 60.6892C13.3339 60.1457 12.0336 59.4991 11.7267 58.1754C11.4174 56.9149 11.8836 55.5607 12.713 54.6048C13.376 53.8247 14.2288 53.2647 15.016 52.665C15.1355 52.5783 15.262 52.754 15.1472 52.8407L15.1519 52.8477Z" fill="#829B95" />
    <path d="M5.89283 41.8293C5.03066 43.5021 3.69289 44.8656 2.20986 45.9902C1.31489 46.6509 -0.00179215 47.4357 0.291065 48.7173C0.433979 49.2772 0.848664 49.7575 1.20946 50.2425C1.97089 51.1984 2.88226 52.0231 3.81706 52.8173C5.7054 54.4151 7.7718 55.8747 9.22672 57.9294C10.2318 59.2836 10.8995 61.4718 12.9261 61.3406C13.5048 61.3148 14.0319 61.0032 14.3341 60.5018C14.3669 60.4503 14.4349 60.4362 14.4864 60.4667C14.5333 60.4972 14.5497 60.5581 14.5263 60.6073C13.9288 61.9146 12.1365 62.0106 11.0588 61.2305C10.0116 60.4573 9.53831 59.225 8.80734 58.2269C7.38992 56.2121 5.38443 54.7501 3.56169 53.1148C2.63861 52.2901 1.73895 51.4163 0.977521 50.4276C0.101293 49.3288 -0.521906 48.1784 0.621407 46.9836C1.50935 46.0886 2.61283 45.5333 3.48672 44.6313C4.36998 43.7879 5.16186 42.825 5.69838 41.7309C5.76163 41.6137 5.95843 41.6793 5.89518 41.8269L5.89283 41.8293Z" fill="#829B95" />
    <path d="M5.3399 34.6508C4.90413 32.4509 6.58864 30.6281 7.38521 28.7398C7.8163 27.7862 8.13961 26.7882 8.3739 25.7714C8.6035 24.6585 8.69253 23.5129 9.88504 22.9928C10.8878 22.5382 11.9983 22.6015 13.0385 22.4422C14.053 22.2922 15.044 21.9666 16.0421 21.6339C18.0054 20.9662 20.3599 20.3453 22.3186 21.3832C22.3725 21.4113 22.3912 21.4793 22.3631 21.5332C22.3373 21.5824 22.2764 21.6034 22.2249 21.5824C20.2358 20.8186 18.1436 21.4863 16.2014 22.1236C15.201 22.4445 14.1795 22.7796 13.1041 22.9201C12.0733 23.049 11.0002 22.9623 10.0467 23.3512C8.99944 23.7472 8.89167 24.8717 8.66207 25.844C8.40435 26.8749 8.03887 27.8753 7.59607 28.8405C6.80887 30.7101 5.11733 32.4509 5.5531 34.6063C5.59058 34.7352 5.37504 34.8078 5.3399 34.6555V34.6508Z" fill="#829B95" />
    <path d="M37.9898 30.279C39.3745 29.4239 41.1738 30.1595 42.1086 31.338C43.0762 32.5188 43.5237 33.9901 44.1141 35.3654L45.8337 39.5075C46.1242 40.2713 46.9021 41.8855 47.0614 42.6751C47.4597 44.301 45.6721 45.3529 45.658 46.8547C45.6416 47.2085 45.6697 47.5833 45.6486 47.9769C45.6065 48.7759 45.3066 49.5279 44.9364 50.198C44.1679 51.5193 43.2449 52.6978 42.2585 53.8505C41.2745 55.0571 39.9461 56.1723 38.2593 55.8138C37.4908 55.6662 36.7926 55.3546 36.1226 55.0243C36.0687 54.9985 36.0453 54.9305 36.071 54.8767C36.0968 54.8251 36.1577 54.8017 36.2093 54.8228C36.9051 55.0875 37.6009 55.3569 38.3155 55.446C39.829 55.7107 40.9863 54.6377 41.8813 53.5295C42.3616 52.9625 42.8138 52.3768 43.2613 51.7841C44.1047 50.6314 45.0559 49.4037 45.1683 47.9488C45.2082 47.41 45.1402 46.7915 45.2902 46.2339C45.6205 44.9593 46.97 44.1042 46.6935 42.7453C46.567 42.0331 45.7986 40.3299 45.5479 39.627L43.8985 35.4567C43.3245 34.0979 42.8841 32.6312 41.9469 31.4762C41.0871 30.3657 39.3791 29.6628 38.1093 30.4664C37.9898 30.5484 37.868 30.3587 37.9898 30.2814V30.279Z" fill="#829B95" />
    <path d="M37.7089 34.2759C37.2825 34.7913 36.6219 34.9319 36.0713 35.2576C35.5043 35.5387 34.9467 35.8409 34.3141 35.9487L34.2603 35.8199C34.778 35.438 35.3801 35.2435 35.9752 35.028C36.5258 34.8031 37.231 34.6906 37.5965 34.1939L37.7113 34.2736L37.7089 34.2759Z" fill="#829B95" />
    <path d="M37.9173 29.2294C38.0438 30.7406 36.3382 31.2607 35.2676 31.8464C34.1125 32.4438 33.0161 33.1256 31.8423 33.6926L31.7673 33.5754C32.2757 33.1607 32.831 32.8093 33.4026 32.493C34.225 32.0315 35.1832 31.6051 36.0571 31.2349C36.6381 30.9866 37.2473 30.6961 37.5823 30.1385C37.7463 29.8714 37.8306 29.5527 37.7791 29.2505L37.9173 29.2294Z" fill="#829B95" />
    <path d="M25.9782 20.7647C26.6085 21.0833 26.5007 21.8823 26.3765 22.4422C26.0345 24.1876 25.6713 25.9799 24.7693 27.5356L24.6428 27.4793C24.9732 26.3384 25.423 25.256 25.7697 24.122C26.0017 23.2903 26.3344 22.4188 26.339 21.5519C26.318 21.2755 26.168 20.9967 25.922 20.8912L25.9782 20.7647Z" fill="#829B95" />
    <path d="M32.531 60.7806C32.8145 59.7826 31.882 59.0563 31.3244 58.3441C30.7223 57.5686 30.2655 56.6221 30.2444 55.624L30.3826 55.6006C30.6919 56.5096 30.9964 57.3976 31.5259 58.1988C32.0296 58.979 32.9387 59.7732 32.6646 60.8205L32.531 60.7806Z" fill="#829B95" />
    <path d="M25.7908 63.503C24.5186 63.1586 24.2421 62.6877 23.8907 61.4624C23.6049 60.5299 23.3753 59.56 23.4385 58.576L23.5768 58.5643C23.8087 59.5084 23.9141 60.455 24.1297 61.3991C24.2421 61.849 24.3077 62.355 24.5959 62.7252C24.8888 63.086 25.3691 63.2453 25.8283 63.3695L25.7884 63.503H25.7908Z" fill="#829B95" />
    <path d="M0.180821 48.0308C0.541621 48.3939 1.12499 48.1878 1.55373 48.0425C1.98013 47.8996 2.54008 47.6466 2.99225 47.595L3.04848 47.7215C2.64316 48.0659 2.12071 48.1878 1.61465 48.2815C1.11093 48.3494 0.511163 48.5111 0.0800781 48.1269L0.178478 48.0285L0.180821 48.0308Z" fill="#829B95" />
    <path d="M0.73846 49.6709C1.23046 49.8442 1.774 49.8114 2.29646 49.7365C3.88492 49.5115 5.35623 48.8837 6.87908 48.4104L6.93766 48.5369C5.55771 49.4038 3.906 49.6873 2.3152 49.8817C1.78337 49.9426 1.22577 49.9684 0.696289 49.8044L0.740803 49.6732L0.73846 49.6709Z" fill="#829B95" />
    <path d="M10.0771 47.7919C11.593 47.6068 13.2072 47.2741 14.6949 47.7802L14.6715 47.9184C13.1439 47.9114 11.6187 47.5857 10.1029 47.9301L10.0795 47.7919H10.0771Z" fill="#829B95" />
    <path d="M4.78483 34.8757C5.40803 35.4239 6.08277 35.9136 6.78328 36.354C7.39946 36.7546 8.29208 37.263 8.84265 37.7504L8.77237 37.8698C7.38774 37.3614 5.85786 35.8714 4.6958 34.9811L4.78483 34.8757Z" fill="#829B95" />
    <path d="M4.99777 37.6543C4.94389 37.7199 4.84549 37.6661 4.8408 37.5934C4.82674 37.5466 4.87594 37.4716 4.93452 37.4763C5.02823 37.481 5.054 37.5349 5.08212 37.563C5.82246 38.4837 6.90017 38.9781 7.77406 39.7442L7.70611 39.866C6.5628 39.5029 5.78029 38.4884 4.98372 37.6473C4.96263 37.6192 4.92983 37.6051 4.94154 37.6098C4.96497 37.6075 4.98372 37.5723 4.96732 37.5583C4.96263 37.5536 4.95092 37.5442 4.92983 37.5442C4.90874 37.5442 4.89703 37.5559 4.89234 37.5606L4.99543 37.652L4.99777 37.6543Z" fill="#829B95" />
    <path d="M7.18145 33.9292C7.55631 34.5641 8.29196 34.7679 8.75819 35.3045L8.69025 35.4263C7.93585 35.2974 7.54225 34.529 7.06665 34.0112L7.17911 33.9292H7.18145Z" fill="#829B95" />
    <path d="M12.371 22.6835C13.9009 22.6179 14.8638 24.0939 15.5924 25.2349L15.4917 25.3309C14.4069 24.5648 13.9829 22.6624 12.3851 22.8194L12.3687 22.6812L12.371 22.6835Z" fill="#829B95" />
    <path d="M8.23802 26.8632C8.09511 27.8073 8.79328 28.4914 9.37197 29.1334L9.29934 29.2529C8.33408 28.9553 8.067 27.7417 8.0998 26.8514L8.23802 26.8632Z" fill="#829B95" />
    <path d="M2.47216 51.6107C3.44913 51.852 4.37924 51.4444 5.34684 51.3741L5.39136 51.5053C4.5245 52.0676 3.41164 51.8333 2.44873 51.7466L2.47216 51.6084V51.6107Z" fill="#829B95" />
    <path d="M17.4547 27.8963C17.511 28.5851 18.0967 28.9881 18.3474 29.5902L18.249 29.6886C17.5906 29.3817 17.5086 28.5382 17.3188 27.9221L17.4547 27.8963Z" fill="#829B95" />
    <path d="M10.5224 38.5938C10.7215 37.9847 11.4712 38.0081 11.9773 38.1299C12.8441 38.2986 13.7485 38.5001 14.4584 39.0577L14.3951 39.1819C13.7086 39.0062 13.0948 38.7016 12.4294 38.4743C11.8812 38.2939 10.9324 37.891 10.6559 38.629L10.52 38.5938H10.5224Z" fill="#829B95" />
    <path d="M10.4942 39.3108C11.2111 39.5685 12.085 39.5404 12.6614 40.098L12.6005 40.2221C12.1998 40.1917 11.8835 39.9925 11.5321 39.8285C11.1924 39.6552 10.8339 39.5216 10.4614 39.4443L10.4942 39.3084V39.3108Z" fill="#829B95" />
</svg>