<?xml version="1.0" standalone="no"?>
<!DOCTYPE svg PUBLIC "-//W3C//DTD SVG 20010904//EN"
 "http://www.w3.org/TR/2001/REC-SVG-20010904/DTD/svg10.dtd">
<svg version="1.0" xmlns="http://www.w3.org/2000/svg"
 width="512.000000pt" height="512.000000pt" viewBox="0 0 512.000000 512.000000"
 preserveAspectRatio="xMidYMid meet">
<metadata>
Created by potrace 1.14, written by Peter Selinger 2001-2017
</metadata>
<g transform="translate(0.000000,512.000000) scale(0.100000,-0.100000)"
fill="#000000" stroke="none">
<path d="M2215 4365 c-280 -46 -478 -167 -624 -384 -97 -142 -149 -290 -215
-605 l-43 -201 -199 -3 -200 -2 -53 -253 c-29 -138 -55 -262 -58 -274 l-5 -23
199 -2 200 -3 -38 -180 c-67 -316 -349 -1674 -349 -1680 0 -3 161 -5 359 -5
l359 0 5 28 c94 448 353 1690 366 1752 l17 85 330 5 329 5 51 240 c28 132 53
255 57 273 l7 32 -344 0 -344 0 33 160 c51 246 105 339 233 402 67 33 67 33
217 33 148 -1 152 -1 259 -38 59 -21 109 -37 111 -35 1 2 40 132 87 290 l85
287 -56 20 c-158 57 -303 81 -516 86 -119 3 -197 0 -260 -10z"/>
<path d="M3712 4350 c-167 -30 -279 -104 -340 -226 -53 -104 -70 -274 -38
-371 23 -69 83 -135 154 -170 50 -24 71 -28 172 -31 302 -10 456 91 515 335
47 193 -24 370 -175 437 -69 31 -195 42 -288 26z"/>
<path d="M3403 3171 c-84 -4 -156 -11 -161 -16 -15 -17 -53 -166 -47 -185 3
-10 63 -58 133 -106 l127 -89 -110 -8 c-195 -14 -195 -14 -212 -55 -8 -19 -16
-62 -16 -95 l-2 -60 123 -86 c93 -65 118 -87 105 -92 -10 -4 -76 -10 -146 -14
-149 -8 -148 -8 -168 -117 -10 -55 -10 -70 1 -83 8 -9 67 -53 133 -98 l119
-82 -68 -6 c-38 -4 -98 -7 -134 -8 -97 -2 -112 -13 -133 -99 -23 -94 -22 -97
128 -200 l116 -80 -38 -6 c-21 -3 -85 -8 -143 -12 -70 -4 -111 -11 -121 -21
-20 -17 -44 -133 -35 -165 4 -15 52 -55 133 -111 126 -87 126 -87 87 -88 -116
-1 -257 -18 -271 -32 -12 -12 -113 -369 -113 -399 0 -5 72 -8 159 -8 l160 0
22 98 c12 53 22 98 23 99 1 1 91 9 201 18 120 11 209 23 221 31 24 14 51 126
41 167 -4 14 -49 52 -127 106 -66 46 -119 86 -117 88 2 2 67 8 143 14 87 6
144 15 152 23 17 17 44 135 37 163 -3 13 -53 55 -132 110 l-127 88 147 10
c106 7 150 14 161 25 20 20 45 140 35 167 -4 12 -62 59 -129 105 l-122 83 59
7 c32 4 98 10 146 14 102 7 108 12 128 112 10 45 10 68 3 80 -6 9 -66 55 -134
102 -97 68 -117 86 -99 87 13 2 79 7 147 11 88 6 127 13 138 24 8 8 22 45 31
82 13 58 13 69 0 89 -8 12 -87 73 -175 135 l-161 112 35 87 c19 49 34 89 34
90 0 2 -8 2 -17 1 -10 -1 -87 -4 -170 -7z"/>
</g>
</svg>
